<?xml version="1.0" encoding="utf-8"?>
<!-- Generator: Adobe Illustrator 17.0.1, SVG Export Plug-In . SVG Version: 6.00 Build 0)  -->
<!DOCTYPE svg PUBLIC "-//W3C//DTD SVG 1.1//EN" "http://www.w3.org/Graphics/SVG/1.1/DTD/svg11.dtd">
<svg version="1.1" id="profile" xmlns="http://www.w3.org/2000/svg" xmlns:xlink="http://www.w3.org/1999/xlink" x="0px" y="0px"
	 viewBox="0 0 595.28 595.28" enable-background="new 0 0 595.28 595.28" xml:space="preserve">
	<g>
		<defs>
			<circle id="SVGID_1_" cx="297.64" cy="297.64" r="297.523"/>
		</defs>
		<clipPath id="SVGID_2_">
			<use xlink:href="#SVGID_1_"  overflow="visible"/>
		</clipPath>
		<path clip-path="url(#SVGID_2_)" d="M391.017,497.438c0,0-3.014-22.019-3.562-29.358
			c-0.548-7.339-4.657-8.971-4.657-8.971l-2.74-52.736c19.451-23.378,25.205-76.386,25.205-76.386s8.767-4.078,13.698-32.077
			c4.931-27.999-6.301-33.164-6.301-33.164c3.288-36.698,2.74-79.648,2.74-79.648c0-101.123-117.76-97.861-117.76-97.861
			s-117.76-3.262-117.76,97.861c0,0-0.548,42.95,2.74,79.648c0,0-11.233,5.165-6.301,33.164
			c4.931,27.999,13.698,32.077,13.698,32.077s5.753,53.008,25.204,76.386l-2.74,52.736c0,0-4.109,1.631-4.657,8.971
			c-0.548,7.34-3.562,29.358-3.562,29.358l-91.503,39.144v76.114H297.64h184.88v-76.114L391.017,497.438z M309.525,376.833
			c-4.209,3.74-9.073,5.612-14.592,5.612c-5.707,0-10.687-1.848-14.942-5.541c-4.257-3.694-6.384-8.861-6.384-15.503
			c0-5.893,2.056-10.848,6.173-14.871c4.115-4.021,9.166-6.033,15.153-6.033c5.893,0,10.85,2.011,14.873,6.033
			c4.02,4.023,6.033,8.978,6.033,14.871C315.838,367.948,313.734,373.093,309.525,376.833z M361.926,246.917
			c-3.227,5.987-7.063,11.153-11.505,15.503c-4.443,4.349-12.417,11.669-23.92,21.957c-3.182,2.9-5.731,5.449-7.647,7.646
			c-1.918,2.199-3.345,4.209-4.278,6.033c-0.937,1.824-1.663,3.647-2.175,5.471c-0.515,1.824-1.287,5.028-2.315,9.611
			c-1.779,9.729-7.344,14.591-16.697,14.591c-4.865,0-8.957-1.589-12.276-4.77c-3.321-3.179-4.98-7.903-4.98-14.17
			c0-7.857,1.214-14.661,3.647-20.414c2.431-5.752,5.658-10.802,9.681-15.152c4.02-4.349,9.446-9.517,16.275-15.503
			c5.984-5.237,10.312-9.189,12.978-11.855c2.665-2.666,4.91-5.634,6.734-8.909c1.824-3.273,2.735-6.826,2.735-10.663
			c0-7.482-2.784-13.795-8.347-18.94c-5.565-5.143-12.746-7.716-21.536-7.716c-10.29,0-17.867,2.596-22.729,7.786
			c-4.864,5.191-8.979,12.838-12.346,22.939c-3.181,10.571-9.214,15.854-18.098,15.854c-5.24,0-9.659-1.846-13.259-5.542
			c-3.602-3.694-5.402-7.692-5.402-11.995c0-8.885,2.852-17.889,8.558-27.008c5.704-9.119,14.03-16.671,24.974-22.658
			c10.943-5.984,23.71-8.979,38.302-8.979c13.561,0,25.535,2.503,35.917,7.506c10.381,5.004,18.401,11.809,24.061,20.413
			c5.657,8.607,8.489,17.959,8.489,28.06C366.768,233.963,365.153,240.931,361.926,246.917z"/>
	</g>
</svg>
