<?xml version="1.0" encoding="utf-8"?>
<!-- Generator: Adobe Illustrator 17.0.1, SVG Export Plug-In . SVG Version: 6.00 Build 0)  -->
<!DOCTYPE svg PUBLIC "-//W3C//DTD SVG 1.1//EN" "http://www.w3.org/Graphics/SVG/1.1/DTD/svg11.dtd">
<svg version="1.1" id="project" xmlns="http://www.w3.org/2000/svg" xmlns:xlink="http://www.w3.org/1999/xlink" x="0px" y="0px"
	 viewBox="0 0 595.28 595.28" enable-background="new 0 0 595.28 595.28" xml:space="preserve">
	<g>
		<path d="M79.437,165.916h274.512c6.664,0,12.066-5.402,12.066-12.066s-5.402-12.066-12.066-12.066H79.437
			c-6.664,0-12.066,5.402-12.066,12.066S72.773,165.916,79.437,165.916z"/>
		<path d="M79.437,214.182h274.512c6.664,0,12.066-5.402,12.066-12.066s-5.402-12.066-12.066-12.066H79.437
			c-6.664,0-12.066,5.402-12.066,12.066S72.773,214.182,79.437,214.182z"/>
		<path d="M134.742,246.61H85.471c-9.996,0-18.1,8.103-18.1,18.1v46.757c0,9.996,8.104,18.1,18.1,18.1h49.271
			c9.996,0,18.1-8.104,18.1-18.1V264.71C152.842,254.714,144.738,246.61,134.742,246.61z M128.96,307.697H91.252v-37.708h37.708
			V307.697z"/>
		<path d="M134.742,355.962H85.471c-9.996,0-18.1,8.103-18.1,18.1v46.757c0,9.996,8.104,18.1,18.1,18.1h49.271
			c9.996,0,18.1-8.104,18.1-18.1v-46.757C152.842,364.066,144.738,355.962,134.742,355.962z M128.96,416.294H91.252v-37.708h37.708
			V416.294z"/>
		<path d="M586.982,129.465c0,0-46.129-47.386-56.31-57.567c-10.181-10.181-19.357,0-19.357,0
			s-0.003,0.003-79.94,80.087V62.345c0-9.996-8.104-18.1-18.1-18.1h-87.482V18.102c0-9.996-8.104-18.1-18.1-18.1H124.687
			c-9.996,0-18.1,8.103-18.1,18.1v26.144H18.1c-9.996,0-18.1,8.103-18.1,18.1V577.18c0,9.996,8.103,18.1,18.1,18.1h395.176
			c9.996,0,18.1-8.104,18.1-18.1V302.229c70.456-70.195,146.845-146.135,153.847-152.402
			C597.792,138.578,586.982,129.465,586.982,129.465z M131.725,32.631c0-5.869,6.282-10.627,14.031-10.627H287.63
			c7.749,0,14.031,4.758,14.031,10.627V73.96c0,5.869-6.282,10.627-14.031,10.627H145.757c-7.749,0-14.031-4.758-14.031-10.627
			V32.631z M405.167,553.594c0,9.139-7.119,16.547-15.9,16.547H42.109c-8.781,0-15.9-7.409-15.9-16.547V82.915
			c0-9.139,7.119-16.547,15.9-16.547h64.478v22.122c0,9.996,8.104,18.1,18.1,18.1h183.008c9.996,0,18.1-8.103,18.1-18.1V66.368
			h63.472c8.782,0,15.9,7.409,15.9,16.547v95.327c-39.464,39.537-93.594,93.766-167.86,168.168l-60.332,117.145
			c-2.267,4.401-7.039,11.564,0,18.854c6.881,7.127,14.58,3.017,14.58,3.017L310.46,422.83c0,0,42.833-42.773,94.707-94.482V553.594z
				M256.16,360.487l40.724,42.704l-82.768,42.704L256.16,360.487z M316.241,385.374l-42.233-44.244l191.429-189.418l41.353,43.238
			L316.241,385.374z M523.131,176.851l-40.159-40.913l37.708-37.896l40.724,39.97L523.131,176.851z"/>
	</g>
</svg>
