<?xml version="1.0" encoding="utf-8"?>
<!-- Generator: Adobe Illustrator 17.0.1, SVG Export Plug-In . SVG Version: 6.00 Build 0)  -->
<!DOCTYPE svg PUBLIC "-//W3C//DTD SVG 1.1//EN" "http://www.w3.org/Graphics/SVG/1.1/DTD/svg11.dtd">
<svg version="1.1" id="verify" xmlns="http://www.w3.org/2000/svg" xmlns:xlink="http://www.w3.org/1999/xlink" x="0px" y="0px"
	 viewBox="0 0 595.28 595.28" enable-background="new 0 0 595.28 595.28" xml:space="preserve">
	<g>
		<path d="M576.128,482.546l-111.504-86.524c27.389-40.54,43.382-89.412,43.382-142.019
			C508.006,113.721,394.285,0,254.003,0S0,113.721,0,254.003s113.721,254.003,254.003,254.003c50.022,0,96.66-14.468,135.975-39.435
			l91.537,104.558c22.508,27.362,66.471,27.029,92.598,2.015C600.24,550.13,603.588,506.235,576.128,482.546z M254.003,456.675
			c-111.932,0-202.671-90.739-202.671-202.671S142.071,51.332,254.003,51.332s202.671,90.739,202.671,202.671
			S365.935,456.675,254.003,456.675z"/>
		<path d="M363.669,128.209c-12.429-6.566-27.827-1.814-34.393,10.615L221.525,311.936l-43.075-55.609
			c-7.69-11.766-23.463-15.07-35.229-7.38c-11.766,7.69-15.07,23.463-7.38,35.229c0,0,53.212,70.737,64.291,85.636
			c11.079,14.899,24.449,13.31,24.449,13.31c13.753,0,21.393-13.883,21.393-13.883l128.31-206.637
			C380.85,150.173,376.098,134.775,363.669,128.209z"/>
	</g>
</svg>
