<?xml version="1.0" encoding="utf-8"?>
<!-- Generator: Adobe Illustrator 17.0.1, SVG Export Plug-In . SVG Version: 6.00 Build 0)  -->
<!DOCTYPE svg PUBLIC "-//W3C//DTD SVG 1.1//EN" "http://www.w3.org/Graphics/SVG/1.1/DTD/svg11.dtd">
<svg version="1.1" id="Livello_1" xmlns="http://www.w3.org/2000/svg" xmlns:xlink="http://www.w3.org/1999/xlink" x="0px" y="0px"
	 width="512px" height="456px" viewBox="0 0 512 456" enable-background="new 0 0 512 456" xml:space="preserve">
<g>
	<linearGradient id="SVGID_1_" gradientUnits="userSpaceOnUse" x1="134.0551" y1="222.6025" x2="236.7356" y2="222.6025">
		<stop  offset="0" style="stop-color:#B36028"/>
		<stop  offset="0.6773" style="stop-color:#7E481E"/>
		<stop  offset="1" style="stop-color:#633F18"/>
	</linearGradient>
	<path fill="url(#SVGID_1_)" stroke="#703B19" stroke-width="0.25" stroke-miterlimit="10" d="M135.26,185.648
		c0,0,35.231,59.32,93.948,28.305v37.84c0,0-49.082,37.74-102.681-53.197"/>
	<g>
		<linearGradient id="SVGID_2_" gradientUnits="userSpaceOnUse" x1="218.7343" y1="366.4704" x2="326.5811" y2="366.4704">
			<stop  offset="0" style="stop-color:#B36028"/>
			<stop  offset="0.6773" style="stop-color:#7E481E"/>
			<stop  offset="1" style="stop-color:#633F18"/>
		</linearGradient>
		<path fill="url(#SVGID_2_)" stroke="#703B19" stroke-width="0.25" stroke-miterlimit="10" d="M239.205,298.757
			c0,0-40.941,79.265,13.122,114.257c0,0-29.393,3.674-33.592,21.17l87.471-1.902l20.376-1.826l-3.487-111.659L239.205,298.757z"/>
		<g>
			<path fill="#6D3919" d="M229.11,433.457c0,0,0.088-0.422,0.39-1.08c0.145-0.334,0.364-0.715,0.625-1.147
				c0.289-0.411,0.598-0.891,1.019-1.345c0.385-0.486,0.889-0.929,1.397-1.422c0.561-0.428,1.105-0.947,1.768-1.343
				c0.322-0.211,0.65-0.425,0.981-0.642c0.348-0.188,0.701-0.379,1.056-0.571c0.7-0.407,1.462-0.713,2.214-1.038
				c0.742-0.353,1.534-0.574,2.293-0.845c0.756-0.284,1.529-0.466,2.271-0.661c0.743-0.194,1.457-0.396,2.152-0.508
				c0.691-0.132,1.344-0.257,1.947-0.372c0.6-0.132,1.164-0.166,1.657-0.24c0.495-0.063,0.926-0.118,1.281-0.163
				c0.71-0.091,1.116-0.142,1.116-0.142s-0.405,0.056-1.114,0.153c-0.354,0.049-0.785,0.108-1.279,0.176
				c-0.492,0.079-1.055,0.118-1.653,0.256c-0.601,0.121-1.252,0.252-1.941,0.39c-0.693,0.118-1.405,0.327-2.144,0.528
				c-0.739,0.202-1.508,0.391-2.26,0.681c-0.754,0.278-1.542,0.506-2.277,0.864c-0.746,0.331-1.501,0.643-2.193,1.054
				c-0.351,0.194-0.699,0.387-1.043,0.577c-0.327,0.218-0.65,0.434-0.967,0.646c-0.654,0.399-1.187,0.917-1.737,1.346
				c-0.496,0.492-0.99,0.933-1.364,1.415c-0.41,0.451-0.708,0.924-0.988,1.33c-0.251,0.425-0.462,0.798-0.599,1.124
				c-0.288,0.648-0.364,1.035-0.364,1.035L229.11,433.457z"/>
		</g>
	</g>
	<g>
		<defs>
			<path id="SVGID_3_" d="M508.299,182.629c-40.957,19.026-39.495,58.779-39.495,58.779
				c-3.861,125.374-82.259,133.983-82.259,133.983l19.275-58.238c0,0,37.595-2.307,47.307-77.806c0,0,2.287-50.043,46.877-67.271
				c0,0,8.381-3.486,11.217,2.102C514.058,179.766,508.299,182.629,508.299,182.629z"/>
		</defs>
		<clipPath id="SVGID_4_">
			<use xlink:href="#SVGID_3_"  overflow="visible"/>
		</clipPath>
		
			<linearGradient id="SVGID_5_" gradientUnits="userSpaceOnUse" x1="511.3748" y1="232.3059" x2="439.0047" y2="347.3745" gradientTransform="matrix(0.9532 0.3023 -0.3023 0.9532 15.8928 -85.8852)">
			<stop  offset="0" style="stop-color:#B36028"/>
			<stop  offset="0.6773" style="stop-color:#7E481E"/>
			<stop  offset="1" style="stop-color:#633F18"/>
		</linearGradient>
		<polygon clip-path="url(#SVGID_4_)" fill="url(#SVGID_5_)" stroke="#703B19" stroke-miterlimit="10" points="529.584,178.222 
			500.764,157.442 362.973,253.929 379.987,406.78 458.471,364.245 		"/>
		
			<linearGradient id="SVGID_6_" gradientUnits="userSpaceOnUse" x1="471.0092" y1="289.4089" x2="534.8153" y2="289.4089" gradientTransform="matrix(0.9532 0.3023 -0.3023 0.9532 15.8928 -85.8852)">
			<stop  offset="0" style="stop-color:#DEA92A"/>
			<stop  offset="1" style="stop-color:#C9842B"/>
		</linearGradient>
		<path clip-path="url(#SVGID_4_)" fill="url(#SVGID_6_)" d="M416.839,307.389c0,0,32.969,4.634,20.574,46.783l-36.947,23.208
			c0,0,27.38-37.398-18.564-59.242L416.839,307.389z"/>
		
			<linearGradient id="SVGID_7_" gradientUnits="userSpaceOnUse" x1="502.334" y1="200.5183" x2="540.2478" y2="200.5183" gradientTransform="matrix(0.9083 0.4182 -0.4182 0.9083 67.728 -123.2092)">
			<stop  offset="0" style="stop-color:#DEA92A"/>
			<stop  offset="1" style="stop-color:#C9842B"/>
		</linearGradient>
		<path clip-path="url(#SVGID_4_)" fill="url(#SVGID_7_)" d="M434.176,284.213c0,0,19.628-7.251,33.598,15.47l7.856-25.906
			c0,0-9.318-19.561-31.659-13.05L434.176,284.213z"/>
		
			<linearGradient id="SVGID_8_" gradientUnits="userSpaceOnUse" x1="513.2195" y1="170.6627" x2="542.3484" y2="170.6627" gradientTransform="matrix(0.9798 0.2002 -0.2002 0.9798 -17.8695 -48.7003)">
			<stop  offset="0" style="stop-color:#DEA92A"/>
			<stop  offset="1" style="stop-color:#C9842B"/>
		</linearGradient>
		<path clip-path="url(#SVGID_4_)" fill="url(#SVGID_8_)" d="M448.427,232.852c0,0,12.826-9.649,24.638,6.45l7.419-17.833
			c0,0-6.2-15.188-26.347-9.63L448.427,232.852z"/>
		
			<linearGradient id="SVGID_9_" gradientUnits="userSpaceOnUse" x1="515.8585" y1="118.3412" x2="547.7615" y2="118.3412" gradientTransform="matrix(0.9532 0.3023 -0.3023 0.9532 15.8928 -85.8852)">
			<stop  offset="0" style="stop-color:#DEA92A"/>
			<stop  offset="1" style="stop-color:#C9842B"/>
		</linearGradient>
		<path clip-path="url(#SVGID_4_)" fill="url(#SVGID_9_)" d="M470.539,186.986c0,0,14.996-4.461,18.919,13.76l12.889-8.524
			c0,0,1.548-14.061-14.275-16.168L470.539,186.986z"/>
	</g>
	<g>
		<defs>
			<path id="SVGID_10_" d="M214.821,124.208c0,0,16.665,40.857,12.343,98.652c-4.323,57.794-0.362,194.867,116.526,173.058
				l72.805-42.405c0,0,27.134-72.562-60.527-135.738c-58.945-42.481-97.353-50.351-119.523-108.507L214.821,124.208z"/>
		</defs>
		<clipPath id="SVGID_11_">
			<use xlink:href="#SVGID_10_"  overflow="visible"/>
		</clipPath>
		
			<linearGradient id="SVGID_12_" gradientUnits="userSpaceOnUse" x1="366.4229" y1="203.5815" x2="357.3232" y2="110.8378" gradientTransform="matrix(0.9529 -0.3032 0.3032 0.9529 -148.9347 115.9561)">
			<stop  offset="0" style="stop-color:#B36028"/>
			<stop  offset="0.248" style="stop-color:#B05F27"/>
			<stop  offset="0.4628" style="stop-color:#A55A25"/>
			<stop  offset="0.6652" style="stop-color:#935322"/>
			<stop  offset="0.8588" style="stop-color:#7A491D"/>
			<stop  offset="1" style="stop-color:#633F18"/>
		</linearGradient>
		<polygon clip-path="url(#SVGID_11_)" fill="url(#SVGID_12_)" points="205.552,121.267 249.66,95.537 310.874,172.774 
			386.846,220.404 440.38,358.703 263.825,432.471 210.867,348.942 206.146,242.004 200.064,153.816 		"/>
		
			<linearGradient id="SVGID_13_" gradientUnits="userSpaceOnUse" x1="349.3193" y1="320.7648" x2="347.0065" y2="410.2296" gradientTransform="matrix(0.9529 -0.3032 0.3032 0.9529 -148.9347 115.9561)">
			<stop  offset="0" style="stop-color:#DEA92A"/>
			<stop  offset="1" style="stop-color:#C9842B"/>
		</linearGradient>
		<path clip-path="url(#SVGID_11_)" fill="url(#SVGID_13_)" d="M231.664,311.284c0,0,38.006,19.503,112.984-10.007l27.251,84.078
			l-129.075,41.074L231.664,311.284z"/>
	</g>
	<path fill="#B36028" d="M259.785,76.674c0,0,33.25-27.204,25.027-45.237c-10.156-22.27-48.557,20.136-48.557,20.136
		s-22.721-11.94-41.109-6.147c0,0-5.198-34.982-23.272-30.971c-14.785,3.28,4.148,45.311,4.148,45.311s-32.686,26.253-0.422,56.198
		c0,0-5.22,17.476,14.568,21.531s25.118-8.143,25.118-8.143s40.295,8.5,48.86-26.262C264.147,103.09,267.484,90.274,259.785,76.674z
		"/>
	<path fill="#DEA92A" d="M186.057,60.989c8.456-0.454,14.794,6.449,17.261,16.524c5.588-9.367,16.744-13.813,24.87-10.437
		c9.105,3.783,12.451,16.324,7.473,28.012s-16.393,18.096-25.498,14.313c-4.33-1.799-7.339-5.591-8.788-10.319
		c-2.972,4.557-7.369,7.547-12.444,7.82c-9.845,0.529-18.47-9.32-19.263-21.999S176.212,61.519,186.057,60.989z"/>
	
		<linearGradient id="SVGID_14_" gradientUnits="userSpaceOnUse" x1="435.1102" y1="12.3684" x2="455.7272" y2="44.8084" gradientTransform="matrix(-0.9751 -0.2217 -0.2217 0.9751 703.7006 120.6065)">
		<stop  offset="0" style="stop-color:#F27575"/>
		<stop  offset="0.9856" style="stop-color:#D24258"/>
	</linearGradient>
	<path fill="url(#SVGID_14_)" d="M257.781,73.797c0,0-8.859-13.846-18.099-19.819c0,0,30.835-36.899,40.523-21.245
		C289.893,48.387,257.781,73.797,257.781,73.797z"/>
	
		<linearGradient id="SVGID_15_" gradientUnits="userSpaceOnUse" x1="537.1895" y1="25.6945" x2="520.7914" y2="46.5946" gradientTransform="matrix(-0.9751 -0.2217 -0.2217 0.9751 703.7006 120.6065)">
		<stop  offset="0" style="stop-color:#F27575"/>
		<stop  offset="0.9856" style="stop-color:#D24258"/>
	</linearGradient>
	<path fill="url(#SVGID_15_)" d="M191.243,47.246c0,0-7.813,4.014-12.503,9.292c0,0-15.415-36.887-6.18-38.05
		C181.794,17.326,189.332,36.821,191.243,47.246z"/>
	<g>
		<path fill="#6D3919" d="M193.612,120.2c0,0-0.365,1.056-0.822,2.665c-0.468,1.605-1.007,3.772-1.363,5.971
			c-0.186,1.097-0.347,2.199-0.436,3.239c-0.031,0.52-0.094,1.023-0.096,1.501c-0.006,0.478-0.03,0.931-0.019,1.348
			c0.032,0.834,0.037,1.532,0.107,2.015c0.047,0.486,0.075,0.764,0.075,0.764s-0.042-0.276-0.116-0.759
			c-0.089-0.482-0.159-1.178-0.2-2.017c-0.02-0.419-0.003-0.874-0.007-1.355c-0.007-0.482,0.046-0.987,0.068-1.511
			c0.07-1.048,0.209-2.159,0.378-3.266c0.399-2.204,0.981-4.368,1.48-5.968C193.173,121.229,193.612,120.2,193.612,120.2z"/>
	</g>
	<g>
		<g>
			<path fill="#B36028" d="M346.649,292.433c0,0-37.166,37.037-33.191,81.07c0,0,6.135,32.266,27.501,37.898
				c0,0-28.819,2.56-42.483,30.464l110.554-3.38c0,0,15.058-85.192,10.421-118.643"/>
			<path fill="#703A1A" d="M346.649,292.433c-2.616,2.695-5.042,5.568-7.376,8.509c-2.329,2.946-4.541,5.983-6.633,9.101
				c-4.18,6.237-7.884,12.801-10.94,19.661c-3.052,6.857-5.449,14.022-6.906,21.389c-1.46,7.361-1.958,14.926-1.284,22.404
				l-0.001-0.005c0.844,3.998,2.068,7.915,3.539,11.727c1.485,3.807,3.26,7.509,5.427,10.974c2.168,3.457,4.739,6.691,7.83,9.364
				c3.078,2.672,6.718,4.739,10.673,5.767l0.41,0.107l-0.423,0.048c-2.244,0.257-4.466,0.744-6.651,1.331
				c-2.187,0.588-4.337,1.313-6.44,2.152c-1.052,0.42-2.089,0.874-3.118,1.347c-1.024,0.483-2.037,0.99-3.034,1.527
				c-0.991,0.547-1.98,1.099-2.936,1.705c-0.971,0.582-1.901,1.229-2.833,1.871c-0.921,0.659-1.83,1.332-2.707,2.049
				c-0.89,0.699-1.735,1.454-2.578,2.208c-0.828,0.772-1.652,1.548-2.425,2.375c-0.806,0.796-1.524,1.673-2.282,2.513
				c-0.701,0.887-1.447,1.742-2.098,2.668c-0.674,0.909-1.33,1.832-1.932,2.79c-0.64,0.934-1.187,1.926-1.763,2.9
				c-0.569,0.978-1.057,2.001-1.589,2.999l-0.107-0.166l110.556-3.319l-0.052,0.045c1.699-9.803,3.225-19.636,4.642-29.484
				c1.406-9.849,2.694-19.717,3.779-29.607c1.087-9.889,1.999-19.801,2.52-29.738c0.144-2.483,0.229-4.97,0.307-7.455
				c0.076-2.486,0.099-4.974,0.102-7.461c-0.024-2.487-0.076-4.974-0.207-7.459c-0.056-1.242-0.176-2.481-0.261-3.722
				c-0.108-1.239-0.274-2.472-0.409-3.708c0.135,1.236,0.302,2.469,0.412,3.708c0.086,1.241,0.207,2.479,0.264,3.722
				c0.132,2.484,0.188,4.971,0.214,7.459c0,2.488-0.021,4.975-0.095,7.462c-0.076,2.486-0.159,4.973-0.301,7.456
				c-0.513,9.937-1.416,19.851-2.494,29.742c-1.075,9.892-2.355,19.761-3.752,29.613c-1.408,9.85-2.925,19.685-4.615,29.491
				l-0.008,0.044l-0.045,0.001L298.48,441.98l-0.199,0.006l0.092-0.172c0.536-1.002,1.028-2.028,1.6-3.009
				c0.579-0.977,1.13-1.972,1.774-2.91c0.606-0.962,1.265-1.887,1.944-2.799c0.655-0.929,1.405-1.786,2.11-2.676
				c0.762-0.843,1.484-1.722,2.294-2.52c0.778-0.829,1.606-1.607,2.438-2.381c0.847-0.756,1.696-1.513,2.59-2.213
				c0.881-0.718,1.795-1.392,2.72-2.052c0.936-0.643,1.87-1.291,2.845-1.873c0.96-0.607,1.954-1.159,2.948-1.707
				c1.001-0.538,2.017-1.045,3.045-1.528c1.032-0.473,2.074-0.927,3.129-1.346c2.11-0.839,4.267-1.563,6.461-2.15
				c2.194-0.586,4.417-1.071,6.681-1.327l-0.013,0.155c-3.979-1.039-7.638-3.123-10.727-5.81c-3.102-2.689-5.677-5.935-7.847-9.403
				c-2.169-3.476-3.943-7.187-5.426-11.001c-1.47-3.82-2.69-7.74-3.532-11.75l0-0.002l0-0.003
				c-0.666-7.49-0.159-15.063,1.311-22.429c1.467-7.372,3.873-14.539,6.935-21.395c3.065-6.86,6.778-13.421,10.966-19.655
				c2.096-3.116,4.312-6.152,6.644-9.095C341.601,297.996,344.03,295.125,346.649,292.433z"/>
		</g>
		<g>
			<path fill="#6D3919" d="M309.451,440.304c0,0,0.098-0.491,0.415-1.282c0.155-0.398,0.378-0.865,0.655-1.39
				c0.297-0.511,0.613-1.104,1.05-1.687c0.405-0.607,0.906-1.215,1.448-1.849c0.551-0.623,1.168-1.252,1.83-1.872
				c0.688-0.592,1.369-1.241,2.151-1.789c0.381-0.286,0.765-0.574,1.151-0.863l1.218-0.785c0.409-0.257,0.81-0.53,1.224-0.774
				c0.423-0.231,0.844-0.46,1.262-0.688c0.418-0.228,0.832-0.454,1.242-0.677c0.423-0.196,0.841-0.389,1.252-0.58
				c0.83-0.363,1.603-0.781,2.388-1.057c0.775-0.299,1.507-0.581,2.183-0.841c0.67-0.277,1.309-0.461,1.869-0.641
				c0.561-0.178,1.05-0.334,1.452-0.462c0.805-0.256,1.265-0.402,1.265-0.402s-0.459,0.15-1.262,0.413
				c-0.401,0.131-0.889,0.291-1.448,0.474c-0.558,0.185-1.195,0.374-1.863,0.656c-0.673,0.266-1.403,0.554-2.174,0.858
				c-0.781,0.281-1.551,0.706-2.376,1.075c-0.409,0.193-0.824,0.39-1.245,0.589c-0.407,0.226-0.818,0.455-1.233,0.686
				c-0.415,0.231-0.833,0.463-1.253,0.696c-0.412,0.247-0.809,0.522-1.214,0.781l-1.207,0.792c-0.382,0.291-0.762,0.581-1.139,0.869
				c-0.774,0.551-1.445,1.202-2.125,1.796c-0.652,0.621-1.26,1.251-1.801,1.873c-0.533,0.632-1.024,1.239-1.42,1.842
				c-0.428,0.58-0.734,1.168-1.024,1.674c-0.269,0.519-0.484,0.979-0.633,1.371c-0.305,0.782-0.393,1.244-0.393,1.244
				L309.451,440.304z"/>
		</g>
	</g>
	<g>
		
			<rect x="154.242" y="134.721" transform="matrix(-0.9999 -0.0126 0.0126 -0.9999 309.1159 278.4498)" fill="#9F3C25" width="2.386" height="7.062"/>
		<ellipse fill="#9F3C25" cx="65.444" cy="130.505" rx="8.588" ry="9.352"/>
		<path fill="#D0CED0" d="M126.136,121.869c0,0-38.648,1.431-51.531-36.358l-2.147-0.573l-8.159,90.465l1.431-0.716
			c0,0,6.012-23.332,59.404-22.473L126.136,121.869z"/>
		<path fill="#D0CED0" d="M125.182,144.754c-0.124,3.933,2.851,7.218,6.643,7.337l15.738,0.495c3.793,0.119,6.968-2.972,7.091-6.905
			l0.448-14.242c0.124-3.933-2.851-7.218-6.643-7.337l-15.738-0.495c-3.793-0.119-6.968,2.972-7.091,6.905L125.182,144.754z"/>
		<path fill="#9F3C25" d="M128.036,198.959c-0.038,2.213,3.024,4.061,6.84,4.127l0,0c3.816,0.066,6.941-1.674,6.979-3.888l0.447-42
			c0.038-2.213-3.024-4.061-6.84-4.127l0,0c-3.816-0.066-6.941,1.674-6.979,3.888L128.036,198.959z"/>
		<path fill="#DD4932" d="M122.77,150.005c-0.124,3.961,2.85,7.268,6.643,7.387l11.446,0.358c3.793,0.119,6.968-2.996,7.092-6.957
			l0.824-26.297c0.124-3.961-2.85-7.268-6.643-7.387l-11.446-0.358c-3.793-0.119-6.968,2.996-7.092,6.957L122.77,150.005z"/>
		<path fill="#DD4932" d="M60.274,174.274c-0.17,1.784,1.138,3.368,2.922,3.538l0,0c1.784,0.17,3.368-1.138,3.538-2.922
			l8.461-88.727c0.17-1.784-1.138-3.368-2.922-3.538l0,0c-1.784-0.17-3.368,1.138-3.538,2.922L60.274,174.274z"/>
	</g>
	<g>
		<path fill="#B36028" stroke="#703A1A" stroke-width="0.25" stroke-miterlimit="10" d="M124.277,194.063
			c0,0-15.766-2.023-15.096-14.587c0.671-12.564,13.013-17.218,28.514-14.161c17.276,3.407,9.896,18.739,9.896,18.739
			S141.385,197.044,124.277,194.063z"/>
		<g>
			<path fill="#703A1A" d="M149.116,176.478c0,0-1.465-0.655-3.743-1.415c-1.132-0.399-2.476-0.795-3.922-1.193
				c-0.73-0.173-1.476-0.381-2.248-0.539c-0.77-0.161-1.55-0.337-2.341-0.46c-0.785-0.154-1.573-0.286-2.354-0.385
				c-0.778-0.124-1.548-0.201-2.295-0.266c-0.745-0.085-1.469-0.121-2.156-0.145c-0.687-0.036-1.336-0.061-1.936-0.041
				c-0.6,0.004-1.15,0.008-1.638,0.012c-0.487,0.03-0.911,0.056-1.261,0.077c-0.7,0.043-1.1,0.067-1.1,0.067s0.399-0.04,1.096-0.109
				c0.349-0.035,0.773-0.077,1.26-0.125c0.489-0.017,1.04-0.036,1.641-0.056c0.602-0.029,1.253-0.012,1.943,0.015
				c0.69,0.015,1.417,0.041,2.166,0.117c0.751,0.056,1.526,0.123,2.308,0.237c0.786,0.09,1.579,0.21,2.369,0.357
				c0.792,0.133,1.573,0.32,2.344,0.492c0.772,0.168,1.519,0.387,2.249,0.57c1.445,0.418,2.787,0.832,3.917,1.247
				c1.136,0.398,2.055,0.801,2.698,1.08C148.758,176.298,149.116,176.478,149.116,176.478z"/>
		</g>
		<g>
			<path fill="#703A1A" d="M143.848,188.606c0,0-0.327-0.156-0.921-0.376c-0.298-0.108-0.648-0.265-1.069-0.396
				c-0.418-0.139-0.889-0.296-1.404-0.467c-0.508-0.189-1.084-0.313-1.68-0.488c-0.602-0.151-1.221-0.372-1.89-0.487
				c-0.663-0.135-1.349-0.275-2.045-0.416c-0.692-0.165-1.411-0.239-2.128-0.326c-0.715-0.099-1.43-0.197-2.134-0.294
				c-0.704-0.103-1.406-0.087-2.081-0.135c-0.676-0.033-1.33-0.064-1.95-0.094c-0.62-0.055-1.206-0.001-1.747,0.025
				c-2.168,0.089-3.614,0.148-3.614,0.148s1.444-0.113,3.61-0.282c0.542-0.034,1.13-0.097,1.753-0.051
				c0.623,0.021,1.279,0.043,1.959,0.066c0.678,0.038,1.385,0.012,2.093,0.105c0.709,0.087,1.429,0.176,2.149,0.265
				c0.719,0.098,1.44,0.183,2.133,0.359c0.697,0.153,1.384,0.303,2.048,0.448c0.669,0.125,1.288,0.356,1.89,0.516
				c0.595,0.185,1.17,0.317,1.678,0.514C142.555,187.945,143.848,188.606,143.848,188.606z"/>
		</g>
	</g>
	<g>
		<g>
			<path fill="#B36028" d="M326.18,230.916c45.368-34.929,93.753,10.35,93.753,10.35s1.099,16.65,15.251,25.884
				c0,0,10.338,6.223,16.762-2.61c0,0,13.902-19.874-21.028-31.467l-5.033-6.247c-56.746-62.96-117.772-38.469-117.772-38.469"/>
			<path fill="#703A1A" d="M326.18,230.916c1.712-1.285,3.443-2.549,5.26-3.683c1.795-1.168,3.674-2.201,5.573-3.188
				c1.917-0.953,3.871-1.835,5.875-2.593c2.008-0.74,4.04-1.43,6.12-1.944c8.299-2.158,17.056-2.375,25.496-0.929
				c8.459,1.42,16.611,4.373,24.236,8.266c3.816,1.949,7.509,4.136,11.065,6.527c1.776,1.198,3.521,2.443,5.223,3.745
				c1.7,1.305,3.37,2.647,4.959,4.091l0.022,0.02l0.003,0.033c0.18,1.945,0.589,3.874,1.102,5.762
				c0.525,1.888,1.186,3.738,1.982,5.528c1.596,3.576,3.748,6.914,6.441,9.76c1.347,1.42,2.825,2.717,4.41,3.866
				c1.547,1.22,3.376,1.96,5.258,2.48c1.882,0.502,3.87,0.675,5.787,0.328c1.918-0.336,3.71-1.258,5.138-2.576
				c0.722-0.648,1.352-1.411,1.894-2.204c0.51-0.828,0.931-1.714,1.29-2.62c0.716-1.814,1.149-3.744,1.218-5.692
				c0.093-1.948-0.228-3.905-0.88-5.738c-0.653-1.837-1.656-3.539-2.874-5.061c-1.211-1.532-2.642-2.886-4.194-4.075
				c-1.528-1.225-3.205-2.247-4.9-3.225c-1.723-0.933-3.488-1.788-5.294-2.55c-0.911-0.361-1.812-0.75-2.732-1.087l-2.772-0.984
				l-0.029-0.01l-0.018-0.023c-1.833-2.246-3.608-4.558-5.489-6.75c-1.959-2.143-3.947-4.254-6.015-6.29
				c-2.045-2.058-4.179-4.025-6.342-5.959c-2.173-1.922-4.396-3.788-6.685-5.57c-9.121-7.167-19.215-13.133-30.006-17.414
				c-10.786-4.28-22.275-6.807-33.872-7.347c-5.797-0.277-11.619-0.056-17.378,0.667c-2.879,0.364-5.744,0.849-8.577,1.482
				c-2.83,0.64-5.643,1.384-8.363,2.4c2.718-1.021,5.531-1.769,8.36-2.413c2.832-0.637,5.697-1.127,8.576-1.495
				c5.76-0.731,11.583-0.961,17.384-0.692c11.604,0.524,23.105,3.035,33.907,7.303c10.807,4.269,20.921,10.227,30.062,17.388
				c2.294,1.781,4.523,3.645,6.701,5.566c2.167,1.933,4.307,3.899,6.357,5.956c2.073,2.034,4.069,4.148,6.029,6.287
				c1.9,2.209,3.667,4.504,5.507,6.752l-0.047-0.033l2.781,0.983c0.923,0.337,1.827,0.726,2.742,1.087
				c1.813,0.762,3.586,1.618,5.319,2.553c1.705,0.981,3.393,2.006,4.934,3.237c1.565,1.196,3.011,2.56,4.238,4.108
				c1.234,1.538,2.255,3.262,2.92,5.127c0.667,1.861,0.992,3.853,0.893,5.83c-0.074,1.978-0.516,3.934-1.243,5.77
				c-0.366,0.918-0.792,1.812-1.313,2.656c-0.564,0.825-1.197,1.586-1.937,2.25c-1.457,1.342-3.295,2.284-5.253,2.624
				c-1.956,0.351-3.976,0.17-5.88-0.34c-1.89-0.52-3.775-1.294-5.323-2.52c-1.593-1.159-3.078-2.465-4.432-3.896
				c-2.705-2.867-4.864-6.227-6.462-9.822c-0.798-1.799-1.458-3.658-1.983-5.555c-0.513-1.9-0.921-3.829-1.1-5.796l0.025,0.053
				c-1.578-1.438-3.247-2.784-4.941-4.089c-1.697-1.302-3.438-2.549-5.21-3.748c-3.547-2.394-7.233-4.583-11.041-6.536
				c-7.61-3.9-15.748-6.862-24.195-8.294c-8.429-1.457-17.176-1.254-25.473,0.889c-2.079,0.511-4.111,1.197-6.119,1.933
				c-2.004,0.754-3.958,1.632-5.876,2.583c-1.901,0.983-3.78,2.014-5.577,3.179C329.626,228.373,327.893,229.633,326.18,230.916z"/>
		</g>
		<g>
			<path fill="#703A1A" d="M430.617,254.152c0,0,0.137,0.324,0.423,0.867c0.28,0.546,0.717,1.307,1.28,2.194
				c0.275,0.448,0.596,0.918,0.946,1.407c0.336,0.499,0.75,0.983,1.145,1.506c0.437,0.489,0.856,1.024,1.343,1.511
				c0.481,0.493,0.962,1.001,1.495,1.453l0.772,0.707c0.272,0.217,0.543,0.433,0.812,0.647c0.525,0.447,1.095,0.814,1.639,1.18
				c0.532,0.387,1.096,0.678,1.62,0.971c0.263,0.146,0.519,0.287,0.766,0.424c0.259,0.114,0.509,0.225,0.749,0.331
				c0.483,0.204,0.914,0.425,1.312,0.576c0.404,0.14,0.755,0.262,1.045,0.362c0.581,0.201,0.912,0.316,0.912,0.316
				s-0.336-0.1-0.925-0.276c-0.295-0.088-0.653-0.195-1.064-0.318c-0.407-0.133-0.848-0.335-1.336-0.538
				c-0.243-0.103-0.496-0.211-0.759-0.322c-0.251-0.134-0.511-0.273-0.778-0.415c-0.533-0.288-1.106-0.573-1.647-0.954
				c-0.554-0.361-1.134-0.723-1.67-1.165c-0.275-0.212-0.552-0.426-0.83-0.641l-0.789-0.702c-0.532-0.465-1.009-0.984-1.486-1.488
				c-0.484-0.498-0.897-1.043-1.33-1.542c-0.39-0.533-0.798-1.025-1.129-1.532c-0.345-0.497-0.66-0.974-0.93-1.428
				c-0.557-0.897-0.939-1.691-1.203-2.246C430.739,254.482,430.617,254.152,430.617,254.152z"/>
		</g>
		<g>
			<path fill="#703A1A" d="M437.843,246.474c0,0,0.137,0.324,0.423,0.867c0.28,0.546,0.717,1.307,1.28,2.194
				c0.275,0.448,0.596,0.918,0.946,1.407c0.336,0.499,0.75,0.983,1.145,1.506c0.437,0.489,0.856,1.024,1.343,1.511
				c0.481,0.493,0.962,1.001,1.495,1.453l0.772,0.707c0.272,0.217,0.543,0.433,0.812,0.647c0.525,0.447,1.095,0.814,1.639,1.18
				c0.531,0.387,1.096,0.678,1.62,0.971c0.263,0.146,0.519,0.287,0.766,0.424c0.259,0.114,0.509,0.225,0.749,0.331
				c0.483,0.204,0.914,0.425,1.312,0.576c0.404,0.14,0.755,0.262,1.045,0.363c0.581,0.201,0.912,0.316,0.912,0.316
				s-0.336-0.1-0.925-0.276c-0.295-0.088-0.653-0.195-1.064-0.318c-0.407-0.133-0.848-0.335-1.336-0.538
				c-0.243-0.103-0.496-0.211-0.759-0.322c-0.251-0.134-0.511-0.273-0.778-0.415c-0.533-0.288-1.106-0.573-1.647-0.954
				c-0.554-0.361-1.134-0.723-1.67-1.165c-0.275-0.212-0.552-0.426-0.83-0.641l-0.789-0.702c-0.532-0.465-1.009-0.984-1.486-1.488
				c-0.484-0.498-0.897-1.043-1.33-1.542c-0.39-0.533-0.798-1.025-1.129-1.532c-0.345-0.497-0.66-0.974-0.93-1.428
				c-0.557-0.897-0.939-1.691-1.203-2.246C437.966,246.803,437.843,246.474,437.843,246.474z"/>
		</g>
	</g>
	<g>
		<path fill="#231F20" d="M177.867,93.733c0,0,0.474-0.562,1.423-1.124c0.24-0.134,0.501-0.279,0.796-0.397
			c0.285-0.141,0.614-0.224,0.948-0.324c0.346-0.045,0.7-0.153,1.073-0.129c0.185,0.004,0.373-0.009,0.559,0.009l0.559,0.09
			c0.375,0.053,0.716,0.235,1.068,0.347c0.321,0.18,0.638,0.363,0.925,0.559c0.261,0.229,0.514,0.45,0.753,0.66
			c0.203,0.241,0.394,0.47,0.571,0.68c0.186,0.202,0.325,0.411,0.428,0.609c0.112,0.191,0.209,0.357,0.29,0.494
			c0.154,0.275,0.242,0.433,0.242,0.433s-0.117-0.138-0.323-0.378c-0.213-0.232-0.452-0.615-0.849-0.972
			c-0.188-0.186-0.392-0.387-0.608-0.599c-0.24-0.179-0.493-0.369-0.755-0.564c-0.275-0.172-0.579-0.312-0.872-0.48
			c-0.323-0.092-0.632-0.257-0.972-0.298l-0.503-0.09c-0.168-0.019-0.339-0.009-0.507-0.015c-0.337-0.027-0.667,0.049-0.989,0.076
			c-0.313,0.085-0.629,0.125-0.91,0.234c-0.29,0.084-0.552,0.199-0.794,0.306C178.45,93.293,177.867,93.733,177.867,93.733z"/>
	</g>
	<g>
		<path fill="#231F20" d="M208.029,100.96c0,0,0.474-0.562,1.423-1.124c0.24-0.134,0.501-0.279,0.796-0.397
			c0.285-0.141,0.614-0.224,0.948-0.324c0.346-0.045,0.7-0.153,1.073-0.129c0.185,0.004,0.373-0.009,0.559,0.009l0.559,0.09
			c0.375,0.053,0.716,0.235,1.068,0.347c0.321,0.18,0.638,0.363,0.925,0.559c0.261,0.229,0.514,0.45,0.753,0.66
			c0.203,0.241,0.394,0.47,0.571,0.68c0.186,0.202,0.325,0.411,0.428,0.609c0.112,0.191,0.209,0.357,0.29,0.494
			c0.154,0.275,0.242,0.433,0.242,0.433s-0.117-0.138-0.323-0.378c-0.213-0.232-0.452-0.615-0.849-0.972
			c-0.188-0.186-0.392-0.387-0.608-0.599c-0.24-0.179-0.493-0.369-0.755-0.564c-0.275-0.172-0.579-0.312-0.872-0.48
			c-0.323-0.092-0.632-0.257-0.972-0.298l-0.503-0.09c-0.168-0.019-0.339-0.009-0.507-0.015c-0.337-0.027-0.667,0.049-0.989,0.076
			c-0.313,0.085-0.629,0.125-0.91,0.234c-0.29,0.084-0.552,0.199-0.794,0.306C208.612,100.52,208.029,100.96,208.029,100.96z"/>
	</g>
	<path fill="#914E22" d="M205.638,121.031c0,0-5.122,7.877-13.987,5.703c-8.865-2.174-9.762-10.786-9.762-10.786
		s8.087-34.171,19.838-32.133C213.478,85.852,205.638,121.031,205.638,121.031z"/>
	<g>
		<defs>
			<path id="SVGID_16_" d="M343.894,396.19c-116.888,21.809-120.849-115.263-116.526-173.058l113.57,24.517L343.894,396.19z"/>
		</defs>
		<clipPath id="SVGID_17_">
			<use xlink:href="#SVGID_16_"  overflow="visible"/>
		</clipPath>
		<g clip-path="url(#SVGID_17_)">
			<g>
				<g>
					<path fill="#FFFFFF" d="M276.844,365.972c-0.966,0.006-1.45,0.007-2.433,0.003c-0.121-3.23-0.232-4.843-0.465-8.069
						c-0.011-0.146-0.166-0.292-0.312-0.292c-3.103-0.012-4.779-0.008-8.168-0.17c-0.159-0.008-0.306,0.13-0.297,0.275
						c0.213,3.219,0.317,4.83,0.409,8.067c-1.07-0.053-1.571-0.084-2.534-0.155c-0.139-0.01-0.269,0.126-0.261,0.273
						c0.074,1.448,0.106,2.175,0.152,3.634c0.005,0.148,0.139,0.305,0.27,0.314c0.999,0.07,1.524,0.1,2.671,0.146l0,0
						c3.221,0.13,5.164,0.145,8.287,0.162l0,0c1.113,0.006,1.658,0.006,2.743,0c0.143-0.001,0.284-0.148,0.281-0.294
						c-0.023-1.441-0.043-2.162-0.097-3.602C277.134,366.116,277.033,365.971,276.844,365.972z"/>
				</g>
				<g>
					<path fill="#FFFFFF" d="M275.197,336.7c-5.368,0.056-8.054,0.014-13.421-0.211c-0.146-0.006-0.298,0.134-0.302,0.28
						c-0.045,1.44-0.054,2.158-0.052,3.591c0,0.145,0.147,0.297,0.293,0.304c0.994,0.045,1.494,0.065,2.504,0.099
						c0.03,3.224,0.112,4.83,0.302,8.044c0.009,0.145,0.171,0.297,0.326,0.303c3.299,0.134,4.956,0.142,8.099,0.149
						c0.147,0,0.284-0.145,0.273-0.291c-0.234-3.226-0.345-4.839-0.465-8.069c1.004,0,1.505-0.003,2.506-0.013
						c0.147-0.001,0.289-0.149,0.283-0.295c-0.054-1.44-0.075-2.161-0.097-3.602C275.492,336.843,275.393,336.698,275.197,336.7z"/>
				</g>
				<g>
					<path fill="#FFFFFF" d="M264.283,349.086c-3.387-0.148-4.908-0.261-8.014-0.535c-0.215-3.28-0.291-4.917-0.342-8.223
						c0.978,0.069,1.467,0.101,2.449,0.16c0.144,0.009,0.288-0.128,0.287-0.272c-0.007-1.429-0.002-2.145,0.033-3.582
						c0.004-0.146-0.139-0.299-0.285-0.307c-5.364-0.295-8.044-0.513-13.392-1.09c-0.146-0.016-0.292,0.113-0.291,0.258
						c0.002,1.425,0.005,2.131,0.023,3.534c0.002,0.142,0.154,0.3,0.303,0.317c1.018,0.109,1.521,0.162,2.522,0.263
						c0.274,9.802,0.579,14.316,2.797,24.519c-1.004-0.128-1.53-0.192-2.656-0.323c-0.166-0.019-0.299,0.11-0.264,0.259
						c0.346,1.471,0.536,2.215,0.957,3.727c0.043,0.153,0.251,0.325,0.413,0.343c1.232,0.137,1.794,0.205,2.853,0.339
						c2.973,0.377,4.072,0.565,6.482,0.872c0.858,0.109,1.284,0.161,2.173,0.255c0.117,0.012,0.223-0.124,0.212-0.273
						c-0.112-1.468-0.172-2.198-0.294-3.65c-0.012-0.147-0.152-0.307-0.278-0.321c-0.842-0.088-1.25-0.136-2.069-0.236
						c-0.406-3.38-0.601-5.04-0.934-8.345c2.984,0.322,4.421,0.459,7.871,0.639c0.156,0.008,0.303-0.129,0.294-0.275
						c-0.208-3.102-0.333-4.649-0.523-7.747C264.599,349.245,264.436,349.093,264.283,349.086z"/>
				</g>
				<g>
					<path fill="#FFFFFF" d="M312.446,357.97c-0.638-4.436-4.533-7.699-9.056-8.113c2.305-1.686,3.547-4.408,3.171-7.306
						c-0.57-4.396-4.621-7.492-9.045-7.059l0,0l0,0c-0.525,0.051-0.788,0.076-1.313,0.125c-0.019,0.002-0.029,0.003-0.049,0.005
						c-7.003,0.648-10.516,0.852-17.542,1.019c-0.146,0.003-0.29,0.153-0.287,0.299c0.032,1.441,0.055,2.162,0.11,3.602
						c0.006,0.146,0.159,0.289,0.306,0.285c1.001-0.024,1.502-0.038,2.505-0.072c0.134,3.232,0.223,4.846,0.406,8.076
						c0.008,0.146,0.164,0.287,0.311,0.282c3.141-0.108,4.776-0.19,8.046-0.403c0.153-0.01,0.297-0.166,0.287-0.312
						c-0.214-3.227-0.321-4.841-0.535-8.068c0.396-0.026,0.594-0.04,0.99-0.068l0,0c1.307-0.092,1.96-0.142,3.266-0.25
						c2.374-0.197,4.439,1.503,4.665,3.782c0.231,2.327-1.575,4.369-3.974,4.568c-1.164,0.096-1.746,0.141-2.911,0.225l0,0
						c-0.47,0.034-0.705,0.05-1.175,0.082c-0.204,0.014-0.294,0.215-0.278,0.458c0.2,3.013,0.3,4.52,0.5,7.534
						c0.016,0.243,0.187,0.427,0.345,0.416c2.888-0.195,4.331-0.311,7.214-0.581c2.525-0.237,4.73,1.427,4.98,3.703
						c0.256,2.324-1.652,4.4-4.199,4.639c-2.081,0.195-3.122,0.283-5.206,0.44l0,0c-1.02,0.077-1.53,0.113-2.551,0.181
						c-0.215-3.247-0.323-4.87-0.538-8.117c-0.01-0.146-0.177-0.281-0.335-0.271c-3.372,0.22-5.006,0.302-8.107,0.409
						c-0.145,0.005-0.282,0.156-0.274,0.302c0.183,3.23,0.272,4.845,0.406,8.076c-0.983,0.032-1.467,0.046-2.432,0.067
						c-0.142,0.003-0.278,0.152-0.272,0.298c0.056,1.441,0.079,2.161,0.11,3.603c0.003,0.146,0.149,0.289,0.292,0.286
						c1.085-0.023,1.63-0.039,2.741-0.077l0,0c3.12-0.107,4.828-0.193,8.353-0.423l0,0c4.076-0.266,6.112-0.434,10.179-0.843
						c0.022-0.002,0.033-0.003,0.055-0.006c0.593-0.06,0.89-0.091,1.483-0.153l0,0C309.028,368.03,313.187,363.129,312.446,357.97z"
						/>
				</g>
			</g>
		</g>
	</g>
	<path fill="#EB1D25" d="M234.891,123.091c0,0,5.872-3.764,7.729-13.174C242.62,109.918,248.216,123.167,234.891,123.091z"/>
	<g>
		<path fill="#6D3919" d="M242.814,108.697c0,0-0.087,0.583-0.239,1.604c-0.071,0.511-0.243,1.117-0.394,1.822
			c-0.19,0.693-0.415,1.478-0.745,2.301c-0.174,0.408-0.338,0.841-0.539,1.275c-0.218,0.426-0.444,0.867-0.676,1.319
			c-0.267,0.433-0.541,0.878-0.821,1.333c-0.316,0.431-0.639,0.872-0.967,1.319c-0.709,0.855-1.479,1.711-2.355,2.483
			c-0.859,0.791-1.813,1.501-2.799,2.157c-0.997,0.642-2.036,1.216-3.092,1.708c-1.05,0.508-2.123,0.915-3.167,1.287
			c-2.098,0.722-4.121,1.185-5.865,1.494c-3.501,0.586-5.874,0.523-5.874,0.523s2.371-0.017,5.85-0.656
			c1.736-0.324,3.746-0.802,5.826-1.539c1.035-0.379,2.098-0.793,3.135-1.307c1.045-0.497,2.069-1.077,3.051-1.719
			c0.982-0.641,1.933-1.335,2.79-2.111c0.874-0.757,1.644-1.598,2.354-2.438c0.329-0.441,0.653-0.875,0.97-1.299
			c0.282-0.449,0.558-0.888,0.826-1.315c0.234-0.447,0.462-0.882,0.682-1.303c0.203-0.429,0.37-0.858,0.546-1.262
			c0.329-0.817,0.575-1.591,0.783-2.275c0.168-0.696,0.355-1.296,0.439-1.805C242.712,109.278,242.814,108.697,242.814,108.697z"/>
	</g>
	<path fill="#231F20" d="M41.283,126.173c-0.17,0.729-0.738,1.219-1.269,1.095L0.72,118.094c-0.531-0.124-0.823-0.815-0.653-1.544
		l0,0c0.17-0.729,0.738-1.219,1.269-1.095l39.294,9.174C41.16,124.753,41.453,125.445,41.283,126.173L41.283,126.173z"/>
	<path fill="#231F20" d="M52.918,97.537c-0.636,0.395-1.384,0.34-1.672-0.123L29.948,63.142c-0.288-0.463-0.006-1.158,0.63-1.553
		l0,0c0.636-0.395,1.384-0.34,1.672,0.123l21.298,34.272C53.836,96.447,53.554,97.142,52.918,97.537L52.918,97.537z"/>
	<path fill="#231F20" d="M46.205,156.282c0.395,0.636,0.34,1.384-0.123,1.672L11.81,179.252c-0.463,0.288-1.158,0.006-1.553-0.63
		l0,0c-0.395-0.636-0.34-1.384,0.123-1.672l34.272-21.298C45.114,155.364,45.81,155.647,46.205,156.282L46.205,156.282z"/>
	<path fill="#231F20" d="M45.299,109.957c-0.423,0.618-1.13,0.869-1.58,0.561L10.416,87.736c-0.45-0.308-0.472-1.058-0.049-1.676
		l0,0c0.423-0.618,1.13-0.869,1.58-0.561l33.304,22.782C45.699,108.589,45.722,109.339,45.299,109.957L45.299,109.957z"/>
	<path fill="#231F20" d="M41.927,141.88c0.138,0.736-0.184,1.413-0.72,1.514l-39.659,7.44c-0.536,0.1-1.082-0.414-1.22-1.15l0,0
		c-0.138-0.736,0.184-1.413,0.72-1.514l39.659-7.44C41.243,140.63,41.789,141.144,41.927,141.88L41.927,141.88z"/>
</g>
</svg>
