<?xml version="1.0" encoding="UTF-8" standalone="no"?>
<svg
   xmlns:dc="http://purl.org/dc/elements/1.1/"
   xmlns:cc="http://creativecommons.org/ns#"
   xmlns:rdf="http://www.w3.org/1999/02/22-rdf-syntax-ns#"
   xmlns:svg="http://www.w3.org/2000/svg"
   xmlns="http://www.w3.org/2000/svg"
   xmlns:sodipodi="http://sodipodi.sourceforge.net/DTD/sodipodi-0.dtd"
   xmlns:inkscape="http://www.inkscape.org/namespaces/inkscape"
   id="svg2"
   version="1.1"
   inkscape:version="0.91 r13725"
   sodipodi:docname="ATA.svg"
   width="512"
   height="38.01506">
  <metadata
     id="metadata10">
    <rdf:RDF>
      <cc:Work
         rdf:about="">
        <dc:format>image/svg+xml</dc:format>
        <dc:type
           rdf:resource="http://purl.org/dc/dcmitype/StillImage" />
      </cc:Work>
    </rdf:RDF>
  </metadata>
  <defs
     id="defs8" />
  <sodipodi:namedview
     pagecolor="#ffffff"
     bordercolor="#666666"
     borderopacity="1"
     objecttolerance="10"
     gridtolerance="10"
     guidetolerance="10"
     inkscape:pageopacity="0"
     inkscape:pageshadow="2"
     inkscape:window-width="480"
     inkscape:window-height="419"
     id="namedview6"
     showgrid="false"
     inkscape:zoom="2.36"
     inkscape:cx="178"
     inkscape:cy="206"
     inkscape:window-x="0"
     inkscape:window-y="0"
     inkscape:window-maximized="0"
     inkscape:current-layer="svg2" />
  <path
     d="m 171.27524,23.849981 -0.41778,0.72459 -0.41786,0.64095 -2.9806,-0.19505 -3.17545,0.0836 -1.78281,-0.47375 0,-0.0557 -0.7799,-0.41797 3.20334,0.0557 3.06409,0.13928 1.05852,-0.58525 0.75215,-0.5016 1.4763,0.58524 m -141.704657,-0.77244 -2.729843,0.19506 -1.8663,-0.50168 -0.83564,-0.5016 -0.0558,-0.0836 -0.91917,-0.39012 0,0 0.86343,-0.52953 2.64631,0.22306 1.420662,0.44582 1.086298,0.50161 0.390003,0.64102 m 162.209317,-2.0622 1.75492,0.61302 0.61281,0.86394 0.16713,0.6131 0.0557,0.72459 -2.20057,0.4459 -2.31201,0.36226 -2.67413,0.3344 -2.98053,0.27869 -3.3705,-0.0836 -1.86634,-0.47383 0.25069,-0.58524 3.03624,-0.39011 1.22568,-0.47375 0.89136,-0.61318 0.64065,-0.52946 0.86354,-0.50153 0.91924,-0.58532 0,0 0.72423,8e-5 2.11703,-0.30663 2.14485,0.30663 m -108.169604,-6.46554 1.83845,0.22291 1.69914,-0.25084 -0.807787,0.50168 -1.337029,0.36226 -1.97776,-0.11142 -1.420665,-0.5016 -10e-7,0 0.306476,-0.47383 1.699176,0.25084 m -6.183901,-0.0279 2.172707,0.55739 -0.835679,-0.0557 -1.838523,-0.13934 -1.949794,-0.39019 -2e-6,0 1.030626,-0.30655 1.420665,0.3344 m 37.799845,-2.20162 1.5599,0.19513 1.55991,-0.16721 0.83568,0.80816 -1.11419,-0.11142 -1.72703,0.0557 -1.75493,-0.0557 -1.92205,0.0836 -1.44841,-0.2787 -0.75215,-0.58524 0,0 0.89139,-0.25084 1.81056,0.19513 2.06132,0.11142 m 43.42074,-1.39024 0.16712,0.64095 -0.25072,0.55739 -0.38993,0.52953 -1.67136,0.19506 -1.5878,0.2787 -1.8663,-0.0279 0.69637,-0.55739 -1.67129,0.19506 -1.58779,0.19513 -1.08637,-0.41804 -0.0835,-0.58525 1.5599,-0.55738 0,-10e-6 0.97491,-0.1672 1.64354,0.0557 0.41779,-0.72459 0.0836,-0.52946 -0.0279,-1.1426304 0.80779,-0.66888 1.30924,-0.22291 0.75208,0.52946 0.33426,0.52953 0.61284,0.64095 0.47357,0.6131704 0.38996,0.64096 m 13.99069,-9.6758904 -0.61287,0.30655 -1.05852,-0.22298 -1.1699,0.13935 -0.97492,0.3344 -1.03066,0.36233 -0.69641,0.41804 -0.19498,0.55739 0.0835,0.52946 0.66852,0.47375 -0.97492,0.33448 -1.33707,0.11142 -0.77997,0.47382 -0.83567,0.44583 -0.89136,0.61317 -0.2228,0.52946 0.50139,0.58517 0.75211,0.44597 1.16994,0.33433 1.0863,0.44597 0.58502,0.55731 0.3064,0.52954 0.41782,0.5573904 0.66855,0.47375 0.41779,0.52946 0.19498,1.30991 0.4179,0.52946 0.11138,0.55739 0.44571,0.55739 -0.19498,0.75244 -0.78001,0.58524 -0.83564,0.47376 -1.89416,0.19505 -0.6407,0.50168 -0.86349,0.47375 -2.14493,0.52946 -1.89416,0.22299 -1.7827,0.30655 -1.92205,0.30655 -1.14205,0.58524 -2.28416,0.0557 -2.50704,-0.0557 -2.25627,0.11149 -2.39558,0 0.44571,0.55739 2.17271,0.25069 1.58779,0.39019 0.89139,0.50161 -1.58779,0.44589 -2.45129,-0.13934 -2.03344,0.36233 -0.0836,0.58524 -0.0556,0.55739 1.67133,0.47375 0.30636,0.52946 1.81067,0.52954 3.00835,0.22298 2.56271,0.39012 2.03347,0.44589 2.5906,0.4459 3.53759,0.22298 3.48195,0.39012 2.42348,0.41804 2.6462,0.47382 1.39277,0.66881 0.69637,0.52954 1.7271,-0.50168 2.33988,-0.41804 2.47911,-0.4459 2.95271,-0.36226 2.53482,-0.39019 3.53766,-0.0279 3.48192,0.19506 2.86911,0.33447 0.91924,-0.6131 1.97773,-0.41804 3.59341,-0.0279 2.81336,-0.30662 2.67417,-0.30655 2.95267,-0.19506 3.14766,-0.25084 2.2006,-0.36226 -1.00281,-0.50168 -0.61284,-0.5016 0,-0.52946 -2.75769,0.0557 -2.92482,0.22292 -2.78555,0 -0.38997,-0.52946 0.19499,-1.059 0.64066,-0.30662 2.03347,-0.33441 2.39558,-0.33433 1.72703,-0.41804 1.72703,-0.41804 1.28135,-0.55739 1.94991,-0.25077 1.92201,-0.19513 0.97496,-0.11142 2.20056,-0.0558 2.08918,-0.19505 1.75488,-0.2787 1.72703,-0.3344 1.55994,-0.33441 1.97769,-0.44589 1.25353,-0.47383 1.33703,-0.41804 0.41782,-0.55732 -1.50415,-0.3344 0.50138,-0.58524 0.9471,-0.44597 1.47634,-0.2787 1.55994,-0.3344 1.44848,-0.4459 1.11423,-0.55731 0.69637,-0.66888 1.03062,-0.39019 1.69921,0.0836 0.69637,0.47375 1.69922,0.0557 0.0557,-0.52946 0.72422,-0.55739 1.53208,0.13934 0.36211,0.52954 1.69914,0.0836 1.83849,-0.25076 1.78274,-0.16728 1.61565,0.0836 0.61277,0.58524 1.55994,-0.47375 1.44852,-0.25084 1.61557,-0.19505 1.5878,-0.19513 1.44852,-0.33441 1.58772,-0.22291 1.22568,-0.3065504 0.8635,-0.50168 1.05848,0.36233 1.4763,-0.19513 1.0307,0.6688804 0.80778,0.50161 1.61565,-0.27869 0.64066,-0.5573204 1.44852,-0.39019 1.86627,0.0836 0.55717,0.5295304 1.1699,-0.5295304 1.53209,-0.1672 1.67129,-0.0557 1.50423,0.0279 1.58771,0.1672 1.53209,0.0836 0.66852,0.4737504 0.91927,0.41804 1.55986,-0.25084 1.67136,-0.0557 1.61558,0 1.58779,-0.0279 1.42059,-0.19513 1.50423,-0.1672004 1.25347,-0.39019 1.3371,-0.25077 1.44844,-0.13934 1.08641,-0.39019 0.77993,-0.7803 0.80779,-0.47368 1.47639,0.22284 0.55708,0.50168 1.22569,0.3344 1.47631,-0.11149 1.00277,0.50161 1.05855,0.36233 1.44852,-0.3344 0.50138,-0.61318 1.28131,-0.25076 1.47638,-0.47375 1.39274,-0.19513 1.67136,-0.27863 1.11418,-0.30654 1.16999,-0.33441 1.11419,-0.30655 1.33703,0.1672 1.28139,-0.5016 0.91919,-0.39019 1.3371,0.0279 1.1699,-0.33441 0.27855,-0.5016 1.19784,-0.39019 1.1699,-0.27869 1.42066,-0.22299 1.30918,-0.11142 1.25353,0.0836 1.33703,0.13934 1.14212,0.39019 0.1392,0.6131 1.25354,0.47375 0.86349,0.39019 1.69929,0.1672 0.94705,0.39019 1.16991,0.39011 1.36488,0.0836 1.14205,-0.2787 1.22575,-0.58524 1.33703,0.30647 1.39274,0.16728 1.3371,0.1672 1.39274,0.11149 1.42066,0 1.1699,1.47697 -0.0557,0.36233 -0.16713,0.64095 -1.36488,0.36226 -1.11433,0.5295304 0.19505,0.55739 1.5878,-0.0279 -0.19506,0.55738 -0.72415,0.52954 -0.66859,0.58524 1.08641,0.4459 1.64343,0.13935 1.6435,-0.25084 0.77994,-0.55739 0.4736,-0.52946 0.77986,-0.4459 0.89143,-0.41804 0.36211,-0.50168 0.75215,-0.6966604 0.89128,-0.13935 1.61565,-0.0557 1.42066,-0.16728 1.44845,-0.22291 0.69637,-0.55739 0.41789,-0.52953 0.97492,-0.52939 1.39274,-0.36226 1.19782,-0.27869 0.78001,-0.47383 0.80779,-0.25076 1.03062,-0.22299 1.42067,0.13935 1.28124,-0.13935 1.39281,-0.1672 1.55994,0.0836 1.03063,-0.39012 0.7243,-0.94757 0.52924,0.39018 0.66844,0.66889 1.19782,0.27862 1.36496,0.11149 1.36496,-0.1672 1.44844,0.11149 1.33703,0.0279 0.89143,-0.13934 1.19775,0.0836 1.08641,0.30655 1.28132,-0.19505 1.53208,0 1.30925,-0.19513 1.47622,0.19513 0.94721,-0.47383 0.72415,-0.47375 0.97499,-0.39019 1.78278,-1.05899 0.91913,0.19513 1.08641,0.39011 0.94706,0.50168 1.81063,0.86387 1.39282,0.0279 1.30917,0 1.53208,-0.16721 1.53201,-0.19513 1.16998,-0.39011 0.97491,-0.41804 1.5878,-0.0558 1.05855,-0.30654 1.11419,0.27869 0.72422,0.4459 1.00277,0.44589 1.55987,-0.0557 0.97499,0.36226 1.69921,0.36233 1.78271,0.13935 1.47637,-0.11149 1.11419,-0.4459 0.94714,-0.44589 1.28131,-0.1115 1.2814,0.19513 1.47622,0.13928 1.33711,-0.22291 1.28146,0 1.25346,0.13934 1.30918,0.13935 1.28139,-0.25084 1.53201,-0.22291 1.44852,-0.0558 1.61558,0 1.30924,-0.13935 1.28132,-0.11142 0.38997,-0.69674 0.0557,-0.58524 0.89135,0.39011 0.25076,0.64103 0.47346,0.58524 0.58503,0.47376 1.19782,0.25084 1.61558,-0.0836 1.86627,-0.0279 1.28139,-0.0836 1.86634,0 1.3371,-0.0279 1.86627,0.0558 1.58772,0.11142 1.00284,0.4459 -0.27854,0.52953 0.91928,0.41804 1.53201,0.33441 1.58772,0.36233 1.83848,0.25069 1.92198,0.22306 1.4486,0.22284 1.61557,0.028 0.91928,-0.4739 1.25339,0.39019 1.08648,0.44597 1.25347,0.33433 1.72714,0.13935 1.64335,0.1672 0.69645,0.55739 1.61557,0.3344 1.08634,0.5016804 1.58779,0.22291 1.64343,-0.0279 1.53208,0.0836 1.69922,-0.0279 1.69906,0.11149 1.58794,0.19506 1.47623,0.33447 1.47638,0.2787 1.00284,0.41797 -0.1672,0.55739 -0.75208,0.50168 -0.64066,0.64095 -0.50146,0.5016 -0.66851,0.58525 -1.86627,0.22298 -0.83571,0.50161 -1.83849,0.30655 -0.64059,0.55739 -0.97499,0.52953 -1.03062,0.4459 -0.5851,0.58524 -0.36204,0.52946 -0.13934,0.64103 0.0279,0.52946 0.80779,0.55731 0.30648,0.52954 0.66859,0.50168 2.64627,0.19498 0.55702,0.61317 -2.56271,0.22292 -2.17267,0.30655 -2.70198,0.0558 -1.19783,0.80815 -0.25069,0.66881 -0.61288,0.52954 -0.75201,0.52953 1.89413,0.47375 0.72429,0.58524 1.22554,0.52946 1.72707,0.47383 1.97776,0.4459 2.14496,0.44589 3.25908,0.4459 0.72407,0.69673 4.0948,0.30655 0.27465,0.10878 1.06245,0.42068 3.92759,-0.36225 3.25908,0.44589 2.45019,0.34256 0,7.51875 -512,0 0,-7.51875 0.0818,0.0115 1.25699,-0.82778 2.56271,0.4459 0.16493,-0.0498 1.50206,-0.45323 0.19546,0.0159 0.1669,0.0106 2.0585,0.59222 1.80045,-0.59222 0.32349,-0.0809 4.17832,-0.25084 1.35287,0.33176 0.66815,0.16992 2.14485,0.47375 4.03905,0.36226 3.20337,0.44589 5.487486,0.33448 4.094758,-0.39018 6.044664,0.27869 3.42617,0.4459 3.760576,-0.41805 3.955484,-0.39018 0.306402,-0.66881 -5.598989,-0.0558 -4.596143,-0.33441 -1.197791,-0.55739 -3.81621,-0.30655 0.250729,-0.64095 0.529277,-0.58524 0.52924,-0.52954 -0.278584,-0.58524 -2.36769,-0.39011 -1.086409,-0.50168 -2.200561,-0.4459 3.454098,0.0836 3.286934,-0.22299 2.061325,0.47383 2.534818,-0.41804 2.339909,-0.52954 1.142046,-0.47375 -0.501387,-0.58524 -1.83845,-0.39019 -2.089179,-0.41797 -2.924822,-0.0836 -2.56271,-0.19505 -2.757767,-0.13935 -0.91917,-0.52953 -1.838413,-0.4459 -1.114263,-0.50168 -0.445676,-1.61631 0.696405,0.13942 1.281282,0.4459 2.339835,-0.13942 2.256418,-0.19506 1.1699,0.6131 2.256307,-0.13928 1.89416,-0.30662 1.782704,-0.39011 1.615648,-0.47375 2.144817,-0.13935 -0.05564,-0.52953 -0.501423,-0.52947 0.417822,-0.50167 1.838487,-0.25084 0.835679,0.47382 2.172707,-0.27869 1.643503,-0.36234 2.033433,-0.0279 1.922014,-0.13935 1.921978,-0.3344 1.532158,-0.30655 1.727031,-0.30655 1.114153,0.0836 0.974989,0.1115 2.116959,-0.19506 1.894196,0.25077 1.949906,-0.0279 1.866304,-0.19506 1.922014,0.13935 2.117035,0.13935 1.977723,-0.0558 2.061288,0.0279 2.117034,0.0279 1.949943,-0.0558 1.448411,-0.41805 1.727068,-0.22291 1.78274,0.30655 1.699213,-0.25084 1.532048,-0.5016 0.919243,0.44589 0.501386,0.50161 0.91928,0.47382 1.476301,-0.41804 1.699176,0.52946 1.922013,0.1672 1.64347,0.39019 2.00561,-0.0836 1.8106,-0.25084 2.14489,0.0557 1.92205,0.19513 1.94983,0.25076 0.75212,-0.6131 -0.91925,-0.47375 -0.6964,-0.50168 -1.83842,-0.11142 -0.80778,-0.52953 -0.30641,-0.52953 -0.50138,-1.05892 1.0863,0.19505 1.8663,0.0836 1.83853,-0.0836 1.67132,0.22291 1.44852,0.41805 0.61276,0.5016 1.92206,0.0836 1.83841,-0.19506 1.94994,-0.27869 1.75489,-0.1672 1.44844,0.3344 1.89416,-0.11149 1.22565,-1.08685 1.14204,0.64095 1.64354,0.25084 1.78278,-0.13935 1.1699,0.55739 1.8663,0.0557 1.72707,0.1672 1.69918,0.30655 1.11426,-0.52946 0.55702,-0.50168 1.42067,0.55739 1.9499,-0.13935 1.44852,0.30655 0.97492,0.47375 1.89416,-0.13927 1.4763,-0.30662 1.44852,-0.36226 1.72703,-0.19506 2.00558,-0.16727 1.81067,-0.19506 1.39277,-0.30655 0.83565,-0.4459 0.33425,-0.61309 -0.16713,-0.58525 -0.44571,-0.55739 -0.50138,-0.55738 -0.44568,-0.55732 -0.36211,-0.5016804 -0.0836,-0.55739 0.13927,-0.55731 0.66852,-0.52954 0.55713,-0.58524 0.2228,-0.55732 -0.27851,-0.6131 -0.16713,-0.55738 0.69637,-0.64096 0.7799,-0.41804 0.91928,-0.52946 0.97491,-0.44597 1.14212,-0.41797 0.55713,-0.61309 0.77993,-0.39019 0.89139,-0.36233 1.36492,-0.0836 0.89139,-0.44589 1.00277,-0.2787 1.1699,-0.16719996 1.03066,-0.36233 0.80786,-0.4459 1.11419,-0.16720000285 0.83565,0.36233000285 -0.52928,0.47375 -1.44841,0.41803996 z"
     style="fill:#003476"
     id="path4"
     inkscape:connector-curvature="0" />
</svg>
