<?xml version="1.0" encoding="UTF-8" standalone="no"?>
<svg
   xmlns:dc="http://purl.org/dc/elements/1.1/"
   xmlns:cc="http://creativecommons.org/ns#"
   xmlns:rdf="http://www.w3.org/1999/02/22-rdf-syntax-ns#"
   xmlns:svg="http://www.w3.org/2000/svg"
   xmlns="http://www.w3.org/2000/svg"
   xmlns:sodipodi="http://sodipodi.sourceforge.net/DTD/sodipodi-0.dtd"
   xmlns:inkscape="http://www.inkscape.org/namespaces/inkscape"
   id="svg2"
   version="1.1"
   inkscape:version="0.91 r13725"
   sodipodi:docname="BFA.svg"
   width="10.87669"
   height="7.8297925">
  <metadata
     id="metadata10">
    <rdf:RDF>
      <cc:Work
         rdf:about="">
        <dc:format>image/svg+xml</dc:format>
        <dc:type
           rdf:resource="http://purl.org/dc/dcmitype/StillImage" />
      </cc:Work>
    </rdf:RDF>
  </metadata>
  <defs
     id="defs8" />
  <sodipodi:namedview
     pagecolor="#ffffff"
     bordercolor="#666666"
     borderopacity="1"
     objecttolerance="10"
     gridtolerance="10"
     guidetolerance="10"
     inkscape:pageopacity="0"
     inkscape:pageshadow="2"
     inkscape:window-width="480"
     inkscape:window-height="419"
     id="namedview6"
     showgrid="false"
     inkscape:zoom="2.36"
     inkscape:cx="-70.219641"
     inkscape:cy="64.331257"
     inkscape:window-x="0"
     inkscape:window-y="0"
     inkscape:window-maximized="0"
     inkscape:current-layer="svg2" />
  <path
     d="m 3.759029,7.7848155 -0.97337,-0.36674 -0.66638,0.054 -0.49749,0.3577 -0.63948996,-0.30031 -0.24856,-0.47037 -0.63955,-0.31007 -0.09420000294,-0.82565 0.387870002945,-0.60285 -0.0329,-0.48172 1.12892996,-1.17872 0.20872,-0.97536 0.38971,-0.34708 0.68777,0.19175 0.59605,-0.28957 0.19344,-0.36535 1.10346,-0.63753 0.27134,-0.44458005 1.32931,-0.58994 0.78295,-0.202449995059 0.35498,0.272859995059 0.91186,-0.007 -0.11271,0.68931 0.19098,0.64782005 0.80088,0.92869 0.0442,0.68825 1.63983,0.32257 -0.0322,0.97403 -0.31074,0.42525 -0.69519,0.13288 -0.28972,0.6218 -0.48911,0.16096 -1.24553,-0.0303 -0.65778,-0.1133 -0.4592,0.22957 -0.62831,-0.10367 -2.47048,0.067 -0.0334,0.8069 0.19399,1.07076 z"
     style="fill:#003476"
     id="path4"
     inkscape:connector-curvature="0" />
</svg>
