<?xml version="1.0" encoding="UTF-8" standalone="no"?>
<svg
   xmlns:dc="http://purl.org/dc/elements/1.1/"
   xmlns:cc="http://creativecommons.org/ns#"
   xmlns:rdf="http://www.w3.org/1999/02/22-rdf-syntax-ns#"
   xmlns:svg="http://www.w3.org/2000/svg"
   xmlns="http://www.w3.org/2000/svg"
   xmlns:sodipodi="http://sodipodi.sourceforge.net/DTD/sodipodi-0.dtd"
   xmlns:inkscape="http://www.inkscape.org/namespaces/inkscape"
   id="svg2"
   version="1.1"
   inkscape:version="0.91 r13725"
   sodipodi:docname="BGD.svg"
   width="6.5255804"
   height="8.2142467">
  <metadata
     id="metadata10">
    <rdf:RDF>
      <cc:Work
         rdf:about="">
        <dc:format>image/svg+xml</dc:format>
        <dc:type
           rdf:resource="http://purl.org/dc/dcmitype/StillImage" />
      </cc:Work>
    </rdf:RDF>
  </metadata>
  <defs
     id="defs8" />
  <sodipodi:namedview
     pagecolor="#ffffff"
     bordercolor="#666666"
     borderopacity="1"
     objecttolerance="10"
     gridtolerance="10"
     guidetolerance="10"
     inkscape:pageopacity="0"
     inkscape:pageshadow="2"
     inkscape:window-width="480"
     inkscape:window-height="419"
     id="namedview6"
     showgrid="false"
     inkscape:zoom="2.36"
     inkscape:cx="-203.27562"
     inkscape:cy="48.60141"
     inkscape:window-x="0"
     inkscape:window-y="0"
     inkscape:window-maximized="0"
     inkscape:current-layer="svg2" />
  <path
     d="m 6.5255773,6.2652964 -0.0291,1.020006 -0.49639,-0.215378 0.0929,1.144322 -0.40628,-0.741421 -0.082,-0.724444 -0.27069,-0.684609 -0.59421,-0.827852 -1.30998,-0.05689 0.12935,0.586272 -0.44655,0.791362 -0.60517,-0.288396 -0.20681,0.258887 -0.40276,-0.155112 -0.55026,-0.12733 -0.22136,-1.171112 -0.49286003,-1.069505 0.24202,-0.856993 L 1.7265689e-5,2.7660304 0.31568727,2.2477404 1.2048273,1.7178024 0.17831727,0.96491538 0.68073727,-4.6190681e-6 1.8071973,0.61456338 l 0.67895,0.07015 0.12546,0.98891702 1.35327,0.195057 1.31895,-0.02109 0.82006,0.242828 -0.6558,1.203597 -0.63625,0.08217 -0.43914,0.809405 0.77869,0.737085 0.23246,-0.908917 0.39269,-0.0045 0.74906,2.256014 z"
     style="fill:#003476"
     id="path4"
     inkscape:connector-curvature="0" />
</svg>
