<?xml version="1.0" encoding="UTF-8" standalone="no"?>
<svg
   xmlns:dc="http://purl.org/dc/elements/1.1/"
   xmlns:cc="http://creativecommons.org/ns#"
   xmlns:rdf="http://www.w3.org/1999/02/22-rdf-syntax-ns#"
   xmlns:svg="http://www.w3.org/2000/svg"
   xmlns="http://www.w3.org/2000/svg"
   xmlns:sodipodi="http://sodipodi.sourceforge.net/DTD/sodipodi-0.dtd"
   xmlns:inkscape="http://www.inkscape.org/namespaces/inkscape"
   id="svg2"
   version="1.1"
   inkscape:version="0.91 r13725"
   sodipodi:docname="BRA.svg"
   width="55.832523"
   height="55.484962">
  <metadata
     id="metadata10">
    <rdf:RDF>
      <cc:Work
         rdf:about="">
        <dc:format>image/svg+xml</dc:format>
        <dc:type
           rdf:resource="http://purl.org/dc/dcmitype/StillImage" />
      </cc:Work>
    </rdf:RDF>
  </metadata>
  <defs
     id="defs8" />
  <sodipodi:namedview
     pagecolor="#ffffff"
     bordercolor="#666666"
     borderopacity="1"
     objecttolerance="10"
     gridtolerance="10"
     guidetolerance="10"
     inkscape:pageopacity="0"
     inkscape:pageshadow="2"
     inkscape:window-width="480"
     inkscape:window-height="419"
     id="namedview6"
     showgrid="false"
     inkscape:zoom="2.36"
     inkscape:cx="27.22629"
     inkscape:cy="126.02614"
     inkscape:window-x="0"
     inkscape:window-y="0"
     inkscape:window-maximized="0"
     inkscape:current-layer="svg2" />
  <path
     d="m 23.270545,50.433115 1.897577,-1.93925 1.605139,-1.38076 0.955109,-0.57907 1.197496,-0.78405 0.02899,-1.1358 -0.713529,-0.82094 -0.704343,0.27252 0.279245,-0.82072 0.192668,-0.84108 7.35e-4,-0.78192 -0.511821,-0.25804 -0.53343,0.22996 -0.530269,-0.0631 -0.166246,-0.54747 -0.132329,-1.30329 -0.266347,-0.42481 -0.960511,-0.38489 -0.58054,0.27854 -1.501363,-0.27303 0.09455,-1.93065 -0.420577,-0.79074 0.444574,-0.29398 -0.136812,-0.81065 0.389672,-0.62317 0.252641,-1.12022 -0.335911,-0.88422 -0.776883,-0.3993 -0.152539,-0.56121 0.208837,-0.82138 -2.726642,-0.0587 -0.546952,-1.656 0.415028,-0.0237 -0.01874,-0.61332 -0.277151,-0.41525 -0.06273,-0.82212 -0.826052,-0.42179 -0.894696,0.014 -0.588624,-0.41304 -0.961393,-0.28178 -0.559557,-0.53137 -1.592681,-0.23475 -1.544432,-1.27389 0.114322,-0.95346 -0.174846,-0.54673 0.151327,-1.0659 -1.860939,0.24084 -0.7493585,0.53402 -1.243578,0.57635 -0.317243,0.43017 -0.732308,0.0311 -1.057451,-0.12039 -0.802239,0.24496 -0.647017,-0.16331 0.09499,-2.16039 -1.166959,0.83814 -1.255081,-0.0367 -0.537802,-0.75862 -0.943901,-0.0825 0.300559,-0.61067 L 0.59188646,19.440335 -8.5389445e-6,18.159455 0.37522146,17.899425 l -0.0015,-0.60075 0.85967504,-0.41054 -0.141772,-0.76906 0.362956,-0.49484 0.103225,-0.66374 1.626342,-0.96794 1.1656,-0.27362 0.190684,-0.2138 1.281612,0.0667 0.639336,-3.8995899 0.03359,-0.61678 -0.222691,-0.8144 -0.630884,-0.51888 0.0072,-1.03334 0.800953,-0.2343 0.28439,0.14721 0.04807,-0.54475 -0.833364,-0.14707 -0.0176,-0.88991 2.77107,0.0318 0.470407,-0.49025 0.395111,0.45108 0.277261,0.83895 0.2684045,-0.17529 0.78302,0.75223 1.105775,-0.0922 0.275276,-0.43523 1.057709,-0.33202 0.585538,-0.23342 0.165291,-0.60233 1.015889,-0.40467 -0.07691,-0.2989 -1.20481,-0.12223 -0.197445,-0.89568 0.05736,-0.9535 -0.636544,-0.36869 0.266531,-0.13089 1.052895,0.18197 1.130873,0.3555 0.410545,-0.3362 1.022725,-0.22067 1.590808,-0.53241 0.520126,-0.54276 -0.188295,-0.40132 0.7394,-0.062900003911 L 19.920041,0.3277151 l -0.184951,0.62449 0.48867,0.21542 0.32621,0.6609 -0.394487,0.50106 -0.226292,1.21069 0.364059,0.71908 0.103114,0.65811 0.874926,0.6673 0.698096,0.0706 0.157206,-0.27855 0.449461,-0.0615 0.643526,-0.24944 0.462433,-0.37824 0.786657,0.12064 0.346053,-0.0509 0.773245,0.11641 0.128139,-0.2906 -0.238566,-0.28273 0.14225,-0.41184 0.573963,0.12638 0.671527,-0.14541 0.814696,0.30137 0.621073,0.29339 0.440237,-0.38563 0.318125,0.0595 0.193954,0.40036 0.680971,-0.10164 0.545042,-0.54023 0.436746,-1.04731 0.841302,-1.30153 0.484481,-0.0672 0.351822,0.78662 0.797719,2.48723 0.760604,0.23478 0.03836,0.98176 -1.069725,1.17078 0.442369,0.4287 2.513982,0.22335 0.0513,1.42551 1.080235,-0.93324 1.789686,0.51116 2.362141,0.86857 0.694164,0.8334399 -0.233201,0.78728 1.653756,-0.43833 2.767836,0.75223 2.124788,-0.0554 2.102445,1.17703 1.816365,1.59331 1.095558,0.41025 1.216202,0.057 0.515423,0.44862 0.482644,1.81085 0.236141,0.86048 -0.566356,2.35119 -0.723562,0.92854 -2.004696,1.97894 -0.906088,1.60778 -1.052821,1.23296 -0.355571,0.0278 -0.397352,1.04636 0.100946,2.66479 -0.396508,2.19215 -0.151106,0.93773 -0.449682,0.56113 -0.252163,1.90125 -1.442015,1.85657 -0.2418,1.46888 -1.151158,0.61633 -0.332971,0.85247 -1.54513,-0.003 -2.237309,0.54652 -1.001705,0.63272 -1.592829,0.41547 -1.673783,1.13241 -1.203891,1.4106 -0.207,1.06193 0.236471,0.78538 -0.265649,1.43676 -0.322755,0.69401 -0.993951,0.78273 -1.578019,2.5031 -1.250634,1.12816 -0.966905,0.66513 -0.64856,1.35283 -0.940888,0.81323 -0.393788,-0.80551 0.627136,-0.67462 -0.82256,-0.96771 -1.115733,-0.78611 -1.46355,-0.91112 -0.528689,0.0415 -1.426178,-1.09993 -0.923175,0.15162 z"
     style="fill:#003476"
     id="path4"
     inkscape:connector-curvature="0" />
</svg>
