<?xml version="1.0" encoding="UTF-8" standalone="no"?>
<svg
   xmlns:dc="http://purl.org/dc/elements/1.1/"
   xmlns:cc="http://creativecommons.org/ns#"
   xmlns:rdf="http://www.w3.org/1999/02/22-rdf-syntax-ns#"
   xmlns:svg="http://www.w3.org/2000/svg"
   xmlns="http://www.w3.org/2000/svg"
   xmlns:sodipodi="http://sodipodi.sourceforge.net/DTD/sodipodi-0.dtd"
   xmlns:inkscape="http://www.inkscape.org/namespaces/inkscape"
   id="svg2"
   version="1.1"
   inkscape:version="0.91 r13725"
   sodipodi:docname="BRB.svg"
   width="0.32326388"
   height="0.41724536">
  <metadata
     id="metadata10">
    <rdf:RDF>
      <cc:Work
         rdf:about="">
        <dc:format>image/svg+xml</dc:format>
        <dc:type
           rdf:resource="http://purl.org/dc/dcmitype/StillImage" />
      </cc:Work>
    </rdf:RDF>
  </metadata>
  <defs
     id="defs8" />
  <sodipodi:namedview
     pagecolor="#ffffff"
     bordercolor="#666666"
     borderopacity="1"
     objecttolerance="10"
     gridtolerance="10"
     guidetolerance="10"
     inkscape:pageopacity="0"
     inkscape:pageshadow="2"
     inkscape:window-width="480"
     inkscape:window-height="419"
     id="namedview6"
     showgrid="false"
     inkscape:zoom="2.36"
     inkscape:cx="6.8415358"
     inkscape:cy="59.43833"
     inkscape:window-x="0"
     inkscape:window-y="0"
     inkscape:window-maximized="0"
     inkscape:current-layer="svg2" />
  <path
     d="m 0.32326383,0.26192537 -0.0045,0.049 -0.03652,0.0368 -0.02853,0.0193 -0.01672,0.0113 -0.03032,0.0302 -0.01117,0.001 -0.0091,-1.1e-4 -0.0088,0.002 -0.0097,0.006 -0.014,-0.0235 -0.02627,-0.0147 -0.03194,-0.007 -0.01898,-0.001 -0.01123,-7.5e-4 -0.0191,-0.0132 -0.01644,-0.0312 -0.0184,-0.0632 -0.01156999782,-0.19161 0.0027999978,-0.022 0.01007,-0.0186 0.0202,-0.0202 0.02569,-0.009 0.02616,0.0139 0.01956,0.0288 0.0068,0.0144 0.0099,0.0209 0.02726,0.0576 0.01875,0.0253 0.02639,0.0197 0.03733,0.0278 0.02153,0.0121 0.02784,0.009 0.02627,0.0118 0.01667,0.0206 z"
     style="fill:#003476"
     id="path4"
     inkscape:connector-curvature="0" />
</svg>
