<?xml version="1.0" encoding="UTF-8" standalone="no"?>
<svg
   xmlns:dc="http://purl.org/dc/elements/1.1/"
   xmlns:cc="http://creativecommons.org/ns#"
   xmlns:rdf="http://www.w3.org/1999/02/22-rdf-syntax-ns#"
   xmlns:svg="http://www.w3.org/2000/svg"
   xmlns="http://www.w3.org/2000/svg"
   xmlns:sodipodi="http://sodipodi.sourceforge.net/DTD/sodipodi-0.dtd"
   xmlns:inkscape="http://www.inkscape.org/namespaces/inkscape"
   id="svg2"
   version="1.1"
   inkscape:version="0.91 r13725"
   sodipodi:docname="BVT.svg"
   width="98.721054"
   height="76.919632">
  <metadata
     id="metadata10">
    <rdf:RDF>
      <cc:Work
         rdf:about="">
        <dc:format>image/svg+xml</dc:format>
        <dc:type
           rdf:resource="http://purl.org/dc/dcmitype/StillImage" />
        <dc:title></dc:title>
      </cc:Work>
    </rdf:RDF>
  </metadata>
  <defs
     id="defs8" />
  <sodipodi:namedview
     pagecolor="#ffffff"
     bordercolor="#666666"
     borderopacity="1"
     objecttolerance="10"
     gridtolerance="10"
     guidetolerance="10"
     inkscape:pageopacity="0"
     inkscape:pageshadow="2"
     inkscape:window-width="640"
     inkscape:window-height="480"
     id="namedview6"
     showgrid="false"
     fit-margin-top="0"
     fit-margin-left="0"
     fit-margin-right="0"
     fit-margin-bottom="0"
     inkscape:zoom="2.36"
     inkscape:cx="59.419081"
     inkscape:cy="38.459836"
     inkscape:window-x="0"
     inkscape:window-y="0"
     inkscape:window-maximized="0"
     inkscape:current-layer="svg2" />
  <path
     d="m 299.84257,110.02299 0.56312,-0.5321 1.20996,-0.77898 -0.064,0.70045 -0.0828,0.90821 -0.67968,-0.0451 -0.29861,0.48452 -0.64794,-0.73705 z"
     style="fill:#003476"
     id="path4"
     inkscape:connector-curvature="0" />
  <path
     d="M 36.902946,76.919633 25.273629,75.732961 16.539773,67.070312 11.959246,60.306322 9.277383,56.34286 2.109925,49.151669 1.872591,46.493539 1.898661,44.357542 1.424006,42.221545 0,39.848214 5.57733,36.525553 9.066128,30.283695 10.727459,22.71277 10.964792,18.203443 11.142793,15.545314 14.275589,11.012252 21.680379,7.119991 36.679825,2.753063 82.155207,0 l 5.221325,0.711999 4.414394,2.397065 4.794128,4.794126 2.135997,6.099459 -3.29893,6.218125 C 98.056944,75.611305 68.959469,67.247986 36.563533,76.872172 Z"
     style="fill:#003476"
     id="path4-0"
     inkscape:connector-curvature="0"
     sodipodi:nodetypes="cccccccccccccccccccccccccc" />
</svg>
