<?xml version="1.0" encoding="UTF-8" standalone="no"?>
<svg
   xmlns:dc="http://purl.org/dc/elements/1.1/"
   xmlns:cc="http://creativecommons.org/ns#"
   xmlns:rdf="http://www.w3.org/1999/02/22-rdf-syntax-ns#"
   xmlns:svg="http://www.w3.org/2000/svg"
   xmlns="http://www.w3.org/2000/svg"
   xmlns:sodipodi="http://sodipodi.sourceforge.net/DTD/sodipodi-0.dtd"
   xmlns:inkscape="http://www.inkscape.org/namespaces/inkscape"
   id="svg2"
   version="1.1"
   inkscape:version="0.91 r13725"
   sodipodi:docname="EGY.svg"
   width="17.302982"
   height="13.632967">
  <metadata
     id="metadata10">
    <rdf:RDF>
      <cc:Work
         rdf:about="">
        <dc:format>image/svg+xml</dc:format>
        <dc:type
           rdf:resource="http://purl.org/dc/dcmitype/StillImage" />
      </cc:Work>
    </rdf:RDF>
  </metadata>
  <defs
     id="defs8" />
  <sodipodi:namedview
     pagecolor="#ffffff"
     bordercolor="#666666"
     borderopacity="1"
     objecttolerance="10"
     gridtolerance="10"
     guidetolerance="10"
     inkscape:pageopacity="0"
     inkscape:pageshadow="2"
     inkscape:window-width="480"
     inkscape:window-height="419"
     id="namedview6"
     showgrid="false"
     inkscape:zoom="2.36"
     inkscape:cx="-113.12899"
     inkscape:cy="46.711111"
     inkscape:window-x="0"
     inkscape:window-y="0"
     inkscape:window-maximized="0"
     inkscape:current-layer="svg2" />
  <path
     d="m 14.538712,2.964409 -0.39945,0.571605 -0.30605,1.07439 -0.3869,0.740536 -0.33159,0.24832 -0.47395,-0.458894 -0.64192,-0.634723 -1.0148,-2.038656 -0.14616,0.128924 0.58931,1.500729 0.87316,1.429817 1.0749,2.215282 0.52525,0.773276 0.45682,0.803285 1.27622,1.574457 -0.28258,0.247951 0.0459,0.924344 1.65647,1.276573 0.24966,0.291342 -5.64086,0 -5.5182204,0 -5.71733004,0 0,-5.237333 0,-5.057642 L 2.1555556e-5,2.192341 0.36631156,1.314247 l -0.22009,-0.60827 0.51478,-0.682468 1.89228004,-0.02351 1.36859,0.376064 1.41206,0.420252 0.65856,0.221469 1.09496,-0.450574 0.5854,-0.407524 1.25426,-0.117276 1.01124,0.179569 0.3874904,0.705423 0.33004,-0.464697 1.13984,0.336028 1.10859,0.08051 0.69979,-0.358258 0.93463,2.443421 z"
     style="fill:#003476"
     id="path4"
     inkscape:connector-curvature="0" />
</svg>
