<?xml version="1.0" encoding="UTF-8" standalone="no"?>
<svg
   xmlns:dc="http://purl.org/dc/elements/1.1/"
   xmlns:cc="http://creativecommons.org/ns#"
   xmlns:rdf="http://www.w3.org/1999/02/22-rdf-syntax-ns#"
   xmlns:svg="http://www.w3.org/2000/svg"
   xmlns="http://www.w3.org/2000/svg"
   xmlns:sodipodi="http://sodipodi.sourceforge.net/DTD/sodipodi-0.dtd"
   xmlns:inkscape="http://www.inkscape.org/namespaces/inkscape"
   id="svg2"
   version="1.1"
   inkscape:version="0.91 r13725"
   sodipodi:docname="ETH.svg"
   width="21.099009"
   height="16.408705">
  <metadata
     id="metadata10">
    <rdf:RDF>
      <cc:Work
         rdf:about="">
        <dc:format>image/svg+xml</dc:format>
        <dc:type
           rdf:resource="http://purl.org/dc/dcmitype/StillImage" />
      </cc:Work>
    </rdf:RDF>
  </metadata>
  <defs
     id="defs8" />
  <sodipodi:namedview
     pagecolor="#ffffff"
     bordercolor="#666666"
     borderopacity="1"
     objecttolerance="10"
     gridtolerance="10"
     guidetolerance="10"
     inkscape:pageopacity="0"
     inkscape:pageshadow="2"
     inkscape:window-width="480"
     inkscape:window-height="419"
     id="namedview6"
     showgrid="false"
     inkscape:zoom="2.36"
     inkscape:cx="-124.86817"
     inkscape:cy="73.13307"
     inkscape:window-x="0"
     inkscape:window-y="0"
     inkscape:window-maximized="0"
     inkscape:current-layer="svg2" />
  <path
     d="m 7.0426929,3.777778e-6 0.86311,0.645630002222 0.83407,-0.33447 0.34305,0.29738 0.9751301,0.017 1.23783,0.57024002 0.36779,0.4911 0.63056,0.45688 0.5848,0.8338 0.48613,0.46022 -0.5,0.62895 -0.48105,0.66674 0.11069,0.39266 0.0227,0.43264 0.79441,0.0238 0.34246,-0.10085 0.31562,0.25348 -0.31018,0.50389 0.52532,0.78313 0.52461,0.68475 0.54295,0.50759 4.65008,1.68775 1.19621,-0.009 -4.01895,4.2686202 -1.85277,0.0627 -1.26748,1.00261 -0.91173,0.0263 -0.38902,0.44831 -0.97178,-2.6e-4 -0.57361,-0.48061 -1.2992601,0.59482 -0.42034,0.59268 -0.94845,-0.1119 -0.31484,-0.16403 -0.33304,0.0392 -0.4495,-0.0144 -1.80028,-1.20783 -0.98988,0 -0.48588,-0.46806 0,-0.79824 -0.73876,-0.23861 -0.84051,-1.54769 -0.64953,-0.32974 -0.24921,-0.56872 L 0.87337289,10.305294 -2.7111111e-5,10.203414 0.48440289,9.3933038 l 0.75478001,-0.035 0.21259,-0.43434 -0.019,-1.27861 0.42074,-1.48837 0.6737,-0.39834 0.14291,-0.58139 0.60993,-1.08643 0.8578,-0.7046 0.57826,-1.40096 0.22655,-1.22138002 1.65584,0.29726002 0.44416,-1.06144002222 z"
     style="fill:#003476"
     id="path4"
     inkscape:connector-curvature="0" />
</svg>
