<?xml version="1.0" encoding="UTF-8" standalone="no"?>
<svg
   xmlns:dc="http://purl.org/dc/elements/1.1/"
   xmlns:cc="http://creativecommons.org/ns#"
   xmlns:rdf="http://www.w3.org/1999/02/22-rdf-syntax-ns#"
   xmlns:svg="http://www.w3.org/2000/svg"
   xmlns="http://www.w3.org/2000/svg"
   xmlns:sodipodi="http://sodipodi.sourceforge.net/DTD/sodipodi-0.dtd"
   xmlns:inkscape="http://www.inkscape.org/namespaces/inkscape"
   id="svg2"
   version="1.1"
   inkscape:version="0.91 r13725"
   sodipodi:docname="GBR.svg"
   width="13.160816"
   height="12.337778">
  <metadata
     id="metadata10">
    <rdf:RDF>
      <cc:Work
         rdf:about="">
        <dc:format>image/svg+xml</dc:format>
        <dc:type
           rdf:resource="http://purl.org/dc/dcmitype/StillImage" />
      </cc:Work>
    </rdf:RDF>
  </metadata>
  <defs
     id="defs8" />
  <sodipodi:namedview
     pagecolor="#ffffff"
     bordercolor="#666666"
     borderopacity="1"
     objecttolerance="10"
     gridtolerance="10"
     guidetolerance="10"
     inkscape:pageopacity="0"
     inkscape:pageshadow="2"
     inkscape:window-width="480"
     inkscape:window-height="419"
     id="namedview6"
     showgrid="false"
     inkscape:zoom="2.36"
     inkscape:cx="-67.230694"
     inkscape:cy="6.9457779"
     inkscape:window-x="0"
     inkscape:window-y="0"
     inkscape:window-maximized="0"
     inkscape:current-layer="svg2" />
  <path
     d="M 2.7167555,5.8032312 1.9545355,6.7803522 0.87955551,6.4871792 -4.493026e-6,6.5067292 0.29317551,5.7445822 -4.493026e-6,4.9825822 1.1922755,4.9239322 l 1.52448,0.879299 M 6.4955255,1.5426323e-7 4.9754155,1.5388092 l 1.449,-0.194836 1.55836,0.0074 -0.37079,1.158801 -1.2786,1.274631 1.47057,0.09073 0.11283,0.149469 1.26676,1.678103 0.9735105,0.228424 0.87533,1.620426 0.40533,0.561798 1.7231,0.270904 -0.17286,0.909542 -0.72452,0.41705 0.5679,0.7357618 -1.27933,0.744802 -1.9027205,-0.01316 -2.42131,0.391069 -0.66315,-0.27998 -0.94034,0.666345 -1.31564,-0.161395 -0.99913,0.543057 -0.75597,-0.283986 2.0858,-1.493794 1.27308,-0.30721 -0.0112,-0.0012 -2.22101,-0.236968 -0.40238,-0.5659508 1.48614,-0.440825 -0.7789,-0.766079 0.27024,-0.931554 2.11367,0.128649 0.002,1.51e-4 0.20916,-0.825683 -0.95245,-0.876 -0.0218,-0.02002 -1.72681,-0.250252 -0.339,-0.384895 0.51685,-0.635551 -0.46772,-0.391841 -0.76575,0.672483 -0.0833,-1.370836 -0.7182,-0.725326 0.51649,-1.470348 1.10482,-1.15365705 1.13565,0.112595 1.7159,-0.119686995737 z"
     style="fill:#003476"
     id="path4"
     inkscape:connector-curvature="0" />
</svg>
