<?xml version="1.0" encoding="UTF-8" standalone="no"?>
<svg
   xmlns:dc="http://purl.org/dc/elements/1.1/"
   xmlns:cc="http://creativecommons.org/ns#"
   xmlns:rdf="http://www.w3.org/1999/02/22-rdf-syntax-ns#"
   xmlns:svg="http://www.w3.org/2000/svg"
   xmlns="http://www.w3.org/2000/svg"
   xmlns:sodipodi="http://sodipodi.sourceforge.net/DTD/sodipodi-0.dtd"
   xmlns:inkscape="http://www.inkscape.org/namespaces/inkscape"
   id="svg2"
   version="1.1"
   inkscape:version="0.91 r13725"
   sodipodi:docname="GRL.svg"
   width="86.881348"
   height="33.576347">
  <metadata
     id="metadata10">
    <rdf:RDF>
      <cc:Work
         rdf:about="">
        <dc:format>image/svg+xml</dc:format>
        <dc:type
           rdf:resource="http://purl.org/dc/dcmitype/StillImage" />
      </cc:Work>
    </rdf:RDF>
  </metadata>
  <defs
     id="defs8" />
  <sodipodi:namedview
     pagecolor="#ffffff"
     bordercolor="#666666"
     borderopacity="1"
     objecttolerance="10"
     gridtolerance="10"
     guidetolerance="10"
     inkscape:pageopacity="0"
     inkscape:pageshadow="2"
     inkscape:window-width="480"
     inkscape:window-height="419"
     id="namedview6"
     showgrid="false"
     inkscape:zoom="2.36"
     inkscape:cx="26.244622"
     inkscape:cy="-7.3856142"
     inkscape:window-x="0"
     inkscape:window-y="0"
     inkscape:window-maximized="0"
     inkscape:current-layer="svg2" />
  <path
     d="m 37.736121,1.4466417 4.774897,-0.84935103 4.99045,0.063972 1.813888,-0.5246152 L 54.341874,3.6666667e-7 65.701746,0.17844667 l 8.896099,1.12777903 -2.626034,0.547613 -5.441009,0.06258 -7.655069,0.13888 0.716146,0.25381 5.034382,-0.156786 4.283989,0.490397 2.760818,-0.435485 1.182621,0.510123 -1.561401,0.82742 3.620949,-0.528938 6.905525,-0.551581 4.26383,0.275343 0.79876,0.607729 -5.79809,1.011911 -0.80308,0.327168 -4.545768,0.245931 3.293708,0.06821 -1.6635,1.036971 -1.144875,0.922624 0.04473,1.582492 1.70763,0.928626 -2.22176,0.05875 -2.338716,0.449977 2.624526,0.7535933 0.33437,1.208462 -1.52066,0.131598 1.8423,1.223452 -3.159335,0.102102 1.649323,0.578403 -0.466204,0.501718 -2.005149,0.220174 -1.982179,0.0042 1.781788,0.963342 0.0193,0.633159 -2.814294,-0.588501 -0.731904,0.3807 1.92,0.355613 1.863325,0.869233 0.539378,1.145302 -2.535069,0.274048 -1.096519,-0.548253 -1.758421,-0.816995 0.486485,0.965234 -1.651783,0.747804 3.748039,0.06037 1.960391,0.07758 -3.811911,1.238272 -3.865742,1.121194 -4.161906,0.491278 -1.568626,0.006 -1.471146,0.547996 -1.978184,1.501483 -3.059029,0.99675 -0.98267,0.05862 -1.893362,0.349227 -2.043975,0.332302 -1.218517,0.879659 -0.01966,0.996906 -0.719488,0.933775 -2.31919,1.137962 0.572758,1.111325 -0.639332,1.176021 -0.728476,1.388544 -2.004054,0.0867 -2.099399,-1.161273 -2.843449,-0.0073 -1.379754,-0.779918 -0.949064,-1.388871 -2.464512,-1.768604 -0.72091,-0.926592 -0.194062,-1.277554 -1.969877,-1.312526 0.512071,-1.048079 -0.949334,-0.501319 1.406166,-1.662009 2.140501,-0.529052 0.561707,-0.594816 0.297514,-1.111168 -1.624696,0.503716 -0.774166,0.211576 -1.277682,0.202717 -1.745166,-0.464221 -0.09479,-0.966101 0.556331,-0.756615 1.319146,-0.02054 2.903005,0.378276 -2.445127,-0.903211 -1.272676,-0.486884 -1.41622,0.20004 -1.187101,-0.352573 1.587897,-1.325241 -0.864924,-0.529578 -1.128804,-0.982984 -1.711786,-1.508252 -1.810717,-0.55232 0.01654,-0.595428 -3.816463,-0.832156 -3.019434,-0.103566 -3.80106,0.05737 -3.4703788,0.104462 -1.650446,-0.45275 -2.471424,-0.8943223 3.734557,-0.44736 2.862563,-0.07514 L 3.2057732,8.5463997 -1.4777778e-5,7.9657917 0.19571122,7.4132297 5.5801452,6.7288987 l 5.2092438,-0.683349 0.550116,-0.517376 -3.8386918,-0.510677 1.239737,-0.566912 4.9237898,-0.992911 2.069063,-0.152377 -0.592668,-0.639032 3.368775,-0.374344 4.373405,-0.223445 4.370517,-0.01263 1.551843,0.442723 3.772687,-0.782933 3.394489,0.53194 1.996828,0.112163 2.953728,0.462571 -3.381618,-0.766706 0.194717,-0.608953 z"
     style="fill:#003476"
     id="path4"
     inkscape:connector-curvature="0" />
</svg>
