<?xml version="1.0" encoding="UTF-8" standalone="no"?>
<svg
   xmlns:dc="http://purl.org/dc/elements/1.1/"
   xmlns:cc="http://creativecommons.org/ns#"
   xmlns:rdf="http://www.w3.org/1999/02/22-rdf-syntax-ns#"
   xmlns:svg="http://www.w3.org/2000/svg"
   xmlns="http://www.w3.org/2000/svg"
   xmlns:sodipodi="http://sodipodi.sourceforge.net/DTD/sodipodi-0.dtd"
   xmlns:inkscape="http://www.inkscape.org/namespaces/inkscape"
   id="svg2"
   version="1.1"
   inkscape:version="0.91 r13725"
   sodipodi:docname="HND.svg"
   width="8.8264637"
   height="4.2961349">
  <metadata
     id="metadata10">
    <rdf:RDF>
      <cc:Work
         rdf:about="">
        <dc:format>image/svg+xml</dc:format>
        <dc:type
           rdf:resource="http://purl.org/dc/dcmitype/StillImage" />
      </cc:Work>
    </rdf:RDF>
  </metadata>
  <defs
     id="defs8" />
  <sodipodi:namedview
     pagecolor="#ffffff"
     bordercolor="#666666"
     borderopacity="1"
     objecttolerance="10"
     gridtolerance="10"
     guidetolerance="10"
     inkscape:pageopacity="0"
     inkscape:pageshadow="2"
     inkscape:window-width="640"
     inkscape:window-height="480"
     id="namedview6"
     showgrid="false"
     inkscape:zoom="2.36"
     inkscape:cx="49.080286"
     inkscape:cy="59.532891"
     inkscape:window-x="0"
     inkscape:window-y="0"
     inkscape:window-maximized="0"
     inkscape:current-layer="svg2" />
  <path
     d="m 2.8965995,4.2961338 -0.245695,-0.44494 -0.4319323,-0.12366 0.098998,-0.56969 -0.1934399,-0.15398 -0.292732,-0.10142 -0.6238655,0.16944 -0.052953,-0.19153 -0.42928637,-0.22805 -0.3064022,-0.28377 L 1.0151334e-7,2.2489238 0.29552503,1.8878438 l -0.1133299,-0.27914 0.1001374,-0.27326 0.6743201,-0.39797001 0.64804537,-0.54255 0.1477257,0.0556 0.3119511,-0.25004 0.4069438,-0.0204 0.1319242,0.11594 0.2206699,-0.0706 0.6607234,0.12832 0.6574161,-0.0372 0.4575454,-0.15732 L 4.7663953,3.78828e-6 5.2195678,0.07360379 l 0.340357,0.0966 0.3719969,-0.0333 0.2826264,-0.1234 0.6495888,0.19726 0.2257411,0.0314 0.4340636,0.26583 0.4111331,0.31882 0.5171134,0.21784001 0.3742752,0.39122 -0.4874948,-0.0291 -0.1971146,0.1937 -0.4937051,0.18579 -0.3592821,9.6e-4 -0.314303,0.18084 -0.2847945,-0.0643 -0.2424245,-0.21729 -0.1485709,0.0414 -0.1824523,0.33984 -0.1364809,-0.0123 -0.023629,0.29274 -0.4964245,0.39162 -0.2620477,0.16915 -0.1459619,0.17639 -0.4195115,-0.28748 -0.3070269,0.37949 -0.2966274,-0.0101 -0.3333382,0.0336 0.030243,0.69939 -0.2086901,0.0126 -0.1780792,0.32485 -0.4421482,0.0585 z"
     style="fill:#003476"
     id="path4"
     inkscape:connector-curvature="0" />
</svg>
