<?xml version="1.0" encoding="UTF-8" standalone="no"?>
<svg
   xmlns:dc="http://purl.org/dc/elements/1.1/"
   xmlns:cc="http://creativecommons.org/ns#"
   xmlns:rdf="http://www.w3.org/1999/02/22-rdf-syntax-ns#"
   xmlns:svg="http://www.w3.org/2000/svg"
   xmlns="http://www.w3.org/2000/svg"
   xmlns:sodipodi="http://sodipodi.sourceforge.net/DTD/sodipodi-0.dtd"
   xmlns:inkscape="http://www.inkscape.org/namespaces/inkscape"
   id="svg2"
   version="1.1"
   inkscape:version="0.91 r13725"
   sodipodi:docname="HUN.svg"
   width="9.2561541"
   height="4.0737748">
  <metadata
     id="metadata10">
    <rdf:RDF>
      <cc:Work
         rdf:about="">
        <dc:format>image/svg+xml</dc:format>
        <dc:type
           rdf:resource="http://purl.org/dc/dcmitype/StillImage" />
      </cc:Work>
    </rdf:RDF>
  </metadata>
  <defs
     id="defs8" />
  <sodipodi:namedview
     pagecolor="#ffffff"
     bordercolor="#666666"
     borderopacity="1"
     objecttolerance="10"
     gridtolerance="10"
     guidetolerance="10"
     inkscape:pageopacity="0"
     inkscape:pageshadow="2"
     inkscape:window-width="480"
     inkscape:window-height="419"
     id="namedview6"
     showgrid="false"
     inkscape:zoom="2.36"
     inkscape:cx="-101.04327"
     inkscape:cy="12.919849"
     inkscape:window-x="0"
     inkscape:window-y="0"
     inkscape:window-maximized="0"
     inkscape:current-layer="svg2" />
  <path
     d="M 1.4327646e-6,2.5194218 0.47213143,1.6038158 l -0.27546,-0.308239 0.80095,-0.0028 0.10796997,-0.58116501 0.72363,0.36413301 0.52432,0.155075 1.19379,-0.174257 0.1145,-0.28560301 0.56511,-0.04211 0.69262,-0.22078 0.15375,0.09091 0.66785,-0.177601 0.33352,-0.334625 0.46611,-0.08675999922 1.52312,0.4321899992197 0.30346,-0.145484 0.78964,0.386879 0.0991,0.38122101 -0.86864,0.298317 -0.67307,0.964554 -0.85982,0.964479 -1.14028,0.268259 -0.88768,-0.06295 -1.08972,0.373834 -0.53159,0.212475 -1.17475,-0.273476 -1.06317997,-0.609938 -0.45185,-0.175103 -0.27634,-0.480108 -0.239229997235,-0.01573 z"
     style="fill:#003476"
     id="path4"
     inkscape:connector-curvature="0" />
</svg>
