<?xml version="1.0" encoding="UTF-8" standalone="no"?>
<svg
   xmlns:dc="http://purl.org/dc/elements/1.1/"
   xmlns:cc="http://creativecommons.org/ns#"
   xmlns:rdf="http://www.w3.org/1999/02/22-rdf-syntax-ns#"
   xmlns:svg="http://www.w3.org/2000/svg"
   xmlns="http://www.w3.org/2000/svg"
   xmlns:sodipodi="http://sodipodi.sourceforge.net/DTD/sodipodi-0.dtd"
   xmlns:inkscape="http://www.inkscape.org/namespaces/inkscape"
   id="svg2"
   version="1.1"
   inkscape:version="0.91 r13725"
   sodipodi:docname="IDN.svg"
   width="65.053619"
   height="22.527727">
  <metadata
     id="metadata10">
    <rdf:RDF>
      <cc:Work
         rdf:about="">
        <dc:format>image/svg+xml</dc:format>
        <dc:type
           rdf:resource="http://purl.org/dc/dcmitype/StillImage" />
      </cc:Work>
    </rdf:RDF>
  </metadata>
  <defs
     id="defs8" />
  <sodipodi:namedview
     pagecolor="#ffffff"
     bordercolor="#666666"
     borderopacity="1"
     objecttolerance="10"
     gridtolerance="10"
     guidetolerance="10"
     inkscape:pageopacity="0"
     inkscape:pageshadow="2"
     inkscape:window-width="480"
     inkscape:window-height="419"
     id="namedview6"
     showgrid="false"
     inkscape:zoom="2.36"
     inkscape:cx="-213.52786"
     inkscape:cy="92.734204"
     inkscape:window-x="433"
     inkscape:window-y="149"
     inkscape:window-maximized="0"
     inkscape:current-layer="svg2" />
  <path
     d="m 36.156561,22.356483 -0.59818,0.0271 -1.88758,-0.99652 1.32622,-0.27965 0.74731,0.43318 0.49741,0.432 -0.0852,0.38387 m 5.29115,-0.14163 -1.21737,0.31287 -0.17066,-0.17065 0.12803,-0.48353 0.61155,-0.86754 1.40612,-0.56496 0.14412,0.28046 0.0263,0.4312 -0.9281,1.06215 m -9.29554,-2.90747 0.51285,0.37931 0.87871,-0.1162 0.35278,0.60465 -1.64424,0.2856 -0.98514,0.19094 -0.76457,-0.0113 0.48867,-0.81888 0.77979,-0.0112 0.38115,-0.50293 m 7.11611,-0.002 -0.20843,0.79015 -2.13688,0.40371 -1.8917,-0.17529 -0.005,-0.5199 1.12948,-0.29568 0.89113,0.42635 0.94677,-0.10826 1.27455,-0.52108 m -20.30941,-1.87244 2.72462,0.14177 0.31338,-0.5862 2.63856,0.68388 0.51762,0.92185 2.13358,0.25929 1.74448,0.8452 -1.62278,0.54188 -1.56412,-0.57297 -1.2872,0.0387 -1.47572,-0.10532 -1.33107,-0.25532 -1.64762,-0.54321 -1.04393,-0.14089 -0.59149,0.17786 -2.59365,-0.58561 -0.24672,-0.61155 -1.30153,-0.10451 0.97587,-1.35893 1.72567,0.084 1.14785,0.55577 0.58987,0.10841 0.19433,0.50587 m 37.12162,-0.8011 -0.73172,0.9683 -0.13846,-1.07061 0.25253,-0.51116 0.29766,-0.48073 0.32338,0.41606 -0.003,0.67814 m -10.63169,-3.9187 -0.53233,0.47206 -0.98292,-0.26113 -0.27701,-0.6117 1.43875,-0.0682 0.35351,0.46897 m 4.58258,-0.51954 0.51697,1.08758 -1.20077,-0.58619 -1.18798,-0.11899 -0.80293,0.0939 -0.98388,-0.0501 0.33705,-0.78192 1.75661,-0.059 1.56493,0.41473 m 5.22244,-2.76181 0.39717,2.30019 1.47196,0.85129 1.18857,-1.50856 1.63189,-0.85836 1.26434,-10e-4 1.21628,0.4958 1.05495,0.50881 1.52679,0.27178 0.024,4.63484 0.0239,4.63484 -1.2664,-1.16725 -1.44448,-0.28605 -0.35028,0.40518 -1.80196,0.0437 0.60391,-1.1574 0.89532,-0.39489 -0.37078,-1.54649 -0.68277,-1.19394 -2.75711,-1.20436 -1.17284,-0.11892 -2.13577,-1.31424 -0.41981,0.69115 -0.54577,0.12538 -0.32287,-0.52152 -0.004,-0.61795 -1.08656,-0.69865 1.53179,-0.51219 1.01431,0.0276 -0.11921,-0.37733 -2.0819,-0.003 -0.56342,-0.84674 -1.27058,-0.2626 -0.602,-0.70371 1.91712,-0.34455 0.729,-0.46354 2.28328,0.58407 0.22446,0.52858 m -12.66186,-3.65753 -1.1427,1.41078 -1.06885,0.27347 -1.36877,-0.2781 -2.36994,0.071 -1.24251,0.20476 -0.20226,1.07649 1.27294,1.26471 0.76788,-0.64419 2.65208,-0.48397 -0.11686,0.65499 -0.61963,-0.20659 -0.61751,0.83329 -1.25192,0.55129 1.34584,1.82268 -0.2598,0.48845 1.27867,1.64152 -0.0123,0.93428 -0.75921,0.41811 -0.55768,-0.50014 0.68718,-1.16446 -1.39568,0.55063 -0.35381,-0.39364 0.18448,-0.54908 -1.02541,-0.83396 0.10554,-1.3859 -0.94853,0.4323 0.12031,1.65828 0.0578,2.03472 -0.90193,0.20645 -0.61104,-0.41746 0.40775,-1.3091 -0.22012,-1.37245 -0.59803,-0.0105 -0.44171,-0.97425 0.58767,-0.93141 0.20255,-1.12918 0.71482,-2.14386 0.29824,-0.58628 1.209,-1.05635 1.11081,0.41996 1.79307,0.19733 1.63549,-0.0596 1.40582,-1.03276 0.24819,0.31776 m 4.90347,0.40882 -0.0744,1.24288 -0.73356,-0.13928 -0.21637,0.86541 0.58591,0.75083 -0.3982,0.17065 -0.57393,-0.90083 -0.42237,-1.81805 0.28589,-1.13631 0.47199,-0.51756 0.10209,0.77663 0.83968,0.12475 0.13325,0.58088 m -15.37795,-0.98881 1.59448,1.31615 -1.68518,0.16779 -0.47434,0.96963 0.0616,1.28881 -1.3676,0.97271 -0.0373,1.41633 -0.54857,2.17488 -0.20939,-0.50587 -1.61572,0.63992 -0.56342,-0.86937 -1.01402,-0.0804 -0.70923,-0.45567 -1.69083,0.51146 -0.51888,-0.68829 -0.93163,0.0782 -1.17247,-0.16411 -0.21747,-1.90743 -0.70967,-0.39533 -0.68277,-1.21657 -0.198,-1.24428 0.16566,-1.31777 0.84498,-0.94511 0.23746,0.95051 0.97256,0.80357 0.91745,-0.28921 0.90796,0.10245 0.82873,-0.71919 0.68204,-0.12468 1.34548,0.39857 1.15983,-0.30314 0.72915,-1.97801 0.54761,-0.49459 0.49271,-1.61752 1.63513,6.6e-4 1.23281,0.2397 -0.80896,1.28444 1.04547,1.34648 -0.24562,0.65429 m -17.14912,10.92266 -1.57478,0.0298 -1.19776,-1.18894 -1.82606,-1.16203 -0.6088404,-0.86203 -1.07671,-1.15821 -0.70629,-1.06598 -1.08163,-1.99099 -1.24905,-1.18541 -0.41775,-1.22274 -0.52432,-1.11022 -1.28249,-0.89554 -0.74333,-1.21687 -1.07083,-0.79654 L 0.12570058,0.72400301 7.6057583e-4,4.3012757e-5 0.91644058,0.05734301 l 2.20163002,0.27477 1.25765,1.39085999 1.09993,0.96429 0.78427,0.59168 1.34746,1.52881 1.4458,0.0223 1.1950404,0.97422 0.82285,1.19088 1.0831,0.6497 -0.56995,1.16123 0.81513,0.49388 0.51087,0.0365 0.24107,0.99204 0.4955,0.79367 1.04422,0.12576 0.69189,0.90017 -0.35719,1.76888 -0.0566,2.19994 z"
     style="fill:#003476"
     id="path4"
     inkscape:connector-curvature="0" />
</svg>
