<?xml version="1.0" encoding="UTF-8" standalone="no"?>
<svg
   xmlns:dc="http://purl.org/dc/elements/1.1/"
   xmlns:cc="http://creativecommons.org/ns#"
   xmlns:rdf="http://www.w3.org/1999/02/22-rdf-syntax-ns#"
   xmlns:svg="http://www.w3.org/2000/svg"
   xmlns="http://www.w3.org/2000/svg"
   xmlns:sodipodi="http://sodipodi.sourceforge.net/DTD/sodipodi-0.dtd"
   xmlns:inkscape="http://www.inkscape.org/namespaces/inkscape"
   id="svg2"
   version="1.1"
   inkscape:version="0.91 r13725"
   sodipodi:docname="KEN.svg"
   width="11.323042"
   height="14.482162">
  <metadata
     id="metadata10">
    <rdf:RDF>
      <cc:Work
         rdf:about="">
        <dc:format>image/svg+xml</dc:format>
        <dc:type
           rdf:resource="http://purl.org/dc/dcmitype/StillImage" />
      </cc:Work>
    </rdf:RDF>
  </metadata>
  <defs
     id="defs8" />
  <sodipodi:namedview
     pagecolor="#ffffff"
     bordercolor="#666666"
     borderopacity="1"
     objecttolerance="10"
     gridtolerance="10"
     guidetolerance="10"
     inkscape:pageopacity="0"
     inkscape:pageshadow="2"
     inkscape:window-width="480"
     inkscape:window-height="419"
     id="namedview6"
     showgrid="false"
     inkscape:zoom="2.36"
     inkscape:cx="-126.20419"
     inkscape:cy="84.651406"
     inkscape:window-x="433"
     inkscape:window-y="149"
     inkscape:window-maximized="0"
     inkscape:current-layer="svg2" />
  <path
     d="m 10.096973,9.0514356 0.84214,1.1732804 -0.99607,0.56789 -0.35118,0.59341 -0.53306,0.10425 -0.20174,1.00208 -0.45672,0.57384 -0.27758,0.9463 -0.57268,0.46968 -2.04135,-1.42173 -0.097,-0.82507 -5.15706998,-2.8973104 -0.24023,-0.15619 L 3.3020918e-5,7.6745756 0.40740302,7.0983156 1.107273,6.1568856 l 0.51753,-1.03666 -0.62565998,-1.63257 -0.16632,-0.71375 -0.67431,-0.98743 L 1.033453,0.93706556 1.997453,-4.4444445e-6 2.736213,0.23860556 l 0,0.79824004 0.48588,0.46806 0.98988,0 1.80028,1.20783 0.4495,0.0144 0.33304,-0.0392 0.31484,0.16403 0.94845,0.1119 0.42034,-0.59268 1.29926,-0.59482 0.57361,0.48061 0.97178,2.6e-4 -1.24307,1.61335 0.017,5.18089 z"
     style="fill:#003476"
     id="path4"
     inkscape:connector-curvature="0" />
</svg>
