<?xml version="1.0" encoding="UTF-8" standalone="no"?>
<svg
   xmlns:dc="http://purl.org/dc/elements/1.1/"
   xmlns:cc="http://creativecommons.org/ns#"
   xmlns:rdf="http://www.w3.org/1999/02/22-rdf-syntax-ns#"
   xmlns:svg="http://www.w3.org/2000/svg"
   xmlns="http://www.w3.org/2000/svg"
   xmlns:sodipodi="http://sodipodi.sourceforge.net/DTD/sodipodi-0.dtd"
   xmlns:inkscape="http://www.inkscape.org/namespaces/inkscape"
   id="svg2"
   version="1.1"
   inkscape:version="0.91 r13725"
   sodipodi:docname="LAO.svg"
   width="10.593475"
   height="12.207875">
  <metadata
     id="metadata10">
    <rdf:RDF>
      <cc:Work
         rdf:about="">
        <dc:format>image/svg+xml</dc:format>
        <dc:type
           rdf:resource="http://purl.org/dc/dcmitype/StillImage" />
      </cc:Work>
    </rdf:RDF>
  </metadata>
  <defs
     id="defs8" />
  <sodipodi:namedview
     pagecolor="#ffffff"
     bordercolor="#666666"
     borderopacity="1"
     objecttolerance="10"
     gridtolerance="10"
     guidetolerance="10"
     inkscape:pageopacity="0"
     inkscape:pageshadow="2"
     inkscape:window-width="480"
     inkscape:window-height="419"
     id="namedview6"
     showgrid="false"
     inkscape:zoom="2.36"
     inkscape:cx="-220.38718"
     inkscape:cy="58.258004"
     inkscape:window-x="0"
     inkscape:window-y="0"
     inkscape:window-maximized="0"
     inkscape:current-layer="svg2" />
  <path
     d="m 7.2572977,11.650191 0.46302,-0.64103 0.0636,-1.2037399 -1.1516,-1.23954 -0.0887,-1.40372 -1.08156,-1.15498 -1.0756,-0.0977 -0.28656,0.49485 -0.833,0.0411 -0.42583,-0.25077 -1.49909,0.84851 -0.0336,-1.27493 0.34998,-1.49853 -0.96102004,-0.0651 -0.0817,-0.854605 L -3.2340861e-5,2.9110921 0.30306766,2.3873271 1.5132377,1.4622411 l 0.12803,0.334109 0.75818,0.03881 -0.2149,-1.626783 0.7373,-0.208432996869 0.83124,1.123008996869 0.63852,1.292196 1.75096,0.01113 0.55121,1.240308 -0.90906,0.372584 -0.40797,0.51127 1.70391,0.85078 1.1821,1.68059 0.89635,1.25302 1.0762003,0.9895 0.35814,1.0046099 -0.25856,1.42184 -1.2605903,-0.52358 -0.64345,0.98061 -1.17358,-0.55768 z"
     style="fill:#003476"
     id="path4"
     inkscape:connector-curvature="0" />
</svg>
