<?xml version="1.0" encoding="UTF-8" standalone="no"?>
<svg
   xmlns:dc="http://purl.org/dc/elements/1.1/"
   xmlns:cc="http://creativecommons.org/ns#"
   xmlns:rdf="http://www.w3.org/1999/02/22-rdf-syntax-ns#"
   xmlns:svg="http://www.w3.org/2000/svg"
   xmlns="http://www.w3.org/2000/svg"
   xmlns:sodipodi="http://sodipodi.sourceforge.net/DTD/sodipodi-0.dtd"
   xmlns:inkscape="http://www.inkscape.org/namespaces/inkscape"
   id="svg2"
   version="1.1"
   inkscape:version="0.91 r13725"
   sodipodi:docname="MMR.svg"
   width="12.624741"
   height="26.173134">
  <metadata
     id="metadata10">
    <rdf:RDF>
      <cc:Work
         rdf:about="">
        <dc:format>image/svg+xml</dc:format>
        <dc:type
           rdf:resource="http://purl.org/dc/dcmitype/StillImage" />
      </cc:Work>
    </rdf:RDF>
  </metadata>
  <defs
     id="defs8" />
  <sodipodi:namedview
     pagecolor="#ffffff"
     bordercolor="#666666"
     borderopacity="1"
     objecttolerance="10"
     gridtolerance="10"
     guidetolerance="10"
     inkscape:pageopacity="0"
     inkscape:pageshadow="2"
     inkscape:window-width="480"
     inkscape:window-height="419"
     id="namedview6"
     showgrid="false"
     inkscape:zoom="2.36"
     inkscape:cx="-209.27571"
     inkscape:cy="63.873124"
     inkscape:window-x="0"
     inkscape:window-y="0"
     inkscape:window-maximized="0"
     inkscape:current-layer="svg2" />
  <path
     d="m 10.296999,11.590183 -0.8300603,0.6167 -1.00402,0.06368 -0.64845,1.537598 -0.60002,0.25834 0.68726,1.24799 0.9026,1.03838 0.58252,0.93868 -0.52049,1.23637 -0.4911,0.26282 0.33955,0.7135 0.94853,1.12999 0.1625,0.7939 -0.0223,0.66068 0.5559903,1.29705 -0.7810303,1.32582 -0.68917,1.46145 -0.13707,-1.05572 0.43715,-1.08946 -0.47816,-0.84152 0.11554,-1.54936 -0.57738,-0.73682 -0.46347,-1.70216 -0.25694,-1.79667 -0.61515,-1.17783 -0.93692,0.71323 -1.61624,1.01384 -0.79779,-0.12667 -0.88121,-0.33349 0.49021,-1.76257 -0.29677,-1.33158 -1.11478,-1.6398 0.17389,-0.512667 -0.83197,-0.182305 -1.00937998,-1.160162 -0.092899996,-1.1443221 0.496389996002,0.215378 0.0291,-1.020006 0.70173998,-0.33738 -0.15052,-0.603948 0.32147,-0.484335 0.0553,-1.471855 1.11154,0.324004 0.63419,-1.172618 0.0719,-0.692988 0.78493,-1.192977 -0.0432,-0.813888 1.8412,-0.98278 1.01637,0.25716 -0.11664,-0.87507204 0.4986,-0.260945 -0.10731,-0.539089 0.83182,-0.1057599998907 0.47537,0.8372959998907 0.62074,0.33907104 0.0418,1.088393 -0.0573,1.173096 -1.34717,1.187649 -0.17051,1.687086 1.50122,-0.23592 0.33918,1.309246 0.9006103,0.275461 -0.4140003,1.181475 1.0561303,0.53387 0.61589,0.261827 1.04319,-0.414072 0.0426,0.587963 -1.21017,0.9250861 -0.3031,0.523765 -0.81447,0.328891 z"
     style="fill:#003476"
     id="path4"
     inkscape:connector-curvature="0" />
</svg>
