<?xml version="1.0" encoding="UTF-8" standalone="no"?>
<svg
   xmlns:dc="http://purl.org/dc/elements/1.1/"
   xmlns:cc="http://creativecommons.org/ns#"
   xmlns:rdf="http://www.w3.org/1999/02/22-rdf-syntax-ns#"
   xmlns:svg="http://www.w3.org/2000/svg"
   xmlns="http://www.w3.org/2000/svg"
   xmlns:sodipodi="http://sodipodi.sourceforge.net/DTD/sodipodi-0.dtd"
   xmlns:inkscape="http://www.inkscape.org/namespaces/inkscape"
   id="svg2"
   version="1.1"
   inkscape:version="0.91 r13725"
   sodipodi:docname="MOZ.svg"
   width="15.069859"
   height="23.360136">
  <metadata
     id="metadata10">
    <rdf:RDF>
      <cc:Work
         rdf:about="">
        <dc:format>image/svg+xml</dc:format>
        <dc:type
           rdf:resource="http://purl.org/dc/dcmitype/StillImage" />
      </cc:Work>
    </rdf:RDF>
  </metadata>
  <defs
     id="defs8" />
  <sodipodi:namedview
     pagecolor="#ffffff"
     bordercolor="#666666"
     borderopacity="1"
     objecttolerance="10"
     gridtolerance="10"
     guidetolerance="10"
     inkscape:pageopacity="0"
     inkscape:pageshadow="2"
     inkscape:window-width="480"
     inkscape:window-height="419"
     id="namedview6"
     showgrid="false"
     inkscape:zoom="2.36"
     inkscape:cx="-120.92193"
     inkscape:cy="116.03334"
     inkscape:window-x="0"
     inkscape:window-y="0"
     inkscape:window-maximized="0"
     inkscape:current-layer="svg2" />
  <path
     d="m 6.2300511,1.7108267 1.0701,-0.11502 1.70906,0.40077 0.3713,-0.17977 0.9900499,-0.0367 0.50683,-0.42664 0.8532,0.0234 1.55517,-0.55231996 1.13146,-0.824550000481 0.23011,0.637650000481 -0.0585,1.41691996 0.17573,1.24795 0.0552,2.22264 0.25011,0.69659 -0.42414,1.01622 -0.55181,0.98771 -0.90553,0.88194 -1.30021,0.54063 -1.60316,0.6902703 -1.6068999,1.5265 -0.54724,0.25966 -0.99285,1.01056 -0.58598,0.32882 -0.12017,1.01409 0.67447,1.07707 0.28061,0.8341 0.0177,0.42548 0.2513,-0.0711 -0.0407,1.3949 -0.23063,0.66072 0.33522,0.24349 -0.21152,0.59171 -0.59451,0.50594 -1.1732,0.48066 -1.71039,0.76979 -0.62375,0.52586 0.12192,0.59914 0.36351,0.0957 -0.12207,0.74855 -1.07869,-0.0119 -0.12215,-0.62868 -0.21049,-0.63779 -0.12142,-0.51065 0.25341,-1.58558 -0.37005,-1.01042 -0.68122,-2.00172 1.49842,-1.61425 0.37505,-1.0257 0.21482,-0.12943 0.16066,-0.83726 -0.22857,-0.42127 0.061,-1.06282 0.2773,-0.98565 -0.003,-1.8000403 -0.7387,-0.457 -0.67726,-0.10333 -0.30655,-0.3519 -0.65911,-0.30015 -1.18627997,0.0283 -0.092,-0.53056 -0.13478999824,-1.01218 4.31578996824,-1.17225 0.81874,0.68262 0.39129,-0.13067 0.56151,0.35991 0.0825,0.56988 -0.2992,0.66124 0.10525,1.00255 0.92802,0.87856 0.43414,-0.98682 0.6156,-0.29949 -0.12098,-1.82872 -0.59575,-1.02856 -0.51314,-0.45854 -0.49375,0.0207 -0.39819,-1.84885 0.39819,-1.08089 z"
     style="fill:#003476"
     id="path4"
     inkscape:connector-curvature="0" />
</svg>
