<?xml version="1.0" encoding="UTF-8" standalone="no"?>
<!-- Created with Inkscape (http://www.inkscape.org/) -->

<svg
   xmlns:dc="http://purl.org/dc/elements/1.1/"
   xmlns:cc="http://creativecommons.org/ns#"
   xmlns:rdf="http://www.w3.org/1999/02/22-rdf-syntax-ns#"
   xmlns:svg="http://www.w3.org/2000/svg"
   xmlns="http://www.w3.org/2000/svg"
   xmlns:sodipodi="http://sodipodi.sourceforge.net/DTD/sodipodi-0.dtd"
   xmlns:inkscape="http://www.inkscape.org/namespaces/inkscape"
   width="3.6475413mm"
   height="4.4983702mm"
   viewBox="0 0 3.6475413 4.49837"
   version="1.1"
   id="svg4488"
   inkscape:version="0.92.1 r"
   sodipodi:docname="MYT.svg">
  <defs
     id="defs4482" />
  <sodipodi:namedview
     id="base"
     pagecolor="#ffffff"
     bordercolor="#666666"
     borderopacity="1.0"
     inkscape:pageopacity="0.0"
     inkscape:pageshadow="2"
     inkscape:zoom="16"
     inkscape:cx="17.361171"
     inkscape:cy="12.651001"
     inkscape:document-units="mm"
     inkscape:current-layer="layer1"
     showgrid="false"
     fit-margin-top="0"
     fit-margin-left="0"
     fit-margin-right="0"
     fit-margin-bottom="0"
     inkscape:window-width="1366"
     inkscape:window-height="681"
     inkscape:window-x="0"
     inkscape:window-y="0"
     inkscape:window-maximized="1" />
  <metadata
     id="metadata4485">
    <rdf:RDF>
      <cc:Work
         rdf:about="">
        <dc:format>image/svg+xml</dc:format>
        <dc:type
           rdf:resource="http://purl.org/dc/dcmitype/StillImage" />
        <dc:title></dc:title>
      </cc:Work>
    </rdf:RDF>
  </metadata>
  <g
     inkscape:label="Layer 1"
     inkscape:groupmode="layer"
     id="layer1"
     transform="translate(1.040018,-140.85407)">
    <path
       d="m -0.56347522,141.18257 -0.0611242,-0.2308 -0.0262982,-0.0977 -0.37169938,0.16645 -0.017421,0.16422 0.14614971,0.0221 0.26840361,0.0277 0.0700289,-0.0277 m 3.16295918,1.80808 -0.00419,-0.2308 -0.017421,-0.16422 -0.1461494,-0.0221 -0.078734,-0.0277 -0.1600146,0.16644 -0.026298,0.0977 0.052596,0.0977 0.1897305,0.0977 0.1319457,0.0277 0.052596,-0.0683 m -1.90394323,-0.99528 -0.46703907,-0.45663 -0.061125,-0.23081 0.10242996,-0.12918 0.007273,-0.12934 -0.11630633,-0.12934 -0.09712037,-0.005 -0.2545331,0.26521 -0.0262984,0.0976 -0.33058743,0.34343 -0.1487297,0.0977 -0.10404481,0.16423 -0.008766,0.29628 -0.0262984,0.12918 0.0926212,0.0977 0.21618427,0.0683 0.31500265,0.0277 0.16428118,0.12918 -0.0048985,0.12934 -0.15405035,0.19863 -0.004198,0.76676 0.092621,0.0976 0.16792079,0.0683 0.18642394,0.19863 0.0891971,0.2308 -0.12501068,0.0977 -0.14517886,-0.0277 -0.18973062,-0.0976 -0.28954767,-0.0683 -0.11275533,-0.19862 -0.0998447,-0.0683 -0.0909567,-0.0221 -0.070029,0.0977 -0.003671,0.0977 0.0611242,0.12918 0.12227604,0.0977 0.0611242,0.0683 0.0611242,0.41278 0.11727716,0.12934 0.5072467,0.0977 0.18973062,0.16643 0.19402476,-0.0221 0.0979078,-0.0277 0.2624448,0.0683 0.0700286,0.0277 0.12227688,0.0683 0.1269476,0.006 0.070028,-0.0683 0.0049,-0.0976 -0.043498,-0.0977 -0.1121115,-0.0683 -0.17220961,-0.12918 0.004807,-0.0977 0.001227,-0.0277 0.25088251,-0.26409 0.00428,-0.0977 0.00419,-0.12918 0.2257714,-0.19862 0.052596,-0.0977 0.0049,-0.12918 -0.1163063,-0.12934 -0.2667559,-0.0221 -0.16162905,-0.19863 0.00672,-0.16422 0.20129865,-0.19862 0.3935423,-0.12918 0.2492403,-0.19863 0.035009,-0.16424 -0.043498,-0.2308 -0.00876,-0.12918 0.00876,-0.12934 -0.061125,-0.0683 -0.1417948,0.006 -0.1137259,-0.0221 -0.4337778,-0.29627 -0.20361759,0.19863 z"
       style="fill:#cf202e;stroke-width:8.74568844"
       id="path2"
       inkscape:connector-curvature="0" />
  </g>
</svg>
