<?xml version="1.0" encoding="UTF-8" standalone="no"?>
<svg
   xmlns:dc="http://purl.org/dc/elements/1.1/"
   xmlns:cc="http://creativecommons.org/ns#"
   xmlns:rdf="http://www.w3.org/1999/02/22-rdf-syntax-ns#"
   xmlns:svg="http://www.w3.org/2000/svg"
   xmlns="http://www.w3.org/2000/svg"
   xmlns:sodipodi="http://sodipodi.sourceforge.net/DTD/sodipodi-0.dtd"
   xmlns:inkscape="http://www.inkscape.org/namespaces/inkscape"
   id="svg2"
   version="1.1"
   inkscape:version="0.91 r13725"
   sodipodi:docname="NER.svg"
   width="22.197475"
   height="16.79858">
  <metadata
     id="metadata10">
    <rdf:RDF>
      <cc:Work
         rdf:about="">
        <dc:format>image/svg+xml</dc:format>
        <dc:type
           rdf:resource="http://purl.org/dc/dcmitype/StillImage" />
      </cc:Work>
    </rdf:RDF>
  </metadata>
  <defs
     id="defs8" />
  <sodipodi:namedview
     pagecolor="#ffffff"
     bordercolor="#666666"
     borderopacity="1"
     objecttolerance="10"
     gridtolerance="10"
     guidetolerance="10"
     inkscape:pageopacity="0"
     inkscape:pageshadow="2"
     inkscape:window-width="480"
     inkscape:window-height="419"
     id="namedview6"
     showgrid="false"
     inkscape:zoom="2.36"
     inkscape:cx="-78.420475"
     inkscape:cy="61.416651"
     inkscape:window-x="433"
     inkscape:window-y="149"
     inkscape:window-maximized="0"
     inkscape:current-layer="svg2" />
  <path
     d="m 2.6436651,16.400378 0.0322,-0.97403 -1.63983,-0.32257 -0.0442,-0.68825 -0.80088,-0.92869 -0.190979995015,-0.64782 0.112709995015,-0.68931 0.91148998,-0.0559 0.52586,-0.50543 1.94057,-0.12226 1.26331,-0.22556 0.12112,-0.87632 0.77766,-0.9499596 -0.004,-3.27543 2.00554,-0.63423 4.1177999,-2.793892 4.8734,-2.710766005196 2.24984,0.613207995196 0.79993,0.78110901 1.00612,-0.52858501 0.34928,2.21074701 0.53218,0.369866 0.0229,0.452327 0.59178,0.487531 -0.30934,0.61218 -0.54798,2.886015 -0.075,1.84981 -1.81408,1.3410696 -0.61413,1.87339 0.59208,0.52685 -0.003,0.91484 0.91207,0.0327 -0.14221,0.66991 -0.40143,0.0816 -0.0458,0.45281 -0.26451,0.0314 -0.96235,-1.55703 -0.33381,-0.0566 -1.11206,0.79496 -1.10118,-0.41499 -0.76546,-0.083 -0.41039,0.19969 -0.83374,-0.0431 -0.83895,0.60608 -0.72532,0.0348 -1.72126,-0.7351 -0.67403,0.34914 -0.7257699,-0.0242 -0.53335,-0.53715 -1.42559,-0.53071 -1.52848,0.16846 -0.37035,0.30757 -0.20005,0.81793 -0.40768,0.57345 -0.0988,1.26967 -1.0845,-0.81844 -0.50983,0.004 -0.47743,0.41657 z"
     style="fill:#003476"
     id="path4"
     inkscape:connector-curvature="0" />
</svg>
