<?xml version="1.0" encoding="UTF-8" standalone="no"?>
<svg
   xmlns:dc="http://purl.org/dc/elements/1.1/"
   xmlns:cc="http://creativecommons.org/ns#"
   xmlns:rdf="http://www.w3.org/1999/02/22-rdf-syntax-ns#"
   xmlns:svg="http://www.w3.org/2000/svg"
   xmlns="http://www.w3.org/2000/svg"
   xmlns:sodipodi="http://sodipodi.sourceforge.net/DTD/sodipodi-0.dtd"
   xmlns:inkscape="http://www.inkscape.org/namespaces/inkscape"
   id="svg2"
   version="1.1"
   inkscape:version="0.91 r13725"
   sodipodi:docname="OMN.svg"
   width="11.104783"
   height="13.859389">
  <metadata
     id="metadata10">
    <rdf:RDF>
      <cc:Work
         rdf:about="">
        <dc:format>image/svg+xml</dc:format>
        <dc:type
           rdf:resource="http://purl.org/dc/dcmitype/StillImage" />
      </cc:Work>
    </rdf:RDF>
  </metadata>
  <defs
     id="defs8" />
  <sodipodi:namedview
     pagecolor="#ffffff"
     bordercolor="#666666"
     borderopacity="1"
     objecttolerance="10"
     gridtolerance="10"
     guidetolerance="10"
     inkscape:pageopacity="0"
     inkscape:pageshadow="2"
     inkscape:window-width="480"
     inkscape:window-height="419"
     id="namedview6"
     showgrid="false"
     inkscape:zoom="2.36"
     inkscape:cx="-151.95557"
     inkscape:cy="54.318505"
     inkscape:window-x="0"
     inkscape:window-y="0"
     inkscape:window-maximized="0"
     inkscape:current-layer="svg2" />
  <path
     d="m 9.7580505,7.5120354 -0.53071,0.974291 -0.64521,-0.0746 -0.29575,0.339108 -0.22842,0.721063 0.17484,0.9506666 -0.13413,0.17473 -0.6544,-0.005 -0.88834,0.53151 -0.13861,0.69285 -0.32522,0.30015 -0.88466,-0.0115 -0.55687,0.35814 0.007,0.57451 -0.68821,0.39489 -0.78471,-0.13409 -0.9511,0.47974 -0.65698,0.0805 -0.46419,-0.9937 L -4.9493365e-5,10.518254 4.2665805,9.0960464 l 0.94816,-2.844454 -0.65183,-1.007402 0.0372,-0.572675 0.41437,-0.588625 0.004,-0.581312 0.64368,-0.28009 -0.25187,-0.197776 0.11678,-0.926189 0.72621,-0.0055 0.63757,0.971462 0.79405,0.516378 1.04319,0.185833 0.84233,0.259219 0.6418305,0.81532 0.38343,0.472355 0.5091,0.180137 -0.003,0.31728 -0.51762,0.847622 -0.22725,0.399153 -0.5991405,0.4549 m -3.51249,-6.80100399 -0.18543,0.257968 -0.27053,-0.484775 0.41414,-0.48422399666 0.17588,0.12347199666 -0.13406,0.587559 z"
     style="fill:#003476"
     id="path4"
     inkscape:connector-curvature="0" />
</svg>
