<?xml version="1.0" encoding="UTF-8" standalone="no"?>
<svg
   xmlns:dc="http://purl.org/dc/elements/1.1/"
   xmlns:cc="http://creativecommons.org/ns#"
   xmlns:rdf="http://www.w3.org/1999/02/22-rdf-syntax-ns#"
   xmlns:svg="http://www.w3.org/2000/svg"
   xmlns="http://www.w3.org/2000/svg"
   xmlns:sodipodi="http://sodipodi.sourceforge.net/DTD/sodipodi-0.dtd"
   xmlns:inkscape="http://www.inkscape.org/namespaces/inkscape"
   id="svg2"
   version="1.1"
   inkscape:version="0.91 r13725"
   sodipodi:docname="PAN.svg"
   width="8.1396856"
   height="3.4006307">
  <metadata
     id="metadata10">
    <rdf:RDF>
      <cc:Work
         rdf:about="">
        <dc:format>image/svg+xml</dc:format>
        <dc:type
           rdf:resource="http://purl.org/dc/dcmitype/StillImage" />
      </cc:Work>
    </rdf:RDF>
  </metadata>
  <defs
     id="defs8" />
  <sodipodi:namedview
     pagecolor="#ffffff"
     bordercolor="#666666"
     borderopacity="1"
     objecttolerance="10"
     gridtolerance="10"
     guidetolerance="10"
     inkscape:pageopacity="0"
     inkscape:pageshadow="2"
     inkscape:window-width="480"
     inkscape:window-height="419"
     id="namedview6"
     showgrid="false"
     inkscape:zoom="2.36"
     inkscape:cx="39.99578"
     inkscape:cy="67.730785"
     inkscape:window-x="0"
     inkscape:window-y="0"
     inkscape:window-maximized="0"
     inkscape:current-layer="svg2" />
  <path
     d="m 7.2308783,3.3960354 -0.474118,-0.41029 -0.304675,-0.76769 0.351381,-0.37994 -0.360348,-0.0975 -0.265465,-0.46993 -0.708532,-0.39533005 -0.622322,0.0906 -0.288286,0.49473005 -0.57444,0.35726 -0.310297,0.0496 -0.139421,0.29596 0.678399,0.77196 -0.388239,0.18172 -0.205493,0.21075 -0.661679,0.0726 -0.246246,-0.84961 -0.185135,0.2418 -0.469047,-0.0835 -0.287,-0.57224 -0.583296,-0.0945 -0.36905697,-0.16635 -0.610342,0.002 -0.04391,0.30868 L 4.3337918e-6,1.9717654 0.07482433,1.6894754 l 0.118621,-0.2884 -0.05531,-0.25738 0.212586,-0.16845005 -0.295783,-0.21137 -0.0082,-0.57242 0.549966,-0.12704 0.51068297,0.51013 -0.0291,0.30133 0.567494,0.0639 0.134276,-0.11568 0.390922,0.34947005 0.699713,-0.10278 0.605014,-0.35921005 0.863717,-0.28685 0.4854,-0.42502999926 0.785225,0.0834999993 -0.05299,0.1399 0.792978,0.0485 0.632832,0.24566 0.464234,0.42793 0.534972,0.39302005 -0.172604,0.20795 0.330178,0.8377 -0.268147,0.42271 -0.458391,-0.10209 -0.182269,0.6913 z"
     style="fill:#003476"
     id="path4"
     inkscape:connector-curvature="0" />
</svg>
