<?xml version="1.0" encoding="UTF-8" standalone="no"?>
<svg
   xmlns:dc="http://purl.org/dc/elements/1.1/"
   xmlns:cc="http://creativecommons.org/ns#"
   xmlns:rdf="http://www.w3.org/1999/02/22-rdf-syntax-ns#"
   xmlns:svg="http://www.w3.org/2000/svg"
   xmlns="http://www.w3.org/2000/svg"
   xmlns:sodipodi="http://sodipodi.sourceforge.net/DTD/sodipodi-0.dtd"
   xmlns:inkscape="http://www.inkscape.org/namespaces/inkscape"
   id="svg2"
   version="1.1"
   inkscape:version="0.91 r13725"
   sodipodi:docname="PRK.svg"
   width="9.2649002"
   height="7.5609832">
  <metadata
     id="metadata10">
    <rdf:RDF>
      <cc:Work
         rdf:about="">
        <dc:format>image/svg+xml</dc:format>
        <dc:type
           rdf:resource="http://purl.org/dc/dcmitype/StillImage" />
      </cc:Work>
    </rdf:RDF>
  </metadata>
  <defs
     id="defs8" />
  <sodipodi:namedview
     pagecolor="#ffffff"
     bordercolor="#666666"
     borderopacity="1"
     objecttolerance="10"
     gridtolerance="10"
     guidetolerance="10"
     inkscape:pageopacity="0"
     inkscape:pageshadow="2"
     inkscape:window-width="480"
     inkscape:window-height="419"
     id="namedview6"
     showgrid="false"
     inkscape:zoom="2.36"
     inkscape:cx="-254.73333"
     inkscape:cy="24.426211"
     inkscape:window-x="0"
     inkscape:window-y="0"
     inkscape:window-maximized="0"
     inkscape:current-layer="svg2" />
  <path
     d="m 9.0657972,0.83964743 0.1991,0.24889197 -0.54041,-0.08533 -0.61736,0.481616 -0.42466,0.48393 0.0538,1.021549 -0.73539,0.314339 -0.25275,0.25084 -0.53622,0.420394 -0.94714,0.233862 -0.61721,0.381955 -0.0445,0.615708 -0.16595,0.157096 0.56591,0.231217 0.80551,0.623865 -0.20476,0.343958 -0.60545,0.09367 -1.00513,0.06887 -0.55408,0.641909 -0.63485,-0.05064 -0.089,0.128984 -0.69071,-0.270683 -0.17162,0.267265 -0.41686,0.118071 -0.0501,-0.267597 -0.36844,-0.13027 -0.38239,-0.226881 0.38945,-0.62596 0.33558,-0.166944 -0.12671,-0.259843 0.36086,-0.767145 -0.0931,-0.232429 -0.83006,-0.154965 L 6.7196039e-5,4.3475824 1.1582072,3.4354684 l 1.56744,-0.764462 0.97712,-1.008687 0.67513,0.445749 1.22972,0.05174 -0.22217,-0.750241 2.19655,-0.61254697 L 8.1474772,4.3426671e-7 9.0658672,0.83964743 Z"
     style="fill:#003476"
     id="path4"
     inkscape:connector-curvature="0" />
</svg>
