<?xml version="1.0" encoding="UTF-8" standalone="no"?>
<svg
   xmlns:dc="http://purl.org/dc/elements/1.1/"
   xmlns:cc="http://creativecommons.org/ns#"
   xmlns:rdf="http://www.w3.org/1999/02/22-rdf-syntax-ns#"
   xmlns:svg="http://www.w3.org/2000/svg"
   xmlns="http://www.w3.org/2000/svg"
   xmlns:sodipodi="http://sodipodi.sourceforge.net/DTD/sodipodi-0.dtd"
   xmlns:inkscape="http://www.inkscape.org/namespaces/inkscape"
   id="svg2"
   version="1.1"
   inkscape:version="0.91 r13725"
   sodipodi:docname="PRT.svg"
   width="4.4621978"
   height="7.7400179">
  <metadata
     id="metadata10">
    <rdf:RDF>
      <cc:Work
         rdf:about="">
        <dc:format>image/svg+xml</dc:format>
        <dc:type
           rdf:resource="http://purl.org/dc/dcmitype/StillImage" />
      </cc:Work>
    </rdf:RDF>
  </metadata>
  <defs
     id="defs8" />
  <sodipodi:namedview
     pagecolor="#ffffff"
     bordercolor="#666666"
     borderopacity="1"
     objecttolerance="10"
     gridtolerance="10"
     guidetolerance="10"
     inkscape:pageopacity="0"
     inkscape:pageshadow="2"
     inkscape:window-width="480"
     inkscape:window-height="419"
     id="namedview6"
     showgrid="false"
     inkscape:zoom="2.36"
     inkscape:cx="-64.4511"
     inkscape:cy="25.607796"
     inkscape:window-x="0"
     inkscape:window-y="0"
     inkscape:window-maximized="0"
     inkscape:current-layer="svg2" />
  <path
     d="M 0.69938041,0.56874409 1.2154704,0.20733009 1.7958604,8.7040476e-8 2.1523904,0.69629509 l 0.84005,-0.0017 0.24349,-0.179586 0.82873,0.04972 0.39754,0.71334601 -0.65712,0.385043 -0.0183,1.109633 -0.23096,0.208139 -0.0571,0.672188 -0.61446,0.117078 0.56973,0.85262 -0.39261,0.93442 0.4904,0.422819 -0.19517,0.386659 -0.52707,0.53332 0.11859,0.470921 -0.57158,0.369094 -0.7498,-0.199981 -0.73391999,0.156545 0.21724999,-1.11294 -0.13353999,-0.874522 -0.6364,-0.131189 L 8.0414393e-5,5.0389801 0.11326041,4.1079411 l 0.56702,-0.516305 0.10091,-0.574881 0.29676999,-0.855228 -0.0315,-0.602589 -0.28434999,-0.510756 -0.0626,-0.47944701 z"
     style="fill:#003476"
     id="path4"
     inkscape:connector-curvature="0" />
</svg>
