<?xml version="1.0" encoding="UTF-8" standalone="no"?>
<svg
   xmlns:dc="http://purl.org/dc/elements/1.1/"
   xmlns:cc="http://creativecommons.org/ns#"
   xmlns:rdf="http://www.w3.org/1999/02/22-rdf-syntax-ns#"
   xmlns:svg="http://www.w3.org/2000/svg"
   xmlns="http://www.w3.org/2000/svg"
   xmlns:sodipodi="http://sodipodi.sourceforge.net/DTD/sodipodi-0.dtd"
   xmlns:inkscape="http://www.inkscape.org/namespaces/inkscape"
   id="svg2"
   version="1.1"
   inkscape:version="0.91 r13725"
   sodipodi:docname="SOM.svg"
   width="14.439567"
   height="19.495667">
  <metadata
     id="metadata10">
    <rdf:RDF>
      <cc:Work
         rdf:about="">
        <dc:format>image/svg+xml</dc:format>
        <dc:type
           rdf:resource="http://purl.org/dc/dcmitype/StillImage" />
      </cc:Work>
    </rdf:RDF>
  </metadata>
  <defs
     id="defs8" />
  <sodipodi:namedview
     pagecolor="#ffffff"
     bordercolor="#666666"
     borderopacity="1"
     objecttolerance="10"
     gridtolerance="10"
     guidetolerance="10"
     inkscape:pageopacity="0"
     inkscape:pageshadow="2"
     inkscape:window-width="480"
     inkscape:window-height="419"
     id="namedview6"
     showgrid="false"
     inkscape:zoom="2.36"
     inkscape:cx="-136.28416"
     inkscape:cy="80.393956"
     inkscape:window-x="0"
     inkscape:window-y="0"
     inkscape:window-maximized="0"
     inkscape:current-layer="svg2" />
  <path
     d="m 12.44099,0.63394022 0.754,-0.14317 0.67306,-0.48687 0.53927,-0.0039999978 0.0322,0.393229997778 -0.13133,0.82721998 0.005,0.74754 -0.30027,0.51367 -0.40077,1.5374 -0.68475,1.58863 -0.87925,1.81628 -1.22048,2.08434 -1.21424,1.5924798 -1.67257,1.94006 -1.42332,1.15133 -2.12742,1.41217 -1.32576,1.08179 -1.55648,1.72282 -0.328,0.74995 -0.32116,0.33676 -0.84214,-1.17328 -0.017,-5.18089 1.24307,-1.61335 0.38902,-0.44831 0.91173,-0.0263 1.26748,-1.00261 1.85277,-0.0627 4.01895,-4.26862 0.99173,-1.18703 0.64199,-0.87342 1.4e-4,-0.74204 3.7e-4,-1.43478 0.005,-0.58586998 0.009,-0.0233 0.45448,-0.028 0.65545,-0.2113 z"
     style="fill:#003476"
     id="path4"
     inkscape:connector-curvature="0" />
</svg>
