<?xml version="1.0" encoding="UTF-8" standalone="no"?>
<svg
   xmlns:dc="http://purl.org/dc/elements/1.1/"
   xmlns:cc="http://creativecommons.org/ns#"
   xmlns:rdf="http://www.w3.org/1999/02/22-rdf-syntax-ns#"
   xmlns:svg="http://www.w3.org/2000/svg"
   xmlns="http://www.w3.org/2000/svg"
   xmlns:sodipodi="http://sodipodi.sourceforge.net/DTD/sodipodi-0.dtd"
   xmlns:inkscape="http://www.inkscape.org/namespaces/inkscape"
   id="svg2"
   version="1.1"
   inkscape:version="0.91 r13725"
   sodipodi:docname="UKR.svg"
   width="25.593145"
   height="11.340225">
  <metadata
     id="metadata10">
    <rdf:RDF>
      <cc:Work
         rdf:about="">
        <dc:format>image/svg+xml</dc:format>
        <dc:type
           rdf:resource="http://purl.org/dc/dcmitype/StillImage" />
      </cc:Work>
    </rdf:RDF>
  </metadata>
  <defs
     id="defs8" />
  <sodipodi:namedview
     pagecolor="#ffffff"
     bordercolor="#666666"
     borderopacity="1"
     objecttolerance="10"
     gridtolerance="10"
     guidetolerance="10"
     inkscape:pageopacity="0"
     inkscape:pageshadow="2"
     inkscape:window-width="480"
     inkscape:window-height="419"
     id="namedview6"
     showgrid="false"
     inkscape:zoom="2.36"
     inkscape:cx="-109.41064"
     inkscape:cy="14.908119"
     inkscape:window-x="0"
     inkscape:window-y="0"
     inkscape:window-maximized="0"
     inkscape:current-layer="svg2" />
  <path
     d="m 13.796107,0.33194206 0.53108,0.05747 0.35932,-0.323453 0.43193,0.07144 L 16.593197,-9.4299494e-7 17.502037,0.80525106 l -0.3552,0.28795504 0.11781,0.441487 1.13404,0.06887 0.50594,0.616699 -0.031,0.279834 1.8063,0.500062 1.09126,-0.225226 0.87775,0.666015 0.83109,-0.01536 2.09646,0.462801 0.0167,0.4176 -0.5776,0.744692 0.31426,0.784233 -0.22379,0.474265 -1.37627,0.10429 -0.73312,0.397096 -0.0449,0.631766 -1.13551,0.113734 -0.94618,0.460118 -1.33144,0.075 -1.22502,0.530159 0.0831,0.88459 0.69578,0.343076 1.45065,-0.08533 -0.27773,0.5074119 -1.55693,0.246357 -1.93065,0.82278 -0.79088,-0.289277 0.3136,-0.668294 -1.55413,-0.4162779 0.25121,-0.272667 1.36157,-0.472723 -0.41187,-0.325731 -2.21074,-0.359466 -0.0979,-0.530343 -1.31778,0.17514 -0.52784,0.783203 -1.10125,1.0511679 -0.64507,-0.2440779 -0.66837,0.228828 -0.63463,-0.262048 0.35799,-0.154487 0.24849,-0.487936 0.38931,-0.453467 -0.10062,-0.254661 0.29744,-0.113477 0.14015,0.196857 0.83814,0.04163 0.37645,-0.105171 -0.26517,-0.144198 0.10046,-0.211961 -0.4966,-0.36156 -0.20557,-0.594578 -0.51807,-0.23265 0.10216,-0.481945 -0.64257,-0.382654 -0.58502,-0.05321 -1.0482,-0.443103 -0.94537,0.14067 -0.33918,0.209756 -0.60001,-2.21e-4 -0.35771,0.33242 -1.04988,0.136664 -0.48558,0.218355 -0.66028,-0.347523 -0.91179,-0.0053 -0.87996,-0.157501 -0.61397999,0.304565 -0.0991,-0.381221 L 4.7011435e-5,5.5648741 0.27771701,4.9915361 l 0.39437,-0.370269 0.31045,0.08298 -0.36689,-0.639116 1.29145999,-1.182908 0.70578,-0.165511 0.1525,-0.39897 -0.71526,-1.241668 0.67984,-0.05545 0.77941,-0.38544604 1.10177,-0.03157 1.43669,0.111456 1.58735,0.34131304 1.12007,0.02855 0.53475,0.205529 0.53365,-0.247936 0.37277,0.33253 1.28345,-0.06813 0.5657,0.137437 0.0915,-0.71580804 0.43818,-0.312246 1.2209,-0.08437 z"
     style="fill:#003476"
     id="path4"
     inkscape:connector-curvature="0" />
</svg>
