<?xml version="1.0" encoding="UTF-8" standalone="no"?>
<svg
   xmlns:dc="http://purl.org/dc/elements/1.1/"
   xmlns:cc="http://creativecommons.org/ns#"
   xmlns:rdf="http://www.w3.org/1999/02/22-rdf-syntax-ns#"
   xmlns:svg="http://www.w3.org/2000/svg"
   xmlns="http://www.w3.org/2000/svg"
   xmlns:sodipodi="http://sodipodi.sourceforge.net/DTD/sodipodi-0.dtd"
   xmlns:inkscape="http://www.inkscape.org/namespaces/inkscape"
   id="svg2"
   version="1.1"
   inkscape:version="0.91 r13725"
   sodipodi:docname="VEN.svg"
   width="19.266371"
   height="16.267172">
  <metadata
     id="metadata10">
    <rdf:RDF>
      <cc:Work
         rdf:about="">
        <dc:format>image/svg+xml</dc:format>
        <dc:type
           rdf:resource="http://purl.org/dc/dcmitype/StillImage" />
      </cc:Work>
    </rdf:RDF>
  </metadata>
  <defs
     id="defs8" />
  <sodipodi:namedview
     pagecolor="#ffffff"
     bordercolor="#666666"
     borderopacity="1"
     objecttolerance="10"
     gridtolerance="10"
     guidetolerance="10"
     inkscape:pageopacity="0"
     inkscape:pageshadow="2"
     inkscape:window-width="480"
     inkscape:window-height="419"
     id="namedview6"
     showgrid="false"
     inkscape:zoom="2.36"
     inkscape:cx="26.255931"
     inkscape:cy="76.969668"
     inkscape:window-x="0"
     inkscape:window-y="0"
     inkscape:window-maximized="0"
     inkscape:current-layer="svg2" />
  <path
     d="m 2.8065681,0.54901334 -0.04042,0.33605 -0.834907,0.16598996 0.463903,0.64544 -0.01734,0.74377 -0.627357,0.82609 0.538354,1.12838 0.613098,-0.0923 0.319374,-1.02798 -0.441009,-0.50054 -0.07188,-1.07667 1.771128,-0.57815 L 4.2824711,0.44874334 4.7811001,5.3336869e-5 5.2915991,0.99944334 l 0.997406,0.0231 0.924057,0.79309 0.05567,0.47089 1.276982,0.0125 1.5194799,-0.14614 0.814402,0.63691 1.087695,0.17576 0.797829,-0.44428 0.01632,-0.35814 1.761684,-0.0858 1.704357,-0.0198 -1.207712,0.42006 0.485841,0.67138 1.137414,0.10686 1.078288,0.69935 0.226623,1.13944 0.7412,-0.0321 0.557242,0.33525 -1.126831,0.83546 -0.12428,0.51854 0.486833,0.52777 -0.353182,0.26642 -0.875146,0.22828 0.02833,0.65675 -0.385262,0.39144 0.962458,1.07917 0.188295,0.4013197 -0.520126,0.54276 -1.590808,0.53241 -1.022725,0.22067 -0.410545,0.3362 -1.130873,-0.3555 -1.052895,-0.18197 -0.266531,0.13089 0.636544,0.36869 -0.05736,0.9535 0.197445,0.89568 1.20481,0.12223 0.07691,0.2989 -1.015889,0.40467 -0.165291,0.60233 -0.585538,0.23342 -1.057709,0.33202 -0.275276,0.43523 -1.1057749,0.0922 -0.78302,-0.75223 -0.433733,-1.41835 -0.378023,-0.49727 -0.516048,-0.31342 0.720732,-0.70798 -0.04891,-0.31842 -0.404298,-0.4226 -0.286117,-0.945 0.111382,-1.0200097 0.31739,-0.47749 0.256131,-0.76601 -0.502965,-0.24441 -0.810618,0.16221 -1.024378,-0.0761 -0.574807,0.1521 -1.001007,-1.22384 -0.826199,-0.1812 -1.828895,0.13677 -0.33874,-0.49609 -0.350059,-0.11855 -0.05005,-0.29685 0.168929,-0.52641 -0.112301,-0.57264 -0.31378801,-0.31291 -0.182379,-0.65385 L 7.0860516e-6,4.2814033 0.39445709,3.4497333 l 0.173963,-1.01486 0.413338,-0.52854 0.55051701,-0.40779 0.360752,-0.71106996 0.913548,-0.23838 z"
     style="fill:#003476"
     id="path4"
     inkscape:connector-curvature="0" />
</svg>
