<?xml version="1.0" encoding="UTF-8" standalone="no"?>
<svg
   xmlns:dc="http://purl.org/dc/elements/1.1/"
   xmlns:cc="http://creativecommons.org/ns#"
   xmlns:rdf="http://www.w3.org/1999/02/22-rdf-syntax-ns#"
   xmlns:svg="http://www.w3.org/2000/svg"
   xmlns="http://www.w3.org/2000/svg"
   xmlns:sodipodi="http://sodipodi.sourceforge.net/DTD/sodipodi-0.dtd"
   xmlns:inkscape="http://www.inkscape.org/namespaces/inkscape"
   id="svg2"
   version="1.1"
   inkscape:version="0.91 r13725"
   sodipodi:docname="VNM.svg"
   width="10.189986"
   height="20.981054">
  <metadata
     id="metadata10">
    <rdf:RDF>
      <cc:Work
         rdf:about="">
        <dc:format>image/svg+xml</dc:format>
        <dc:type
           rdf:resource="http://purl.org/dc/dcmitype/StillImage" />
      </cc:Work>
    </rdf:RDF>
  </metadata>
  <defs
     id="defs8" />
  <sodipodi:namedview
     pagecolor="#ffffff"
     bordercolor="#666666"
     borderopacity="1"
     objecttolerance="10"
     gridtolerance="10"
     guidetolerance="10"
     inkscape:pageopacity="0"
     inkscape:pageshadow="2"
     inkscape:window-width="480"
     inkscape:window-height="419"
     id="namedview6"
     showgrid="false"
     inkscape:zoom="2.36"
     inkscape:cx="-223.30906"
     inkscape:cy="65.769231"
     inkscape:window-x="433"
     inkscape:window-y="149"
     inkscape:window-maximized="0"
     inkscape:current-layer="svg2" />
  <path
     d="m 8.3623057,2.5595494 -1.89883,1.216753 -1.18526,1.343716 -0.31243,0.986855 1.08773,1.49909 1.32998,1.85837 1.29072,0.8785196 0.86416,1.14212 0.6516103,2.63205 -0.1921903,2.50193 -1.18614,0.93659 -1.62873,0.91568 -1.16027,1.18563 -1.7733,1.3242 -0.51638,-0.91204 0.39967,-0.96349 -1.0551,-0.8079 1.23105,-0.57282 1.49298,-0.10311 -0.62456,-0.86159 2.39058,-1.09453 0.17514,-1.70428 -0.3297,-0.9485 0.25856,-1.42184 -0.35814,-1.00461 -1.0762,-0.9894996 -0.89635,-1.25302 -1.1821,-1.68059 -1.70391,-0.85078 0.40797,-0.51127 0.90906,-0.372584 -0.55121,-1.240308 -1.75096,-0.01113 L 0.83123571,2.3849654 -4.2853171e-6,1.2619564 0.76310571,0.91487436 l 1.13424999,0.0072 1.38289,-0.164115 1.21223,-0.757920999919 0.68557,0.533575999919 1.30013,0.259733 -0.2249,0.81928904 0.67719,0.577858 1.43184,0.369093 z"
     style="fill:#003476"
     id="path4"
     inkscape:connector-curvature="0" />
</svg>
