<?xml version="1.0" encoding="UTF-8" standalone="no"?>
<svg
   xmlns:dc="http://purl.org/dc/elements/1.1/"
   xmlns:cc="http://creativecommons.org/ns#"
   xmlns:rdf="http://www.w3.org/1999/02/22-rdf-syntax-ns#"
   xmlns:svg="http://www.w3.org/2000/svg"
   xmlns="http://www.w3.org/2000/svg"
   xmlns:sodipodi="http://sodipodi.sourceforge.net/DTD/sodipodi-0.dtd"
   xmlns:inkscape="http://www.inkscape.org/namespaces/inkscape"
   id="svg2"
   version="1.1"
   inkscape:version="0.91 r13725"
   sodipodi:docname="ZAF.svg"
   width="23.445538"
   height="18.101837">
  <metadata
     id="metadata10">
    <rdf:RDF>
      <cc:Work
         rdf:about="">
        <dc:format>image/svg+xml</dc:format>
        <dc:type
           rdf:resource="http://purl.org/dc/dcmitype/StillImage" />
      </cc:Work>
    </rdf:RDF>
  </metadata>
  <defs
     id="defs8" />
  <sodipodi:namedview
     pagecolor="#ffffff"
     bordercolor="#666666"
     borderopacity="1"
     objecttolerance="10"
     gridtolerance="10"
     guidetolerance="10"
     inkscape:pageopacity="0"
     inkscape:pageshadow="2"
     inkscape:window-width="480"
     inkscape:window-height="419"
     id="namedview6"
     showgrid="false"
     inkscape:zoom="2.36"
     inkscape:cx="-101.24619"
     inkscape:cy="127.52059"
     inkscape:window-x="0"
     inkscape:window-y="0"
     inkscape:window-maximized="0"
     inkscape:current-layer="svg2" />
  <path
     d="m 21.583681,10.191754 -0.27796,0.20564 -0.60274,0.72246 -0.39672,0.73076 -0.80654,1.01901 -1.60735,1.46741 -1.0038,0.85321 -1.07398,0.64713 -1.48645,0.5518 -0.72503,0.0741 -0.18352,0.39482 -0.86438,-0.2102 -0.70401,0.27069 -1.54142,-0.27407 -0.8616603,0.17345 -0.58884,-0.0745 -1.46682,0.56143 -1.21422,0.22519 -0.87864,0.53755 -0.6469,0.0342 -0.60178,-0.50712 -0.48066,-0.026 -0.61251,-0.63493 -0.0672,0.19719 -0.18903,-0.38225 0.008,-0.83388 -0.46207,-0.95309 0.45898,-0.25907 -0.0372,-1.09155 -0.93133,-1.33108 -0.71467,-1.20473 -0.002,-0.004 L 1.6071517e-4,9.2234941 0.68146072,8.5201441 l 0.56164998,0.38938 0.23974,0.6081 0.63809,0.10363 0.89422,0.26892 0.76406,-0.10385 1.26948,-0.72723 10e-4,-5.25272 0.38394,0.21358 0.84322,1.35136 -0.13105,0.86658 0.31736,0.49933 1.01872,-0.14508 0.71121,-0.63471 0.67351,-0.42781 0.34808,-0.68123 0.69379,-0.32963 0.5994303,0.17272 0.67939,0.39834 1.15755,0.0703 0.90951,-0.33117 0.1439,-0.4437 0.25003,-0.68049 0.77384,-0.11384 0.42759,-0.53424 0.47361,-0.94772 1.27691,-1.06179 2.01237,-1.04738002258 0.57863,0.0155000026 0.68814,0.24092 0.47926,-0.17073 0.75598,0.14214 0.68122,2.00172002 0.37005,1.01042 -0.25341,1.58558 0.12142,0.51065 -0.71769,-0.26047 -0.41113,0.10135 -0.13428,0.41415 -0.38835,0.53394 0.0133,0.49176 0.8488,0.77089 0.8324,-0.15353 0.28958,-0.63162 1.07869,0.0119 -0.35535,1.03533 -0.16801,1.18166 -0.36799,0.64198 -0.97051,0.7181999 m -3.61634,-0.4292199 -0.62089,-0.43818 -0.66469,0.29009 -0.7706,0.5564299 -0.7584,0.90062 1.06686,1.0939 0.50888,-0.14133 0.2615,-0.45442 0.79265,-0.22211 0.24179,-0.46405 0.43627,-0.69173 -0.49337,-0.4292199 z"
     style="fill:#003476"
     id="path4"
     inkscape:connector-curvature="0" />
</svg>
