<?xml version="1.0" encoding="UTF-8" standalone="no"?>
<svg
   xmlns:dc="http://purl.org/dc/elements/1.1/"
   xmlns:cc="http://creativecommons.org/ns#"
   xmlns:rdf="http://www.w3.org/1999/02/22-rdf-syntax-ns#"
   xmlns:svg="http://www.w3.org/2000/svg"
   xmlns="http://www.w3.org/2000/svg"
   xmlns:sodipodi="http://sodipodi.sourceforge.net/DTD/sodipodi-0.dtd"
   xmlns:inkscape="http://www.inkscape.org/namespaces/inkscape"
   id="svg2"
   version="1.1"
   inkscape:version="0.91 r13725"
   sodipodi:docname="ZWE.svg"
   width="10.788459"
   height="9.6196623">
  <metadata
     id="metadata10">
    <rdf:RDF>
      <cc:Work
         rdf:about="">
        <dc:format>image/svg+xml</dc:format>
        <dc:type
           rdf:resource="http://purl.org/dc/dcmitype/StillImage" />
      </cc:Work>
    </rdf:RDF>
  </metadata>
  <defs
     id="defs8" />
  <sodipodi:namedview
     pagecolor="#ffffff"
     bordercolor="#666666"
     borderopacity="1"
     objecttolerance="10"
     gridtolerance="10"
     guidetolerance="10"
     inkscape:pageopacity="0"
     inkscape:pageshadow="2"
     inkscape:window-width="480"
     inkscape:window-height="419"
     id="namedview6"
     showgrid="false"
     inkscape:zoom="2.36"
     inkscape:cx="-113.93134"
     inkscape:cy="108.82772"
     inkscape:window-x="0"
     inkscape:window-y="0"
     inkscape:window-maximized="0"
     inkscape:current-layer="svg2" />
  <path
     d="m 8.4297768,9.5910708 -0.75598,-0.14214 -0.47926,0.17073 -0.68814,-0.24092 -0.57863,-0.0155 -0.90671,-0.64265 -1.09978,-0.21828 -0.41834,-0.90193 -0.004,-0.50168 -0.60905,-0.15295 -1.60955,-1.56221 -0.44715002,-0.82301 -0.28619,-0.2537 -0.54747000006,-1.13705 1.58963002006,0.15574 0.462,0.16382 0.48022,-0.033 0.78765,-0.92046 1.23685,-1.16968 0.5091,-0.11186 0.17294,-0.49308003 0.80977,-0.56657 L 7.1249068,7.6726724e-7 7.2169068,0.53056077 l 1.18628,-0.0283 0.65911,0.30015 0.30655,0.35190003 0.6772602,0.10333 0.7387,0.457 0.003,1.80004 -0.2773,0.98565 -0.061,1.06282 0.22857,0.42127 -0.16066,0.83726 -0.21482,0.12943 -0.3750502,1.0257 -1.49842,1.61425 z"
     style="fill:#003476"
     id="path4"
     inkscape:connector-curvature="0" />
</svg>
