<?xml version="1.0" encoding="iso-8859-1"?>
<!-- Generator: Adobe Illustrator 19.0.0, SVG Export Plug-In . SVG Version: 6.00 Build 0)  -->
<svg version="1.1" id="avalanche" xmlns="http://www.w3.org/2000/svg" xmlns:xlink="http://www.w3.org/1999/xlink" x="0px" y="0px"
	 viewBox="0 0 512 512" style="enable-background:new 0 0 512 512;" xml:space="preserve">
<g>
	<g>
		<path d="M378.14,409.41L378.14,409.41l-66.786-47.704l-11.626-34.878l-75.005-21.43l-29.952-79.871l-26.744-40.117H93.826
			l-32-53.333H0V439.41h512v-30H378.14z M102.333,409.41H30V282.039l21.153,5.288l9.929,49.645l41.251,30.938V409.41z
			 M132.333,409.41v-56.499L88.251,319.85l-11.404-57.022L30,251.116v-89.039h14.84l32,53.333h75.132l15.922,23.884l34.048,90.795
			l74.329,21.237l9.707,29.121l40.548,28.963H132.333z"/>
	</g>
</g>
<g>
	<g>
		<rect x="128.387" y="72.459" transform="matrix(0.7153 -0.6988 0.6988 0.7153 -35.8654 131.4414)" width="30" height="74.559"/>
	</g>
</g>
<g>
	<g>
		<path d="M389.334,228.078c-13.032,0-25.611,2.924-37.061,8.547c-10.796-11.997-26.394-19.213-42.939-19.213
			c-11.076,0-21.807,3.193-30.975,9.029l-77.35-79.177l-21.459,20.964l98.341,100.663l10.688-12.109
			c5.256-5.955,12.821-9.371,20.754-9.371c10.633,0,20.451,6.215,25.014,15.834l7.85,16.547l14.676-10.955
			c9.429-7.039,20.654-10.759,32.461-10.759c29.959,0,54.333,24.374,54.333,54.333c0,29.959-24.374,54.333-54.333,54.333v30
			c46.501,0,84.333-37.832,84.333-84.333C473.667,265.91,435.835,228.078,389.334,228.078z"/>
	</g>
</g>
<g>
	<g>
		<rect x="235.686" y="89.485" transform="matrix(0.7243 -0.6895 0.6895 0.7243 -29.92 212.4475)" width="30" height="108.301"/>
	</g>
</g>
<g>
</g>
<g>
</g>
<g>
</g>
<g>
</g>
<g>
</g>
<g>
</g>
<g>
</g>
<g>
</g>
<g>
</g>
<g>
</g>
<g>
</g>
<g>
</g>
<g>
</g>
<g>
</g>
<g>
</g>
</svg>
