<svg id="drought" viewBox="0 0 512 512" xmlns="http://www.w3.org/2000/svg"><path d="m143.820312 309.316406v-102.597656l87.054688-33.292969-10.710938-28.003906-47.21875 18.058594-4.472656-43.050781-29.820312 3.097656 5.304687 51.042968-8.464843 3.234376-42.738282-75.070313 29.628906-93.695313-28.585937-9.039062-25.46875 80.542969-35.632813-24.746094-17.101562 24.625 49.546875 34.410156 48.699219 85.539063v108.945312h-113.839844v201.894532h512v-201.894532zm338.199219 96.503906-80.699219-12.246093-12.789062-54.277344h93.488281zm-382.535156-66.523437h111.042969v47.648437l-45.824219 22.523438-51.632813-11.742188zm83.5 94.59375 43.484375-21.375 95.386719 33.753906-5.171875 34.957031h-126.699219zm153.96875-14.082031-96.441406-34.125v-46.386719h117.214843l14.1875 60.199219zm-268.25-80.511719 14.425781 62.046875-53.148437 22.34375v-84.390625zm-38.722656 116.910156 71.984375-30.261719 51.261718 11.660157 6.453126 43.621093h-129.699219zm317.011719 25.019531 5.269531-35.636718 39.761719-23.101563 89.996093 13.660157v45.078124zm0 0"/><path d="m439.222656 146.128906c40.117188 0 72.753906-32.636718 72.753906-72.753906s-32.636718-72.753906-72.753906-72.753906c-40.117187 0-72.753906 32.636718-72.753906 72.753906s32.636719 72.753906 72.753906 72.753906zm0-115.527344c23.585938 0 42.773438 19.1875 42.773438 42.773438s-19.1875 42.773438-42.773438 42.773438c-23.585937 0-42.773437-19.1875-42.773437-42.773438s19.1875-42.773438 42.773437-42.773438zm0 0"/></svg>