<svg id="earthquake" viewBox="-1 0 512 512.001" xmlns="http://www.w3.org/2000/svg"><path d="m332.21875 277.839844-43.828125 48.566406 30.234375 26.976562-56.410156 38.382813 6.964844-38.359375-59.417969-30.085938 64.417969 6.234376 15.03125-155.726563 13.160156 15.9375 23.128906-19.101563-140.957031-170.664062-170.996094 140.550781 19.046875 23.171875 15.746094-12.945312-12.265625 127.0625h-36.074219v234.160156h510.839844v-234.160156zm-155.113281 0h-38.765625l6.824218-70.683594 38.40625 3.707031zm-96.035157-153.964844 99.402344-81.703125 81.757813 98.992187-15.023438 155.648438-23.875-2.3125 8.640625-16.660156h-24.730468l9.066406-93.949219-98.117188-9.472656-9.984375 103.421875h-42zm399.777344 358.128906h-450.851562v-174.171875h152.636718l-14.527343 28.019531 67.566406 34.207032-15.757813 86.765625 147.34375-100.25-36.390624-32.46875 14.6875-16.273438h135.292968zm0 0"/></svg>