<svg id="flooded-house" viewBox="0 0 512 512.001" xmlns="http://www.w3.org/2000/svg"><path d="m449.9375 310.488281c-7.675781-6.144531-16.925781-10.070312-26.613281-11.382812v-89.132813l32.574219 32.496094 21.164062-21.214844-221.78125-221.253906-221.78125 221.253906 21.164062 21.214844 32.570313-32.496094v89.246094c-9.410156 1.410156-18.386719 5.285156-25.859375 11.269531l-61.375 49.167969v152.34375h511.3125v-152.34375zm-194.65625-268.164062 138.078125 137.753906v123.566406c-3.9375 1.820313-7.671875 4.109375-11.085937 6.84375l-31.296876 25.070313c-4.265624 3.421875-9.628906 5.304687-15.09375 5.304687-4.09375 0-8.125-1.054687-11.683593-3.019531v-118.488281h-137.835938v118.863281c-3.371093 1.710938-7.121093 2.644531-10.929687 2.644531-5.46875 0-10.832032-1.882812-15.097656-5.304687l-31.296876-25.070313c-3.632812-2.910156-7.617187-5.316406-11.835937-7.191406v-123.21875zm38.953125 271.96875-4.746094-3.800781c-9.566406-7.660157-21.578125-11.882813-33.832031-11.882813s-24.269531 4.21875-33.832031 11.882813l-5.496094 4.402343v-65.574219h77.90625zm-214.125 19.582031c4.265625-3.417969 9.628906-5.300781 15.097656-5.300781s10.828125 1.882812 15.097657 5.300781l31.296874 25.070312c9.5625 7.660157 21.578126 11.878907 33.828126 11.878907 12.253906 0 24.269531-4.21875 33.832031-11.878907l31.296875-25.070312c4.265625-3.417969 9.628906-5.300781 15.097656-5.300781 5.464844 0 10.828125 1.882812 15.097656 5.300781l31.292969 25.070312c9.566406 7.660157 21.578125 11.878907 33.832031 11.878907s24.265625-4.21875 33.832032-11.878907l31.296874-25.070312c4.265626-3.417969 9.628907-5.300781 15.09375-5.300781 5.46875 0 10.832032 1.882812 15.097657 5.300781l50.148437 40.167969v41.832031l-31.414062-25.160156c-19.917969-15.957032-47.742188-15.957032-67.660156 0l-31.296876 25.070312c-8.890624 7.121094-21.304687 7.121094-30.195312 0l-31.296875-25.070312c-19.917969-15.957032-47.742187-15.957032-67.660156 0l-31.296875 25.070312c-8.890625 7.121094-21.304688 7.121094-30.195313 0l-31.292969-25.070312c-19.917968-15.957032-47.746093-15.957032-67.664062 0l-31.410156 25.160156v-41.832031zm-50.144531 148.160156v-27.765625l50.144531-40.167969c8.890625-7.121093 21.304687-7.121093 30.195313 0l31.296874 25.070313c19.917969 15.953125 47.742188 15.953125 67.660157 0l31.296875-25.070313c8.886718-7.121093 21.304687-7.121093 30.195312 0l31.292969 25.070313c19.921875 15.953125 47.746094 15.953125 67.664063 0l31.296874-25.070313c8.886719-7.121093 21.304688-7.121093 30.191407 0l50.148437 40.167969v27.765625zm0 0"/></svg>