<svg id="forest-fire" viewBox="0 0 512 512" xmlns="http://www.w3.org/2000/svg"><path d="m346 0c-32.433594 0-63.492188 7.605469-90.046875 21.765625-26.75-14.25-57.644531-21.765625-89.953125-21.765625-91.53125 0-166 60.5625-166 135 0 60.613281 50.167969 113.664062 121 129.933594 0 0 .101562 32.101562 0 37.101562l-28.316406-.027344 27.398437 21.542969c-1.132812 22.648438-3.3125 45.28125-6.519531 67.675781-2.367188.5-4.886719.773438-7.5625.773438-8.269531 0-15-6.730469-15-15v-45h-15c-46.519531 0-75.804688 35.648438-75.804688 78.324219 0 52.640625 43.097657 101.675781 120.804688 101.675781h270c77.625 0 120.765625-48.855469 120.765625-101.558594 0-38.980468-26.027344-78.441406-75.765625-78.441406h-15v45c0 8.269531-6.730469 15-15 15-2.84375 0-5.496094-.8125-7.765625-2.191406-4.800781-33.972656-7.234375-68.527344-7.234375-102.808594v-22.066406c70.832031-16.269532 121-69.320313 121-129.933594 0-74.4375-74.46875-135-166-135zm-316 135c0-27.328125 13.761719-53.289062 38.753906-73.097656 25.949219-20.574219 60.488282-31.902344 97.246094-31.902344 21.535156 0 42.242188 3.902344 61.015625 11.371094-29.710937 25.226562-46.015625 58.3125-46.015625 93.628906 0 13.941406 2.632812 27.695312 7.683594 40.789062-6.820313 2.746094-14.570313 4.210938-22.683594 4.210938-24.394531 0-45-13.738281-45-30h-30c0 17.632812 9.792969 36.039062 30 48.105469v35.910156c-53.65625-14.691406-91-54.339844-91-99.015625zm316 75c5.089844 0 10.109375-.414062 15-1.195312 0 0 .070312 89.386718.195312 94.992187-8.65625-8.890625-18.871093-16.257813-30.195312-21.652344v-73.339843c4.890625.78125 9.910156 1.195312 15 1.195312zm-45 63.074219c-4.902344-.703125-9.90625-1.074219-15-1.074219l-38.84375.03125 28.804688 26.113281c.210937.191407 17.960937 16.5 23.441406 37.160157-.539063 8.203124-1.222656 16.386718-2.035156 24.53125-1.554688 2.332031-3.585938 4.625-6.0625 7.410156-8.949219 10.0625-20.667969 23.242187-20.574219 52.804687-18.203125-5.082031-25.40625-20.027343-35.558594-44.164062-5.742187-13.648438-12.144531-28.820313-22.65625-41.828125-1.003906-15.628906-1.515625-31.433594-1.515625-47.058594v-22.0625c15.992188-3.671875 31.074219-9.269531 45.035156-16.71875 13.851563 7.359375 29.023438 13.015625 44.964844 16.703125zm-150 13.925781v-78.195312c4.890625.78125 9.910156 1.195312 15 1.195312s10.105469-.414062 15-1.203125c0 0 .128906 93.722656.363281 101.507813-9.0625-3.914063-19.210937-6.425782-30.53125-7.570313.109375-5.25.167969-10.496094.167969-15.734375zm60-53.027344v-21.222656c2.785156 3.238281 5.75 6.386719 8.894531 9.429688 2.28125 2.210937 4.652344 4.351562 7.09375 6.429687-5.179687 2.054687-10.523437 3.847656-15.988281 5.363281zm240 143.027344v-12.898438c21.128906 6.402344 30.765625 26.445313 30.765625 46.339844 0 36.128906-29.835937 71.558594-90.765625 71.558594h-270c-62.386719 0-90.804688-37.15625-90.804688-71.675781 0-19.851563 9.648438-39.851563 30.804688-46.234375v12.910156c0 24.8125 20.1875 45 45 45 26.503906 0 49.4375-15.222656 59.851562-39.730469 6.320313-14.867187 6.921876-30.691406 2.242188-45.046875 21.96875 8.804688 29.980469 27.839844 39.421875 50.296875 12.085937 28.726563 27.125 64.480469 79.546875 64.480469h17.296875l-2.449219-17.125c-4.238281-29.644531 2.847656-37.609375 11.8125-47.695312 7.699219-8.65625 17.277344-19.429688 17.277344-40.179688 0-4.835938-.507812-9.539062-1.398438-14.070312.328126-5.4375.609376-10.878907.820313-16.320313 18.53125 13.667969 30.578125 35.648437 30.578125 60.390625 0 24.8125 20.1875 45 45 45s45-20.1875 45-45zm-60-142.984375v-35.910156c17.816406-10.644531 30-28.054688 30-48.105469h-30c0 16.261719-20.605469 30-45 30s-45-13.738281-45-30h-30c0 20.023438 12.152344 37.445312 30 48.105469v35.886719c-53.074219-14.65625-90-54.277344-90-98.992188 0-57.898438 60.5625-105 135-105 36.757812 0 71.296875 11.328125 97.246094 31.902344 24.992187 19.808594 38.753906 45.769531 38.753906 73.097656 0 44.675781-37.34375 84.324219-91 99.015625zm0 0"/></svg>