<?xml version="1.0" encoding="iso-8859-1"?>
<!-- Generator: Adobe Illustrator 19.0.0, SVG Export Plug-In . SVG Version: 6.00 Build 0)  -->
<svg id="tornado" xmlns="http://www.w3.org/2000/svg" xmlns:xlink="http://www.w3.org/1999/xlink" version="1.1" x="0px" y="0px" viewBox="0 0 512 512" style="enable-background:new 0 0 512 512;" xml:space="preserve">
<g>
	<path d="M465.406,75c0-23.412-24.945-42.532-74.141-56.831C352.119,6.792,301.33,0,255.406,0s-96.713,6.792-135.859,18.169   C70.351,32.468,45.406,51.588,45.406,75c0,24.8,36.523,57.176,56.22,75.172c47.218,43.139,66.793,66.8,42.397,97.294   c-30.108,37.636-28.531,67.2-21.905,85.375c10.185,27.939,39.509,48.647,80.455,56.815c39.171,7.815,94.537,3.602,114.376,31.838   c19.414,27.629,0.056,80.589-1.481,90.505h35.78c2.57-4.082,47.737-46.778,40.837-104.188   c-8.064-67.09-79.222-107.246-88.504-115.848c5.23-5.098,20.392-13.409,31.84-19.684c82.643-45.3,140.372-96.087,129.959-196.156   C465.394,75.749,465.406,75.374,465.406,75z M127.92,46.978C164.498,36.347,212.156,30,255.406,30s90.908,6.347,127.486,16.978   C426.061,59.524,435.406,72.468,435.406,75c-5.511,18.571-88.512,45-180,45C175.205,120,84.03,97.344,75.431,74.764   C75.951,71.75,85.944,59.177,127.92,46.978z M321.001,245.974c-27.493,15.07-47.357,25.958-48.583,44.477   c-0.96,14.482,9.846,23.438,20.487,31.054c19.183,13.732,64.106,45.889,69.395,89.888c1.608,13.379-0.656,27.124-6.749,41.116   c-0.302-19.37-4.978-35.341-14.056-48.261c-29.344-41.762-93.052-36.032-133.054-44.011c-29.986-5.982-51.72-20.064-58.138-37.67   c-7.229-19.831,5.334-41.594,17.146-56.358c19.971-24.963,22.521-51.481,7.58-78.817c-10.443-19.107-28.161-36.379-46.222-53.003   C168.196,144.646,215.39,150,255.406,150c53.125,0,135.187-10.334,180.25-35.938C427.723,187.46,366.983,220.769,321.001,245.974z"/>
</g>















</svg>
