<svg id="tsunami" viewBox="0 0 512 512" xmlns="http://www.w3.org/2000/svg"><path d="m0 512h511.207031v-266.828125h-139.644531c-45.152344-1.863281-81.910156-40.078125-82-85.320313-.042969-22.894531 8.835938-44.421874 25.003906-60.621093 15.921875-15.957031 37.027344-24.851563 59.523438-25.117188l8.640625 1.257813 11.585937-18.828125-8.949218-8.363281c-59.230469-55.355469-148.542969-63.949219-217.183594-20.902344-21.609375 13.554687-40.597656 32.585937-54.917969 55.054687l-113.265625 178.171875zm481.25-96.105469-31.40625-25.15625c-19.914062-15.953125-47.730469-15.953125-67.648438 0l-31.289062 25.066407c-8.886719 7.117187-21.300781 7.117187-30.1875 0l-31.289062-25.066407c-19.914063-15.953125-47.734376-15.953125-67.648438 0l-31.289062 25.066407c-8.886719 7.117187-21.300782 7.117187-30.1875 0l-31.289063-25.066407c-19.917969-15.953125-47.734375-15.953125-67.648437 0l-31.40625 25.15625v-41.820312l50.136718-40.160157c4.265625-3.421874 9.625-5.300781 15.09375-5.300781 5.464844 0 10.828125 1.878907 15.09375 5.300781l31.289063 25.0625c9.5625 7.660157 21.574219 11.878907 33.824219 11.878907s24.261718-4.21875 33.824218-11.878907l31.289063-25.0625c4.265625-3.417968 9.625-5.300781 15.09375-5.300781 5.464843 0 10.828125 1.878907 15.09375 5.300781l31.289062 25.0625c9.5625 7.660157 21.574219 11.878907 33.824219 11.878907s24.261719-4.21875 33.824219-11.878907l31.289062-25.0625c4.265625-3.421874 9.628907-5.300781 15.09375-5.300781 5.46875 0 10.828125 1.878907 15.09375 5.300781l50.136719 40.160157zm-451.292969 66.148438v-27.761719l50.136719-40.160156c8.886719-7.121094 21.300781-7.121094 30.1875 0l31.289062 25.066406c19.914063 15.953125 47.734376 15.953125 67.648438 0l31.289062-25.066406c8.886719-7.121094 21.300782-7.121094 30.1875 0l31.289063 25.066406c19.917969 15.953125 47.734375 15.953125 67.648437 0l31.289063-25.066406c8.890625-7.121094 21.304687-7.121094 30.1875 0l50.136719 40.160156v27.761719zm419.886719-171.511719c-9.558594-7.660156-21.574219-11.878906-33.824219-11.878906s-24.261719 4.21875-33.824219 11.878906l-31.289062 25.066406c-4.265625 3.417969-9.628906 5.300782-15.09375 5.300782s-10.828125-1.882813-15.09375-5.300782l-31.289062-25.066406c-9.5625-7.660156-21.574219-11.878906-33.824219-11.878906s-24.261719 4.21875-33.824219 11.878906l-31.289062 25.066406c-4.269532 3.417969-9.628907 5.300782-15.09375 5.300782-5.46875 0-10.828126-1.882813-15.09375-5.300782l-31.289063-25.066406c-9.5625-7.660156-21.574219-11.878906-33.824219-11.878906s-24.265625 4.21875-33.824218 11.878906l-31.40625 25.15625v-66.464844l108.578124-170.804687c11.941407-18.730469 27.695313-34.554688 45.5625-45.761719 47.546876-29.816406 107.011719-29.867188 154.054688-2.492188-16.695312 5.617188-31.984375 15.070313-44.792969 27.902344-21.828125 21.871094-33.816406 50.9375-33.757812 81.84375.058593 29.855469 11.585937 58.222656 32.453125 79.871094 20.878906 21.65625 48.804687 34.207031 78.636718 35.339844l.285157.011718h110.269531v60.554688zm0 0"/></svg>