<?xml version="1.0" encoding="iso-8859-1"?>
<!-- Generator: Adobe Illustrator 19.0.0, SVG Export Plug-In . SVG Version: 6.00 Build 0)  -->
<svg version="1.1" id="volcano" xmlns="http://www.w3.org/2000/svg" xmlns:xlink="http://www.w3.org/1999/xlink" x="0px" y="0px"
	 viewBox="0 0 512 512" style="enable-background:new 0 0 512 512;" xml:space="preserve">
<g>
	<g>
		<path d="M495.773,488.667c-1.086-1.635-109.175-164.264-152.822-236.714c-17.131-28.438-13.941-74.764-13.908-75.211l1.229-16.157
			H181.727l1.229,16.157c0.979,12.872,0.389,51.477-13.908,75.211C125.401,324.403,17.312,487.032,16.226,488.667L0.711,512h510.578
			L495.773,488.667z M213.215,190.622h85.568v-0.001c0.385,19.296,3.485,52.006,18.44,76.831c0.558,0.925,1.126,1.867,1.704,2.82
			l-13.134,13.936l-38.442-27.847l-36.599,34.974l-21.944-61.229C212.011,215.274,213.008,201.005,213.215,190.622z M56.693,481.964
			c30.892-46.749,100.263-152.27,135.263-209.854l26.12,72.884l51.927-49.624l39.546,28.647l25.71-27.281
			c37.155,59.375,93.169,144.553,120.049,185.228H56.693z"/>
	</g>
</g>
<g>
	<g>
		<path d="M317.875,33.125c-40.995,38.195-50.221,96.6-50.221,114.049h30.035c0-10.752,7.234-60.93,40.66-92.074L317.875,33.125z"/>
	</g>
</g>
<g>
	<g>
		<path d="M358.572,93.978c-29.639,9.736-49.125,31.911-54.689,48.393l28.459,9.605c2.72-8.06,15.917-22.997,35.604-29.464
			c21.649-7.112,45.423-2.244,68.751,14.078l17.218-24.609C414.267,84.239,380.184,86.88,358.572,93.978z"/>
	</g>
</g>
<g>
	<g>
		<path d="M219.342,64.797C194.188,22.406,155.059,0,106.183,0v30.035c38.225,0,67.607,16.852,87.328,50.088
			c15.716,26.485,20.8,56.611,20.8,67.05h30.035C244.346,131.001,237.687,95.715,219.342,64.797z"/>
	</g>
</g>
<g>
	<g>
		<path d="M137.174,90.189l-4.194,29.74c26.284,3.707,43.63,23.015,46.678,32.047l28.459-9.605
			C200.87,120.903,173.544,95.318,137.174,90.189z"/>
	</g>
</g>
<g>
	<g>
		<circle cx="367.443" cy="20.274" r="14.267"/>
	</g>
</g>
<g>
	<g>
		<circle cx="119.05" cy="138.163" r="14.267"/>
	</g>
</g>
<g>
	<g>
		<circle cx="445.305" cy="155.654" r="8.479"/>
	</g>
</g>
<g>
	<g>
		<circle cx="69.863" cy="34.541" r="8.479"/>
	</g>
</g>
<g>
	<g>
		<polygon points="339.666,345.791 316.558,364.98 359.233,416.37 359.233,466.51 389.268,466.51 389.268,405.525 		"/>
	</g>
</g>
<g>
</g>
<g>
</g>
<g>
</g>
<g>
</g>
<g>
</g>
<g>
</g>
<g>
</g>
<g>
</g>
<g>
</g>
<g>
</g>
<g>
</g>
<g>
</g>
<g>
</g>
<g>
</g>
<g>
</g>
</svg>
