<?xml version="1.0" encoding="utf-8"?>
<!-- Generator: Adobe Illustrator 17.0.1, SVG Export Plug-In . SVG Version: 6.00 Build 0)  -->
<!DOCTYPE svg PUBLIC "-//W3C//DTD SVG 1.1//EN" "http://www.w3.org/Graphics/SVG/1.1/DTD/svg11.dtd">
<svg version="1.1" id="Livello_1" xmlns="http://www.w3.org/2000/svg" xmlns:xlink="http://www.w3.org/1999/xlink" x="0px" y="0px"
	 width="595.28px" height="595.28px" viewBox="0 0 595.28 595.28" enable-background="new 0 0 595.28 595.28" xml:space="preserve">
<g>
	<path fill="#FFFFFF" d="M25.324,264.18h199.026c0,0,20.687-0.357,33.528,11.057c12.84,11.414,54.572,47.438,54.572,47.438
		l19.617-71.573l-6.064-52.551c0,0-32.814,1.07-37.808-28.178s17.121-44.585,58.852-42.088l13.554,99.513
		c0,0,31.744,4.993,24.611,36.024c-7.134,31.031-36.738,125.551-36.738,125.551s-5.707,20.687-32.101,4.993
		c-22.027-13.097-68.839-49.578-68.839-49.578v189.039H68.126V386.164L55.642,533.829c0,0-2.14,26.751-25.324,27.464
		c0,0-30.318,4.637-30.318-28.534C0,499.587,6.064,281.3,6.064,281.3S7.134,265.963,25.324,264.18z"/>
	<circle fill="#FFFFFF" cx="152.302" cy="165.023" r="66.342"/>
	<path fill="#FFFFFF" d="M360.245,126.146l7.49,53.145c0,0,81.679-3.21,104.507,22.827c0,0,1.928,12.816,12.127,11.057
		c10.344-1.783,3.923-17.834,3.923-17.834L466.178,64.44c0,0,0-11.802-10.7-11.088s-7.134,15.368-7.134,15.368
		S444.064,96.541,360.245,126.146z"/>
	<path fill="none" stroke="#FFFFFF" stroke-width="5" stroke-linecap="round" stroke-linejoin="round" stroke-miterlimit="10" d="
		M515.875,65.154c0,0,59.922,46.13,18.547,116.039"/>
	<path fill="none" stroke="#FFFFFF" stroke-width="5" stroke-linecap="round" stroke-linejoin="round" stroke-miterlimit="10" d="
		M548.988,33.766c0,0,78.171,61.349,25.383,160.267"/>
</g>
</svg>
