<?xml version="1.0" encoding="utf-8"?>
<!-- Generator: Adobe Illustrator 17.0.1, SVG Export Plug-In . SVG Version: 6.00 Build 0)  -->
<!DOCTYPE svg PUBLIC "-//W3C//DTD SVG 1.1//EN" "http://www.w3.org/Graphics/SVG/1.1/DTD/svg11.dtd">
<svg version="1.1" id="Livello_1" xmlns="http://www.w3.org/2000/svg" xmlns:xlink="http://www.w3.org/1999/xlink" x="0px" y="0px"
	 width="595.28px" height="595.28px" viewBox="0 0 595.28 595.28" enable-background="new 0 0 595.28 595.28" xml:space="preserve">
<g>
	<path fill="#FFFFFF" d="M297.812,0.497c-163.081,0-155.742,141.065-155.742,141.065v94.587h43.501v-87.904
		c0,0-5.306-102.001,112.614-102.001c118.51,0,114.383,102.001,114.383,102.001v87.904H456v-94.587
		C456,141.563,461.709,0.497,297.812,0.497z"/>
	<path fill="#FFFFFF" d="M465.313,224.971H129.967c-37.041,0-67.069,30.028-67.069,67.069v235.673
		c0,37.041,30.028,67.069,67.069,67.069h335.345c37.041,0,67.069-30.028,67.069-67.069V292.04
		C532.382,254.999,502.354,224.971,465.313,224.971z M319.996,412.558v51.23c0,11.768-9.54,21.308-21.308,21.308
		s-21.308-9.54-21.308-21.308V412.7c-12.791-7.355-21.425-21.126-21.425-36.94c0-23.537,19.08-42.617,42.617-42.617
		c23.536,0,42.617,19.08,42.617,42.617C341.188,391.477,332.657,405.17,319.996,412.558z"/>
</g>
</svg>
