<?xml version="1.0" encoding="utf-8"?>
<!-- Generator: Adobe Illustrator 17.0.1, SVG Export Plug-In . SVG Version: 6.00 Build 0)  -->
<!DOCTYPE svg PUBLIC "-//W3C//DTD SVG 1.1//EN" "http://www.w3.org/Graphics/SVG/1.1/DTD/svg11.dtd">
<svg version="1.1" id="Livello_1" xmlns="http://www.w3.org/2000/svg" xmlns:xlink="http://www.w3.org/1999/xlink" x="0px" y="0px"
	 width="595.28px" height="595.28px" viewBox="0 0 595.28 595.28" enable-background="new 0 0 595.28 595.28" xml:space="preserve">
<g>
	<path fill="#FFFFFF" d="M296.71-0.003c-110.24,0-199.607,89.367-199.607,199.607s89.366,199.607,199.607,199.607
		s199.607-89.367,199.607-199.607S406.95-0.003,296.71-0.003z M296.71,356.775c-86.803,0-157.17-70.368-157.17-157.171
		S209.907,42.433,296.71,42.433s157.17,70.368,157.17,157.171S383.512,356.775,296.71,356.775z"/>
	<path fill="#FFFFFF" d="M113.999,331.234c0,0,61.297,89.587,166.208,93.124l-87.819,170.923l-70.727-73.084L22.054,509.23
		L113.999,331.234z"/>
	<path fill="#FFFFFF" d="M481.281,331.236c0,0-61.297,89.587-166.208,93.124l87.819,170.923l70.727-73.084l99.607-12.967
		L481.281,331.236z"/>
	<circle fill="#FFFFFF" cx="296.71" cy="199.604" r="141.454"/>
</g>
</svg>
