<?xml version="1.0" encoding="utf-8"?>
<!-- Generator: Adobe Illustrator 17.0.1, SVG Export Plug-In . SVG Version: 6.00 Build 0)  -->
<!DOCTYPE svg PUBLIC "-//W3C//DTD SVG 1.1//EN" "http://www.w3.org/Graphics/SVG/1.1/DTD/svg11.dtd">
<svg version="1.1" id="Livello_1" xmlns="http://www.w3.org/2000/svg" xmlns:xlink="http://www.w3.org/1999/xlink" x="0px" y="0px"
	 width="595.28px" height="595.28px" viewBox="0 0 595.28 595.28" enable-background="new 0 0 595.28 595.28" xml:space="preserve">
<g>
	<path fill="#FFFFFF" d="M100.241,354.739c0,0,10.805-46.371,74.734-84.639c0,0-2.251-13.056-6.753-22.06
		c0,0,36.017-20.71,50.873-45.021c0,0,28.813,12.606,58.527,9.905c0,0-32.415,40.969-38.718,52.674
		c0,0-185.485,80.137-94.543,162.074c0,0,47.722,40.068,106.699-9.454s74.734-51.324,88.691-57.176
		c13.956-5.853,94.543-33.315,126.058-113.902s37.367-119.305,76.085-151.269c0,0-23.861-96.794-190.437-95.894
		c0,0-167.027,62.129-195.39,71.133s-31.965,27.463-41.869,41.419S43.515,198.067,54.77,237.235S100.241,354.739,100.241,354.739z"
		/>
	<path fill="#FFFFFF" d="M320.581,395.544c-22.662,10.8-60.038,62.643-125.797,71.146c-56.287,7.278-84.715-39.558-93.548-57.783
		c-9.056,17.546-14.202,37.438-14.202,58.544c0,70.615,57.245,127.859,127.859,127.859c70.615,0,127.859-57.244,127.859-127.859
		C342.752,440.779,334.552,416.037,320.581,395.544z"/>
</g>
</svg>
