<?xml version="1.0" encoding="utf-8"?>
<!-- Generator: Adobe Illustrator 17.0.1, SVG Export Plug-In . SVG Version: 6.00 Build 0)  -->
<!DOCTYPE svg PUBLIC "-//W3C//DTD SVG 1.1//EN" "http://www.w3.org/Graphics/SVG/1.1/DTD/svg11.dtd">
<svg version="1.1" id="Livello_1" xmlns="http://www.w3.org/2000/svg" xmlns:xlink="http://www.w3.org/1999/xlink" x="0px" y="0px"
	 width="595.28px" height="595.28px" viewBox="0 0 595.28 595.28" enable-background="new 0 0 595.28 595.28" xml:space="preserve">
<g>
	<path fill="#FFFFFF" d="M511.867,104.395H93.11l337.65-78.462c0,0,34.97-12.048,52.014,19.101L511.867,104.395z"/>
	<path fill="#FFFFFF" d="M424.397,290.117v121.072h170.634V290.117H424.397z M497.08,381.656c-16.311,0-29.533-13.223-29.533-29.533
		c0-16.311,13.223-29.533,29.533-29.533s29.533,13.223,29.533,29.533C526.613,368.433,513.391,381.656,497.08,381.656z"/>
	<g>
		<path fill="#FFFFFF" d="M238.781,316.417c0,0,1.326-15.654-15.617-15.696l-30.67-0.291l-0.079,31.742l30.885,0.077
			C223.3,332.249,238.742,332.287,238.781,316.417z"/>
		<path fill="#FFFFFF" d="M226.392,366.268l-34.061-0.299l-0.079,31.742l34.299,0.086c0,0,17.15,0.043,17.19-15.828
			C243.741,381.969,245.208,366.315,226.392,366.268z"/>
		<path fill="#FFFFFF" d="M560.943,256.616V214.3c0-46.742-37.891-84.633-84.633-84.633H84.882
			c-46.741,0-84.633,37.891-84.633,84.633v272.706c0,46.741,37.892,84.633,84.633,84.633H476.31
			c46.742,0,84.633-37.892,84.633-84.633V444.69H394.227V256.616H560.943z M247.475,442.121l-0.066,26.595l-29.884-0.074
			l0.066-26.595l-22.019-0.055l-0.066,26.595l-29.598-0.074l0.067-26.595l-30.455-0.076l0.455-182.305l30.455,0.076l0.068-27.024
			l29.598,0.074l-0.067,27.024l22.305,0.056l0.067-27.024l29.525,0.43l-0.067,26.667c0,0,43.825,0.11,45.856,45.584
			c0,0,1.635,32.176-22.404,39.407c0,0,28.57,9.938,27.764,47.254C299.075,392.063,301.12,431.961,247.475,442.121z"/>
	</g>
</g>
</svg>
