<?xml version="1.0" encoding="utf-8"?>
<!-- Generator: Adobe Illustrator 17.0.1, SVG Export Plug-In . SVG Version: 6.00 Build 0)  -->
<!DOCTYPE svg PUBLIC "-//W3C//DTD SVG 1.1//EN" "http://www.w3.org/Graphics/SVG/1.1/DTD/svg11.dtd">
<svg version="1.1" id="Livello_1" xmlns="http://www.w3.org/2000/svg" xmlns:xlink="http://www.w3.org/1999/xlink" x="0px" y="0px"
	 width="595.28px" height="595.28px" viewBox="0 0 595.28 595.28" enable-background="new 0 0 595.28 595.28" xml:space="preserve">
<g>
	<path fill="#FFFFFF" d="M0.496,360.696c0-15.354,12.517-27.801,27.957-27.801h12.425c15.44,0,27.957,12.447,27.957,27.801v145.957
		c0,15.354-12.517,27.801-27.957,27.801H28.453c-15.44,0-27.957-12.447-27.957-27.801V360.696z"/>
	<path fill="#FFFFFF" d="M370.719,369.915c0,0,179.566-92.853,195.681-248.63c0,0,9.208-121.245-105.131-121.245
		c0,0-52.182-2.302-90.55,49.112l0-0.024c-38.369-51.414-90.55-49.112-90.55-49.112c-114.339,0-105.131,121.245-105.131,121.245
		c16.115,155.777,195.681,248.63,195.681,248.63L370.719,369.915z"/>
	<path fill="#FFFFFF" d="M94.941,362.84c0,0,133.029-51.83,231.505,14.397c0,0,10.942,8.638,58.164,10.942
		c47.222,2.304,122.663,9.79,101.931,58.164c0,0-6.911,24.763-43.767,22.076s-106.73-9.598-128.614-3.455
		c0,0,41.464,24.187,89.838,22.651c48.374-1.536,84.463-5.759,108.65-29.562c24.187-23.803,75.249-37.624,82.159-0.768
		c0,0,1.008,10.366-10.078,15.837c0,0,17.421,3.167,7.343,21.452c-10.078,18.284-84.799,75.585-121.08,79.904
		s-140.228,25.339-157.792,19.868s-178.812-84.655-194.649-85.231s-32.537-2.016-32.537-19.58s0-111.721,0-111.721
		S86.014,366.728,94.941,362.84z"/>
</g>
</svg>
