<?xml version="1.0" encoding="utf-8"?>
<!-- Generator: Adobe Illustrator 17.0.1, SVG Export Plug-In . SVG Version: 6.00 Build 0)  -->
<!DOCTYPE svg PUBLIC "-//W3C//DTD SVG 1.1//EN" "http://www.w3.org/Graphics/SVG/1.1/DTD/svg11.dtd">
<svg version="1.1" id="Livello_1" xmlns="http://www.w3.org/2000/svg" xmlns:xlink="http://www.w3.org/1999/xlink" x="0px" y="0px"
	 width="595.28px" height="595.28px" viewBox="0 0 595.28 595.28" enable-background="new 0 0 595.28 595.28" xml:space="preserve">
<g>
	<path fill="#FFFFFF" d="M297.727,586.227c110.782,0,233.688-91.869,215.502-107.916s-136.575-41.721-138.715-53.846
		c-2.14-12.124,0-39.225,6.775-52.063c6.775-12.837,11.054-39.939,11.054-39.939c21.752-22.109,26.031-73.815,19.991-84.513
		c-6.041-10.698-0.735-46.357-0.735-46.357C423.01,61.81,297.727,73.221,297.727,73.221S172.444,61.81,183.855,201.594
		c0,0,5.306,35.659-0.735,46.357c-6.041,10.698-1.761,62.404,19.991,84.513c0,0,4.279,27.101,11.054,39.939
		s8.915,39.939,6.775,52.063c-2.14,12.124-120.529,37.799-138.715,53.846S186.945,586.227,297.727,586.227z"/>
	<path fill="#FFFFFF" d="M297.727,0C133.347,0,0.09,133.257,0.09,297.637s133.257,297.637,297.637,297.637
		s297.637-133.257,297.637-297.637S462.107,0,297.727,0z M297.727,571.026c-150.988,0-273.389-122.4-273.389-273.389
		c0-150.988,122.4-273.389,273.389-273.389s273.389,122.4,273.389,273.389C571.116,448.625,448.715,571.026,297.727,571.026z"/>
</g>
</svg>
