<?xml version="1.0" encoding="utf-8"?>
<!-- Generator: Adobe Illustrator 17.0.1, SVG Export Plug-In . SVG Version: 6.00 Build 0)  -->
<!DOCTYPE svg PUBLIC "-//W3C//DTD SVG 1.1//EN" "http://www.w3.org/Graphics/SVG/1.1/DTD/svg11.dtd">
<svg version="1.1" id="Livello_1" xmlns="http://www.w3.org/2000/svg" xmlns:xlink="http://www.w3.org/1999/xlink" x="0px" y="0px"
	 width="595.28px" height="595.28px" viewBox="0 0 595.28 595.28" enable-background="new 0 0 595.28 595.28" xml:space="preserve">
<g>
	<path fill="#FFFFFF" d="M279.063,228.913L31.081,479.469c0,0-29.736,27.606,2.938,62.316c33.959,36.076,64.278,3.755,64.278,3.755
		l249.412-248.84L279.063,228.913z"/>
	<path fill="#FFFFFF" d="M113.169,522.087l60.065,62.925c0,0,18.592,21.738,38.327,2.002c19.736-19.736,85.235-85.521,85.235-85.521
		s20.594-16.875-1.716-38.899s-58.635-59.779-58.635-59.779L113.169,522.087z"/>
	<path fill="#FFFFFF" d="M416.405,0C327.94,0,256.224,71.715,256.224,160.181s71.716,160.181,160.181,160.181
		c88.465,0,160.181-71.715,160.181-160.181S504.87,0,416.405,0z M416.405,223.4c-34.915,0-63.219-28.304-63.219-63.219
		s28.304-63.219,63.219-63.219c34.914,0,63.219,28.304,63.219,63.219S451.32,223.4,416.405,223.4z"/>
</g>
</svg>
