<?xml version="1.0" encoding="utf-8"?>
<!-- Generator: Adobe Illustrator 18.0.0, SVG Export Plug-In . SVG Version: 6.00 Build 0)  -->
<!DOCTYPE svg PUBLIC "-//W3C//DTD SVG 1.1//EN" "http://www.w3.org/Graphics/SVG/1.1/DTD/svg11.dtd">
<svg version="1.1" id="Layer_1" xmlns="http://www.w3.org/2000/svg" xmlns:xlink="http://www.w3.org/1999/xlink" x="0px" y="0px"
	 viewBox="0 0 50.5 50.5" enable-background="new 0 0 50.5 50.5" xml:space="preserve">
<g>
	<g>
		<g>
			<rect x="1.5" y="1.5" fill="#FFB836" width="47.5" height="47.5"/>
		</g>
	</g>
	<g>
		<g>
			<path d="M50.5,50.5H0V0h50.5V50.5z M3,47.5h44.5V3H3V47.5z"/>
		</g>
	</g>
	<g>
		<g>
			<rect x="1.5" y="32.9" fill="#FFFFFF" width="47.5" height="16.1"/>
		</g>
		<g>
			<path d="M50.5,50.5H0V31.4h50.5V50.5z M3,47.5h44.5V34.4H3V47.5z"/>
		</g>
	</g>
	<g>
		<g>
			<polygon points="6.3,40.2 1.3,37.1 1.7,36.5 6.5,39.4 14.7,37.9 19.4,32.6 20,33.1 15.1,38.6 			"/>
		</g>
	</g>
	<g>
		<g>
			<polygon points="40.7,49.1 40.1,48.8 43.5,41 37.2,33.1 37.8,32.6 44.3,40.9 			"/>
		</g>
	</g>
	<g>
		<g>
			<rect x="41.1" y="37.8" transform="matrix(0.9837 0.1798 -0.1798 0.9837 7.5938 -7.4758)" width="8" height="0.8"/>
		</g>
	</g>
	<g>
		<g>
			<polygon points="19.4,49.1 16.7,43.5 21.1,38.1 26,39.9 34.4,32.6 34.9,33.2 26.1,40.8 21.3,39 17.6,43.6 20.1,48.8 			"/>
		</g>
	</g>
	<g>
		<g>
			<polygon points="6.2,49.2 5.6,48.7 11.9,41.7 19.2,40.6 19.3,41.3 12.2,42.4 			"/>
		</g>
	</g>
	<g>
		<g>
			<polygon points="11,39.1 9.4,36.7 5.9,36.7 5.9,36 9.8,36 11.6,38.7 			"/>
		</g>
	</g>
	<g>
		<g>
			<rect x="25" y="37" transform="matrix(0.5122 0.8589 -0.8589 0.5122 45.1655 -4.7659)" width="3.5" height="0.8"/>
		</g>
	</g>
	<g>
		<g>
			<polygon points="37.8,49 37.1,48.9 37.7,42.9 35.5,38.3 36.1,38 38.5,42.8 			"/>
		</g>
	</g>
	<g>
		<g>
			<polygon points="25.5,45.8 25.1,45.2 31.4,40.3 30.5,36.2 31.3,36.1 32.2,40.6 			"/>
		</g>
	</g>
	<g>
		<g>
			<path d="M29.2,49.3V49l-0.3-0.2c0.1-0.2,0.9-1.8,1.6-3.3l-1.1-3.3l0.7-0.2l1.2,3.6l-0.1,0.1C29.5,49.3,29.5,49.3,29.2,49.3z"/>
		</g>
	</g>
	<g>
		<g>
			<rect x="4" y="40.5" transform="matrix(0.2542 0.9672 -0.9672 0.2542 45.2852 28.1998)" width="0.7" height="5.9"/>
		</g>
	</g>
	<g>
		<g>
			<rect x="44.1" y="44.9" transform="matrix(0.9619 0.2733 -0.2733 0.9619 14.53 -10.3681)" width="0.8" height="4.2"/>
		</g>
	</g>
	<g>
		<g>
			<rect x="24.4" y="24.4" width="3" height="8.5"/>
		</g>
	</g>
	<g>
		<g>
			<path d="M27.4,24.4h-3c0-0.8-0.6-1.4-1.4-1.4s-1.4,0.6-1.4,1.4h-3c0-2.4,2-4.4,4.4-4.4C25.4,20,27.4,21.9,27.4,24.4z"/>
		</g>
	</g>
	<g>
		<g>
			<path d="M27.4,30.5h-3V18.2c0-2.9,2.4-5.3,5.3-5.3s5.3,2.4,5.3,5.3h-3c0-1.3-1-2.3-2.3-2.3c-1.3,0-2.3,1-2.3,2.3V30.5z"/>
		</g>
	</g>
</g>
</svg>
