<?xml version="1.0" encoding="utf-8"?>
<!-- Generator: Adobe Illustrator 18.0.0, SVG Export Plug-In . SVG Version: 6.00 Build 0)  -->
<!DOCTYPE svg PUBLIC "-//W3C//DTD SVG 1.1//EN" "http://www.w3.org/Graphics/SVG/1.1/DTD/svg11.dtd">
<svg version="1.1" id="Layer_1" xmlns="http://www.w3.org/2000/svg" xmlns:xlink="http://www.w3.org/1999/xlink" x="0px" y="0px"
	 viewBox="0 0 50.5 50.5" enable-background="new 0 0 50.5 50.5" xml:space="preserve">
<g>
	<g>
		<g>
			<rect x="1.5" y="1.5" fill="#FFB836" width="47.5" height="47.5"/>
		</g>
	</g>
	<g>
		<g>
			<path d="M50.5,50.5H0V0h50.5V50.5z M3,47.5h44.5V3H3V47.5z"/>
		</g>
	</g>
	<g>
		<defs>
			<rect id="SVGID_1_" x="1.5" y="1.5" width="47.5" height="47.5"/>
		</defs>
		<clipPath id="SVGID_2_">
			<use xlink:href="#SVGID_1_"  overflow="visible"/>
		</clipPath>
		<g clip-path="url(#SVGID_2_)">
			<g>
				<path fill="#FFFFFF" d="M39,49.9c0.5,0,8.7-0.7,8.7-0.7l-3.3,18.8l8.5,1.5l-1.2-3l-0.8-3.8c0,0,4.5-1.8,5.2-1.5
					c0.7,0.3,0,8.3,0,8.3l2.5,5.2l13.8,8.7l50.8-71.3L85.9-44.3c0,0-35-7.3-36.8-7.3c-1.8,0-63.8,0.7-63.8,0.7l-28.8,6.8l21.2,23.7
					l1.2,23l12.1-2.8c0,0,5.6-6.8,5.1-7.5c-0.5-0.7,5.7,2.2,5.7,2.2l-5.7,4.2l2.8,5l5.2-4.2l3.3,3.7l-0.8,7.8H10l2.8,2.9v5.1h3
					l2.3-1.7v4l-0.7,3.3l-0.7,4.7l3.3-1.7l4.5-1.8l2-3.2c0,0,2.2,1.8,2,2.8c-0.2,1,2,3.9,2,3.9L28,33.4l5.5,4.4l3.3-3h1.7l3.7,6.9
					l-6.6,4.2L39,49.9z"/>
			</g>
			<g>
				<path d="M72.6,84.7l-14.9-9.3L55,69.7l0-0.3c0.2-2.7,0.4-5.9,0.3-7.2c-0.8,0.2-2.1,0.6-3.3,1.1l0.6,2.9l1.8,4.6l-11.2-2
					l3.3-18.5c-2.5,0.2-7,0.6-7.5,0.6h-0.5l-4.5-5.2l6.8-4.3l-3-5.6h-0.7l-3.7,3.3l-6.9-5.4l2.8-4.5c-0.9-1.2-2-3-1.8-4.1
					c0-0.2-0.4-0.6-0.8-1.1l-1.5,2.4l-4.8,2l-5,2.6l0.9-6.6l0.7-3.2v-1.9l-1,0.7h-4.3v-5.7l-2.2-2.3H5.3l0.9-8.5L3.8,0.8l-5.4,4.3
					l-3.9-6.8l5-3.7c-1.1-0.5-2.3-1-3-1.2c-0.6,1.2-1.9,3.2-5,7l-0.2,0.3l-13.6,3.2L-23.4-20l-22.1-24.7l30.7-7.2
					c2.5,0,62-0.7,63.8-0.7c1.9,0,33.4,6.6,37,7.4l0.4,0.1l0.2,0.3l37.7,56.9L72.6,84.7z M59.3,74l12.8,8l49.9-70L85.3-43.4
					c-13.9-2.9-34.8-7.2-36.2-7.2c-1.8,0-60.7,0.6-63.7,0.7l-27.1,6.4l20.3,22.7l1.1,22.2l10.6-2.5c2-2.4,4.1-5.3,4.6-6.4l-0.1-0.2
					l0.3-0.6c0.2-0.4,0.5-0.6,1-0.6c0.6,0,2.6,0.8,6,2.4l1.5,0.7l-6.3,4.6L-1,2l5-4l4.3,4.7L7.5,9.9h3l3.4,3.5v4.5h1.7l3.7-2.7
					l0,6.2l-0.7,3.3l-0.4,2.7l1.6-0.8l4.3-1.8l2.4-3.9l0.9,0.7c1,0.8,2.6,2.4,2.3,3.8c0,0.4,0.9,1.9,1.8,3.1l0.4,0.5l-2.6,4.1
					l4.1,3.3l3-2.7h2.7l4.4,8.3l-6.4,4l2.3,2.7c1.4-0.1,5.5-0.4,8.1-0.6l1.3-0.1l-3.4,19.1l5.8,1l-0.6-1.5l-1-4.7l0.8-0.3
					c0.9-0.4,4.1-1.6,5.3-1.6c0.3,0,0.5,0,0.7,0.1c0.6,0.3,1.3,0.6,0.6,9L59.3,74z"/>
			</g>
		</g>
		<g clip-path="url(#SVGID_2_)">
			<g>
				<path d="M77.8,74.2l-14.2-8.9L61,59.9l0-0.1c0.3-3.4,0.4-7.3,0.2-8c-0.9,0-3.3,0.9-4.5,1.4l0.8,3.5l1.4,3.6l-9.6-1.7l3.9-15.4
					c-0.7-0.3-2.7-1.1-7.1-2.4l-0.2,0l-2.4-4.6l3.6-4.2l-3.4-6.5h-1.3l-3.5,3.1l-6-4.8l2.7-4.4l-3.5-5.8l-1.7,4.8l-4.6-1.4l-4.2,3.4
					l0.8-5.7l0.6-2.8l-2.5,0.1l0.3-2.4h-2.7l-4.9-3.4l0.5-3.5l-2.4-1.2l0.8-7.9l-3-3.3L3.9-5.6l-3.2-5.7l5.4-4
					c-1.9-0.8-3.8-1.7-4.6-1.9c-0.2,0.8-1.2,2.6-5.1,7.4l-0.1,0.1l-12.6,3L-17.5-30L-39-54l29.4-7c0.7,0,62.1-0.7,63.9-0.7
					c1.9,0,35.5,7,36.9,7.3l0.2,0l0.1,0.1L129,2.4l-0.1,0.2L77.8,74.2z M64.2,64.8l13.4,8.4l50.5-70.8L91-53.7
					c-12.1-2.5-35.2-7.3-36.6-7.3c-1.8,0-63.2,0.7-63.8,0.7l-28.1,6.7l20.8,23.3l1.2,22.7l11.5-2.7c2.4-2.9,4.8-6.3,4.9-7l-0.1-0.1
					l0.1-0.3C0.9-17.8,1-18,1.2-18C2-18,5.8-16.2,7-15.7l0.6,0.3l-5.9,4.3l2.5,4.3l5.1-4.1l3.7,4.1L12.1,1l2.4,1.2L14,5.8l4.3,3h3.3
					l-0.2,2.3L24,11l-0.8,3.7l-0.5,3.8l3-2.4l4.3,1.3l2-5.6l4.5,7.6l-2.6,4.2l5,4l3.2-2.9h2l3.9,7.4l-3.6,4.2l2,3.9
					c5.5,1.6,7.3,2.5,7.3,2.6l0.3,0.1L50.2,58l7.4,1.3L56.7,57l-0.9-4.2l0.3-0.1c0.4-0.2,3.9-1.6,5.1-1.6c0.2,0,0.3,0,0.4,0.1
					c0.2,0.1,0.9,0.4,0.2,8.6L64.2,64.8z"/>
			</g>
		</g>
		<g clip-path="url(#SVGID_2_)">
			<g>
				<path d="M83,65.5l-14.2-8.9l-2.6-5.4l0-0.1c0.3-3.4,0.4-7.3,0.2-8c-0.9,0-3.3,0.9-4.5,1.4l0.8,3.5l1.4,3.6L54.4,50l3.9-15.4
					c-0.6-0.3-2.3-1-5.7-2l-1.3,1.6l0.1,6.4l-4.1-2.8l3.2-3.9l-0.1-5.1l-2.9-3.6l-1.5-2.9l-7-1.7l-4-8.8L35,9.5L31,8.3l-4.2,3.4
					l0.7-5.1l-2.5,0.6l-2-2.3l-2.8-2.1l-0.2-4.8l-1.8-0.2l0.5-3.7l-2.4-1.2l0.8-7.9l-3-3.3l-5.3,4.2l-3.2-5.7l5.4-4
					c-1.9-0.8-3.8-1.7-4.6-1.9c-0.2,0.8-1.2,2.6-5.1,7.4l-0.1,0.1l-12.6,3l-1.2-23.3l-21.5-24l29.4-7c0.7,0,62.1-0.7,63.9-0.7
					c1.9,0,35.5,7,36.9,7.3l0.2,0l0.1,0.1l37.5,56.6L134-6.1L83,65.5z M69.3,56.1l13.4,8.4l50.5-70.8l-37.1-56
					c-12.1-2.5-35.2-7.3-36.6-7.3c-1.8,0-63.2,0.7-63.8,0.7l-28.1,6.7L-11.6-39l1.2,22.7L1-19c2.4-2.9,4.8-6.3,4.9-7l-0.1-0.1
					L6-26.4c0-0.1,0.1-0.2,0.4-0.2c0.7,0,4.6,1.8,5.8,2.3l0.6,0.3l-5.9,4.3l2.5,4.3l5.1-4.1l3.7,4.1l-0.8,7.7l2.4,1.2l-0.5,3.5
					l1.7,0.1l0.2,5.2l2.5,2l1.8,2l3.1-0.7l-0.6,4.3l3-2.4L35.7,9l-0.2,2.7l3.8,8.3l7,1.7l1.7,3.1l3,3.7l0.1,2.8l4.8-4.2l0.5,0.5
					l-3.5,4.2c4.3,1.3,5.8,2.1,5.8,2.1l0.3,0.1l-3.8,15.2l7.4,1.3l-0.9-2.4l-0.9-4.2l0.3-0.1c0.4-0.2,3.9-1.6,5.1-1.6
					c0.2,0,0.3,0,0.4,0.1c0.2,0.1,0.9,0.4,0.2,8.6L69.3,56.1z M48.3,37.6l2.2,1.5L50.5,35L48.3,37.6z M51.2,32.1l0,0.9l0.6-0.7
					C51.6,32.3,51.4,32.2,51.2,32.1L51.2,32.1z M52,31.6c0.1,0,0.2,0,0.2,0.1l0.8-1L52,31.6z"/>
			</g>
		</g>
		<g clip-path="url(#SVGID_2_)">
			<g>
				<path d="M95.7,63.8l-14.2-8.9l-2.6-5.4l0-0.1c0.3-3.4,0.4-7.3,0.2-8c-0.9,0-3.3,0.9-4.5,1.4l0.8,3.5l1.4,3.6l-9.6-1.7L71,32.8
					c-0.6-0.3-2.3-1-5.7-2l-1.3,1.6l0.1,6.4L60,36l3.2-3.9l-0.1-5.1l-2.8-3.5L58,23.4L48,18.7l-6.1-6.1l-2.8,2.3l-1.4-6.6L39.9,7
					l1.3-5l-5.5-2.2l-1.9,0.8l0,0.5l-3.2,0.8L30.4,1L33,0l-0.1-4l-1.8-0.2l0.5-3.7L29.2-9l0.8-7.9l-3-3.3L21.8-16l-3.2-5.7l5.4-4
					c-1.9-0.8-3.8-1.7-4.6-1.9c-0.2,0.8-1.2,2.6-5.1,7.4l-0.1,0.1l-12.6,3L0.4-40.4l-21.5-24l29.4-7c0.7,0,62.1-0.7,63.9-0.7
					c1.9,0,35.5,7,36.9,7.3l0.2,0l0.1,0.1L146.9-8l-0.1,0.2L95.7,63.8z M82,54.3l13.4,8.4L146-8l-37.1-56
					c-12.1-2.5-35.2-7.3-36.6-7.3c-1.8,0-63.2,0.7-63.8,0.7L-19.7-64L1.1-40.7L2.3-18l11.5-2.7c2.4-2.9,4.8-6.3,4.9-7l-0.1-0.1
					l0.1-0.3c0-0.1,0.1-0.2,0.4-0.2c0.7,0,4.6,1.8,5.8,2.3l0.6,0.3l-5.9,4.3l2.5,4.3l5.1-4.1l3.7,4.1L30-9.5l2.4,1.2l-0.5,3.5
					l1.7,0.1l0.1,4.4l1.9-0.8l6.4,2.6l-1.5,6l-1.9,1.1l1,4.9l2.3-1.9l6.6,6.5l9.7,4.6l2.4,0.2l3.2,3.9l0.1,2.8l4.8-4.2l0.5,0.5
					l-3.5,4.2c4.3,1.3,5.8,2.1,5.8,2.1l0.3,0.1L68,47.6l7.4,1.3l-0.9-2.4l-0.9-4.2l0.3-0.1c0.4-0.2,3.9-1.6,5.1-1.6
					c0.2,0,0.3,0,0.4,0.1c0.2,0.1,0.9,0.4,0.2,8.6L82,54.3z M61.1,35.8l2.2,1.5l-0.1-4.1L61.1,35.8z M63.9,30.4l0,0.9l0.6-0.7
					C64.3,30.5,64.1,30.4,63.9,30.4L63.9,30.4z M64.8,29.9c0.1,0,0.2,0,0.2,0.1l0.8-1L64.8,29.9z"/>
			</g>
		</g>
	</g>
	<g>
		<g>
			<path d="M50.5,50.5H0V0h50.5V50.5z M3,47.5h44.5V3H3V47.5z"/>
		</g>
	</g>
	<g>
		<g>
			<circle fill="#FFFFFF" cx="21.7" cy="27.5" r="12.7"/>
		</g>
		<g>
			<path d="M21.7,41.7c-7.8,0-14.2-6.4-14.2-14.2c0-7.8,6.4-14.2,14.2-14.2c7.8,0,14.2,6.4,14.2,14.2C35.9,35.3,29.5,41.7,21.7,41.7
				z M21.7,16.3c-6.2,0-11.2,5-11.2,11.2s5,11.2,11.2,11.2c6.2,0,11.2-5,11.2-11.2S27.9,16.3,21.7,16.3z"/>
		</g>
	</g>
	<g>
		<g>
			<path d="M21.7,31.5c-2.2,0-4-1.8-4-4s1.8-4,4-4c2.2,0,4,1.8,4,4S24,31.5,21.7,31.5z M21.7,26.5c-0.6,0-1,0.5-1,1s0.5,1,1,1
				c0.6,0,1-0.5,1-1S22.3,26.5,21.7,26.5z"/>
		</g>
	</g>
	<g>
		<g>
			<path d="M21.7,36.6c-5,0-9.1-4.1-9.1-9.1c0-5,4.1-9.1,9.1-9.1c5,0,9.1,4.1,9.1,9.1C30.8,32.5,26.8,36.6,21.7,36.6z M21.7,21.4
				c-3.4,0-6.1,2.7-6.1,6.1c0,3.4,2.7,6.1,6.1,6.1s6.1-2.7,6.1-6.1C27.8,24.1,25.1,21.4,21.7,21.4z"/>
		</g>
	</g>
	<g>
		<g>
			<polygon points="31.9,46.2 32.7,47.5 31.9,49.1 29.5,49.1 29.9,47.4 			"/>
		</g>
	</g>
	<g>
		<g>
			<polygon points="2.9,19.6 4.4,21 4.6,23.5 2.4,24.5 1.7,22.1 			"/>
		</g>
	</g>
</g>
</svg>
