<?xml version="1.0" encoding="utf-8"?>
<!-- Generator: Adobe Illustrator 18.0.0, SVG Export Plug-In . SVG Version: 6.00 Build 0)  -->
<!DOCTYPE svg PUBLIC "-//W3C//DTD SVG 1.1//EN" "http://www.w3.org/Graphics/SVG/1.1/DTD/svg11.dtd">
<svg version="1.1" id="Layer_1" xmlns="http://www.w3.org/2000/svg" xmlns:xlink="http://www.w3.org/1999/xlink" x="0px" y="0px"
	 viewBox="0 0 50.5 50.5" enable-background="new 0 0 50.5 50.5" xml:space="preserve">
<g>
	<g>
		<g>
			<rect x="1.5" y="1.5" fill="#FFB836" width="47.5" height="47.5"/>
		</g>
	</g>
	<g>
		<g>
			<polygon fill="#FFFFFF" points="1.5,49 49,49 49,39.5 43.5,38 39,39.6 33,28.2 26.3,28.2 24.3,28.2 17.5,28.2 12.8,37.4 
				9.7,33.5 1.5,44.2 			"/>
		</g>
		<g>
			<path d="M50,50H0.5v-6.1l9.2-12l2.9,3.7l4.4-8.4h16.7l5.8,11.1l4.1-1.4l6.5,1.8V50z M2.5,48H48v-7.7l-4.4-1.2l-5.1,1.7l-6-11.6
				H18.2l-5.2,10l-3.2-4.1l-7.2,9.4V48z"/>
		</g>
	</g>
	<g>
		<g>
			<polygon points="25.3,43.2 22.7,32.6 19.5,36.7 18.2,32.7 16.7,34.9 14.8,32.6 15.4,32.1 16.6,33.7 18.5,31.1 19.8,35.1 
				23.1,30.9 25.3,40.1 27.5,31.9 30.4,35.8 31,31 35.2,31.9 35.1,32.6 31.6,31.9 30.9,37.7 27.8,33.6 			"/>
		</g>
	</g>
	<g>
		<g>
			<g>
				<polygon fill="#FFFFFF" points="25.3,9.5 22.9,11.7 25.3,19.7 27.7,11.7 				"/>
			</g>
			<g>
				<path d="M25.3,23.2l-3.5-11.8l3.5-3.3l3.5,3.3L25.3,23.2z M24.1,12l1.2,4.2l1.2-4.2l-1.2-1.2L24.1,12z"/>
			</g>
		</g>
		<g>
			<g>
				<polygon fill="#FFFFFF" points="11.9,8.4 10.9,11.5 16.7,17.5 15.1,9.3 				"/>
			</g>
			<g>
				<path d="M18.3,20.6l-8.6-8.9l1.6-4.6l4.6,1.3L18.3,20.6z M12,11.2l3,3.1l-0.8-4.3l-1.6-0.5L12,11.2z"/>
			</g>
		</g>
		<g>
			<g>
				<polygon fill="#FFFFFF" points="39.6,14.2 36.3,14.3 32.6,21.7 39.8,17.5 				"/>
			</g>
			<g>
				<path d="M30.2,24.3l5.5-11l4.8,0l0.3,4.8L30.2,24.3z M36.9,15.3L35,19.2l3.8-2.2l-0.1-1.7L36.9,15.3z"/>
			</g>
		</g>
	</g>
	<g>
		<g>
			<path d="M50.5,50.5H0V0h50.5V50.5z M3,47.5h44.5V3H3V47.5z"/>
		</g>
	</g>
	<g>
		<g>
			<polygon points="13.8,22 11.4,19.7 9.6,20 10.6,21.3 			"/>
		</g>
	</g>
	<g>
		<g>
			<polygon points="31.8,12.9 34,10.5 33.6,8.7 32.4,9.8 			"/>
		</g>
	</g>
</g>
</svg>
