<?xml version="1.0" encoding="utf-8"?>
<!-- Generator: Adobe Illustrator 18.0.0, SVG Export Plug-In . SVG Version: 6.00 Build 0)  -->
<!DOCTYPE svg PUBLIC "-//W3C//DTD SVG 1.1//EN" "http://www.w3.org/Graphics/SVG/1.1/DTD/svg11.dtd">
<svg version="1.1" id="Layer_1" xmlns="http://www.w3.org/2000/svg" xmlns:xlink="http://www.w3.org/1999/xlink" x="0px" y="0px"
	 viewBox="0 0 50.5 50.5" enable-background="new 0 0 50.5 50.5" xml:space="preserve">
<g>
	<g>
		<g>
			<rect x="1.5" y="1.5" fill="#FFB836" width="47.5" height="47.5"/>
		</g>
	</g>
	<g>
		<g>
			<path d="M50.5,50.5H0V0h50.5V50.5z M3,47.5h44.5V3H3V47.5z"/>
		</g>
	</g>
	<g>
		<g>
			<path d="M50.5,50.5H0V0h50.5V50.5z M3,47.5h44.5V3H3V47.5z"/>
		</g>
	</g>
	<g>
		<g>
			<polygon points="30.4,16.6 25.2,12.4 20,16.6 14.9,20.8 17,20.8 17,27.7 33.5,27.7 33.5,20.8 35.6,20.8 			"/>
		</g>
		<g>
			<path d="M35,29.2H15.5v-7h-4.9l14.6-11.9l14.6,11.9H35V29.2z M18.5,26.2H32v-6.5l-6.7-5.5l-6.7,5.5V26.2z"/>
		</g>
	</g>
	<g>
		<g>
			<rect x="23.6" y="24.3" fill="#FFB836" width="3.3" height="5.6"/>
		</g>
	</g>
	<g>
		<g>
			<circle fill="#FFB836" cx="25.2" cy="24.3" r="1.7"/>
		</g>
	</g>
	<g>
		<g>
			<g>
				
					<path fill="#FFFFFF" stroke="#000000" stroke-width="2" stroke-linecap="square" stroke-linejoin="round" stroke-miterlimit="10" d="
					M7.4,25.4"/>
			</g>
		</g>
		<g>
			<g>
				
					<path fill="#FFFFFF" stroke="#000000" stroke-width="2" stroke-linecap="square" stroke-linejoin="round" stroke-miterlimit="10" d="
					M1.5,25.4"/>
			</g>
		</g>
		<g>
			<g>
				
					<path fill="#FFFFFF" stroke="#000000" stroke-width="2" stroke-linecap="square" stroke-linejoin="round" stroke-miterlimit="10" d="
					M13.4,25.4"/>
			</g>
		</g>
		<g>
			<g>
				
					<path fill="#FFFFFF" stroke="#000000" stroke-width="2" stroke-linecap="square" stroke-linejoin="round" stroke-miterlimit="10" d="
					M7.4,25.4"/>
			</g>
		</g>
		<g>
			<g>
				
					<path fill="#FFFFFF" stroke="#000000" stroke-width="2" stroke-linecap="square" stroke-linejoin="round" stroke-miterlimit="10" d="
					M19.3,25.4"/>
			</g>
		</g>
		<g>
			<g>
				
					<path fill="#FFFFFF" stroke="#000000" stroke-width="2" stroke-linecap="square" stroke-linejoin="round" stroke-miterlimit="10" d="
					M13.4,25.4"/>
			</g>
		</g>
		<g>
			<g>
				
					<path fill="#FFFFFF" stroke="#000000" stroke-width="2" stroke-linecap="square" stroke-linejoin="round" stroke-miterlimit="10" d="
					M25.3,25.4"/>
			</g>
		</g>
		<g>
			<g>
				
					<path fill="#FFFFFF" stroke="#000000" stroke-width="2" stroke-linecap="square" stroke-linejoin="round" stroke-miterlimit="10" d="
					M19.3,25.4"/>
			</g>
		</g>
		<g>
			<g>
				
					<path fill="#FFFFFF" stroke="#000000" stroke-width="2" stroke-linecap="square" stroke-linejoin="round" stroke-miterlimit="10" d="
					M31.2,25.4"/>
			</g>
		</g>
		<g>
			<g>
				
					<path fill="#FFFFFF" stroke="#000000" stroke-width="2" stroke-linecap="square" stroke-linejoin="round" stroke-miterlimit="10" d="
					M25.3,25.4"/>
			</g>
		</g>
		<g>
			<g>
				
					<path fill="#FFFFFF" stroke="#000000" stroke-width="2" stroke-linecap="square" stroke-linejoin="round" stroke-miterlimit="10" d="
					M37.2,25.4"/>
			</g>
		</g>
		<g>
			<g>
				
					<path fill="#FFFFFF" stroke="#000000" stroke-width="2" stroke-linecap="square" stroke-linejoin="round" stroke-miterlimit="10" d="
					M31.2,25.4"/>
			</g>
		</g>
		<g>
			<g>
				
					<path fill="#FFFFFF" stroke="#000000" stroke-width="2" stroke-linecap="square" stroke-linejoin="round" stroke-miterlimit="10" d="
					M43.1,25.4"/>
			</g>
		</g>
		<g>
			<g>
				
					<path fill="#FFFFFF" stroke="#000000" stroke-width="2" stroke-linecap="square" stroke-linejoin="round" stroke-miterlimit="10" d="
					M37.2,25.4"/>
			</g>
		</g>
		<g>
			<g>
				
					<path fill="#FFFFFF" stroke="#000000" stroke-width="2" stroke-linecap="square" stroke-linejoin="round" stroke-miterlimit="10" d="
					M49.1,25.4"/>
			</g>
		</g>
		<g>
			<g>
				
					<path fill="#FFFFFF" stroke="#000000" stroke-width="2" stroke-linecap="square" stroke-linejoin="round" stroke-miterlimit="10" d="
					M43.1,25.4"/>
			</g>
		</g>
		<g>
			<g>
				
					<path fill="#FFFFFF" stroke="#000000" stroke-width="2" stroke-linecap="square" stroke-linejoin="round" stroke-miterlimit="10" d="
					M49.1,25.4"/>
			</g>
		</g>
		<g>
			<g>
				<rect x="22.3" y="28.3" fill="#FFFFFF" width="5.9" height="0"/>
			</g>
			<g>
				<path d="M28.2,29.3h-5.9c-0.6,0-1-0.4-1-1s0.4-1,1-1h5.9c0.6,0,1,0.4,1,1S28.8,29.3,28.2,29.3z"/>
			</g>
		</g>
		<g>
			<g>
				<path fill="#FFFFFF" d="M46.1,28.3c-1.6,0-3-1.3-3-3c0,1.6-1.3,3-3,3c-1.6,0-3-1.3-3-3c0,1.6-1.3,3-3,3c-1.6,0-3-1.3-3-3
					c0,1.6-1.3,3-3,3h-5.9c-1.6,0-3-1.3-3-3c0,1.6-1.3,3-3,3c-1.6,0-3-1.3-3-3c0,1.6-1.3,3-3,3c-1.6,0-3-1.3-3-3c0,1.6-1.3,3-3,3
					c-1.6,0-3-1.3-3-3l0,23.6H49l0-23.6C49.1,27,47.7,28.3,46.1,28.3z"/>
			</g>
			<g>
				<path d="M49,50H1.5c-0.6,0-1-0.4-1-1l0-23.6v0c0,0,0,0,0,0v0c0,0,0,0,0,0c0-0.6,0.4-1,1-1c0,0,0,0,0,0c0.6,0,1,0.4,1,1
					c0,0,0,0,0,0s0,0,0,0v0c0,1.1,0.9,2,2,2c1.1,0,2-0.9,2-2c0-0.6,0.4-1,1-1s1,0.4,1,1c0,1.1,0.9,2,2,2s2-0.9,2-2c0-0.6,0.4-1,1-1
					s1,0.4,1,1c0,1.1,0.9,2,2,2s2-0.9,2-2c0-0.6,0.4-1,1-1s1,0.4,1,1c0,1.1,0.9,2,2,2h5.9c1.1,0,2-0.9,2-2c0-0.6,0.4-1,1-1
					s1,0.4,1,1c0,1.1,0.9,2,2,2s2-0.9,2-2c0-0.6,0.4-1,1-1s1,0.4,1,1c0,1.1,0.9,2,2,2s2-0.9,2-2c0-0.6,0.4-1,1-1s1,0.4,1,1
					c0,1.1,0.9,2,2,2c1.1,0,2-0.9,2-2v0c0-0.6,0.4-1,1-1c0,0,0,0,0,0c0.6,0,1,0.4,1,1l0,0c0,0,0,0,0,0l0,0c0,0,0,0,0,0v0v0L50,49
					C50,49.5,49.6,50,49,50z M2.5,48H48l0-19.2c-0.6,0.3-1.3,0.5-2,0.5c-1.2,0-2.2-0.5-3-1.3c-0.7,0.8-1.8,1.3-3,1.3s-2.2-0.5-3-1.3
					c-0.7,0.8-1.8,1.3-3,1.3s-2.2-0.5-3-1.3c-0.7,0.8-1.8,1.3-3,1.3h-5.9c-1.2,0-2.2-0.5-3-1.3c-0.7,0.8-1.8,1.3-3,1.3
					s-2.2-0.5-3-1.3c-0.7,0.8-1.8,1.3-3,1.3s-2.2-0.5-3-1.3c-0.7,0.8-1.8,1.3-3,1.3c-0.7,0-1.4-0.2-2-0.5L2.5,48z"/>
			</g>
		</g>
	</g>
	<g>
		<g>
			<g>
				<path fill="none" stroke="#000000" stroke-width="0.75" stroke-miterlimit="10" d="M7.4,30.9"/>
			</g>
		</g>
		<g>
			<g>
				<path fill="none" stroke="#000000" stroke-width="0.75" stroke-miterlimit="10" d="M1.5,30.9"/>
			</g>
		</g>
		<g>
			<g>
				<path fill="none" stroke="#000000" stroke-width="0.75" stroke-miterlimit="10" d="M13.4,30.9"/>
			</g>
		</g>
		<g>
			<g>
				<path fill="none" stroke="#000000" stroke-width="0.75" stroke-miterlimit="10" d="M7.4,30.9"/>
			</g>
		</g>
		<g>
			<g>
				<path fill="none" stroke="#000000" stroke-width="0.75" stroke-miterlimit="10" d="M19.3,30.9"/>
			</g>
		</g>
		<g>
			<g>
				<path fill="none" stroke="#000000" stroke-width="0.75" stroke-miterlimit="10" d="M13.4,30.9"/>
			</g>
		</g>
		<g>
			<g>
				<path fill="none" stroke="#000000" stroke-width="0.75" stroke-miterlimit="10" d="M25.3,30.9"/>
			</g>
		</g>
		<g>
			<g>
				<path fill="none" stroke="#000000" stroke-width="0.75" stroke-miterlimit="10" d="M19.3,30.9"/>
			</g>
		</g>
		<g>
			<g>
				<path fill="none" stroke="#000000" stroke-width="0.75" stroke-miterlimit="10" d="M31.2,30.9"/>
			</g>
		</g>
		<g>
			<g>
				<path fill="none" stroke="#000000" stroke-width="0.75" stroke-miterlimit="10" d="M25.3,30.9"/>
			</g>
		</g>
		<g>
			<g>
				<path fill="none" stroke="#000000" stroke-width="0.75" stroke-miterlimit="10" d="M37.2,30.9"/>
			</g>
		</g>
		<g>
			<g>
				<path fill="none" stroke="#000000" stroke-width="0.75" stroke-miterlimit="10" d="M31.2,30.9"/>
			</g>
		</g>
		<g>
			<g>
				<path fill="none" stroke="#000000" stroke-width="0.75" stroke-miterlimit="10" d="M43.1,30.9"/>
			</g>
		</g>
		<g>
			<g>
				<path fill="none" stroke="#000000" stroke-width="0.75" stroke-miterlimit="10" d="M37.2,30.9"/>
			</g>
		</g>
		<g>
			<g>
				<path fill="none" stroke="#000000" stroke-width="0.75" stroke-miterlimit="10" d="M49.1,30.9"/>
			</g>
		</g>
		<g>
			<g>
				<path fill="none" stroke="#000000" stroke-width="0.75" stroke-miterlimit="10" d="M43.1,30.9"/>
			</g>
		</g>
		<g>
			<g>
				<path fill="none" stroke="#000000" stroke-width="0.75" stroke-miterlimit="10" d="M49.1,30.9"/>
			</g>
		</g>
		<g>
			<g>
				<path d="M46.1,34.2c-1.3,0-2.4-0.7-3-1.8c-0.6,1.1-1.7,1.8-3,1.8c-1.3,0-2.4-0.7-3-1.8c-0.6,1.1-1.7,1.8-3,1.8s-2.4-0.7-3-1.8
					c-0.6,1.1-1.7,1.8-3,1.8c-1.3,0-2.4-0.7-3-1.8c-0.6,1.1-1.7,1.8-3,1.8s-2.4-0.7-3-1.8c-0.6,1.1-1.7,1.8-3,1.8
					c-1.3,0-2.4-0.7-3-1.8c-0.6,1.1-1.7,1.8-3,1.8c-1.3,0-2.4-0.7-3-1.8c-0.6,1.1-1.7,1.8-3,1.8c-1.8,0-3.3-1.5-3.3-3.3h0.8
					c0,1.4,1.2,2.6,2.6,2.6s2.6-1.2,2.6-2.6h0.8c0,1.4,1.2,2.6,2.6,2.6c1.4,0,2.6-1.2,2.6-2.6h0.8c0,1.4,1.2,2.6,2.6,2.6
					c1.4,0,2.6-1.2,2.6-2.6h0.8c0,1.4,1.2,2.6,2.6,2.6s2.6-1.2,2.6-2.6h0.8c0,1.4,1.2,2.6,2.6,2.6c1.4,0,2.6-1.2,2.6-2.6h0.8
					c0,1.4,1.2,2.6,2.6,2.6s2.6-1.2,2.6-2.6h0.8c0,1.4,1.2,2.6,2.6,2.6c1.4,0,2.6-1.2,2.6-2.6h0.8c0,1.4,1.2,2.6,2.6,2.6
					c1.4,0,2.6-1.2,2.6-2.6h0.8C49.4,32.7,47.9,34.2,46.1,34.2z"/>
			</g>
		</g>
	</g>
	<g>
		<g>
			<g>
				<path fill="none" stroke="#000000" stroke-width="0.75" stroke-miterlimit="10" d="M7.4,36.4"/>
			</g>
		</g>
		<g>
			<g>
				<path fill="none" stroke="#000000" stroke-width="0.75" stroke-miterlimit="10" d="M1.5,36.4"/>
			</g>
		</g>
		<g>
			<g>
				<path fill="none" stroke="#000000" stroke-width="0.75" stroke-miterlimit="10" d="M13.4,36.4"/>
			</g>
		</g>
		<g>
			<g>
				<path fill="none" stroke="#000000" stroke-width="0.75" stroke-miterlimit="10" d="M7.4,36.4"/>
			</g>
		</g>
		<g>
			<g>
				<path fill="none" stroke="#000000" stroke-width="0.75" stroke-miterlimit="10" d="M19.3,36.4"/>
			</g>
		</g>
		<g>
			<g>
				<path fill="none" stroke="#000000" stroke-width="0.75" stroke-miterlimit="10" d="M13.4,36.4"/>
			</g>
		</g>
		<g>
			<g>
				<path fill="none" stroke="#000000" stroke-width="0.75" stroke-miterlimit="10" d="M25.3,36.4"/>
			</g>
		</g>
		<g>
			<g>
				<path fill="none" stroke="#000000" stroke-width="0.75" stroke-miterlimit="10" d="M19.3,36.4"/>
			</g>
		</g>
		<g>
			<g>
				<path fill="none" stroke="#000000" stroke-width="0.75" stroke-miterlimit="10" d="M31.2,36.4"/>
			</g>
		</g>
		<g>
			<g>
				<path fill="none" stroke="#000000" stroke-width="0.75" stroke-miterlimit="10" d="M25.3,36.4"/>
			</g>
		</g>
		<g>
			<g>
				<path fill="none" stroke="#000000" stroke-width="0.75" stroke-miterlimit="10" d="M37.2,36.4"/>
			</g>
		</g>
		<g>
			<g>
				<path fill="none" stroke="#000000" stroke-width="0.75" stroke-miterlimit="10" d="M31.2,36.4"/>
			</g>
		</g>
		<g>
			<g>
				<path fill="none" stroke="#000000" stroke-width="0.75" stroke-miterlimit="10" d="M43.1,36.4"/>
			</g>
		</g>
		<g>
			<g>
				<path fill="none" stroke="#000000" stroke-width="0.75" stroke-miterlimit="10" d="M37.2,36.4"/>
			</g>
		</g>
		<g>
			<g>
				<path fill="none" stroke="#000000" stroke-width="0.75" stroke-miterlimit="10" d="M49.1,36.4"/>
			</g>
		</g>
		<g>
			<g>
				<path fill="none" stroke="#000000" stroke-width="0.75" stroke-miterlimit="10" d="M43.1,36.4"/>
			</g>
		</g>
		<g>
			<g>
				<path fill="none" stroke="#000000" stroke-width="0.75" stroke-miterlimit="10" d="M49.1,36.4"/>
			</g>
		</g>
		<g>
			<g>
				<path d="M46.1,39.7c-1.3,0-2.4-0.7-3-1.8c-0.6,1.1-1.7,1.8-3,1.8c-1.3,0-2.4-0.7-3-1.8c-0.6,1.1-1.7,1.8-3,1.8s-2.4-0.7-3-1.8
					c-0.6,1.1-1.7,1.8-3,1.8c-1.3,0-2.4-0.7-3-1.8c-0.6,1.1-1.7,1.8-3,1.8s-2.4-0.7-3-1.8c-0.6,1.1-1.7,1.8-3,1.8
					c-1.3,0-2.4-0.7-3-1.8c-0.6,1.1-1.7,1.8-3,1.8c-1.3,0-2.4-0.7-3-1.8c-0.6,1.1-1.7,1.8-3,1.8c-1.8,0-3.3-1.5-3.3-3.3h0.8
					C1.9,37.8,3,39,4.5,39s2.6-1.2,2.6-2.6h0.8c0,1.4,1.2,2.6,2.6,2.6c1.4,0,2.6-1.2,2.6-2.6h0.8c0,1.4,1.2,2.6,2.6,2.6
					c1.4,0,2.6-1.2,2.6-2.6h0.8c0,1.4,1.2,2.6,2.6,2.6s2.6-1.2,2.6-2.6h0.8c0,1.4,1.2,2.6,2.6,2.6c1.4,0,2.6-1.2,2.6-2.6h0.8
					c0,1.4,1.2,2.6,2.6,2.6s2.6-1.2,2.6-2.6h0.8c0,1.4,1.2,2.6,2.6,2.6c1.4,0,2.6-1.2,2.6-2.6h0.8c0,1.4,1.2,2.6,2.6,2.6
					c1.4,0,2.6-1.2,2.6-2.6h0.8C49.4,38.2,47.9,39.7,46.1,39.7z"/>
			</g>
		</g>
	</g>
	<g>
		<g>
			<g>
				<path fill="none" stroke="#000000" stroke-width="0.75" stroke-miterlimit="10" d="M7.4,41.9"/>
			</g>
		</g>
		<g>
			<g>
				<path fill="none" stroke="#000000" stroke-width="0.75" stroke-miterlimit="10" d="M1.5,41.9"/>
			</g>
		</g>
		<g>
			<g>
				<path fill="none" stroke="#000000" stroke-width="0.75" stroke-miterlimit="10" d="M13.4,41.9"/>
			</g>
		</g>
		<g>
			<g>
				<path fill="none" stroke="#000000" stroke-width="0.75" stroke-miterlimit="10" d="M7.4,41.9"/>
			</g>
		</g>
		<g>
			<g>
				<path fill="none" stroke="#000000" stroke-width="0.75" stroke-miterlimit="10" d="M19.3,41.9"/>
			</g>
		</g>
		<g>
			<g>
				<path fill="none" stroke="#000000" stroke-width="0.75" stroke-miterlimit="10" d="M13.4,41.9"/>
			</g>
		</g>
		<g>
			<g>
				<path fill="none" stroke="#000000" stroke-width="0.75" stroke-miterlimit="10" d="M25.3,41.9"/>
			</g>
		</g>
		<g>
			<g>
				<path fill="none" stroke="#000000" stroke-width="0.75" stroke-miterlimit="10" d="M19.3,41.9"/>
			</g>
		</g>
		<g>
			<g>
				<path fill="none" stroke="#000000" stroke-width="0.75" stroke-miterlimit="10" d="M31.2,41.9"/>
			</g>
		</g>
		<g>
			<g>
				<path fill="none" stroke="#000000" stroke-width="0.75" stroke-miterlimit="10" d="M25.3,41.9"/>
			</g>
		</g>
		<g>
			<g>
				<path fill="none" stroke="#000000" stroke-width="0.75" stroke-miterlimit="10" d="M37.2,41.9"/>
			</g>
		</g>
		<g>
			<g>
				<path fill="none" stroke="#000000" stroke-width="0.75" stroke-miterlimit="10" d="M31.2,41.9"/>
			</g>
		</g>
		<g>
			<g>
				<path fill="none" stroke="#000000" stroke-width="0.75" stroke-miterlimit="10" d="M43.1,41.9"/>
			</g>
		</g>
		<g>
			<g>
				<path fill="none" stroke="#000000" stroke-width="0.75" stroke-miterlimit="10" d="M37.2,41.9"/>
			</g>
		</g>
		<g>
			<g>
				<path fill="none" stroke="#000000" stroke-width="0.75" stroke-miterlimit="10" d="M49.1,41.9"/>
			</g>
		</g>
		<g>
			<g>
				<path fill="none" stroke="#000000" stroke-width="0.75" stroke-miterlimit="10" d="M43.1,41.9"/>
			</g>
		</g>
		<g>
			<g>
				<path fill="none" stroke="#000000" stroke-width="0.75" stroke-miterlimit="10" d="M49.1,41.9"/>
			</g>
		</g>
		<g>
			<g>
				<path d="M46.1,45.3c-1.3,0-2.4-0.7-3-1.8c-0.6,1.1-1.7,1.8-3,1.8c-1.3,0-2.4-0.7-3-1.8c-0.6,1.1-1.7,1.8-3,1.8s-2.4-0.7-3-1.8
					c-0.6,1.1-1.7,1.8-3,1.8c-1.3,0-2.4-0.7-3-1.8c-0.6,1.1-1.7,1.8-3,1.8s-2.4-0.7-3-1.8c-0.6,1.1-1.7,1.8-3,1.8
					c-1.3,0-2.4-0.7-3-1.8c-0.6,1.1-1.7,1.8-3,1.8c-1.3,0-2.4-0.7-3-1.8c-0.6,1.1-1.7,1.8-3,1.8c-1.8,0-3.3-1.5-3.3-3.3h0.8
					c0,1.4,1.2,2.6,2.6,2.6s2.6-1.2,2.6-2.6h0.8c0,1.4,1.2,2.6,2.6,2.6c1.4,0,2.6-1.2,2.6-2.6h0.8c0,1.4,1.2,2.6,2.6,2.6
					c1.4,0,2.6-1.2,2.6-2.6h0.8c0,1.4,1.2,2.6,2.6,2.6s2.6-1.2,2.6-2.6h0.8c0,1.4,1.2,2.6,2.6,2.6c1.4,0,2.6-1.2,2.6-2.6h0.8
					c0,1.4,1.2,2.6,2.6,2.6s2.6-1.2,2.6-2.6h0.8c0,1.4,1.2,2.6,2.6,2.6c1.4,0,2.6-1.2,2.6-2.6h0.8c0,1.4,1.2,2.6,2.6,2.6
					c1.4,0,2.6-1.2,2.6-2.6h0.8C49.4,43.8,47.9,45.3,46.1,45.3z"/>
			</g>
		</g>
	</g>
</g>
</svg>
