<?xml version="1.0" encoding="utf-8"?>
<!-- Generator: Adobe Illustrator 18.0.0, SVG Export Plug-In . SVG Version: 6.00 Build 0)  -->
<!DOCTYPE svg PUBLIC "-//W3C//DTD SVG 1.1//EN" "http://www.w3.org/Graphics/SVG/1.1/DTD/svg11.dtd">
<svg version="1.1" id="Layer_1" xmlns="http://www.w3.org/2000/svg" xmlns:xlink="http://www.w3.org/1999/xlink" x="0px" y="0px"
	 viewBox="0 0 50.5 50.5" enable-background="new 0 0 50.5 50.5" xml:space="preserve">
<g>
	<g>
		<defs>
			<rect id="SVGID_1_" x="36.3" y="-61.9" width="47.5" height="47.5"/>
		</defs>
		<clipPath id="SVGID_2_">
			<use xlink:href="#SVGID_1_"  overflow="visible"/>
		</clipPath>
		<g clip-path="url(#SVGID_2_)">
			<g>
				<path fill="#FFFFFF" d="M73.9-13.6c0.5,0,8.7-0.7,8.7-0.7L79.2,4.6l8.5,1.5l-1.2-3l-0.8-3.8c0,0,4.5-1.8,5.2-1.5
					c0.7,0.3,0,8.3,0,8.3l2.5,5.2l13.8,8.7L158-51.4l-37.3-56.4c0,0-35-7.3-36.8-7.3c-1.8,0-63.8,0.7-63.8,0.7l-28.8,6.8l21.2,23.7
					l1.2,23l12.1-2.8c0,0,5.6-6.8,5.1-7.5c-0.5-0.7,5.7,2.2,5.7,2.2l-5.7,4.2l2.8,5l5.2-4.2l3.3,3.7l-0.8,7.8h3.7l2.8,2.9v5.1h3
					l2.3-1.7v4l-0.7,3.3l-0.7,4.7l3.3-1.7l4.5-1.8l2-3.2c0,0,2.2,1.8,2,2.8c-0.2,1,2,3.9,2,3.9l-2.7,4.3l5.5,4.4l3.3-3h1.7l3.7,6.9
					l-6.6,4.2L73.9-13.6z"/>
			</g>
			<g>
				<path d="M107.5,21.3L92.6,12l-2.7-5.7l0-0.3c0.2-2.7,0.4-5.9,0.3-7.2c-0.8,0.2-2.1,0.6-3.3,1.1l0.6,2.9l1.8,4.6L78,5.4l3.3-18.5
					c-2.5,0.2-7,0.6-7.5,0.6h-0.5l-4.5-5.2l6.8-4.3l-3-5.6h-0.7l-3.7,3.3l-6.9-5.4l2.8-4.5c-0.9-1.2-2-3-1.8-4.1
					c0-0.2-0.4-0.6-0.8-1.1l-1.5,2.4l-4.8,2l-5,2.6l0.9-6.6l0.7-3.2v-1.9l-1,0.7h-4.3v-5.7l-2.2-2.3h-4.4l0.9-8.5l-2.4-2.6l-5.4,4.3
					l-3.9-6.8l5-3.7c-1.1-0.5-2.3-1-3-1.2c-0.6,1.2-1.9,3.2-5,7l-0.2,0.3l-13.6,3.2l-1.2-23.8l-22.1-24.7l30.7-7.2
					c2.5,0,62-0.7,63.8-0.7c1.9,0,33.4,6.6,37,7.4l0.4,0.1l0.2,0.3l37.7,56.9L107.5,21.3z M94.1,10.6l12.8,8l49.9-70l-36.7-55.4
					c-13.9-2.9-34.8-7.2-36.2-7.2c-1.8,0-60.7,0.6-63.7,0.7L-6.9-107l20.3,22.7l1.1,22.2L25-64.6c2-2.4,4.1-5.3,4.6-6.4l-0.1-0.2
					l0.3-0.6c0.2-0.4,0.5-0.6,1-0.6c0.6,0,2.6,0.8,6,2.4l1.5,0.7L32-64.6l1.8,3.2l5-4l4.3,4.7l-0.8,7.2h3l3.4,3.5v4.5h1.7l3.7-2.7
					l0,6.2l-0.7,3.3l-0.4,2.7l1.6-0.8l4.3-1.8l2.4-3.9l0.9,0.7c1,0.8,2.6,2.4,2.3,3.8c0,0.4,0.9,1.9,1.8,3.1l0.4,0.5l-2.6,4.1
					l4.1,3.3l3-2.7H74l4.4,8.3l-6.4,4l2.3,2.7c1.4-0.1,5.5-0.4,8.1-0.6l1.3-0.1L80.3,3.8l5.8,1l-0.6-1.5l-1-4.7l0.8-0.3
					c0.9-0.4,4.1-1.6,5.3-1.6c0.3,0,0.5,0,0.7,0.1c0.6,0.3,1.3,0.6,0.6,9L94.1,10.6z"/>
			</g>
		</g>
		<g clip-path="url(#SVGID_2_)">
			<g>
				<path d="M112.6,10.7L98.4,1.8l-2.6-5.4l0-0.1c0.3-3.4,0.4-7.3,0.2-8c-0.9,0-3.3,0.9-4.5,1.4l0.8,3.5l1.4,3.6l-9.6-1.7l3.9-15.4
					c-0.7-0.3-2.7-1.1-7.1-2.4l-0.2,0l-2.4-4.6l3.6-4.2L78.5-38h-1.3l-3.5,3.1l-6-4.8l2.7-4.4l-3.5-5.8l-1.7,4.8l-4.6-1.4l-4.2,3.4
					l0.8-5.7l0.6-2.8l-2.5,0.1l0.3-2.4h-2.7L48-57.3l0.5-3.5L46.1-62L47-70l-3-3.3L38.7-69l-3.2-5.7l5.4-4c-1.9-0.8-3.8-1.7-4.6-1.9
					c-0.2,0.8-1.2,2.6-5.1,7.4l-0.1,0.1l-12.6,3l-1.2-23.3l-21.5-24l29.4-7c0.7,0,62.1-0.7,63.9-0.7c1.9,0,35.5,7,36.9,7.3l0.2,0
					l0.1,0.1l37.5,56.6l-0.1,0.2L112.6,10.7z M99,1.3l13.4,8.4l50.5-70.8l-37.1-56c-12.1-2.5-35.2-7.3-36.6-7.3
					c-1.8,0-63.2,0.7-63.8,0.7L-2.8-117l20.8,23.3l1.2,22.7l11.5-2.7c2.4-2.9,4.8-6.3,4.9-7l-0.1-0.1l0.1-0.3c0-0.1,0.1-0.2,0.4-0.2
					c0.7,0,4.6,1.8,5.8,2.3l0.6,0.3l-5.9,4.3l2.5,4.3l5.1-4.1l3.7,4.1l-0.8,7.7l2.4,1.2l-0.5,3.6l4.3,3h3.3l-0.2,2.3l2.6-0.1
					l-0.8,3.7l-0.5,3.8l3-2.4l4.3,1.3l2-5.6l4.5,7.6l-2.6,4.2l5,4l3.2-2.9h2l3.9,7.4l-3.6,4.2l2,3.9c5.5,1.6,7.3,2.5,7.3,2.6
					l0.3,0.1L85-5.4l7.4,1.3l-0.9-2.4l-0.9-4.2l0.3-0.1c0.4-0.2,3.9-1.6,5.1-1.6c0.2,0,0.3,0,0.4,0.1c0.2,0.1,0.9,0.4,0.2,8.6
					L99,1.3z"/>
			</g>
		</g>
		<g clip-path="url(#SVGID_2_)">
			<g>
				<path d="M117.8,2.1l-14.2-8.9l-2.6-5.4l0-0.1c0.3-3.4,0.4-7.3,0.2-8c-0.9,0-3.3,0.9-4.5,1.4l0.8,3.5l1.4,3.6l-9.6-1.7l3.9-15.4
					c-0.6-0.3-2.3-1-5.7-2L86-29.3l0.1,6.4l-4.1-2.8l3.2-3.9l-0.1-5.1l-2.9-3.6l-1.5-2.9l-7-1.7l-4-8.8l0.1-2.3l-3.9-1.2l-4.2,3.4
					l0.7-5.1l-2.5,0.6l-2-2.3l-2.8-2.1L55-65.7l-1.8-0.2l0.5-3.7l-2.4-1.2l0.8-7.9l-3-3.3l-5.3,4.2l-3.2-5.7l5.4-4
					c-1.9-0.8-3.8-1.7-4.6-1.9c-0.2,0.8-1.2,2.6-5.1,7.4l-0.1,0.1l-12.6,3l-1.2-23.3L1-126.1l29.4-7c0.7,0,62.1-0.7,63.9-0.7
					c1.9,0,35.5,7,36.9,7.3l0.2,0l0.1,0.1L169-69.7l-0.1,0.2L117.8,2.1z M104.1-7.3l13.4,8.4L168-69.7l-37.1-56
					c-12.1-2.5-35.2-7.3-36.6-7.3c-1.8,0-63.2,0.7-63.8,0.7l-28.1,6.7l20.8,23.3l1.2,22.7l11.5-2.7c2.4-2.9,4.8-6.3,4.9-7l-0.1-0.1
					l0.1-0.3c0-0.1,0.1-0.2,0.4-0.2c0.7,0,4.6,1.8,5.8,2.3l0.6,0.3l-5.9,4.3l2.5,4.3l5.1-4.1l3.7,4.1l-0.8,7.7l2.4,1.2L54-66.5
					l1.7,0.1l0.2,5.2l2.5,2l1.8,2l3.1-0.7l-0.6,4.3l3-2.4l4.9,1.5l-0.2,2.7l3.8,8.3l7,1.7l1.7,3.1l3,3.7l0.1,2.8l4.8-4.2l0.5,0.5
					l-3.5,4.2c4.3,1.3,5.8,2.1,5.8,2.1l0.3,0.1l-3.8,15.2l7.4,1.3l-0.9-2.4l-0.9-4.2l0.3-0.1c0.4-0.2,3.9-1.6,5.1-1.6
					c0.2,0,0.3,0,0.4,0.1c0.2,0.1,0.9,0.4,0.2,8.6L104.1-7.3z M83.2-25.8l2.2,1.5l-0.1-4.1L83.2-25.8z M86-31.3l0,0.9l0.6-0.7
					C86.4-31.2,86.2-31.2,86-31.3L86-31.3z M86.8-31.8c0.1,0,0.2,0,0.2,0.1l0.8-1L86.8-31.8z"/>
			</g>
		</g>
		<g clip-path="url(#SVGID_2_)">
			<g>
				<path d="M130.5,0.3l-14.2-8.9l-2.6-5.4l0-0.1c0.3-3.4,0.4-7.3,0.2-8c-0.9,0-3.3,0.9-4.5,1.4l0.8,3.5l1.4,3.6l-9.6-1.7l3.9-15.4
					c-0.6-0.3-2.3-1-5.7-2l-1.3,1.6l0.1,6.4l-4.1-2.8l3.2-3.9l-0.1-5.1l-2.8-3.5l-2.3-0.2l-9.9-4.7l-6.1-6.1l-2.8,2.3l-1.4-6.6
					l2.1-1.2l1.3-5l-5.5-2.2L68.6-63l0,0.5l-3.2,0.8l-0.2-0.7l2.6-1l-0.1-4l-1.8-0.2l0.5-3.7L64-72.5l0.8-7.9l-3-3.3l-5.3,4.2
					l-3.2-5.7l5.4-4c-1.9-0.8-3.8-1.7-4.6-1.9c-0.2,0.8-1.2,2.6-5.1,7.4L49-83.5l-12.6,3l-1.2-23.3l-21.5-24l29.4-7
					c0.7,0,62.1-0.7,63.9-0.7c1.9,0,35.5,7,36.9,7.3l0.2,0l0.1,0.1l37.5,56.6l-0.1,0.2L130.5,0.3z M116.8-9.1l13.4,8.4l50.5-70.8
					l-37.1-56c-12.1-2.5-35.2-7.3-36.6-7.3c-1.8,0-63.2,0.7-63.8,0.7l-28.1,6.7l20.8,23.3l1.2,22.7l11.5-2.7c2.4-2.9,4.8-6.3,4.9-7
					l-0.1-0.1l0.1-0.3c0-0.1,0.1-0.2,0.4-0.2c0.7,0,4.6,1.8,5.8,2.3l0.6,0.3l-5.9,4.3l2.5,4.3l5.1-4.1l3.7,4.1l-0.8,7.7l2.4,1.2
					l-0.5,3.5l1.7,0.1l0.1,4.4l1.9-0.8l6.4,2.6l-1.5,6l-1.9,1.1l1,4.9l2.3-1.9l6.6,6.5l9.7,4.6l2.4,0.2l3.2,3.9l0.1,2.8l4.8-4.2
					l0.5,0.5l-3.5,4.2c4.3,1.3,5.8,2.1,5.8,2.1l0.3,0.1l-3.8,15.2l7.4,1.3l-0.9-2.4l-0.9-4.2l0.3-0.1c0.4-0.2,3.9-1.6,5.1-1.6
					c0.2,0,0.3,0,0.4,0.1c0.2,0.1,0.9,0.4,0.2,8.6L116.8-9.1z M95.9-27.6l2.2,1.5L98-30.2L95.9-27.6z M98.7-33.1l0,0.9l0.6-0.7
					C99.1-32.9,98.9-33,98.7-33.1L98.7-33.1z M99.6-33.6c0.1,0,0.2,0,0.2,0.1l0.8-1L99.6-33.6z"/>
			</g>
		</g>
	</g>
</g>
<g>
	<g>
		<g>
			<rect x="1.5" y="1.5" fill="#FFB836" width="47.5" height="47.5"/>
		</g>
	</g>
	<g>
		<g>
			<path d="M50.5,50.5H0V0h50.5V50.5z M3,47.5h44.5V3H3V47.5z"/>
		</g>
	</g>
	<g>
		<g>
			<rect x="1.5" y="41.4" fill="#FFFFFF" width="47.5" height="7.5"/>
		</g>
		<g>
			<path d="M50,50H0.5v-9.5H50V50z M2.5,48H48v-5.5H2.5V48z"/>
		</g>
	</g>
	<g>
		<defs>
			<rect id="SVGID_5_" x="1.5" y="1.5" width="47.5" height="47.5"/>
		</defs>
		<clipPath id="SVGID_4_">
			<use xlink:href="#SVGID_5_"  overflow="visible"/>
		</clipPath>
		<g clip-path="url(#SVGID_4_)">
			<g>
				<path fill="#FFFFFF" d="M7,34c0-0.1,0-0.2,0-0.3c0-2.7-2.2-4.9-4.9-4.9c-0.5,0-0.9,0.1-1.4,0.2c-1.1-1.9-3.3-3.2-5.7-3.2
					c-3.3,0-6,2.4-6.5,5.6c-0.2,0-0.4-0.1-0.6-0.1c-1.5,0-2.7,1.2-2.9,2.6l-6.2,1.9h5.1h1.6h21h5.3h1.4L7,34z"/>
			</g>
			<g>
				<path d="M13.2,36.9h-34.4c-0.5,0-0.9-0.4-1-0.9c-0.1-0.5,0.2-1,0.7-1.1l5.7-1.7c0.5-1.6,1.9-2.8,3.6-2.8
					c0.9-3.2,3.9-5.6,7.3-5.6c2.4,0,4.7,1.2,6.1,3.1c0.3,0,0.6-0.1,0.9-0.1c3.1,0,5.6,2.4,5.8,5.4l5.5,1.6c0.5,0.1,0.8,0.6,0.7,1.1
					C14.1,36.5,13.7,36.9,13.2,36.9z M-14.4,34.9H6.5c-0.3-0.2-0.5-0.5-0.5-0.9c0-0.1,0-0.2,0-0.2c0-2.1-1.7-3.9-3.9-3.9
					c-0.4,0-0.7,0.1-1.1,0.2c-0.4,0.1-0.9-0.1-1.1-0.5c-1-1.7-2.8-2.8-4.8-2.8c-2.7,0-5.1,2.1-5.5,4.8c0,0.3-0.2,0.5-0.4,0.7
					c-0.2,0.2-0.5,0.2-0.8,0.2c-1.2-0.3-2.2,0.6-2.3,1.7C-14,34.4-14.2,34.7-14.4,34.9z"/>
			</g>
		</g>
	</g>
	<g>
		<defs>
			<rect id="SVGID_7_" x="1.5" y="1.5" width="47.5" height="47.5"/>
		</defs>
		<clipPath id="SVGID_6_">
			<use xlink:href="#SVGID_7_"  overflow="visible"/>
		</clipPath>
		<g clip-path="url(#SVGID_6_)">
			<g>
				<path fill="#FFFFFF" d="M56.8,36.3c0-0.1,0-0.2,0-0.2c0-2.3-1.8-4.1-4.1-4.1c-0.4,0-0.8,0.1-1.2,0.2c-1-1.6-2.7-2.7-4.8-2.7
					c-2.8,0-5.1,2.1-5.5,4.7c-0.2,0-0.3-0.1-0.5-0.1c-1.3,0-2.3,1-2.4,2.2l-5.2,1.6h4.2h1.3h17.7h4.4h1.2L56.8,36.3z"/>
			</g>
			<g>
				<path d="M62.1,38.9H33.2c-0.5,0-0.9-0.4-1-0.9c-0.1-0.5,0.2-1,0.7-1.1l4.7-1.4c0.4-1.3,1.6-2.3,3-2.4c0.8-2.7,3.4-4.7,6.3-4.7
					c2.1,0,4,1,5.2,2.6c0.2,0,0.5,0,0.7,0c2.6,0,4.8,2,5,4.6l4.5,1.4c0.5,0.1,0.8,0.6,0.7,1.1C63,38.5,62.6,38.9,62.1,38.9z
					 M39.3,36.9H56c-0.1-0.2-0.2-0.4-0.2-0.6l0-0.2c0-1.7-1.4-3.1-3.1-3.1c-0.3,0-0.6,0-0.9,0.1c-0.4,0.1-0.9-0.1-1.1-0.5
					c-0.8-1.4-2.3-2.2-3.9-2.2c-2.2,0-4.2,1.7-4.5,3.9c0,0.3-0.2,0.5-0.4,0.7c-0.2,0.2-0.5,0.2-0.8,0.2c-0.9-0.2-1.7,0.4-1.8,1.3
					C39.4,36.6,39.3,36.7,39.3,36.9z"/>
			</g>
		</g>
	</g>
	<g>
		<g>
			<path d="M50.5,50.5H0V0h50.5V50.5z M3,47.5h44.5V3H3V47.5z"/>
		</g>
	</g>
	<g>
		<g>
			<g>
				<path fill="#FFFFFF" d="M14.2,12.2L21.5,38c3.7,5.8,0,0,3.7,5.8c3.7-5.8,0,0,3.7-5.8l7.4-26L14.2,12.2z"/>
			</g>
			<g>
				<path d="M25.2,44.8c-0.3,0-0.7-0.2-0.8-0.5l-3.7-5.8c-0.1-0.1-0.1-0.2-0.1-0.3l-7.4-25.8c-0.1-0.3,0-0.6,0.2-0.9
					c0.2-0.3,0.5-0.4,0.8-0.4L36.3,11c0.3,0,0.6,0.1,0.8,0.4c0.2,0.3,0.3,0.6,0.2,0.9l-7.4,26c0,0.1-0.1,0.2-0.1,0.3l-3.7,5.8
					C25.9,44.6,25.6,44.8,25.2,44.8z M22.5,37.6l2.8,4.3l2.8-4.3L35,13l-19.5,0.2L22.5,37.6z"/>
			</g>
		</g>
		<g>
			<g>
				<path d="M25.2,34.7c-3.3,0-5.9-1.4-5.9-3.1h0.8c0,1.3,2.4,2.4,5.2,2.4s5.2-1.1,5.2-2.4h0.8C31.1,33.4,28.6,34.7,25.2,34.7z"/>
			</g>
		</g>
		<g>
			<g>
				<path d="M25.2,29.2c-4.3,0-7.8-1.8-7.8-4.1h0.8c0,1.8,3.2,3.3,7,3.3s7-1.5,7-3.3H33C33,27.4,29.6,29.2,25.2,29.2z"/>
			</g>
		</g>
		<g>
			<g>
				<path d="M25.2,23.7c-5.4,0-9.6-2.2-9.6-5h0.8c0,2.3,4.1,4.2,8.9,4.2s8.9-1.9,8.9-4.2h0.8C34.8,21.5,30.6,23.7,25.2,23.7z"/>
			</g>
		</g>
		<g>
			<g>
				<ellipse fill="#FFFFFF" cx="25.2" cy="12.2" rx="11.1" ry="5.5"/>
			</g>
			<g>
				<path d="M25.2,18.7c-6.8,0-12.1-2.9-12.1-6.5s5.3-6.5,12.1-6.5s12.1,2.9,12.1,6.5S32,18.7,25.2,18.7z M25.2,7.7
					c-5.9,0-10.1,2.4-10.1,4.5s4.1,4.5,10.1,4.5c5.9,0,10.1-2.4,10.1-4.5S31.2,7.7,25.2,7.7z"/>
			</g>
		</g>
	</g>
	<g>
		<g>
			<polygon fill="#FFFFFF" points="42.6,19 39.4,19.6 36.8,27.5 43.3,22.2 			"/>
		</g>
		<g>
			<path d="M34.9,30.4l3.7-11.7l4.8-0.8l1,4.7L34.9,30.4z M40.1,20.5l-1.3,4.2l3.4-2.8l-0.4-1.7L40.1,20.5z"/>
		</g>
	</g>
	<g>
		<g>
			<polygon fill="#FFFFFF" points="7.2,18 6.4,21.2 12.9,26.5 10.4,18.5 			"/>
		</g>
		<g>
			<path d="M14.8,29.4l-9.5-7.9l1.1-4.7l4.8,0.8L14.8,29.4z M7.6,20.8l3.4,2.8l-1.3-4.2l-1.7-0.3L7.6,20.8z"/>
		</g>
	</g>
</g>
</svg>
