<?xml version="1.0" encoding="utf-8"?>
<!-- Generator: Adobe Illustrator 18.0.0, SVG Export Plug-In . SVG Version: 6.00 Build 0)  -->
<!DOCTYPE svg PUBLIC "-//W3C//DTD SVG 1.1//EN" "http://www.w3.org/Graphics/SVG/1.1/DTD/svg11.dtd">
<svg version="1.1" id="Layer_1" xmlns="http://www.w3.org/2000/svg" xmlns:xlink="http://www.w3.org/1999/xlink" x="0px" y="0px"
	 viewBox="0 0 50.5 50.5" enable-background="new 0 0 50.5 50.5" xml:space="preserve">
<g>
	<g>
		<g>
			<rect x="1.5" y="1.5" fill="#FFB836" width="47.5" height="47.5"/>
		</g>
	</g>
	<g>
		<g>
			<path d="M50.5,50.5H0V0h50.5V50.5z M3,47.5h44.5V3H3V47.5z"/>
		</g>
	</g>
	<g>
		<g>
			<polygon fill="#FFFFFF" points="9.4,1.5 9.2,8.3 15.2,12.4 13.3,18.7 17.4,21 17.9,23.5 15.5,26.6 17.8,28.8 15.5,31.7 
				16.7,37.7 19.7,41.2 23.5,46.2 32.8,49 1.5,49 1.5,1.5 			"/>
		</g>
		<g>
			<path d="M39.6,50H0.5V0.5h9.9l-0.2,7.3l6.2,4.2l-1.9,6.2l3.8,2.1l0.6,3.4l-2.1,2.7l2.3,2.3l-2.6,3.2l1,5.3l2.9,3.4l3.6,4.7
				L39.6,50z M2.5,48H26L22.9,47l-3.9-5.2l-3.2-3.7l-1.3-6.7l2-2.5l-2.2-2.2l2.6-3.4l-0.3-1.6l-4.4-2.4l1.9-6.4l-5.8-4l0.2-6.3H2.5
				V48z"/>
		</g>
	</g>
	<g>
		<g>
			<polygon fill="#FFFFFF" points="26.7,17.1 27.7,20.3 30.6,20.3 32.4,18.7 31,17.1 			"/>
		</g>
		<g>
			<path d="M31,21.3H27l-1.6-5.2h6.1l2.3,2.7L31,21.3z M28.4,19.3h1.8l0.7-0.7l-0.4-0.5h-2.5L28.4,19.3z"/>
		</g>
	</g>
	<g>
		<g>
			<polygon fill="#FFFFFF" points="23.4,28 23.8,31 26.3,32.1 28.3,30.4 27.5,28 			"/>
		</g>
		<g>
			<path d="M26.4,33.2l-3.6-1.5L22.3,27h5.9l1.2,3.8L26.4,33.2z M24.7,30.3l1.4,0.6l1-0.9L26.8,29h-2.2L24.7,30.3z"/>
		</g>
	</g>
	<g>
		<g>
			<polygon fill="#FFFFFF" points="28.7,38.1 26.7,41.6 28.3,44.1 31.8,45.6 35.5,43.8 34.9,39.8 31.6,37.6 			"/>
		</g>
		<g>
			<path d="M31.9,46.7l-4.3-1.8l-2-3.3l2.5-4.4l3.7-0.7l4,2.7l0.8,5.2L31.9,46.7z M28.9,43.3l2.9,1.2l2.6-1.3L34,40.4l-2.6-1.8
				l-2,0.4l-1.5,2.6L28.9,43.3z"/>
		</g>
	</g>
	<g>
		<g>
			<polygon fill="#FFFFFF" points="15.6,1.5 15,2.6 16.1,4.4 18.7,5.5 21.3,5.1 22.2,2.8 21.6,1.5 			"/>
		</g>
		<g>
			<path d="M18.6,6.5l-3.2-1.3l-1.6-2.6L15,0.5h7.2l1.1,2.3L22.1,6L18.6,6.5z M16.8,3.6l2,0.9l1.8-0.3l0.5-1.3l-0.2-0.4h-4.7l0,0.1
				L16.8,3.6z"/>
		</g>
	</g>
	<g>
		<g>
			<polygon fill="#FFFFFF" points="41.5,43.7 40.2,46.1 40.9,49 45.3,49 46.2,46.9 			"/>
		</g>
		<g>
			<path d="M45.9,50h-5.8l-0.9-4l2-3.7l6.3,4.3L45.9,50z M41.6,48h3l0.3-0.7l-3.1-2.1l-0.6,1.1L41.6,48z"/>
		</g>
	</g>
	<g>
		<g>
			<polygon points="26.2,23.2 26.7,24.1 25.6,25 24.8,24.1 			"/>
		</g>
	</g>
	<g>
		<g>
			<polygon points="19.6,10.2 20.6,10 21.1,11.4 20,11.8 			"/>
		</g>
	</g>
	<g>
		<g>
			<polygon points="38.1,39.2 38.8,41.3 40,40.5 40.7,39.2 			"/>
		</g>
	</g>
	<g>
		<g>
			<polygon points="23.4,39.6 23.4,40.8 22.2,40.8 21.2,38.9 22,38.3 			"/>
		</g>
	</g>
	<g>
		<g>
			<polygon points="15.8,34.4 13,33.5 8.8,29.4 8.8,24.2 6,18.2 6.7,17.9 9.6,24.1 9.6,29.1 13.5,32.9 16,33.7 			"/>
		</g>
	</g>
	<g>
		<g>
			<polygon points="8.3,21.9 7.8,21.3 9.5,19.9 11.6,14.3 12.3,14.5 10.2,20.4 			"/>
		</g>
	</g>
	<g>
		<g>
			<polygon points="13.3,38.1 8.9,36.4 6.1,32.9 6.7,32.5 9.4,35.8 13.3,37.3 16.4,36.5 16.6,37.3 			"/>
		</g>
	</g>
	<g>
		<g>
			<polygon points="21.6,44.1 15.5,44.1 10.4,41.2 10.8,40.5 15.7,43.3 21.6,43.3 			"/>
		</g>
	</g>
	<g>
		<g>
			<rect x="8.4" y="8.2" transform="matrix(0.4566 0.8897 -0.8897 0.4566 14.4538 -1.8884)" width="0.8" height="5.4"/>
		</g>
	</g>
</g>
</svg>
