<?xml version="1.0" encoding="utf-8"?>
<!-- Generator: Adobe Illustrator 18.0.0, SVG Export Plug-In . SVG Version: 6.00 Build 0)  -->
<!DOCTYPE svg PUBLIC "-//W3C//DTD SVG 1.1//EN" "http://www.w3.org/Graphics/SVG/1.1/DTD/svg11.dtd">
<svg version="1.1" id="Layer_1" xmlns="http://www.w3.org/2000/svg" xmlns:xlink="http://www.w3.org/1999/xlink" x="0px" y="0px"
	 viewBox="0 0 50.5 50.5" enable-background="new 0 0 50.5 50.5" xml:space="preserve">
<g>
	<g>
		<g>
			<g>
				<rect x="1.5" y="1.5" fill="#FFB836" width="47.5" height="47.5"/>
			</g>
		</g>
	</g>
	<g>
		<g>
			<g>
				<path d="M50.5,50.5H0V0h50.5V50.5z M3,47.5h44.5V3H3V47.5z"/>
			</g>
		</g>
	</g>
	<g>
		<defs>
			<rect id="SVGID_3_" x="1.5" y="1.5" width="47.5" height="47.5"/>
		</defs>
		<clipPath id="SVGID_2_">
			<use xlink:href="#SVGID_3_"  overflow="visible"/>
		</clipPath>
		<g clip-path="url(#SVGID_2_)">
			<g>
				<g>
					<g>
						<path d="M22,48l0-13.6c0.7-1.7,2.3-4.8,5.7-6.9c2.3-1.5,4.7-2,6.5-2.2c-2.9,3.4-4,7.7-2.8,11.3c1.5,4.5,6.5,7.7,12.1,7.7
							c1.7,0,3.3-0.3,5-0.8V48H22z"/>
					</g>
				</g>
			</g>
			<g>
				<g>
					<g>
						<path d="M31.9,26.6c-2,3.2-2.6,7-1.5,10.2c1.6,5,7,8.4,13.1,8.4c1.3,0,2.7-0.2,4-0.5V47H23l0-12.4c0.7-1.6,2.2-4.3,5.3-6.3
							C29.5,27.4,30.7,26.9,31.9,26.6 M35.5,24.1c-1.8,0-5.1,0.3-8.4,2.4c-4.1,2.6-5.7,6.4-6.2,7.6L21,49h28.4v-7.1
							c-2,0.9-4,1.3-6,1.3c-5.3,0-9.9-3-11.2-7c-1.3-3.9,0.5-8.7,4.2-11.9v-0.1C36.3,24.2,35.9,24.1,35.5,24.1L35.5,24.1z"/>
					</g>
				</g>
			</g>
		</g>
	</g>
	<g>
		<g>
			<g>
				<g>
					<path fill="#FFFFFF" d="M2.5,48L2.4,24.3c1.1-3,3.9-8.3,9.9-12.1c4.8-3,9.5-3.8,12.9-3.9c-5.5,5.7-7.8,13.2-5.7,19.5
						c2.4,7.4,10.5,12.5,19.7,12.5c3.1,0,6.1-0.6,9-1.7V48H2.5z"/>
				</g>
			</g>
		</g>
		<g>
			<g>
				<g>
					<path d="M22.8,9.5c-4.5,5.7-6.3,12.7-4.3,18.6c2.5,7.8,11,13.2,20.6,13.2c2.7,0,5.4-0.4,8-1.3V47H3.5L3.4,24.5
						c1.1-2.9,3.8-7.8,9.4-11.4C16.4,10.8,19.9,9.9,22.8,9.5 M25.8,7.3c-3.1,0-8.5,0.5-14,4.1C4.9,15.8,2.2,22.1,1.4,24.1L1.5,49
						h47.7V37.1c-3.4,1.5-6.8,2.2-10,2.2c-8.9,0-16.5-5.1-18.7-11.8c-2.1-6.5,0.8-14.5,7.1-20V7.4C27.1,7.3,26.6,7.3,25.8,7.3
						L25.8,7.3z"/>
				</g>
			</g>
		</g>
	</g>
</g>
</svg>
