<?xml version="1.0" encoding="utf-8"?>
<!-- Generator: Adobe Illustrator 18.0.0, SVG Export Plug-In . SVG Version: 6.00 Build 0)  -->
<!DOCTYPE svg PUBLIC "-//W3C//DTD SVG 1.1//EN" "http://www.w3.org/Graphics/SVG/1.1/DTD/svg11.dtd">
<svg version="1.1" id="Layer_1" xmlns="http://www.w3.org/2000/svg" xmlns:xlink="http://www.w3.org/1999/xlink" x="0px" y="0px"
	 viewBox="0 0 50.5 50.5" enable-background="new 0 0 50.5 50.5" xml:space="preserve">
<g>
	<g>
		<g>
			<rect x="1.5" y="1.5" fill="#FFB836" width="47.5" height="47.5"/>
		</g>
	</g>
	<g>
		<g>
			<path d="M50.5,50.5H0V0h50.5V50.5z M3,47.5h44.5V3H3V47.5z"/>
		</g>
	</g>
	<g>
		<g>
			<path d="M50.5,50.5H0V0h50.5V50.5z M3,47.5h44.5V3H3V47.5z"/>
		</g>
	</g>
	<g>
		<g>
			<rect x="1.5" y="1.5" fill="#FFB836" width="47.5" height="47.5"/>
		</g>
	</g>
	<g>
		<g>
			<path d="M50.5,50.5H0V0h50.5V50.5z M3,47.5h44.5V3H3V47.5z"/>
		</g>
	</g>
	<g>
		<g>
			<path d="M50.5,50.5H0V0h50.5V50.5z M3,47.5h44.5V3H3V47.5z"/>
		</g>
	</g>
	<g>
		<g>
			<g>
				<path d="M20.2,34.3c-1.8-3.7-0.8-5.8,0.5-7.8c1.5-2.2,1.9-4.3,1.9-4.3s1.2,1.5,0.7,3.9c2.1-2.3,2.5-6,2.1-7.4
					c4.7,3.3,6.7,10.3,4,15.6C43.8,26.2,33,14,31.1,12.7c0.6,1.4,0.7,3.7-0.5,4.8c-2.1-8.1-7.4-9.8-7.4-9.8c0.6,4.2-2.3,8.7-5,12.2
					c-0.1-1.7-0.2-2.8-1.1-4.4c-0.2,3-2.5,5.5-3.1,8.5C13.1,28.1,14.6,31.1,20.2,34.3L20.2,34.3z M20.2,34.3"/>
			</g>
		</g>
		<g>
			<g>
				<path fill="#FFFFFF" d="M34.6,35.4l-5.7-5.7h3.8c0.3,0,0.5-0.2,0.6-0.4c0.1-0.2,0-0.5-0.1-0.7L27.5,23h2.7c0,0,0,0,0,0
					c0.3,0,0.6-0.3,0.6-0.6c0-0.2-0.1-0.4-0.2-0.5L25.7,17c-0.2-0.2-0.6-0.2-0.9,0l-5,5c-0.2,0.2-0.2,0.5-0.1,0.7
					c0.1,0.2,0.3,0.4,0.6,0.4h2.7l-5.6,5.6c-0.2,0.2-0.2,0.5-0.1,0.7c0.1,0.2,0.3,0.4,0.6,0.4h3.8l-5.7,5.7
					c-0.2,0.2-0.2,0.5-0.1,0.7c0.1,0.2,0.3,0.4,0.6,0.4h7.4L23,40.8c0,0.2,0.1,0.3,0.2,0.5c0.1,0.1,0.3,0.2,0.5,0.2h3.2
					c0.3,0,0.6-0.3,0.6-0.6c0,0,0-0.1,0-0.1l-0.7-4.2h7.4c0,0,0,0,0,0c0.3,0,0.6-0.3,0.6-0.6C34.8,35.7,34.7,35.5,34.6,35.4
					L34.6,35.4z M34.6,35.4"/>
			</g>
			<g>
				<path d="M26.8,42.5h-3.2c-0.4,0-0.9-0.2-1.2-0.5c-0.3-0.3-0.5-0.8-0.4-1.2l0.5-3.3h-6.2c-0.7,0-1.3-0.4-1.5-1
					c-0.3-0.6-0.1-1.3,0.4-1.8l4-4h-1.4c-0.7,0-1.3-0.4-1.5-1c-0.3-0.6-0.1-1.3,0.4-1.8l3.9-3.9h-0.2c-0.7,0-1.2-0.4-1.5-1
					c-0.3-0.6-0.1-1.3,0.3-1.8l5-5c0.6-0.6,1.7-0.6,2.3,0l4.9,4.9c0.4,0.3,0.6,0.8,0.6,1.2c0,0.9-0.7,1.6-1.6,1.6h-0.2l3.9,3.9
					c0.5,0.5,0.6,1.2,0.4,1.8c-0.3,0.6-0.8,1-1.5,1h-1.4l3.9,3.9c0.4,0.3,0.6,0.8,0.6,1.2c0,0.9-0.7,1.6-1.6,1.6H28l0.5,3.1
					c0,0.1,0,0.2,0,0.3C28.5,41.8,27.7,42.5,26.8,42.5z M24.1,40.5h2.4l-0.6-3.8c0-0.3,0-0.6,0.2-0.8s0.5-0.4,0.8-0.4h6.5l-5.1-5.1
					c-0.3-0.3-0.4-0.7-0.2-1.1s0.5-0.6,0.9-0.6h2.9l-5-5c-0.3-0.3-0.4-0.7-0.2-1.1c0.2-0.4,0.5-0.6,0.9-0.6h1.8L25.2,18L21.2,22h1.8
					c0.4,0,0.8,0.2,0.9,0.6c0.2,0.4,0.1,0.8-0.2,1.1l-5,5h2.9c0.4,0,0.8,0.2,0.9,0.6s0.1,0.8-0.2,1.1l-5.1,5.1h6.5
					c0.3,0,0.6,0.1,0.8,0.3c0.2,0.2,0.3,0.5,0.2,0.8L24.1,40.5z"/>
			</g>
		</g>
	</g>
</g>
</svg>
