<?xml version="1.0" encoding="utf-8"?>
<!-- Generator: Adobe Illustrator 17.0.1, SVG Export Plug-In . SVG Version: 6.00 Build 0)  -->
<!DOCTYPE svg PUBLIC "-//W3C//DTD SVG 1.1//EN" "http://www.w3.org/Graphics/SVG/1.1/DTD/svg11.dtd">
<svg version="1.1" id="Livello_1" xmlns="http://www.w3.org/2000/svg" xmlns:xlink="http://www.w3.org/1999/xlink" x="0px" y="0px"
	 width="512px" height="512px" viewBox="0 0 512 512" enable-background="new 0 0 512 512" xml:space="preserve">
<g>
	<g>
		<circle fill="#FCB635" cx="256" cy="256" r="256"/>
	</g>
	<g>
		<g>
			<circle fill="#D3942F" cx="255.231" cy="259.906" r="55.944"/>
			<path fill="#D3942F" d="M154.706,412.93c0,0-4.525-62.937,46.483-109.421c0,0,50.597,55.533,106.541,0
				c0,0,44.426,26.738,48.129,109.421C355.859,412.93,267.418,446.25,154.706,412.93z"/>
		</g>
		<g>
			<g>
				<path fill="#D3942F" d="M185.919,259.747c0-2.147,0.112-4.267,0.305-6.364c-54.106,6.538-69.414-23.253-69.414-23.253
					C68.681,263.86,68.681,338.316,68.681,338.316c25.093,11.518,83.505,14.397,83.505,14.397
					c6.69-27.815,33.868-54.12,41.562-61.123C188.757,282.069,185.919,271.242,185.919,259.747z"/>
				<path fill="#D3942F" d="M224.9,197.82c0.862-3.903,1.331-7.955,1.331-12.117c0-30.897-25.047-55.944-55.944-55.944
					s-55.944,25.047-55.944,55.944s25.047,55.944,55.944,55.944c6.503,0,12.741-1.121,18.546-3.161
					C194.771,220.49,207.935,205.789,224.9,197.82z"/>
			</g>
			<g>
				<path fill="#D3942F" d="M324.544,259.747c0-2.147-0.112-4.267-0.305-6.364c54.106,6.538,69.414-23.253,69.414-23.253
					c48.129,33.731,48.129,108.186,48.129,108.186c-25.093,11.518-83.505,14.397-83.505,14.397
					c-6.69-27.815-33.868-54.12-41.562-61.123C321.706,282.069,324.544,271.242,324.544,259.747z"/>
				<path fill="#D3942F" d="M285.562,197.82c-0.862-3.903-1.331-7.955-1.331-12.117c0-30.897,25.047-55.944,55.944-55.944
					s55.944,25.047,55.944,55.944s-25.047,55.944-55.944,55.944c-6.503,0-12.741-1.121-18.546-3.161
					C315.691,220.49,302.528,205.789,285.562,197.82z"/>
			</g>
		</g>
	</g>
	<circle fill="#FCB635" stroke="#D3942F" stroke-width="10" stroke-miterlimit="10" cx="396.182" cy="131.398" r="47.137"/>
	<g>
		
			<line fill="none" stroke="#D3942F" stroke-width="10" stroke-miterlimit="10" x1="377.431" y1="150.434" x2="414.933" y2="112.362"/>
		
			<line fill="none" stroke="#D3942F" stroke-width="10" stroke-miterlimit="10" x1="377.147" y1="112.647" x2="415.218" y2="150.149"/>
	</g>
</g>
</svg>
