<?xml version="1.0" encoding="utf-8"?>
<!-- Generator: Adobe Illustrator 17.0.1, SVG Export Plug-In . SVG Version: 6.00 Build 0)  -->
<!DOCTYPE svg PUBLIC "-//W3C//DTD SVG 1.1//EN" "http://www.w3.org/Graphics/SVG/1.1/DTD/svg11.dtd">
<svg version="1.1" id="Livello_1" xmlns="http://www.w3.org/2000/svg" xmlns:xlink="http://www.w3.org/1999/xlink" x="0px" y="0px"
	 width="512px" height="512px" viewBox="0 0 512 512" enable-background="new 0 0 512 512" xml:space="preserve">
<g>
	<g>
		<g>
			<circle fill="#0BA750" cx="256" cy="256" r="256"/>
		</g>
	</g>
	<g>
		<g>
			<g>
				<circle fill="#0D8944" cx="255.127" cy="259.77" r="55.454"/>
				<path fill="#0D8944" d="M155.484,411.451c0,0-4.485-62.385,46.075-108.461c0,0,50.153,55.046,105.606,0
					c0,0,44.037,26.504,47.706,108.461C354.872,411.451,267.206,444.479,155.484,411.451z"/>
			</g>
			<g>
				<g>
					<path fill="#0D8944" d="M186.422,259.612c0-2.128,0.111-4.23,0.302-6.308c-53.632,6.48-68.805-23.049-68.805-23.049
						c-47.706,33.435-47.706,107.237-47.706,107.237c24.873,11.417,82.773,14.271,82.773,14.271
						c6.631-27.571,33.571-53.645,41.198-60.587C189.236,281.738,186.422,271.006,186.422,259.612z"/>
					<path fill="#0D8944" d="M225.062,198.229c0.855-3.869,1.319-7.885,1.319-12.011c0-30.626-24.827-55.454-55.454-55.454
						s-55.453,24.827-55.453,55.454s24.827,55.454,55.453,55.454c6.446,0,12.629-1.112,18.383-3.134
						C195.197,220.7,208.245,206.128,225.062,198.229z"/>
				</g>
				<g>
					<path fill="#0D8944" d="M323.831,259.612c0-2.128-0.111-4.23-0.302-6.308c53.632,6.48,68.805-23.049,68.805-23.049
						c47.706,33.435,47.706,107.237,47.706,107.237c-24.873,11.417-82.773,14.271-82.773,14.271
						c-6.631-27.571-33.571-53.645-41.198-60.587C321.018,281.738,323.831,271.006,323.831,259.612z"/>
					<path fill="#0D8944" d="M285.192,198.229c-0.855-3.869-1.319-7.885-1.319-12.011c0-30.626,24.827-55.454,55.453-55.454
						s55.453,24.827,55.453,55.454s-24.827,55.454-55.453,55.454c-6.446,0-12.629-1.112-18.383-3.134
						C315.057,220.7,302.008,206.128,285.192,198.229z"/>
				</g>
			</g>
		</g>
		<circle fill="#0BA750" stroke="#0D8944" stroke-width="10" stroke-miterlimit="10" cx="395.064" cy="132.593" r="46.723"/>
		<polyline fill="none" stroke="#0D8944" stroke-width="10" stroke-miterlimit="10" points="368.89,131.637 384.189,151.51 
			421.362,113.773 		"/>
	</g>
</g>
</svg>
