<?xml version="1.0" encoding="UTF-8" standalone="no"?>
<svg
   xmlns:dc="http://purl.org/dc/elements/1.1/"
   xmlns:cc="http://creativecommons.org/ns#"
   xmlns:rdf="http://www.w3.org/1999/02/22-rdf-syntax-ns#"
   xmlns:svg="http://www.w3.org/2000/svg"
   xmlns="http://www.w3.org/2000/svg"
   xmlns:sodipodi="http://sodipodi.sourceforge.net/DTD/sodipodi-0.dtd"
   xmlns:inkscape="http://www.inkscape.org/namespaces/inkscape"
   id="svg2"
   version="1.1"
   inkscape:version="0.91 r13725"
   sodipodi:docname="ARG.svg"
   width="28.141634"
   height="47.527382">
  <metadata
     id="metadata10">
    <rdf:RDF>
      <cc:Work
         rdf:about="">
        <dc:format>image/svg+xml</dc:format>
        <dc:type
           rdf:resource="http://purl.org/dc/dcmitype/StillImage" />
      </cc:Work>
    </rdf:RDF>
  </metadata>
  <defs
     id="defs8" />
  <sodipodi:namedview
     pagecolor="#ffffff"
     bordercolor="#666666"
     borderopacity="1"
     objecttolerance="10"
     gridtolerance="10"
     guidetolerance="10"
     inkscape:pageopacity="0"
     inkscape:pageshadow="2"
     inkscape:window-width="480"
     inkscape:window-height="419"
     id="namedview6"
     showgrid="false"
     inkscape:zoom="2.36"
     inkscape:cx="26.413064"
     inkscape:cy="156.57778"
     inkscape:window-x="0"
     inkscape:window-y="0"
     inkscape:window-maximized="0"
     inkscape:current-layer="svg2" />
  <path
     d="m 11.257508,47.456273 -1.3511108,0.0711 -0.725219,-0.50232 -0.856918,-0.0381 -1.523072,-7.3e-4 -9.39e-4,-3.176 0.546148,0.65938 0.711111,1.06667 1.848889,0.85333 1.9911108,0.35556 -0.64,0.71111 m 0.761043,-47.10989013 0.836083,1.02717003 0.554927,-1.14410003 1.621859,0.0588 0.229563,0.30441 2.614745,2.32062003 1.162807,0.2163 1.737724,1.05054 1.464763,0.55592 0.20417,0.62765 -1.400197,2.16187 1.434189,0.3871 1.597238,0.21703 1.124773,-0.2285 1.290027,-1.08949 0.23254,-1.25516 0.704343,-0.27252 0.713529,0.82094 -0.02899,1.1358 -1.197496,0.78405 -0.955109,0.57907 -1.605139,1.38076 -1.897577,1.9392501 -0.355277,1.13815 -0.380449,1.46197 0.01393,1.41662 -0.308571,0.31662 -0.110169,0.91913 -0.09723,0.74245 1.805671,1.21819 -0.194174,0.98042 0.888706,0.61972 -0.07225,0.69468 -1.366573,1.82371 -2.108729,0.76281 -2.852392,0.29611 -1.562328,-0.14324 0.298942,0.84821 -0.291225,1.06451 0.262452,0.71724 -0.853061,0.50043 -1.45734,0.1963 -1.367602,-0.51785 -0.5489,0.37211 0.198364,1.41324 0.960217,0.42811 0.77861,-0.44846 0.423664,0.73877 -1.309504,0.44149 -1.142044,0.88437 -0.209094,1.43073 -0.336278,0.76149 -1.3435688,0.004 -1.114778,0.72856 -0.407826,1.06649 1.398727,1.04128 1.3597008,0.28759 -0.489332,1.27595 -1.6797728,0.80221 -0.924315,1.66731 -1.298002,0.56114 -0.582818,0.66601 0.459346,1.47711 0.946584,0.8233 -0.599539,-0.0719 -1.318139,-0.22284 -3.436717,-0.1902 -0.589653,-0.82925 0.02763,-1.06517 -0.94687801,0.0916 -0.501055,-0.51579 L 3.1879041e-6,39.091273 1.0911152,38.465753 l 0.450968,-0.90223 -0.165255,-0.71923 0.753916,-1.21414 0.519465,-1.88317 -0.152613,-0.83491 0.620852,-0.26943 -0.152209,-0.53579 -0.659657,-0.28494 0.468716,-0.59671 -0.641945,-0.53908 -0.332052,-1.64079 0.571867,-0.28942 -0.240256,-1.73376 0.334183,-1.4566 0.380082,-1.26883 0.851701,-0.5163 -0.4323,-1.38833 -0.0046,-1.3066 1.076781,-0.92876 -0.03311,-1.18813 0.811719,-1.38825 0.0036,-1.308 -0.369241,-0.25981 -0.655174,-2.45504 0.876175,-1.46299 -0.13446,-1.37731 0.508331,-1.2924901 0.931406,-1.33394 1.003653,-0.88444 -0.425612,-0.55813 0.296958,-0.4578 -0.04501,-2.37008 1.549098,-0.70151 0.48812,-1.47762 -0.172714,-0.35616 L 10.157684,-1.0712629e-4 12.018587,0.34627287 Z"
     style="fill:#ffcc00"
     id="path4"
     inkscape:connector-curvature="0" />
</svg>
