<?xml version="1.0" encoding="UTF-8" standalone="no"?>
<svg
   xmlns:dc="http://purl.org/dc/elements/1.1/"
   xmlns:cc="http://creativecommons.org/ns#"
   xmlns:rdf="http://www.w3.org/1999/02/22-rdf-syntax-ns#"
   xmlns:svg="http://www.w3.org/2000/svg"
   xmlns="http://www.w3.org/2000/svg"
   xmlns:sodipodi="http://sodipodi.sourceforge.net/DTD/sodipodi-0.dtd"
   xmlns:inkscape="http://www.inkscape.org/namespaces/inkscape"
   id="svg2"
   version="1.1"
   inkscape:version="0.91 r13725"
   sodipodi:docname="AUT.svg"
   width="10.666236"
   height="3.7080986">
  <metadata
     id="metadata10">
    <rdf:RDF>
      <cc:Work
         rdf:about="">
        <dc:format>image/svg+xml</dc:format>
        <dc:type
           rdf:resource="http://purl.org/dc/dcmitype/StillImage" />
      </cc:Work>
    </rdf:RDF>
  </metadata>
  <defs
     id="defs8" />
  <sodipodi:namedview
     pagecolor="#ffffff"
     bordercolor="#666666"
     borderopacity="1"
     objecttolerance="10"
     gridtolerance="10"
     guidetolerance="10"
     inkscape:pageopacity="0"
     inkscape:pageshadow="2"
     inkscape:window-width="480"
     inkscape:window-height="419"
     id="namedview6"
     showgrid="false"
     inkscape:zoom="2.36"
     inkscape:cx="-91.482623"
     inkscape:cy="11.963638"
     inkscape:window-x="0"
     inkscape:window-y="0"
     inkscape:window-maximized="0"
     inkscape:current-layer="svg2" />
  <path
     d="m 10.666237,1.3021541 -0.10797,0.581165 -0.8009503,0.0028 0.2754603,0.308239 -0.4721303,0.915606 -0.27113,0.240035 -1.24383,0.03543 -0.71768,0.322682 -1.17475,-0.110207 -2.03377,-0.367293 -0.31772,-0.494697 -1.40552,0.247201 -0.16537,0.270537 -0.86166,-0.202223 L 0.64352669,3.0127691 -3.3125674e-6,2.7538081 0.21754669,2.4056601 l -0.0551,-0.252383 0.42929,-0.07842 0.71966001,0.394964 0.20256,-0.375341 1.25427,0.06063 1.01681,-0.255029 0.68181,0.04366 0.44355,0.291189 0.13259,-0.24169 -0.2016,-0.926666 0.51094,-0.18057801 0.50146,-0.655726 1.05664,0.457766 0.80007,-0.581826 L 8.2110767,9.0917086e-6 9.3150467,0.43403609 l 0.66793,-0.07383 0.6556503,0.268552 -0.11421,0.180578 0.14177,0.49282301 z"
     style="fill:#ffcc00"
     id="path4"
     inkscape:connector-curvature="0" />
</svg>
