<?xml version="1.0" encoding="UTF-8" standalone="no"?>
<svg
   xmlns:dc="http://purl.org/dc/elements/1.1/"
   xmlns:cc="http://creativecommons.org/ns#"
   xmlns:rdf="http://www.w3.org/1999/02/22-rdf-syntax-ns#"
   xmlns:svg="http://www.w3.org/2000/svg"
   xmlns="http://www.w3.org/2000/svg"
   xmlns:sodipodi="http://sodipodi.sourceforge.net/DTD/sodipodi-0.dtd"
   xmlns:inkscape="http://www.inkscape.org/namespaces/inkscape"
   id="svg2"
   version="1.1"
   inkscape:version="0.91 r13725"
   sodipodi:docname="CAF.svg"
   width="18.367743"
   height="12.621875">
  <metadata
     id="metadata10">
    <rdf:RDF>
      <cc:Work
         rdf:about="">
        <dc:format>image/svg+xml</dc:format>
        <dc:type
           rdf:resource="http://purl.org/dc/dcmitype/StillImage" />
      </cc:Work>
    </rdf:RDF>
  </metadata>
  <defs
     id="defs8" />
  <sodipodi:namedview
     pagecolor="#ffffff"
     bordercolor="#666666"
     borderopacity="1"
     objecttolerance="10"
     gridtolerance="10"
     guidetolerance="10"
     inkscape:pageopacity="0"
     inkscape:pageshadow="2"
     inkscape:window-width="480"
     inkscape:window-height="419"
     id="namedview6"
     showgrid="false"
     inkscape:zoom="2.36"
     inkscape:cx="-98.56449"
     inkscape:cy="74.774912"
     inkscape:window-x="0"
     inkscape:window-y="0"
     inkscape:window-maximized="0"
     inkscape:current-layer="svg2" />
  <path
     d="m 1.1662998,5.291332 1.17585,-0.1069 0.26216,-0.36582 0.23555,0.0278 0.35528,0.32206 1.79049,-0.54412 0.60391,-0.55522 0.74165,-0.4972 -0.14082,-0.50065 0.40106,-0.13075 1.37341,0.0884 1.33857,-0.65889 1.0282002,-1.55174004 0.72151,-0.57576 L 11.95343,4.1959548e-5 12.11468,0.60865196 12.93496,1.497842 l 0.004,0.58032 -0.23107,0.59185 0.0914,0.44201 0.49323,0.40955 1.0831,0.6217 0.77876,0.57469 0.0131,0.46225 0.95647,0.74065 0.59274,0.61542 0.35909,0.85317 1.06312,0.56286 0.22871,0.45086 -0.46956,0.15088 -0.91208,-0.0327 -1.06994,-0.14963 -0.52858,0.12185 -0.21328,0.34583 -0.46053,0.0427 -0.56106,-0.30086 -1.58338,0.70982 -0.64816,-0.14284 -0.19535,0.10962 -0.42525,0.85887 -1.06097,-0.27759 -1.0404002,-0.14001 -0.90584,-0.52465 -1.17034,-0.48334 -0.76155,0.45799 -0.55372,0.72209 -0.12788,0.99185 -0.91472,-0.0794 -0.96265,-0.23893 -0.84762,0.75369 -0.74554,1.32354 -0.15,-0.41209 -0.0635,-0.64874 -0.65043,-0.45762 -0.52505001,-0.73396 -0.12127,-0.51061 -0.67212,-0.74271 0.11458,-0.42381 -0.14155000074,-0.59899 0.10973000074,-1.1025 0.34131,-0.25819 0.71526001,-1.44132 z"
     style="fill:#ffcc00"
     id="path4"
     inkscape:connector-curvature="0" />
</svg>
