<?xml version="1.0" encoding="UTF-8" standalone="no"?>
<svg
   xmlns:dc="http://purl.org/dc/elements/1.1/"
   xmlns:cc="http://creativecommons.org/ns#"
   xmlns:rdf="http://www.w3.org/1999/02/22-rdf-syntax-ns#"
   xmlns:svg="http://www.w3.org/2000/svg"
   xmlns="http://www.w3.org/2000/svg"
   xmlns:sodipodi="http://sodipodi.sourceforge.net/DTD/sodipodi-0.dtd"
   xmlns:inkscape="http://www.inkscape.org/namespaces/inkscape"
   id="svg2"
   version="1.1"
   inkscape:version="0.91 r13725"
   sodipodi:docname="CAN.svg"
   width="125.65288"
   height="59.104904">
  <metadata
     id="metadata10">
    <rdf:RDF>
      <cc:Work
         rdf:about="">
        <dc:format>image/svg+xml</dc:format>
        <dc:type
           rdf:resource="http://purl.org/dc/dcmitype/StillImage" />
      </cc:Work>
    </rdf:RDF>
  </metadata>
  <defs
     id="defs8" />
  <sodipodi:namedview
     pagecolor="#ffffff"
     bordercolor="#666666"
     borderopacity="1"
     objecttolerance="10"
     gridtolerance="10"
     guidetolerance="10"
     inkscape:pageopacity="0"
     inkscape:pageshadow="2"
     inkscape:window-width="480"
     inkscape:window-height="419"
     id="namedview6"
     showgrid="false"
     inkscape:zoom="2.36"
     inkscape:cx="122.53018"
     inkscape:cy="17.881282"
     inkscape:window-x="0"
     inkscape:window-y="0"
     inkscape:window-maximized="0"
     inkscape:current-layer="svg2" />
  <path
     d="m 109.98511,52.171705 1.0314,0.190777 1.31871,-0.03878 -0.69949,0.582756 -0.52682,0.09274 -1.80405,-0.603691 -0.35528,-0.476188 0.53724,-0.438813 0.49829,0.6912 m 2.64277,-3.633849 -0.69245,0.02544 -1.84331,-0.445895 -1.32247,-0.671787 0.49195,-0.119666 1.87012,0.356651 1.45451,0.59429 0.0416,0.260963 m -87.756366,0.846293 -0.71522,0.197923 -2.335463,-0.645915 -0.42664,-0.504876 -1.272903,-0.497784 -0.255985,-0.405327 -1.463954,-0.255948 -0.547908,-0.773943 0.122554,-0.329259 1.493095,0.310151 0.872647,0.215708 1.336881,0.150592 0.483563,0.490692 0.702909,0.675165 1.419747,0.587082 0.586677,0.785739 m 95.823596,-3.096177 -0.94129,1.24402 0.92839,-0.48044 0.95518,0.304786 -0.49907,0.49591 1.26188,0.389856 0.65617,-0.346567 1.41828,0.437407 -0.44013,1.041577 0.99538,-0.243233 0.18132,0.754687 0.44167,0.884076 -0.59884,1.251626 -0.64327,0.05292 -0.93508,-0.268479 0.30871,-1.163579 -0.39625,-0.180725 -1.65019,1.233473 -0.84865,-0.04939 1.00446,-0.66822 -1.36473,-0.345575 -1.52808,0.08496 -2.76023,-0.04344 -0.21828,-0.421129 0.88591,-0.500724 -0.61872,-0.386365 1.19441,-0.856735 1.46932,-2.265164 0.88183,-0.809478 1.23403,-0.490178 0.65991,0.06232 -0.27483,0.385704 -0.75921,0.896092 m -109.576488,-4.953551 0.668439,0.184841 1.365359,-0.113771 -0.425942,1.614767 1.237956,1.143735 -0.567164,-0.0028 -0.85703,-0.650434 -0.525602,-0.65466 -0.71768,-0.442957 -0.263187,-0.625225 0.08485,-0.45354 m 76.67795,-11.361706 -0.557084,0.747513 -0.628679,-0.120917 -0.373462,-0.424377 0.0665,-0.09824 0.548985,-0.426717 0.582215,0.03113 0.361529,0.291605 m -3.7439,-0.785244 -1.664455,0.784469 -1.00416,-0.03284 -0.311538,-0.384697 1.056981,-0.656057 1.953408,0.01353 -0.03024,0.275599 m -4.640794,-4.190556 0.263885,0.625445 0.727825,-0.219383 0.82686,0.372842 1.557403,0.487715 1.629246,0.443104 0.125971,0.676304 1.046868,-0.110758 1.015338,0.471473 -1.262319,0.447624 -2.213203,-0.342011 -0.798748,-0.640218 -1.410302,0.756855 -2.023806,0.735762 -0.48834,-0.83182 -1.927416,0.136554 1.236229,-0.703424 0.181864,-1.119408 0.485033,-1.302558 1.027612,0.115902 m 13.220165,-2.121352 -1.594297,0.0713 -0.354887,-0.695979 0.604074,-0.797112 1.303396,-0.197192 1.110343,0.393743 0.01589,0.609194 -0.160199,0.19594 -0.924316,0.42011 m -28.134118,-2.785892 -0.884394,0.498702 -1.916985,-0.430919 -1.158258,0.155492 -1.942187,-0.639047 1.251556,-0.440889 0.994332,-0.616548 1.508779,0.403214 0.853333,0.256 0.426667,0.270223 0.867157,0.543772 m 7.25416,-0.554623 -0.0063,1.454464 1.900601,-1.114653 1.700253,0.915413 -0.423581,1.054863 1.375744,0.959516 1.484942,-1.027897 1.037412,-1.22752 0.07775,-1.56096 2.021205,0.109113 2.102372,0.209252 1.908835,0.705763 0.08566,0.70592 -1.058361,0.758244 1.00278,0.761415 -0.180978,0.69174 -2.784753,0.994475 -1.978112,0.219364 -1.470592,-0.428132 -0.424064,0.714069 -1.370781,1.199332 -0.415018,0.621995 -1.64938,0.96236 -2.035883,0.09421 -1.122901,0.600975 -0.09395,0.924387 -1.654585,0.177963 -1.740174,1.152555 -1.542471,1.601479 -0.55151,1.121337 -0.07864,1.651754 2.09007,0.237085 0.640569,1.331783 0.665017,1.078926 1.990172,-0.281017 2.642716,0.615765 1.421867,0.540587 1.0177,0.671972 1.782044,0.391552 1.506702,0.599082 2.348459,0.08208 1.546951,0.137344 -0.23232,1.231715 0.442568,1.429675 1.030072,1.59168 2.116068,1.350343 1.09494,-0.462947 0.769565,-1.462258 -0.742827,-2.246215 -1.003193,-0.748473 2.276751,-0.666638 1.611576,-0.996921 0.788239,-0.991033 -0.116367,-0.950614 -0.965788,-1.20812 -1.72746,-1.070208 1.678393,-1.490532 -0.620032,-1.287495 -0.475235,-2.22117 0.990151,-0.328377 2.438343,0.38703 1.462059,0.138368 1.178055,-0.373604 1.324586,0.481749 1.751396,0.824491 0.431488,0.552078 2.536203,0.107748 -0.0425,1.194894 0.47279,1.797532 1.29899,0.222294 1.03081,0.837689 2.05935,-0.789689 1.36051,-1.56928 0.94102,-0.661149 1.10758,1.270016 1.85229,1.814073 1.5727,1.706141 -0.57188,0.893155 1.89174,0.802091 1.27845,0.812672 2.26779,0.367758 0.91289,0.453675 0.56364,1.203456 1.1076,0.188914 0.57144,0.536362 0.10373,1.59818 -1.03222,0.53467 -1.0208,0.499172 -2.34369,0.505486 -1.78954,1.168398 -2.40437,0.230841 -3.04192,-0.299421 -2.13447,-0.01025 -1.47305,0.09846 -1.19077,1.020316 -1.81309,0.630329 -2.05153,1.882283 -1.636921,1.312953 1.207981,-0.233743 2.28298,-1.868714 2.98321,-1.184854 2.12788,-0.141767 1.25905,0.697316 -1.34323,0.955207 0.45072,1.532985 0.46414,1.073038 1.84733,0.710357 2.35032,-0.205866 1.42587,-1.598806 0.0989,1.031524 0.91838,0.515186 -1.75931,0.931769 -3.14998,0.846378 -1.41063,0.575446 -1.58933,1.024426 -1.07995,-0.104448 -0.0545,-1.20384 2.46932,-1.176064 -2.27636,0.04655 -1.5806,0.173198 -0.93003,-0.803954 0.001,-1.939271 -0.63144,-0.410311 -0.95368,0.241578 -0.47249,-0.373733 -1.0848,1.073367 -0.43382,1.106589 -0.50489,0.647111 -0.604191,0.220103 -0.455367,0.07145 -0.142307,0.351005 -2.620829,0.0012 -2.160597,0.0098 -0.641721,0.261732 -1.50299,1.024199 -0.177832,0.110744 -0.45516,0.554203 -1.305388,-3.85e-4 -1.397183,0.0056 -0.641982,0.225778 0.229935,0.279238 0.128,0.433778 -0.02754,0.144197 -1.860388,0.70743 -1.465314,0.223536 -1.651956,0.759354 -0.35671,0 -0.483158,-0.224271 -0.159558,-0.203214 0.03129,-0.148365 0.312889,-0.497778 0.668444,-0.782222 0.415798,-0.840658 -0.284616,-1.235787 -0.303164,-1.29069 -1.48185,-0.667558 0.17536,-0.252861 -0.20847,-0.173853 -0.390591,0 -0.285989,-0.225411 -0.07149,-0.336792 -0.276737,0.147137 -0.38144,-0.04385 0.08697,-0.14092 -0.334915,-0.139929 -0.13773,-0.374018 -1.104047,-0.455304 -1.151471,-0.473769 -1.390651,-0.549919 -1.334502,-0.51615 -1.272609,0.402645 -0.465184,0.01395 -1.749333,-0.369778 -1.152,0.184889 -1.379556,-0.44089 -1.451904,-0.226503 -0.993095,-0.08744 -0.442112,-0.240725 -0.252558,-0.780871 -0.481437,0.0068 -0.0042,0.546489 -2.943502,-9.95e-4 -4.865822,9.95e-4 -4.833081,1.99e-4 -4.269141,-1.99e-4 -4.266667,0 -4.195555,0 -4.335189,0 -1.398088,0 -4.222279,0 -4.039111,0 -0.190876,-0.0036 -2.753465,-1.396654 -1.015993,-0.6144 -2.575644,-0.588871 -0.792392,-1.25898 0.202582,-0.872931 -1.819691,-0.60554 -0.249515,-1.14661 -1.720519,-1.032504 -0.03007,-0.732744 0.790912,-0.685824 -0.03951,-0.89718 -2.41782,-0.904946 L 11.758015,36.324035 10.868927,35.303747 9.566812,34.662566 8.60839,34.080237 7.853432,33.344636 6.425677,33.805279 5.042168,34.600145 3.77868,33.665589 2.785812,33.042812 1.400568,32.649112 -8e-6,32.607052 l 0.0075,-8.097621 0.0092,-5.279247 2.653127,0.342728 2.238805,0.684088 1.483065,0.130816 1.248455,-0.59318 1.722482,-0.444174 2.112555,0.173639 2.130332,-0.624597 2.32768,-0.35439 0.977038,0.589398 1.06122,-0.332217 0.31771,-0.669839 0.982827,0.151652 2.404693,1.275207 1.893675,-0.964011 0.192213,1.079055 1.747342,-0.233287 0.537003,-0.415019 1.722652,0.08213 2.175119,0.59722 3.328284,0.521358 1.957333,0.241451 1.39311,-0.09159 1.918521,0.72108 -2.000996,0.705835 2.570837,0.30501 3.838962,-0.16778 1.211463,-0.248775 1.516075,0.852765 1.547108,-0.719531 -1.45152,-0.60342 0.918442,-0.486799 1.731143,-0.06554 1.137778,-0.142222 1.147989,0.339598 1.429206,0.77258 1.588281,-0.113422 2.51281,0.641223 2.20783,-0.225806 2.074666,0.03415 -0.164124,-0.885035 1.264526,-0.248462 2.203833,0.482489 -0.0085,1.345437 0.905174,-1.133967 1.144078,0.03822 0.6431,-1.429617 -1.523569,-0.877056 -1.660061,-0.574649 0.114006,-1.571641 1.681564,-1.032121 1.875669,0.228096 1.438991,0.627854 1.932145,1.603414 -1.261909,0.698766 2.645077,0.28773 m -33.592988,-5.153835 -0.709931,0.666567 3.1649,-0.430407 1.977785,0.718222 1.607168,-0.726371 1.29964,0.466176 1.163648,1.397276 0.714468,-0.589639 -1.010347,-1.456427 1.251471,-0.208284 1.413489,0.227513 1.593074,0.573753 0.892615,1.385514 0.441003,1.003278 2.388466,0.704299 2.566528,0.673337 -0.154326,0.625564 -2.335104,0.114418 0.907193,0.546702 -0.479218,0.521672 -2.57388,-0.223545 -2.446223,-0.384 -1.65339,0.08644 -2.670165,0.482447 -3.604123,0.213249 -2.530206,0.134427 -0.770503,-0.671147 -1.94139,-0.387641 -1.262848,0.158991 -1.752264,-1.126102 0.946162,-0.151537 2.195357,-0.242845 2.004921,0.0639 1.85644,-0.247481 -2.750435,-0.33226 -3.039061,0.113138 -2.016655,-0.0286 -0.750336,-0.524288 3.298518,-0.56886 -2.193878,0.01988 -2.483641,-0.374599 1.1937,-1.065614 0.990222,-0.566173 3.807758,-0.865635 1.453398,0.274688 m 13.748864,-0.424605 -1.251556,0.938667 -2.218666,-0.995555 0.483555,-0.199112 1.905778,-0.05689 1.080889,0.312888 m 40.049778,0.451293 0.126003,0.392959 -1.511871,-0.04147 -1.532063,-0.03002 -1.556739,0.191222 -0.411849,-0.08633 -1.564822,-0.754178 0.06004,-0.512001 0.683843,-0.09463 3.254927,0.153299 2.452534,0.781151 m -14.53821,-0.07788 1.120437,0.886501 1.314502,-1.146527 3.604653,-0.584068 2.439826,1.471157 -0.211703,0.931039 2.813586,-0.412823 1.345443,-0.565253 3.155598,0.719556 1.958725,0.677738 0.184142,0.620521 2.640946,-0.321542 1.482255,0.90583 3.433186,0.561762 1.23888,0.573264 1.34533,1.331001 -2.61133,0.662598 3.3497,0.928761 2.25785,0.312355 2.04428,1.307115 2.23709,0.09437 -0.44259,0.998214 -2.49638,1.652029 -1.74993,-0.607807 -2.23624,-1.368189 -1.84007,0.178226 -0.17958,0.814843 1.49566,0.826786 1.93076,0.654293 0.58583,0.37784 0.92553,1.40773 -0.48981,1.02221 -1.79376,-0.385299 -3.56714,-1.138591 2.01032,1.225536 1.48108,0.858867 0.23144,0.496608 -3.85678,-0.567825 -3.052192,-0.825684 -1.723651,-0.692804 0.496498,-0.401285 -2.121995,-0.730985 -2.070916,-0.689938 0.02264,0.41242 -4.112323,0.226917 -1.203156,-0.48834 0.936772,-1.047162 2.672365,-0.02528 2.927615,-0.181754 -0.475148,-0.507743 0.496314,-0.709414 1.839994,-1.38524 -0.390959,-0.629121 -0.548349,-0.487127 -2.178403,-0.690048 -2.881129,-0.48371 0.910865,-0.35987 -1.505736,-0.884296 -1.253353,-0.08099 -1.121576,-0.484114 -0.761192,0.419658 -2.578512,0.18293 -5.175746,-0.317779 -3.008422,-0.417233 -2.306432,-0.214386 -1.182871,-0.499621 1.487215,-0.648744 -2.020167,-0.0062 -0.450858,-1.440032 1.093097,-1.272021 1.462521,-0.580871 3.672307,-0.378207 -1.046795,0.91928 m -19.618477,-0.976274 1.696071,0.299377 2.53706,-0.180067 0.369778,0.412444 -1.327773,0.681927 2.152662,0.612296 -0.256,1.28 -2.331961,0.550613 -1.369885,-0.118813 -0.984121,-0.543118 -3.534478,-1.097571 0.02845,-0.455111 2.903665,0.176526 -1.566776,-0.930304 1.683313,-0.688199 m 10.183289,1.524476 -1.525691,1.062964 -1.622484,-0.05303 -0.887309,-1.249275 0.02201,-0.707062 0.743075,-0.604426 1.411037,-0.387541 2.963407,0.04961 2.716756,0.346016 -2.125045,1.266472 -1.695758,0.276269 m -38.775047,1.9746 -3.743559,0.685457 -0.750663,-0.623445 -3.283838,-0.751913 0.61006,-0.602414 0.985188,-1.038648 1.233479,-0.935025 -1.390578,-0.871467 4.806926,-0.222123 2.031076,0.295225 3.632554,0.07905 1.381291,0.412018 1.526912,0.598585 -1.787918,0.358784 -3.487374,0.999708 -1.763556,0.995556 0,0.620655 m 38.182748,-5.114873 -0.773907,0.551325 -2.064742,-0.10598 -1.724091,-0.370858 0.757112,-0.640291 2.044825,-0.383132 1.241705,0.498813 0.519098,0.450123 m -6.950748,-2.4746714 1.087168,0.659115 0.04433,0.7297704 -0.647943,1.057337 -2.344875,0.145863 -1.528775,-0.227441 0.0295,-0.829711 -2.331264,0.10944 -0.09021,-1.0990934 1.530013,0.04442 2.142208,-0.484935 2.000355,0.08213 0.109497,-0.186894 m -13.811783,0.7371664 0.557483,0.506539 1.266489,-0.237938 1.490389,0.06175 0.250339,0.696733 -0.865408,0.674474 -4.816398,0.220829 -3.588366,0.615879 -2.16283,0.03227 -0.18139,-0.463673 2.954154,-0.628921 -6.4256,0.169344 -1.988537,-0.25425 1.940452,-1.38927 1.338524,-0.3979944 4.002575,0.4800424 2.52635,0.842169 2.484793,0.108061 -2.034006,-1.3605124 1.302983,-0.518187 1.468459,0.164764 0.479545,0.6778884 m 19.238861,-1.2745934 1.578901,0.457362 2.800211,-0.0032 1.22763,0.467798 -0.324005,0.5341644 1.631891,0.321763 0.903332,0.337931 1.918303,0.06255 2.075141,0.119136 2.260718,-0.308313 2.895901,-0.121047 2.310989,0.100027 1.523228,0.536369 0.317978,0.588404 -0.887237,0.378061 -2.120635,0.305557 -1.820517,-0.172898 -4.079728,0.219016 -2.919677,0.02521 -2.295995,-0.175287 -3.779867,-0.458243 -0.491868,-0.780889 -0.172971,-0.705188 -1.427795,-0.6209254 -2.942056,-0.173707 -1.648244,-0.440457 0.53512,-0.583554 2.931252,0.09033 m -30.598401,-0.778536 -0.195167,1.092729 -1.095448,0.493411 -1.32887,0.06949 -2.643777,0.6086524 -2.276519,0.217877 -1.927011,-0.307946 -10e-7,0 2.414066,-1.0637724 2.92067,-0.921191 2.181416,0.01977 1.950641,-0.209021 m 31.798875,0.178189 -0.647972,0.04075 -2.66531,-0.09069 -0.379236,-0.397536 2.863968,0.0208 0.998287,0.264069 -0.169737,0.162608 m -23.248975,-0.251758 -2.651382,0.409296 -2.10928,-0.459347 1.151562,-0.453466 2.076648,-0.144933 2.005321,0.222765 -0.472869,0.425685 m 0.744949,-1.287051 -1.732506,0.277408 -2.361994,-0.0014 0.02304,-0.202884 1.459031,-0.425869 0.762808,0.06479 1.849621,0.287955 m 19.673388,0.775156 -2.104246,0.293467 -1.158324,-0.330325 -0.609534,-0.533687 -0.112521,-0.588551 1.841426,0.05681 0.828918,0.09411 1.699728,0.494219 -0.385447,0.513954 m -6.015853,-0.38089 0.553604,0.593365 -2.322491,-0.158493 -2.340791,-0.461147 -3.166327,-0.05277 1.373444,-0.422525 -1.719681,-0.342636 -0.103408,-0.545078 2.791832,0.19377 3.845866,0.518951 1.087952,0.676562 m 18.54605,-1.899016 1.714703,0.45952 -1.95301,0.423253 -2.627968,1.069611 -2.515926,0.102258 -2.947313,-0.182045 -1.528135,-0.579783 0.02193,-0.515897 1.124266,-0.378837 -2.600903,0.01084 -1.567488,-0.472946 -0.901091,-0.643911 0.985998,-0.632263 0.985586,-0.433721 1.457806,-0.09953 -0.621497,-0.325959 3.307491,-0.07243 1.816107,0.759382 2.393444,0.304537 2.332444,0.269258 1.123556,0.938667 m 26.339552,-4.90143534 3.8011,0.1113764 3.05401,0.1820589 2.60267,0.385991 -0.0624,0.37966204 -3.47039,0.617102 -3.44095,0.287972 -1.28588,0.318379 3.09652,-0.0073 -3.356,0.862677 -2.3178,0.402731 -2.432425,1.161714 -2.93376,0.235875 -0.90624,0.290116 -4.306105,0.152281 1.960519,0.178389 -0.983068,0.253995 1.176192,0.701525 -1.351239,0.487609 -2.197291,0.40256 -0.674389,0.556544 -1.986589,0.425116 0.198912,0.321878 2.430237,-0.05502 0.03098,0.34715 -3.800388,0.8530934 -3.716466,-0.3924054 -4.177706,0.220472 -2.116495,-0.172074 -2.688967,-0.07451 -0.178375,-0.682297 2.629277,-0.321707 -0.700601,-1.026375 0.867555,-0.099872 3.802539,0.613678 -1.939428,-0.912028 -2.30673,-0.272797 1.151914,-0.550201 2.522027,-0.338816 0.403527,-0.495687 -2.008732,-0.555818 -0.603663,-0.732744 3.887432,0.061284 1.123192,0.154112 2.219328,-0.518286 -3.202517,-0.164381 -4.976284,0.090639 -2.514034,-0.482731 -1.185237,-0.575019 -1.660957,-0.416853 -0.311694,-0.485248 2.114873,-0.271232 1.660771,-0.046237 2.790443,-0.230542 2.091008,-0.53001004 1.763548,0.07434 1.536008,0.39822304 1.080888,-0.76800004 1.877334,-0.2275559 2.550556,-0.1572409 4.347222,-0.05902 0.755512,0.1536267 L 96.947556,-3.5444445e-6 100.02776,0.09024946 l 3.08019,0.090253 z"
     style="fill:#ffcc00"
     id="path4"
     inkscape:connector-curvature="0" />
</svg>
