<?xml version="1.0" encoding="UTF-8" standalone="no"?>
<svg
   xmlns:dc="http://purl.org/dc/elements/1.1/"
   xmlns:cc="http://creativecommons.org/ns#"
   xmlns:rdf="http://www.w3.org/1999/02/22-rdf-syntax-ns#"
   xmlns:svg="http://www.w3.org/2000/svg"
   xmlns="http://www.w3.org/2000/svg"
   xmlns:sodipodi="http://sodipodi.sourceforge.net/DTD/sodipodi-0.dtd"
   xmlns:inkscape="http://www.inkscape.org/namespaces/inkscape"
   id="svg2"
   version="1.1"
   inkscape:version="0.91 r13725"
   sodipodi:docname="CHL.svg"
   width="12.351254"
   height="54.089695">
  <metadata
     id="metadata10">
    <rdf:RDF>
      <cc:Work
         rdf:about="">
        <dc:format>image/svg+xml</dc:format>
        <dc:type
           rdf:resource="http://purl.org/dc/dcmitype/StillImage" />
      </cc:Work>
    </rdf:RDF>
  </metadata>
  <defs
     id="defs8" />
  <sodipodi:namedview
     pagecolor="#ffffff"
     bordercolor="#666666"
     borderopacity="1"
     objecttolerance="10"
     gridtolerance="10"
     guidetolerance="10"
     inkscape:pageopacity="0"
     inkscape:pageshadow="2"
     inkscape:window-width="480"
     inkscape:window-height="419"
     id="namedview6"
     showgrid="false"
     inkscape:zoom="2.36"
     inkscape:cx="29.58314"
     inkscape:cy="157.09238"
     inkscape:window-x="0"
     inkscape:window-y="0"
     inkscape:window-maximized="0"
     inkscape:current-layer="svg2" />
  <path
     d="m 9.970325,49.857936 9.39e-4,3.176 1.523072,7.3e-4 0.856918,0.0381 -0.470912,0.57519 -1.219698,0.44173 -0.698824,-0.0452 -0.842111,-0.11514 -1.032519,-0.42757 -1.489906,-0.20565 -1.789468,-0.79458 -1.452516,-0.76462 -1.958869,-1.59293 1.172522,0.29858 1.996687,0.95001 1.886506,0.51047 0.733796,-0.65209 0.461226,-0.97365 1.311048,-0.58728 1.012109,0.16793 m 0.588939,-44.2908796 0.557131,1.96063 1.026143,-0.19483 0.172714,0.35616 -0.48812,1.47762 -1.549098,0.70151 0.04501,2.3700796 -0.296958,0.4578 0.425612,0.55813 -1.003653,0.88444 -0.931406,1.33394 -0.508331,1.29249 0.13446,1.37731 -0.876175,1.46299 0.655174,2.45504 0.369241,0.25981 -0.0036,1.308 -0.811719,1.38825 0.03311,1.18813 -1.076781,0.92876 0.0046,1.3066 0.4323,1.38833 -0.851701,0.5163 -0.380082,1.26883 -0.334183,1.4566 0.240256,1.73376 -0.571867,0.28942 0.332052,1.64079 0.641945,0.53908 -0.468716,0.59671 0.659657,0.28494 0.152209,0.53579 -0.620852,0.26943 0.152613,0.83491 -0.519465,1.88317 -0.753916,1.21414 0.165255,0.71923 -0.450968,0.90223 -1.091112,0.62552 0.12428,1.50805 0.501055,0.51579 0.946878,-0.0916 -0.02763,1.06517 0.589653,0.82925 3.436717,0.1902 1.318139,0.22284 -1.265406,-0.0107 -0.684793,0.34984 -1.283303,0.51381 -0.229306,1.32843 -0.602257,0.033 -1.604478,-0.46229 -1.628179,-0.99035 0,0 -1.769254,-0.81396 -0.445529,-0.90083 0.403048,-0.83337 -0.715551,-0.94581 -0.182415,-2.42432 0.604793,-1.36797 1.502135,-1.0989 L -2.9001898e-5,41.340666 1.35427,40.083896 l 0.484188,-2.36221 1.580591,0.5005 0.743185,-2.94628 -0.954447,-0.37806 -0.444353,1.77528 -0.896864,-0.20027 0.446558,-2.03399 0.484775,-2.63481 0.653521,-0.97212 -0.409553,-1.38781 -0.117335,-1.60228 0.599244,-0.0462 0.872647,-2.29681 0.983332,-2.27519 0.602,-2.11939 -0.327495,-2.13085 0.42473,-1.17328 -0.170399,-1.75537 0.831673,-1.73662 0.256242,-2.75122 0.456516,-2.9538596 0.444758,-3.17963 -0.10407,-2.32796 L 7.497675,1.0922764 8.22888,0.72920642 8.610064,5.6415404e-5 9.307204,0.96733642 9.496969,1.9935464 l 0.746089,0.60215 -0.447918,1.37613 0.764095,1.59529 z"
     style="fill:#ffcc00"
     id="path4"
     inkscape:connector-curvature="0" />
</svg>
