<?xml version="1.0" encoding="UTF-8" standalone="no"?>
<svg
   xmlns:dc="http://purl.org/dc/elements/1.1/"
   xmlns:cc="http://creativecommons.org/ns#"
   xmlns:rdf="http://www.w3.org/1999/02/22-rdf-syntax-ns#"
   xmlns:svg="http://www.w3.org/2000/svg"
   xmlns="http://www.w3.org/2000/svg"
   xmlns:sodipodi="http://sodipodi.sourceforge.net/DTD/sodipodi-0.dtd"
   xmlns:inkscape="http://www.inkscape.org/namespaces/inkscape"
   id="svg2"
   version="1.1"
   inkscape:version="0.91 r13725"
   sodipodi:docname="COD.svg"
   width="27.010578"
   height="26.330048">
  <metadata
     id="metadata10">
    <rdf:RDF>
      <cc:Work
         rdf:about="">
        <dc:format>image/svg+xml</dc:format>
        <dc:type
           rdf:resource="http://purl.org/dc/dcmitype/StillImage" />
      </cc:Work>
    </rdf:RDF>
  </metadata>
  <defs
     id="defs8" />
  <sodipodi:namedview
     pagecolor="#ffffff"
     bordercolor="#666666"
     borderopacity="1"
     objecttolerance="10"
     gridtolerance="10"
     guidetolerance="10"
     inkscape:pageopacity="0"
     inkscape:pageshadow="2"
     inkscape:window-width="480"
     inkscape:window-height="419"
     id="namedview6"
     showgrid="false"
     inkscape:zoom="2.36"
     inkscape:cx="-95.32599"
     inkscape:cy="96.007265"
     inkscape:window-x="0"
     inkscape:window-y="0"
     inkscape:window-maximized="0"
     inkscape:current-layer="svg2" />
  <path
     d="m 26.52661,2.4845148 -0.0861,1.66298 0.57003,0.19259 -0.45722,0.50499 -0.54636,0.37773 -0.54379,0.74168 -0.2992,0.66123 -0.08,1.14161 -0.32948,0.54342 -0.0119,1.07223 -0.409,0.39643 -0.0527,0.8463002 -0.19535,0.10965 -0.13163,0.77803 0.35762,0.64661 0.0905,1.71531 0.25598,1.30843 -0.14221,0.73959 0.2845,0.82491 0.82484,0.7964 0.76802,1.79203 -0.56025,-0.14471 -1.91029,0.24004 -0.38122,0.16999 -0.40533,0.90789 0.31831,0.62721 -0.25261,1.68385 -0.17609,1.42758 0.38423,0.25304 0.99432,0.55349 0.39034,-0.25863 0.11891,1.53363 -1.08847,-0.0118 -0.58414,-0.78272 -0.52402,-0.60605 -1.08986,-0.19873 -0.31912,-0.74524 -0.86945,0.44898 -1.13888,-0.19836 -0.4753,-0.64573 -0.90304,-0.13119 -0.66652,0.0343 -0.0816,-0.44207 -0.49059,-0.0358 -0.64771,-0.0839 -0.88099,0.21299 -0.61802,-0.0349 -0.35205,0.13045 0.0761,-1.69245 -0.47441,-0.52777 -0.10436,-0.87467 0.20953,-0.85732 -0.28825,-0.54872 -0.0261,-0.89488 -1.72567,0.0124 0.12384,-0.51241 -0.72562,0.005 -0.0767,0.24643 -0.88209,0.0556 -0.3568202,0.82881 -0.21313,0.35564 -0.78589,-0.20086 -0.46927,0.20005 -0.94044,0.11502 -0.54468,-0.74362 -0.32683,-0.45994 -0.4082,-0.85284 -0.35079,-1.0598 -4.19688,-0.0188 -0.49881,0.17088 -0.41202001,-0.0266 -0.587,0.19116 -0.199250000731,-0.44112 0.361740000731,-0.15023 0.0445,-0.62 0.23269,-0.36564 0.51755001,-0.29891 0.37365,0.14486 0.4864,-0.54445 0.77471,0.014 0.0911,0.40261 0.53129,0.25194 0.83682,-0.89135 0.82851,-0.69453 0.35947,-0.45516 -0.0476,-1.17012 0.61765,-1.3816302 0.65168,-0.73261 0.93641,-0.68549 0.16345,-0.45369 0.0354,-0.52159 0.2318,-0.49352 -0.0744,-0.80603 0.17727,-1.26033 0.27796,-0.88731 0.42598,-0.7605 0.0843,-0.85894 0.12788,-0.99185 0.55372,-0.72208999 0.7615502,-0.45799 1.17034,0.48334 0.90584,0.52464999 1.0404,0.14001 1.06097,0.27759 0.42525,-0.85886999 0.19535,-0.10962 0.64816,0.14284 1.58338,-0.70982 0.56106,0.30086 0.46053,-0.0427 0.21328,-0.34583 0.52858,-0.12185000326 1.06994,0.14963000326 0.91208,0.0327 0.46956,-0.15088 0.86152,1.17408999 0.6386,0.17245 0.3807,-0.23882 0.65764,0.0936 0.79206,-0.30085999 0.33778,0.60743999 1.25207,0.94512 z"
     style="fill:#ffcc00"
     id="path4"
     inkscape:connector-curvature="0" />
</svg>
