<?xml version="1.0" encoding="UTF-8" standalone="no"?>
<svg
   xmlns:dc="http://purl.org/dc/elements/1.1/"
   xmlns:cc="http://creativecommons.org/ns#"
   xmlns:rdf="http://www.w3.org/1999/02/22-rdf-syntax-ns#"
   xmlns:svg="http://www.w3.org/2000/svg"
   xmlns="http://www.w3.org/2000/svg"
   xmlns:sodipodi="http://sodipodi.sourceforge.net/DTD/sodipodi-0.dtd"
   xmlns:inkscape="http://www.inkscape.org/namespaces/inkscape"
   id="svg2"
   version="1.1"
   inkscape:version="0.91 r13725"
   sodipodi:docname="COL.svg"
   width="17.229666"
   height="23.801586">
  <metadata
     id="metadata10">
    <rdf:RDF>
      <cc:Work
         rdf:about="">
        <dc:format>image/svg+xml</dc:format>
        <dc:type
           rdf:resource="http://purl.org/dc/dcmitype/StillImage" />
      </cc:Work>
    </rdf:RDF>
  </metadata>
  <defs
     id="defs8" />
  <sodipodi:namedview
     pagecolor="#ffffff"
     bordercolor="#666666"
     borderopacity="1"
     objecttolerance="10"
     gridtolerance="10"
     guidetolerance="10"
     inkscape:pageopacity="0"
     inkscape:pageshadow="2"
     inkscape:window-width="480"
     inkscape:window-height="419"
     id="namedview6"
     showgrid="false"
     inkscape:zoom="2.36"
     inkscape:cx="34.342663"
     inkscape:cy="84.112977"
     inkscape:window-x="0"
     inkscape:window-y="0"
     inkscape:window-maximized="0"
     inkscape:current-layer="svg2" />
  <path
     d="m 5.1451904,17.904829 -0.609056,-0.33683 -0.698096,-0.4711 -0.404004,0.22629 -1.206904,-0.19733 -0.346494,-0.61185 -0.265171,0.0227 L 0.19296244,15.724619 4.3562104e-7,15.283099 0.53063644,15.176379 l -0.06299,-0.71246 0.333522,-0.51513 0.70551796,-0.0954 0.598914,-0.89374 0.544344,-0.74613 -0.524206,-0.33844 0.268332,-0.82543 -0.320881,-1.30109 0.304932,-0.37339 -0.224492,-1.20286 -0.575873,-0.75756 0.182269,-0.6913 0.458391,0.10209 0.268147,-0.42271 -0.330178,-0.8377 0.172604,-0.20795 0.734844,0.0452 1.067079,-0.99281 0.585648,-0.15137 0.01407,-0.4704 0.262085,-1.20176 0.815688,-0.65999 0.896203,-0.027 0.113109,-0.29645 1.11283,0.1187 1.119188,-0.71816 L 9.6038884,0.68515895 10.292392,-1.0497033e-6 10.79624,0.08709895 l 0.373136,0.37413 -0.276085,0.47886 -0.9135476,0.23838005 -0.360752,0.71107 -0.550517,0.40779 -0.413338,0.52854 -0.173963,1.01486 -0.39445,0.83167 0.734182,0.0953 0.182379,0.65385 0.313788,0.31291 0.112301,0.57264 -0.168929,0.52641 0.05005,0.29685 0.350059,0.11855 0.33874,0.49609 1.8288946,-0.13677 0.826199,0.1812 1.001007,1.22384 0.574807,-0.1521 1.024378,0.0761 0.810618,-0.16221 0.502965,0.24441 -0.256131,0.76601 -0.31739,0.47749 -0.111382,1.02001 0.286117,0.945 0.404298,0.4226 0.04891,0.31842 -0.720732,0.70798 0.516048,0.31342 0.378023,0.49727 0.433733,1.41835 -0.268405,0.17529 -0.277261,-0.83895 -0.395111,-0.45108 -0.470407,0.49025 -2.77107,-0.0318 0.0176,0.88991 0.833364,0.14707 -0.04807,0.54475 -0.28439,-0.14721 -0.800953,0.2343 -0.0072,1.03334 0.630884,0.51888 0.222691,0.8144 -0.03359,0.61678 -0.639336,3.89959 -0.711693,-0.75605 -0.424729,-0.0337 0.917295,-1.44742 -1.089091,-0.66602 -0.853575,0.12223 -0.513586,-0.24607 -0.7836806,0.37608 -1.058995,-0.17815 -0.837847,-1.49115 -0.658335,-0.36645 -0.453981,-0.67131 -0.945811,-0.67358 -0.379163,0.13486 z"
     style="fill:#ffcc00"
     id="path4"
     inkscape:connector-curvature="0" />
</svg>
