<?xml version="1.0" encoding="UTF-8" standalone="no"?>
<svg
   xmlns:dc="http://purl.org/dc/elements/1.1/"
   xmlns:cc="http://creativecommons.org/ns#"
   xmlns:rdf="http://www.w3.org/1999/02/22-rdf-syntax-ns#"
   xmlns:svg="http://www.w3.org/2000/svg"
   xmlns="http://www.w3.org/2000/svg"
   xmlns:sodipodi="http://sodipodi.sourceforge.net/DTD/sodipodi-0.dtd"
   xmlns:inkscape="http://www.inkscape.org/namespaces/inkscape"
   id="svg2"
   version="1.1"
   inkscape:version="0.91 r13725"
   sodipodi:docname="DEU.svg"
   width="12.84027"
   height="10.923588">
  <metadata
     id="metadata10">
    <rdf:RDF>
      <cc:Work
         rdf:about="">
        <dc:format>image/svg+xml</dc:format>
        <dc:type
           rdf:resource="http://purl.org/dc/dcmitype/StillImage" />
      </cc:Work>
    </rdf:RDF>
  </metadata>
  <defs
     id="defs8" />
  <sodipodi:namedview
     pagecolor="#ffffff"
     bordercolor="#666666"
     borderopacity="1"
     objecttolerance="10"
     gridtolerance="10"
     guidetolerance="10"
     inkscape:pageopacity="0"
     inkscape:pageshadow="2"
     inkscape:window-width="480"
     inkscape:window-height="419"
     id="namedview6"
     showgrid="false"
     inkscape:zoom="2.36"
     inkscape:cx="-86.51725"
     inkscape:cy="9.8778944"
     inkscape:window-x="0"
     inkscape:window-y="0"
     inkscape:window-maximized="0"
     inkscape:current-layer="svg2" />
  <path
     d="m 5.59391,4.3e-5 0.0251,0.549636 1.4372,0.331427 -0.0151,0.504766 1.4461,-0.267082 0.79955,-0.389526 1.60573,0.561579 0.6716,0.452952 0.33227,0.723708 -0.3965,0.379604 0.51638,0.506898 0.35189,0.76075 -0.11083,0.490325 0.58297,0.908108 -0.63471,0.148388 -0.37505,-0.163454 -0.35667,0.27072 -1.02129,0.275461 -0.52807,0.354358 -1.03356,0.309672 0.249,0.422709 0.15052,0.599759 0.72577,0.341827 0.80301,0.611408 -0.50146,0.655726 -0.51094,0.180578 0.2016,0.926666 -0.13259,0.24169 -0.44355,-0.291189 -0.68181,-0.04366 -1.01681,0.255029 -1.25427,-0.06063 -0.20256,0.375341 -0.71966,-0.394964 -0.42929,0.07842 -1.52407,-0.434872 -0.292,0.308975 -1.20966,-0.01 L 2.28266,9.457902 3.00173,8.484015 0.95224,8.222078 0.28108,7.849676 0.36138,7.226142 0.07739,6.904967 0.23894,5.944015 0,4.453676 0.85439,4.453088 1.21488,3.917748 1.56928,2.615557 1.30344,2.134676 1.58118,1.833492 2.7699,1.756172 3.03367,2.069777 3.9994,1.368631 3.67426,0.835496 3.60896,0.028958 4.68391,0.216518 5.59393,0 Z"
     style="fill:#ffcc00"
     id="path4"
     inkscape:connector-curvature="0" />
</svg>
