<?xml version="1.0" encoding="UTF-8" standalone="no"?>
<svg
   xmlns:dc="http://purl.org/dc/elements/1.1/"
   xmlns:cc="http://creativecommons.org/ns#"
   xmlns:rdf="http://www.w3.org/1999/02/22-rdf-syntax-ns#"
   xmlns:svg="http://www.w3.org/2000/svg"
   xmlns="http://www.w3.org/2000/svg"
   xmlns:sodipodi="http://sodipodi.sourceforge.net/DTD/sodipodi-0.dtd"
   xmlns:inkscape="http://www.inkscape.org/namespaces/inkscape"
   id="svg2"
   version="1.1"
   inkscape:version="0.91 r13725"
   sodipodi:docname="ESP.svg"
   width="17.681589"
   height="11.095449">
  <metadata
     id="metadata10">
    <rdf:RDF>
      <cc:Work
         rdf:about="">
        <dc:format>image/svg+xml</dc:format>
        <dc:type
           rdf:resource="http://purl.org/dc/dcmitype/StillImage" />
      </cc:Work>
    </rdf:RDF>
  </metadata>
  <defs
     id="defs8" />
  <sodipodi:namedview
     pagecolor="#ffffff"
     bordercolor="#666666"
     borderopacity="1"
     objecttolerance="10"
     gridtolerance="10"
     guidetolerance="10"
     inkscape:pageopacity="0"
     inkscape:pageshadow="2"
     inkscape:window-width="480"
     inkscape:window-height="419"
     id="namedview6"
     showgrid="false"
     inkscape:zoom="2.36"
     inkscape:cx="-64.641232"
     inkscape:cy="26.875591"
     inkscape:window-x="0"
     inkscape:window-y="0"
     inkscape:window-maximized="0"
     inkscape:current-layer="svg2" />
  <path
     d="m 0.50924789,2.6563801 0.0717,-1.012913 L 3.7891244e-5,1.0264361 2.0120479,8.2419191e-8 3.7524179,0.25660908 l 1.90948,-0.009 1.51331,0.242902 1.18089,-0.0746 2.2985701,0.04707 0.56687,0.55294202 2.61805,0.646355 0.51704,-0.307467 1.60029,0.643341 1.64864,-0.184363 0.0761,0.826162 -1.34776,0.947245 -1.82231,0.300596 -0.12686,0.478455 -0.87415,0.788458 -0.54813,1.157626 0.55467,0.812748 -0.82263,0.634522 -0.30758,0.924462 -1.07377,0.283435 -1.00703,1.0935739 -1.8052701,0.02168 -1.35555,-0.02694 -0.89076,0.502231 -0.54321,0.537398 -0.69585,-0.117997 -0.52659,-0.480513 -0.4032,-0.8181129 -1.32769,-0.220266 -0.11859,-0.470921 0.52707,-0.53332 0.19517,-0.386659 -0.4904,-0.422819 0.39261,-0.93442 -0.56973,-0.85262 0.61446,-0.117078 0.0571,-0.672188 0.23096,-0.208139 0.0183,-1.109633 0.65712,-0.385043 -0.39754,-0.713346 -0.82873,-0.04972 -0.24349,0.179586 -0.84005,0.0017 -0.35653,-0.696295 -0.58039,0.20733 -0.51609001,0.361414 z"
     style="fill:#ffcc00"
     id="path4"
     inkscape:connector-curvature="0" />
</svg>
