<?xml version="1.0" encoding="UTF-8" standalone="no"?>
<svg
   xmlns:dc="http://purl.org/dc/elements/1.1/"
   xmlns:cc="http://creativecommons.org/ns#"
   xmlns:rdf="http://www.w3.org/1999/02/22-rdf-syntax-ns#"
   xmlns:svg="http://www.w3.org/2000/svg"
   xmlns="http://www.w3.org/2000/svg"
   xmlns:sodipodi="http://sodipodi.sourceforge.net/DTD/sodipodi-0.dtd"
   xmlns:inkscape="http://www.inkscape.org/namespaces/inkscape"
   id="svg2"
   version="1.1"
   inkscape:version="0.91 r13725"
   sodipodi:docname="GAB.svg"
   width="8.003499"
   height="8.9679422">
  <metadata
     id="metadata10">
    <rdf:RDF>
      <cc:Work
         rdf:about="">
        <dc:format>image/svg+xml</dc:format>
        <dc:type
           rdf:resource="http://purl.org/dc/dcmitype/StillImage" />
      </cc:Work>
    </rdf:RDF>
  </metadata>
  <defs
     id="defs8" />
  <sodipodi:namedview
     pagecolor="#ffffff"
     bordercolor="#666666"
     borderopacity="1"
     objecttolerance="10"
     gridtolerance="10"
     guidetolerance="10"
     inkscape:pageopacity="0"
     inkscape:pageshadow="2"
     inkscape:window-width="480"
     inkscape:window-height="419"
     id="namedview6"
     showgrid="false"
     inkscape:zoom="2.36"
     inkscape:cx="-90.512705"
     inkscape:cy="83.658776"
     inkscape:window-x="0"
     inkscape:window-y="0"
     inkscape:window-maximized="0"
     inkscape:current-layer="svg2" />
  <path
     d="m 3.2651051,8.9679462 -1.46153,-1.43552 -0.93993001,-1.17357 -0.8636499997859,-1.46917 0.045599999786,-0.4725 0.31051,-0.45472 0.34551,-1.0354 0.28663,-1.05451 0.47985001,-0.0822 2.06904,0.0145 -0.0123,-1.71148996 0.67586,-0.09339999809 0.86431,0.190499998094 0.84188,-0.18318 0.17706,0.0775 -0.10341,0.62038 0.39753,0.73487996 1.05819,-0.1159 0.35498,0.28266 -0.61574,1.64718 0.67285,0.84108 0.15507,1.11044 -0.17955,0.94559 -0.43634,0.67204 -1.25552,-0.0598 -0.75994,-0.68299 -0.11318,0.63029 -0.95963,0.17419 -0.48772,0.35762 0.5363,0.94045 -1.08281,0.78501 z"
     style="fill:#ffcc00"
     id="path4"
     inkscape:connector-curvature="0" />
</svg>
