<?xml version="1.0" encoding="UTF-8" standalone="no"?>
<svg
   xmlns:dc="http://purl.org/dc/elements/1.1/"
   xmlns:cc="http://creativecommons.org/ns#"
   xmlns:rdf="http://www.w3.org/1999/02/22-rdf-syntax-ns#"
   xmlns:svg="http://www.w3.org/2000/svg"
   xmlns="http://www.w3.org/2000/svg"
   xmlns:sodipodi="http://sodipodi.sourceforge.net/DTD/sodipodi-0.dtd"
   xmlns:inkscape="http://www.inkscape.org/namespaces/inkscape"
   id="svg2"
   version="1.1"
   inkscape:version="0.91 r13725"
   sodipodi:docname="GRC.svg"
   width="9.1792774"
   height="9.8231707">
  <metadata
     id="metadata10">
    <rdf:RDF>
      <cc:Work
         rdf:about="">
        <dc:format>image/svg+xml</dc:format>
        <dc:type
           rdf:resource="http://purl.org/dc/dcmitype/StillImage" />
      </cc:Work>
    </rdf:RDF>
  </metadata>
  <defs
     id="defs8" />
  <sodipodi:namedview
     pagecolor="#ffffff"
     bordercolor="#666666"
     borderopacity="1"
     objecttolerance="10"
     gridtolerance="10"
     guidetolerance="10"
     inkscape:pageopacity="0"
     inkscape:pageshadow="2"
     inkscape:window-width="480"
     inkscape:window-height="419"
     id="namedview6"
     showgrid="false"
     inkscape:zoom="2.36"
     inkscape:cx="-106.6578"
     inkscape:cy="28.336017"
     inkscape:window-x="0"
     inkscape:window-y="0"
     inkscape:window-maximized="0"
     inkscape:current-layer="svg2" />
  <path
     d="m 5.0488396,8.7067022 0.77751,0.479264 1.10698,-0.08103 1.05841,0.100946 -0.0344,0.247496 0.77509,-0.170657 -0.17779,0.419549 -2.04802,0.120899 0.0143,-0.23467 -1.73516,-0.277335 0.26312,-0.604463 m 4.13044,-8.33011198 -0.44031,0.89010198 -0.33801,0.159485 -0.86651,-0.04042 -0.74215,-0.134423 -1.72237,0.369682 0.98587,0.799482 -0.72253,0.231805 -0.79214,0.0014 -0.75237,-0.732455 -0.26693,0.312098 0.31779,0.849423 0.71151,0.667448 -0.53608,0.31162 0.79206,0.655506 0.70401,0.412456 0.0213,0.803525 -1.31557,-0.376885 0.41951,0.725363 -0.90311,0.149306 0.53938,1.255117 -0.94463,0.01779 -1.16623,-0.618648 -0.53335,-1.137781 -0.24886,-0.946253 -0.55467,-0.653742 -0.72863,-0.811021 L -3.9596173e-7,3.1315732 0.6613096,2.4417822 l 0.0853,-0.462212 0.46221,-0.206228 0.0285,-0.373651 0.9303,-0.125934 0.54218,-0.31088598 0.77074,0.02756 0.23391,-0.247911 0.27108,-0.04721 1.05201,0.04112 1.13859,-0.390848 1.00204,0.496939 1.29271,-0.134276 0.0155,-0.708274998703 0.69284,0.376589998703 z"
     style="fill:#ffcc00"
     id="path4"
     inkscape:connector-curvature="0" />
</svg>
