<?xml version="1.0" encoding="UTF-8" standalone="no"?>
<svg
   xmlns:dc="http://purl.org/dc/elements/1.1/"
   xmlns:cc="http://creativecommons.org/ns#"
   xmlns:rdf="http://www.w3.org/1999/02/22-rdf-syntax-ns#"
   xmlns:svg="http://www.w3.org/2000/svg"
   xmlns="http://www.w3.org/2000/svg"
   xmlns:sodipodi="http://sodipodi.sourceforge.net/DTD/sodipodi-0.dtd"
   xmlns:inkscape="http://www.inkscape.org/namespaces/inkscape"
   id="svg2"
   version="1.1"
   inkscape:version="0.91 r13725"
   sodipodi:docname="GUY.svg"
   width="6.9275265"
   height="10.096279">
  <metadata
     id="metadata10">
    <rdf:RDF>
      <cc:Work
         rdf:about="">
        <dc:format>image/svg+xml</dc:format>
        <dc:type
           rdf:resource="http://purl.org/dc/dcmitype/StillImage" />
      </cc:Work>
    </rdf:RDF>
  </metadata>
  <defs
     id="defs8" />
  <sodipodi:namedview
     pagecolor="#ffffff"
     bordercolor="#666666"
     borderopacity="1"
     objecttolerance="10"
     gridtolerance="10"
     guidetolerance="10"
     inkscape:pageopacity="0"
     inkscape:pageshadow="2"
     inkscape:window-width="640"
     inkscape:window-height="480"
     id="namedview6"
     showgrid="false"
     inkscape:zoom="2.36"
     inkscape:cx="9.3390975"
     inkscape:cy="76.196497"
     inkscape:window-x="0"
     inkscape:window-y="0"
     inkscape:window-maximized="0"
     inkscape:current-layer="svg2" />
  <path
     d="M 2.3495365,2.8507364e-6 3.2833685,0.52314285 l 0.879961,0.92659005 0.03994,0.73231 0.535855,0.0337 0.762147,0.69379 0.561468,0.4951 -0.227285,1.27941 -0.86335,0.37112 0.07691,0.33539 -0.262378,0.73378 0.630223,1.03283 0.455303,0.002 0.186789,0.80294 0.868568,1.23649 -0.346053,0.0509 -0.786657,-0.12064 -0.462433,0.37824 -0.643526,0.24944 -0.449461,0.0615 -0.157206,0.2785501 -0.698096,-0.0706 -0.874926,-0.6673001 -0.103114,-0.65811 -0.364059,-0.71908 0.226292,-1.21069 0.394487,-0.50106 -0.32621,-0.6609 -0.48867,-0.21542 0.184951,-0.62449 -0.330987,-0.32772 -0.73940004,0.0629 L -6.5367012e-6,3.4249429 0.38525546,3.0335029 l -0.02833,-0.65675 0.87514604,-0.22828 0.353182,-0.26642 -0.486833,-0.52777 0.12428,-0.51854005 1.126831,-0.83545999926 z"
     style="fill:#ffcc00"
     id="path4"
     inkscape:connector-curvature="0" />
</svg>
