<?xml version="1.0" encoding="UTF-8" standalone="no"?>
<svg
   xmlns:dc="http://purl.org/dc/elements/1.1/"
   xmlns:cc="http://creativecommons.org/ns#"
   xmlns:rdf="http://www.w3.org/1999/02/22-rdf-syntax-ns#"
   xmlns:svg="http://www.w3.org/2000/svg"
   xmlns="http://www.w3.org/2000/svg"
   xmlns:sodipodi="http://sodipodi.sourceforge.net/DTD/sodipodi-0.dtd"
   xmlns:inkscape="http://www.inkscape.org/namespaces/inkscape"
   id="svg2"
   version="1.1"
   inkscape:version="0.91 r13725"
   sodipodi:docname="IND.svg"
   width="41.565746"
   height="39.151608">
  <metadata
     id="metadata10">
    <rdf:RDF>
      <cc:Work
         rdf:about="">
        <dc:format>image/svg+xml</dc:format>
        <dc:type
           rdf:resource="http://purl.org/dc/dcmitype/StillImage" />
      </cc:Work>
    </rdf:RDF>
  </metadata>
  <defs
     id="defs8" />
  <sodipodi:namedview
     pagecolor="#ffffff"
     bordercolor="#666666"
     borderopacity="1"
     objecttolerance="10"
     gridtolerance="10"
     guidetolerance="10"
     inkscape:pageopacity="0"
     inkscape:pageshadow="2"
     inkscape:window-width="480"
     inkscape:window-height="419"
     id="namedview6"
     showgrid="false"
     inkscape:zoom="2.36"
     inkscape:cx="-174.96234"
     inkscape:cy="66.671239"
     inkscape:window-x="433"
     inkscape:window-y="149"
     inkscape:window-maximized="0"
     inkscape:current-layer="svg2" />
  <path
     d="M 13.73981,7.7742584e-8 15.26844,1.6669481 l -0.1439,1.160162 0.56577,0.727898 -0.0466,0.726207 -1.0207,-0.191124 0.39886,1.567656 1.39729,0.900539 1.97673,0.994466 -0.90245,0.645142 -0.55224,1.33034 1.37781,0.5381329 1.34085,0.697765 1.85495,0.797829 1.94954,0.184326 0.82028,0.723489 1.09883,0.135415 1.71105,0.331501 1.18438,-0.02378 0.16294,-0.562901 -0.18727,-0.903699 0.10995,-0.612584 0.86739,-0.299126 0.11936,1.120069 0.0304,0.284942 1.29264,0.539823 0.89422,-0.222323 1.20069,0.0954 1.1605,-0.04219 0.0999,-0.873676 -0.57893,-0.45387 1.14697,-0.177969 1.29455,-1.0577829 1.63931,-0.905683 1.19298,0.34947 1.01387,-0.598877 0.6669,0.88437 -0.48037,0.5972599 1.53355,0.212549 0.10731,0.539089 -0.4986,0.260945 0.11664,0.875072 -1.01637,-0.25716 -1.8412,0.98278 0.0432,0.813888 -0.78493,1.192977 -0.0719,0.692988 -0.63419,1.172618 -1.11154,-0.324004 -0.0553,1.471855 -0.32147,0.484335 0.15052,0.603948 -0.70174,0.33738 -0.74906,-2.256014 -0.39269,0.0045 -0.23246,0.908917 -0.77869,-0.737085 0.43914,-0.809405 0.63625,-0.08217 0.6558,-1.203597 -0.82006,-0.242828 -1.31895,0.02109 -1.35327,-0.195057 -0.12546,-0.988917 -0.67895,-0.07015 -1.12646,-0.614568 -0.50242,0.96492 1.02651,0.752887 -0.88914,0.529938 -0.31567,0.51829 0.87541,0.381073 -0.24202,0.856993 0.49286,1.069505 0.22136,1.171112 -0.20365,0.519281 -0.96749,-0.0179 -1.75331,0.295268 0.0817,1.069872 -0.75921,0.841485 -2.0467,0.957234 -1.59184,1.67334 -1.06921,0.89713 -1.41713,0.93096 -0.002,0.65418 -0.70901,0.3505 -1.28102,0.50951 -0.66433,0.0751 -0.42642,1.08482 0.29611,1.84981 0.0754,1.17975 -0.60266,1.35117 -0.006,2.41627 -0.73598,0.0689 -0.64735,1.08475 0.43289,0.46876 -1.29675,0.40319 -0.47897,0.96724 -0.57069,0.40878 -1.34673,-1.32799 -0.65837,-1.99161 -0.54556,-1.43449 -0.4983,-0.6727 -0.7556097,-1.36631 -0.35285,-1.7787 -0.24584,-0.88838 -1.29374,-1.95332 -0.58921,-2.75615 -0.42524,-1.81997 0.005,-1.722687 -0.27583,-1.33192 -2.0697,0.851297 -1.00241,-0.17051 -1.85789,-1.723686 0.6838,-0.514101 -0.42002,-0.558087 L 5.8025191e-4,16.785184 0.94771025,15.836322 l 3.12980005,0.0037 -0.28236,-1.221088 -0.79905,-0.721247 -0.16205,-1.094604 -0.9309,-0.638711 1.56744,-1.490817 1.65144,0.108112 1.48777,-1.4910739 0.89157,-1.443302 1.38061,-1.42706 -0.022,-1.013795 1.2127397,-0.822707 -1.1478497,-0.702285 -0.49389,-0.962238 -0.50395,-1.246188 0.69725,-0.613245 2.1573097,0.346971 1.58529,-0.211372 1.37348,-1.195329022257 z"
     style="fill:#ffcc00"
     id="path4"
     inkscape:connector-curvature="0" />
</svg>
