<?xml version="1.0" encoding="UTF-8" standalone="no"?>
<svg
   xmlns:dc="http://purl.org/dc/elements/1.1/"
   xmlns:cc="http://creativecommons.org/ns#"
   xmlns:rdf="http://www.w3.org/1999/02/22-rdf-syntax-ns#"
   xmlns:svg="http://www.w3.org/2000/svg"
   xmlns="http://www.w3.org/2000/svg"
   xmlns:sodipodi="http://sodipodi.sourceforge.net/DTD/sodipodi-0.dtd"
   xmlns:inkscape="http://www.inkscape.org/namespaces/inkscape"
   id="svg2"
   version="1.1"
   inkscape:version="0.91 r13725"
   sodipodi:docname="IRN.svg"
   width="27.3172"
   height="20.813889">
  <metadata
     id="metadata10">
    <rdf:RDF>
      <cc:Work
         rdf:about="">
        <dc:format>image/svg+xml</dc:format>
        <dc:type
           rdf:resource="http://purl.org/dc/dcmitype/StillImage" />
      </cc:Work>
    </rdf:RDF>
  </metadata>
  <defs
     id="defs8" />
  <sodipodi:namedview
     pagecolor="#ffffff"
     bordercolor="#666666"
     borderopacity="1"
     objecttolerance="10"
     gridtolerance="10"
     guidetolerance="10"
     inkscape:pageopacity="0"
     inkscape:pageshadow="2"
     inkscape:window-width="480"
     inkscape:window-height="419"
     id="namedview6"
     showgrid="false"
     inkscape:zoom="2.36"
     inkscape:cx="-140.73312"
     inkscape:cy="42.333174"
     inkscape:window-x="0"
     inkscape:window-y="0"
     inkscape:window-maximized="0"
     inkscape:current-layer="svg2" />
  <path
     d="m 13.95537,3.5755869 1.24972,-0.275204 1.01159,-0.813079 0.95118,0.04123 0.62434,-0.264914 1.0113,0.131079 1.57258,0.720953 1.13579,0.155479 1.62543,1.259527 1.06017,0.0509 0.12479,1.196835 -0.57973,1.772047 -0.39077,1.034888 0.61905,0.20994 -0.60817,0.778757 0.46588,1.1354301 0.11135,0.90289 1.07715,0.239742 0.11649,0.915422 -1.28992,1.289402 0.70408,0.748036 0.57253,0.858941 1.35959,0.625335 0.0393,1.252582 0.68049,0.230224 0.11767,0.654954 -2.05148,0.73466 -0.53592,1.652249 -2.67553,-0.429397 -1.55075,-0.326834 -1.60499,-0.184804 -0.60656,-1.743935 -0.68071,-0.252015 -1.09288,0.25411 -1.43448,0.688321 -1.73795,-0.471767 -1.43573,-1.09295 -1.36937,-0.405106 -0.9497804,-1.349448 -1.04951,-1.896181 -0.76538,0.230481 -0.90385,-0.471289 -0.531,0.555111 -0.78706,-0.747632 -0.014,-0.75759 -0.45428,4.04e-4 0.23313,-1.030148 -0.73179,-1.080859 -1.74265,-0.7795661 -0.98513,-1.351837 0.32962,-1.109817 0.71585,-0.490838 -0.1073,-0.830755 -0.93259,-0.426898 -0.92152002,-1.696575 -0.77784,-1.139391 0.27826,-0.440458 L 8.9580754e-5,0.40514585 0.97397958,2.8532296e-6 1.1996796,0.53651885 l 0.71827,0.65653405 0.97551,0.189067 0.51498,-0.04182 1.67731,-1.04925605 0.53336,-0.105062 0.42017,0.41738 -0.49036,0.70364505 0.88694,0.744729 0.35395,-0.07092 0.44994,1.048705 1.34849,0.29626 0.98786,0.713603 2.0219304,0.245181 2.22117,-0.376333 0.13626,-0.33264 z"
     style="fill:#ffcc00"
     id="path4"
     inkscape:connector-curvature="0" />
</svg>
