<?xml version="1.0" encoding="UTF-8" standalone="no"?>
<svg
   xmlns:dc="http://purl.org/dc/elements/1.1/"
   xmlns:cc="http://creativecommons.org/ns#"
   xmlns:rdf="http://www.w3.org/1999/02/22-rdf-syntax-ns#"
   xmlns:svg="http://www.w3.org/2000/svg"
   xmlns="http://www.w3.org/2000/svg"
   xmlns:sodipodi="http://sodipodi.sourceforge.net/DTD/sodipodi-0.dtd"
   xmlns:inkscape="http://www.inkscape.org/namespaces/inkscape"
   id="svg2"
   version="1.1"
   inkscape:version="0.91 r13725"
   sodipodi:docname="JPN.svg"
   width="22.947092"
   height="20.653376">
  <metadata
     id="metadata10">
    <rdf:RDF>
      <cc:Work
         rdf:about="">
        <dc:format>image/svg+xml</dc:format>
        <dc:type
           rdf:resource="http://purl.org/dc/dcmitype/StillImage" />
      </cc:Work>
    </rdf:RDF>
  </metadata>
  <defs
     id="defs8" />
  <sodipodi:namedview
     pagecolor="#ffffff"
     bordercolor="#666666"
     borderopacity="1"
     objecttolerance="10"
     gridtolerance="10"
     guidetolerance="10"
     inkscape:pageopacity="0"
     inkscape:pageshadow="2"
     inkscape:window-width="480"
     inkscape:window-height="419"
     id="namedview6"
     showgrid="false"
     inkscape:zoom="2.36"
     inkscape:cx="-262.04759"
     inkscape:cy="33.869043"
     inkscape:window-x="0"
     inkscape:window-y="0"
     inkscape:window-maximized="0"
     inkscape:current-layer="svg2" />
  <path
     d="m 7.4381679,16.216533 0.18198,0.487678 -0.80066,0.860668 -0.58377,-0.456259 -0.72915,0.330545 -0.37747,0.832005 -0.92693,-0.40507 0.0115,-0.674504 0.78677,-0.848578 0.80867,0.16452 0.58473,-0.597775 1.04436,0.30677 m 9.0139901,-4.256484 -0.53563,1.135062 0.2479,0.712685 -0.74069,1.00233 -1.81725,0.669175 -2.50016,0.0872 -2.0261201,1.623439 -0.95574,-0.546511 -0.0591,-1.063074 -2.47341,0.313752 -1.68326,0.669873 -1.66489,0.02727 1.44197,1.046427 -0.94897,2.417263 -0.91942,0.598436 -0.68822,-0.552759 0.34881,-1.281759 L 0.57776794,18.405226 1.793675e-5,17.429943 1.3446879,16.991763 l 0.74598,-0.893998 1.43044,-0.735247 1.04312,-0.972344 2.83112,-0.424142 1.52069,0.290821 1.4880601,-2.528498 0.94831,0.679245 2.08639,-1.422356 0.80896,-0.552502 0.8937,-1.739157 -0.24378,-1.599296 0.60075,-0.898408 1.5121,-0.261055 0.77552,1.972542 -0.0422,1.153069 -1.31571,1.431984 0.024,1.467629 m 4.17248,-10.001103 1.0002,0.303241 1.00608,-0.602809 0.31617,1.596651 -2.10983,0.389305 -1.2456,1.41247 -2.23624,-0.972196 -0.77398,1.556191 -1.58177,0.02139 -0.19564,-1.413978 0.70335,-1.094419 1.51959,-0.07901 0.41444,-1.967361 L 17.861928,2.0407628e-6 19.533358,1.480713 l 1.09126,0.478235 z"
     style="fill:#ffcc00"
     id="path4"
     inkscape:connector-curvature="0" />
</svg>
