<?xml version="1.0" encoding="UTF-8" standalone="no"?>
<svg
   xmlns:dc="http://purl.org/dc/elements/1.1/"
   xmlns:cc="http://creativecommons.org/ns#"
   xmlns:rdf="http://www.w3.org/1999/02/22-rdf-syntax-ns#"
   xmlns:svg="http://www.w3.org/2000/svg"
   xmlns="http://www.w3.org/2000/svg"
   xmlns:sodipodi="http://sodipodi.sourceforge.net/DTD/sodipodi-0.dtd"
   xmlns:inkscape="http://www.inkscape.org/namespaces/inkscape"
   id="svg2"
   version="1.1"
   inkscape:version="0.91 r13725"
   sodipodi:docname="KGZ.svg"
   width="15.353036"
   height="5.715735">
  <metadata
     id="metadata10">
    <rdf:RDF>
      <cc:Work
         rdf:about="">
        <dc:format>image/svg+xml</dc:format>
        <dc:type
           rdf:resource="http://purl.org/dc/dcmitype/StillImage" />
      </cc:Work>
    </rdf:RDF>
  </metadata>
  <defs
     id="defs8" />
  <sodipodi:namedview
     pagecolor="#ffffff"
     bordercolor="#666666"
     borderopacity="1"
     objecttolerance="10"
     gridtolerance="10"
     guidetolerance="10"
     inkscape:pageopacity="0"
     inkscape:pageshadow="2"
     inkscape:window-width="480"
     inkscape:window-height="419"
     id="namedview6"
     showgrid="false"
     inkscape:zoom="2.36"
     inkscape:cx="-176.79451"
     inkscape:cy="22.135875"
     inkscape:window-x="0"
     inkscape:window-y="0"
     inkscape:window-maximized="0"
     inkscape:current-layer="svg2" />
  <path
     d="m 2.1296742,1.4679964 0.31853,-0.62313 0.93633,-0.200679 2.33973,0.489956 0.22122,-0.839647 L 6.7526842,3.9723149e-7 8.7780642,0.5979584 l 0.51682,-0.156619 2.3580998,0.03888 2.11027,0.148755 0.7132,0.51116 0.87658,0.208617 -0.19991,0.321505 -2.24109,0.770416 -0.50697,0.564518 -1.8243,0.169002 -0.53777,0.908146 -1.5054798,-0.190758 -0.9827,0.278254 -1.35768,0.671931 0.19593,0.332751 -0.40481,0.325364 -2.68897,0.215856 -1.7572,-0.461845 L 4.1639431e-6,5.3641344 0.13471416,4.5441834 l 1.54796004,0.238161 0.52079,-0.438914 1.08185,0.140119 1.82122,-1.024268 -1.68577,-0.749322 -1.01298,0.354578 -1.04937,-0.53534 1.19357,-0.921191 -0.42231,-0.140009 z"
     style="fill:#ffcc00"
     id="path4"
     inkscape:connector-curvature="0" />
</svg>
