<?xml version="1.0" encoding="UTF-8" standalone="no"?>
<svg
   xmlns:dc="http://purl.org/dc/elements/1.1/"
   xmlns:cc="http://creativecommons.org/ns#"
   xmlns:rdf="http://www.w3.org/1999/02/22-rdf-syntax-ns#"
   xmlns:svg="http://www.w3.org/2000/svg"
   xmlns="http://www.w3.org/2000/svg"
   xmlns:sodipodi="http://sodipodi.sourceforge.net/DTD/sodipodi-0.dtd"
   xmlns:inkscape="http://www.inkscape.org/namespaces/inkscape"
   id="svg2"
   version="1.1"
   inkscape:version="0.91 r13725"
   sodipodi:docname="MAR.svg"
   width="22.60747"
   height="20.393606">
  <metadata
     id="metadata10">
    <rdf:RDF>
      <cc:Work
         rdf:about="">
        <dc:format>image/svg+xml</dc:format>
        <dc:type
           rdf:resource="http://purl.org/dc/dcmitype/StillImage" />
      </cc:Work>
    </rdf:RDF>
  </metadata>
  <defs
     id="defs8" />
  <sodipodi:namedview
     pagecolor="#ffffff"
     bordercolor="#666666"
     borderopacity="1"
     objecttolerance="10"
     gridtolerance="10"
     guidetolerance="10"
     inkscape:pageopacity="0"
     inkscape:pageshadow="2"
     inkscape:window-width="480"
     inkscape:window-height="419"
     id="namedview6"
     showgrid="false"
     inkscape:zoom="2.36"
     inkscape:cx="-53.793168"
     inkscape:cy="47.534956"
     inkscape:window-x="0"
     inkscape:window-y="0"
     inkscape:window-maximized="0"
     inkscape:current-layer="svg2" />
  <path
     d="m 16.820002,0.00683475 0.8574,0.603691 1.35246,-0.09834 1.47307,0.313973 0.6178,0.01521 0.53608,0.91090195 0.0847,0.865004 0.49125,1.501437 0.37475,0.302213 -0.26076,0.552721 -1.86127,0.239706 -0.64338,0.526006 -0.82278,0.124023 -0.0611,1.052932 -1.66287,0.562864 -0.54397,0.71217 -1.1641,0.382213 -1.42022,0.216848 -2.29673,1.049514 0.0121,1.6851393 -0.21649,0 -3e-5,0 0.0326,0.761926 -0.87915,0.04582 -0.45839,0.3236 -0.6458105,0 -0.51461,-0.184693 -1.1965,0.152723 -0.46317,1.108384 -0.4445,0.104143 -0.66874,1.793066 -1.9771,1.534731 -0.46941,1.963869 -0.58264,0.638896 -0.17084,0.512483 L 0.02480155,20.393596 1.5486945e-6,20.391396 0.06710155,19.73229 0.61339155,19.344749 1.0787615,18.603621 0.98706155,18.1223 1.4760315,17.118794 l 0.79161,-0.904213 0.47883,-0.229159 0.37644,-0.829542 0.0337,-0.757664 0.51341,-0.879151 0.94739,-0.518363 0.90149,-1.452452 0.0261,-0.01991 0.71506,-0.546188 1.32255,-0.157096 1.12066,-0.9720863 0.71305,-0.378943 1.1872405,-1.187538 -0.35542,-1.769474 0.54034,-1.223625 0.19072,-0.748918 0.91479,-0.960804 1.42692,-0.6497 1.05477,-0.587963 0.95033,-1.47255295 0.44707,-0.87341900096 1.04694,0.006800001 z"
     style="fill:#ffcc00"
     id="path4"
     inkscape:connector-curvature="0" />
</svg>
