<?xml version="1.0" encoding="UTF-8" standalone="no"?>
<svg
   xmlns:dc="http://purl.org/dc/elements/1.1/"
   xmlns:cc="http://creativecommons.org/ns#"
   xmlns:rdf="http://www.w3.org/1999/02/22-rdf-syntax-ns#"
   xmlns:svg="http://www.w3.org/2000/svg"
   xmlns="http://www.w3.org/2000/svg"
   xmlns:sodipodi="http://sodipodi.sourceforge.net/DTD/sodipodi-0.dtd"
   xmlns:inkscape="http://www.inkscape.org/namespaces/inkscape"
   id="svg2"
   version="1.1"
   inkscape:version="0.91 r13725"
   sodipodi:docname="MEX.svg"
   width="43.115772"
   height="25.858847">
  <metadata
     id="metadata10">
    <rdf:RDF>
      <cc:Work
         rdf:about="">
        <dc:format>image/svg+xml</dc:format>
        <dc:type
           rdf:resource="http://purl.org/dc/dcmitype/StillImage" />
      </cc:Work>
    </rdf:RDF>
  </metadata>
  <defs
     id="defs8" />
  <sodipodi:namedview
     pagecolor="#ffffff"
     bordercolor="#666666"
     borderopacity="1"
     objecttolerance="10"
     gridtolerance="10"
     guidetolerance="10"
     inkscape:pageopacity="0"
     inkscape:pageshadow="2"
     inkscape:window-width="480"
     inkscape:window-height="419"
     id="namedview6"
     showgrid="false"
     inkscape:zoom="2.36"
     inkscape:cx="88.581703"
     inkscape:cy="57.322555"
     inkscape:window-x="0"
     inkscape:window-y="0"
     inkscape:window-maximized="0"
     inkscape:current-layer="svg2" />
  <path
     d="m 28.427025,9.7434066 -0.551914,1.2485024 -0.248708,1.023717 -0.10396,1.905441 -0.136995,0.694568 0.246504,0.775854 0.441009,0.693576 0.283912,1.103055 0.944012,1.058848 0.332015,0.811464 0.556433,0.70023 1.510147,0.37732 0.587852,0.59498 1.2474,-0.39746 1.084498,-0.14365 1.064911,-0.25561 0.895211,-0.24394 0.904581,-0.58031 0.338887,-0.829584 0.116784,-1.194814 0.245842,-0.415763 0.963267,-0.372438 1.503936,-0.329884 1.259306,0.04954 0.862615,-0.120459 0.341203,0.301552 -0.04825,0.685013 -0.764279,0.845454 -0.338152,0.865923 0.262121,0.24768 -0.213063,0.61478 -0.356452,1.10978 -0.360495,-0.36527 -0.297767,0.0237 -0.270352,0.0187 -0.50947,0.8585 -0.258153,-0.16827 -0.172163,0.0655 0.01113,0.20928 -1.315346,-0.0157 -1.327768,0.002 -0.0011,0.80062 -0.642349,0.004 0.529424,0.4746 0.526006,0.32852 0.157831,0.3082 0.230372,0.0863 -0.03642,0.48433 -1.825405,0.004 -0.684499,1.15928 0.202002,0.26576 -0.164997,0.33349 -0.03487,0.41425 -1.609549,-1.53116 -0.733447,-0.46185 -1.161227,-0.37093 -0.794411,0.10334 -1.142265,0.53508 -0.716874,0.14019 -1.004315,-0.37482 -1.065866,-0.27058 -1.329274,-0.65242 -1.066271,-0.19928 -1.6101,-0.6612 -1.189816,-0.67976 -0.359025,-0.37982 -0.795882,-0.0849 -1.45473,-0.4502 -0.59241,-0.64893 -1.528152,-0.80719 -0.712575,-0.896902 -0.338997,-0.693098 0.474486,-0.138833 -0.146329,-0.405584 0.326981,-0.36891 0.007,-0.491831 -0.479777,-0.638638 -0.12836,-0.565951 -0.476875,-0.717756 -1.253353,-1.41372 -1.429999,-1.110956 -0.691849,-0.886611 -1.220685,-0.580687 -0.261533,-0.3474134 0.216811,-0.879004 -0.725068,-0.331722 -0.8395009,-0.691114 -0.354542,-0.992371 -0.765013,-0.115718 -0.825867,-0.749102 -0.666493,-0.691848 -0.06199,-0.444353 -0.764829,-1.072739 -0.503774,-1.089091 0.02153,-0.546254 -1.028568,-0.564114 -0.474817,0.06196 -0.811682,-0.391804 -0.22791,0.57749 0.235333,0.682478 0.138428,1.067998 0.487715,0.586309 1.055431,0.979656 0.234413,0.334845 0.216297,0.101534 0.187634,0.488524 0.252787,-0.01977 0.285456,0.917295 0.431896,0.361818 0.302874,0.50359 0.893814,0.723783 0.471914,1.32299 0.422194,0.6229104 0.395111,0.666456 0.07816,0.750094 0.685786,0.047 0.5703239,0.646208 0.5159,0.635037 -0.03454,0.254698 -0.59851,0.522405 -0.251979,-0.0068 -0.3750099,-0.864563 -0.930745,-0.810654 -1.025518,-0.687586 -0.72742,-0.361229 0.047,-1.040658 -0.215783,-0.7706734 -0.677811,-0.440825 -0.977598,-0.634632 -0.187818,0.183077 -0.358694,-0.370637 -0.877241,-0.344216 -0.838251,-0.825794 0.103665,-0.10734 0.585795,0.08066 0.527697,-0.531224 0.05306,-0.641578 -1.09486,-1.014567 L 2.2884801,4.5002886 1.7640911,3.6122066 1.2364681,2.6796976 0.57772911,1.5429446 -2.5888889e-5,0.26351856 1.6162011,0.15393656 3.4223671,-2.8944444e-4 3.2892331,0.27782656 l 2.147584,0.691399 3.244615,1.00184204 2.8282449,-0.01027 1.127908,-3.98e-4 0.0028,-0.586857 2.463872,4.75e-4 0.51867,0.504277 0.727196,0.449593 0.845113,0.625508 0.471638,0.742812 0.35382,0.781895 0.735246,0.429455 1.180445,0.426666 0.896,-1.123555 1.162809,-0.02745 1.002382,0.566883 0.713614,0.973639 0.491861,0.833593 0.839111,0.810667 0.312889,0.995556 0.398223,0.668444 1.109333,0.440889 1.009778,0.312889 0.554655,-0.04266 z"
     style="fill:#ffcc00"
     id="path4"
     inkscape:connector-curvature="0" />
</svg>
