<?xml version="1.0" encoding="UTF-8" standalone="no"?>
<svg
   xmlns:dc="http://purl.org/dc/elements/1.1/"
   xmlns:cc="http://creativecommons.org/ns#"
   xmlns:rdf="http://www.w3.org/1999/02/22-rdf-syntax-ns#"
   xmlns:svg="http://www.w3.org/2000/svg"
   xmlns="http://www.w3.org/2000/svg"
   xmlns:sodipodi="http://sodipodi.sourceforge.net/DTD/sodipodi-0.dtd"
   xmlns:inkscape="http://www.inkscape.org/namespaces/inkscape"
   id="svg2"
   version="1.1"
   inkscape:version="0.91 r13725"
   sodipodi:docname="MLI.svg"
   width="23.3827"
   height="21.160126">
  <metadata
     id="metadata10">
    <rdf:RDF>
      <cc:Work
         rdf:about="">
        <dc:format>image/svg+xml</dc:format>
        <dc:type
           rdf:resource="http://purl.org/dc/dcmitype/StillImage" />
      </cc:Work>
    </rdf:RDF>
  </metadata>
  <defs
     id="defs8" />
  <sodipodi:namedview
     pagecolor="#ffffff"
     bordercolor="#666666"
     borderopacity="1"
     objecttolerance="10"
     gridtolerance="10"
     guidetolerance="10"
     inkscape:pageopacity="0"
     inkscape:pageshadow="2"
     inkscape:window-width="480"
     inkscape:window-height="419"
     id="namedview6"
     showgrid="false"
     inkscape:zoom="2.36"
     inkscape:cx="-60.690488"
     inkscape:cy="63.640731"
     inkscape:window-x="433"
     inkscape:window-y="149"
     inkscape:window-maximized="0"
     inkscape:current-layer="svg2" />
  <path
     d="M 1.5255186e-6,14.731004 0.47864153,14.471794 l 0.23911,-0.83785 0.45081997,-0.0328 0.99315,0.3961 0.80205,-0.28123 0.54982,0.0944 0.21336,-0.31629 5.70666,-0.0216 0.31639,-0.99579 -0.24639,-0.17528 -0.68637,-6.1379317 -0.68645,-6.13796605 2.1766405,-0.02557999871 4.79756,3.103158048706 4.79755,3.103085 0.33816,0.666419 0.88547,0.40676 0.65859,0.231327 0.0163,0.904839 1.57765,-0.13923 0.004,3.2754297 -0.77766,0.94996 -0.12112,0.87632 -1.26331,0.22556 -1.94057,0.12226 -0.52586,0.50543 -0.91149,0.0559 -0.91186,0.007 -0.35498,-0.27286 -0.78295,0.20245 -1.32931,0.58994 -0.27134,0.44458 -1.10346,0.63753 -0.19344,0.36535 -0.59605,0.28957 -0.68777,-0.19175 -0.38971,0.34708 -0.20872,0.97536 -1.1289305,1.17872 0.0329,0.48172 -0.38787,0.60285 0.0942,0.82565 -0.58679,0.21075 -0.33213,0.17947 -0.22012,-0.60828 -0.41065,0.16036 -0.24533,-0.0277 -0.26175,0.41503 -1.09832,-0.0117 -0.39371,-0.21355 -0.18539,0.12921 -0.4344,-0.40999 0.0754,-0.42352 -0.17771,-0.16592 -0.30295,0.1399 0.0555,-0.46273 0.29155,-0.36608 -0.58282,-0.59579 -0.16948,-0.39224 -0.31603,-0.31247 -0.28464,-0.0373 -0.34176,0.19918 -0.45949,0.19024 -0.39,0.30776 -0.60873,-0.11362 -0.39482,-0.36112 -0.2357,-0.0474 -0.37122,0.18954 -0.22556,0.002 -0.0822,-0.52075 0.0655,-0.44307 -0.1216,-0.54997 -0.53236,-0.39944 -0.28042,-0.81444 -0.06520000448,-0.88478 z"
     style="fill:#ffcc00"
     id="path4"
     inkscape:connector-curvature="0" />
</svg>
