<?xml version="1.0" encoding="UTF-8" standalone="no"?>
<svg
   xmlns:dc="http://purl.org/dc/elements/1.1/"
   xmlns:cc="http://creativecommons.org/ns#"
   xmlns:rdf="http://www.w3.org/1999/02/22-rdf-syntax-ns#"
   xmlns:svg="http://www.w3.org/2000/svg"
   xmlns="http://www.w3.org/2000/svg"
   xmlns:sodipodi="http://sodipodi.sourceforge.net/DTD/sodipodi-0.dtd"
   xmlns:inkscape="http://www.inkscape.org/namespaces/inkscape"
   id="svg2"
   version="1.1"
   inkscape:version="0.91 r13725"
   sodipodi:docname="NGA.svg"
   width="16.903788"
   height="13.689358">
  <metadata
     id="metadata10">
    <rdf:RDF>
      <cc:Work
         rdf:about="">
        <dc:format>image/svg+xml</dc:format>
        <dc:type
           rdf:resource="http://purl.org/dc/dcmitype/StillImage" />
      </cc:Work>
    </rdf:RDF>
  </metadata>
  <defs
     id="defs8" />
  <sodipodi:namedview
     pagecolor="#ffffff"
     bordercolor="#666666"
     borderopacity="1"
     objecttolerance="10"
     gridtolerance="10"
     guidetolerance="10"
     inkscape:pageopacity="0"
     inkscape:pageshadow="2"
     inkscape:window-width="480"
     inkscape:window-height="419"
     id="namedview6"
     showgrid="false"
     inkscape:zoom="2.36"
     inkscape:cx="-81.828198"
     inkscape:cy="71.968933"
     inkscape:window-x="0"
     inkscape:window-y="0"
     inkscape:window-maximized="0"
     inkscape:current-layer="svg2" />
  <path
     d="m 8.261102,12.933605 -1.47652,0.51182 -0.53975,-0.0748 -0.54688,0.31871 -1.13764,-0.0311 -0.76141,-0.88962 -0.46824,-1.02945 -1.00689,-0.93703 -1.06869,0.0176 L 2.0346933e-6,10.818995 0.08160203,8.5264952 l -0.0359,-0.90469 0.26811,-0.89709 0.43811,-0.43597 0.68989997,-0.88044 -0.14986,-0.38254 0.28024,-0.57253 -0.31985,-0.84366 0.0554,-0.4725 0.0988,-1.26967 0.40768,-0.57345 0.20005,-0.81792999 0.37035,-0.30757 L 3.913112,-4.7881212e-6 5.338702,0.53070521 l 0.53335,0.53714999 0.72577,0.0242 0.67403,-0.34913999 1.72126,0.73509999 0.72532,-0.0348 0.83895,-0.60607999 0.83374,0.0431 0.41039,-0.19969 0.76546,0.083 1.10118,0.41498999 1.11206,-0.79495999 0.33381,0.0566 0.96235,1.55702999 0.26451,-0.0314 0.56298,0.56646 -0.15501,0.25687 -0.0751,0.47272 -1.19812,1.10052 -0.37585,0.90767 -0.20065,0.73918 -0.3017,0.31695 -0.28699,0.99556 -0.76061,0.58587 -0.22034,0.71967 -0.31948,0.57282 -0.13303,0.59116 -0.97705,0.4792298 -0.79845,-0.5844398 -0.53916,0.0236 -0.84704,0.8323998 -0.41179,0.0128 -0.67645,1.3722 -0.36586,1.00648 z"
     style="fill:#ffcc00"
     id="path4"
     inkscape:connector-curvature="0" />
</svg>
