<?xml version="1.0" encoding="UTF-8" standalone="no"?>
<svg
   xmlns:dc="http://purl.org/dc/elements/1.1/"
   xmlns:cc="http://creativecommons.org/ns#"
   xmlns:rdf="http://www.w3.org/1999/02/22-rdf-syntax-ns#"
   xmlns:svg="http://www.w3.org/2000/svg"
   xmlns="http://www.w3.org/2000/svg"
   xmlns:sodipodi="http://sodipodi.sourceforge.net/DTD/sodipodi-0.dtd"
   xmlns:inkscape="http://www.inkscape.org/namespaces/inkscape"
   id="svg2"
   version="1.1"
   inkscape:version="0.91 r13725"
   sodipodi:docname="NOR.svg"
   width="37.406349"
   height="32.111301">
  <metadata
     id="metadata10">
    <rdf:RDF>
      <cc:Work
         rdf:about="">
        <dc:format>image/svg+xml</dc:format>
        <dc:type
           rdf:resource="http://purl.org/dc/dcmitype/StillImage" />
      </cc:Work>
    </rdf:RDF>
  </metadata>
  <defs
     id="defs8" />
  <sodipodi:namedview
     pagecolor="#ffffff"
     bordercolor="#666666"
     borderopacity="1"
     objecttolerance="10"
     gridtolerance="10"
     guidetolerance="10"
     inkscape:pageopacity="0"
     inkscape:pageshadow="2"
     inkscape:window-width="640"
     inkscape:window-height="480"
     id="namedview6"
     showgrid="false"
     inkscape:zoom="2.36"
     inkscape:cx="-85.099844"
     inkscape:cy="-5.4485374"
     inkscape:window-x="0"
     inkscape:window-y="0"
     inkscape:window-maximized="0"
     inkscape:current-layer="svg2" />
  <path
     d="m 32.957826,13.470819 4.44853,1.040621 -1.8318,0.380486 1.55825,0.89341 -2.41991,0.570544 -1.14866,0.131042 0.60251,-0.997993 -1.82511,-0.565621 -2.20824,0.481983 -0.69747,1.042752 -1.35614,0.629415 -1.52694,-0.343738 -1.85715,0.07041 -1.58052,-0.751932 -0.8524,0.375745 -0.88224,0.05847 -0.20865,0.935743 -2.68045,-0.227836 -0.37644,0.79195 -1.36577,-0.0048 -0.9389,1.011884 -1.42265,1.57666 -2.20832,2.000837 0.518,0.485842 -0.49492,0.563636 -1.41082,-0.02433 -0.9235404,1.333904 0.0875,1.888647 0.9089204,0.720769 -0.47045,1.67202 -1.1834204,0.97499 -0.62706,0.819546 -0.95404,-0.872757 -2.80826,1.644826 -1.89618,0.333375 -1.96680998,-0.724297 -0.50859,-1.528997 L 3.5622643e-5,26.575868 1.3096556,25.660704 l 3.75539,-1.194006 2.80789,-1.467776 2.6035804,-1.982133 3.41731,-2.746191 2.38191,-1.070313 3.90841,-1.783807 3.12091,-0.622542 2.34002,0.07552 2.16576,-1.178204 2.59343,0.06291 2.5536,-0.283325 m -4.89448,-9.483912 -3.17696,0.581576 -2.50924,-0.330112 0.98148,-0.366934 -0.85932,-0.454528 2.94735,-0.284885 0.56474,0.533902 2.05195,0.320981 m -9.20503,-2.628124 4.68195,1.060466 -3.57896,0.559658 -0.79026,1.046628 -1.24773,0.268416 -0.67728,1.178382 -1.71384,0.05541 -3.05858,-0.867413 1.28991,-0.505316 -2.13185,-0.41142 -2.7709004,-1.200882 -1.10618,-1.113728 3.8773204,-0.50925503 0.77902,0.49787703 2.02568,-0.0198 0.54006,-0.48607303 2.08824,-0.04946 1.7934,0.49651203 m 10.23402,-1.00350603 2.78738,0.499107 -2.10895,0.76596803 -4.1247,0.16757 -4.19453,-0.237243 -0.25305,-0.391877 -2.04089,-0.02492 -1.55626,-0.65282303 4.39179,-0.397169 2.065,0.342011 1.4383,-0.425906003111 3.59591,0.355277003111 z"
     style="fill:#ffcc00"
     id="path4"
     inkscape:connector-curvature="0" />
</svg>
