<?xml version="1.0" encoding="UTF-8" standalone="no"?>
<svg
   xmlns:dc="http://purl.org/dc/elements/1.1/"
   xmlns:cc="http://creativecommons.org/ns#"
   xmlns:rdf="http://www.w3.org/1999/02/22-rdf-syntax-ns#"
   xmlns:svg="http://www.w3.org/2000/svg"
   xmlns="http://www.w3.org/2000/svg"
   xmlns:sodipodi="http://sodipodi.sourceforge.net/DTD/sodipodi-0.dtd"
   xmlns:inkscape="http://www.inkscape.org/namespaces/inkscape"
   id="svg2"
   version="1.1"
   inkscape:version="0.91 r13725"
   sodipodi:docname="POL.svg"
   width="14.158883"
   height="8.2832222">
  <metadata
     id="metadata10">
    <rdf:RDF>
      <cc:Work
         rdf:about="">
        <dc:format>image/svg+xml</dc:format>
        <dc:type
           rdf:resource="http://purl.org/dc/dcmitype/StillImage" />
      </cc:Work>
    </rdf:RDF>
  </metadata>
  <defs
     id="defs8" />
  <sodipodi:namedview
     pagecolor="#ffffff"
     bordercolor="#666666"
     borderopacity="1"
     objecttolerance="10"
     gridtolerance="10"
     guidetolerance="10"
     inkscape:pageopacity="0"
     inkscape:pageshadow="2"
     inkscape:window-width="480"
     inkscape:window-height="419"
     id="namedview6"
     showgrid="false"
     inkscape:zoom="2.36"
     inkscape:cx="-98.017097"
     inkscape:cy="8.2721489"
     inkscape:window-x="0"
     inkscape:window-y="0"
     inkscape:window-maximized="0"
     inkscape:current-layer="svg2" />
  <path
     d="m 1.3404133,5.3260254 -0.58296999,-0.908108 0.11083,-0.490325 -0.35189,-0.76075 L 3.3077767e-6,2.6599444 0.39650331,2.2803404 0.06423331,1.5566324 1.0359133,1.1389574 3.2554033,0.48124736 5.0464833,3.6026012e-7 6.4659033,0.24025636 l 0.10723,0.346861 1.37157,0.01797 1.75161,0.161506 2.6152597,-0.02135 0.72945,0.152135 0.34153,0.43814304 0.0617,0.629157 0.39453,0.540999 -0.008,0.566944 -0.85291,0.290306 0.43876,0.65896 0.0271,0.633162 0.71526,1.241668 -0.1525,0.39897 -0.70578,0.165511 -1.29146,1.182908 0.36689,0.639116 -0.31045,-0.08298 -1.35158,-0.546659 -1.0237897,0.20101 -0.67145,-0.146035 -0.84027,0.304822 -0.71724,-0.504105 -0.58473,0.193035 -0.0803,-0.08588 -0.65455,-0.700301 -1.05738,-0.08592 -0.13493,-0.445308 -0.97536,-0.159044 -0.21233,0.367256 -0.77258,-0.294202 0.0887,-0.391289 -1.06334,-0.123729 -0.67409,-0.457877 z"
     style="fill:#ffcc00"
     id="path4"
     inkscape:connector-curvature="0" />
</svg>
