<?xml version="1.0" encoding="UTF-8" standalone="no"?>
<svg
   xmlns:dc="http://purl.org/dc/elements/1.1/"
   xmlns:cc="http://creativecommons.org/ns#"
   xmlns:rdf="http://www.w3.org/1999/02/22-rdf-syntax-ns#"
   xmlns:svg="http://www.w3.org/2000/svg"
   xmlns="http://www.w3.org/2000/svg"
   xmlns:sodipodi="http://sodipodi.sourceforge.net/DTD/sodipodi-0.dtd"
   xmlns:inkscape="http://www.inkscape.org/namespaces/inkscape"
   id="svg2"
   version="1.1"
   inkscape:version="0.91 r13725"
   sodipodi:docname="SDN.svg"
   width="23.428665"
   height="19.029718">
  <metadata
     id="metadata10">
    <rdf:RDF>
      <cc:Work
         rdf:about="">
        <dc:format>image/svg+xml</dc:format>
        <dc:type
           rdf:resource="http://purl.org/dc/dcmitype/StillImage" />
      </cc:Work>
    </rdf:RDF>
  </metadata>
  <defs
     id="defs8" />
  <sodipodi:namedview
     pagecolor="#ffffff"
     bordercolor="#666666"
     borderopacity="1"
     objecttolerance="10"
     gridtolerance="10"
     guidetolerance="10"
     inkscape:pageopacity="0"
     inkscape:pageshadow="2"
     inkscape:window-width="480"
     inkscape:window-height="419"
     id="namedview6"
     showgrid="false"
     inkscape:zoom="2.36"
     inkscape:cx="-109.19902"
     inkscape:cy="65.740829"
     inkscape:window-x="0"
     inkscape:window-y="0"
     inkscape:window-maximized="0"
     inkscape:current-layer="svg2" />
  <path
     d="m 17.104471,17.828569 -0.19688,-0.0281 0.0244,-0.70806 -0.17091,-0.48832 -0.73247,-0.56156 -0.17092,-1.02547 0.17092,-1.04988 -0.65923,-0.0977 -0.0977,0.31741 -0.85455,0.0732 0.34182,0.41507 0.12208,0.85456 -0.7813,0.7813 -0.70806,1.02547 -0.73248,0.14649 -1.19637,-0.83014 -0.53715,0.29299 -0.1465,0.41507 -0.73247,0.26858 -0.0488,0.29299 -1.41612,0 -0.19533,-0.29299 -1.02546,-0.0488 -0.51273,0.24415 -0.39066,-0.12208 -0.73247,-0.83013 -0.24416,-0.39066 -1.02546,0.19533 -0.39066,0.65923 -0.36623,1.26962 -0.48832,0.26857 -0.43675,0.15498 -0.11543,-0.0663 -0.49323,-0.40955 -0.0914,-0.44201 0.23107,-0.59185 -0.004,-0.58032 -0.82028,-0.88919 -0.16125,-0.60861 0.0171,-0.34449 -0.52270997,-0.4192 -0.0157,-0.82614 -0.29812,-0.5487 -0.49947999667,0.0823 0.14332999667,-0.52235 0.36834,-0.59287 -0.16112,-0.58903 0.46753,-0.43619 -0.29655,-0.33229 0.37609,-0.87818 0.64943997,-1.0473701 1.22639,0.0994 -0.07,-5.6457 0.0175,-0.596664 1.63556,-0.0043 0,-2.840121011111 5.7173297,0 5.51822,0 5.64086,0 0.45865,1.395413011111 -0.3119,0.258006 0.20663,1.464149 0.52208,1.697947 0.54183,0.35019 0.77842,0.52559 -0.71977,0.81176 -1.04751,0.23381 -0.44791,0.43604 -0.14029,0.94533 -0.61251,2.0897801 0.15117,0.56942 -0.22655,1.22138 -0.57826,1.40096 -0.8578,0.7046 -0.60993,1.08643 -0.14291,0.58139 -0.6737,0.39834 -0.42074,1.48837 0.003,0.16966 z"
     style="fill:#ffcc00"
     id="path4"
     inkscape:connector-curvature="0" />
</svg>
