<?xml version="1.0" encoding="UTF-8" standalone="no"?>
<!-- Created with Inkscape (http://www.inkscape.org/) -->

<svg
   xmlns:dc="http://purl.org/dc/elements/1.1/"
   xmlns:cc="http://creativecommons.org/ns#"
   xmlns:rdf="http://www.w3.org/1999/02/22-rdf-syntax-ns#"
   xmlns:svg="http://www.w3.org/2000/svg"
   xmlns="http://www.w3.org/2000/svg"
   xmlns:sodipodi="http://sodipodi.sourceforge.net/DTD/sodipodi-0.dtd"
   xmlns:inkscape="http://www.inkscape.org/namespaces/inkscape"
   width="26.371979mm"
   height="15.17079mm"
   viewBox="0 0 93.444019 53.754766"
   id="svg2"
   version="1.1"
   inkscape:version="0.91 r13725"
   sodipodi:docname="IOC.svg">
  <defs
     id="defs4" />
  <sodipodi:namedview
     id="base"
     pagecolor="#ffffff"
     bordercolor="#666666"
     borderopacity="1.0"
     inkscape:pageopacity="0.0"
     inkscape:pageshadow="2"
     inkscape:zoom="1.979899"
     inkscape:cx="-20.285064"
     inkscape:cy="-60.781685"
     inkscape:document-units="px"
     inkscape:current-layer="layer1"
     showgrid="false"
     fit-margin-top="0"
     fit-margin-left="0"
     fit-margin-right="0"
     fit-margin-bottom="0"
     inkscape:window-width="1317"
     inkscape:window-height="717"
     inkscape:window-x="0"
     inkscape:window-y="0"
     inkscape:window-maximized="1" />
  <metadata
     id="metadata7">
    <rdf:RDF>
      <cc:Work
         rdf:about="">
        <dc:format>image/svg+xml</dc:format>
        <dc:type
           rdf:resource="http://purl.org/dc/dcmitype/StillImage" />
        <dc:title />
      </cc:Work>
    </rdf:RDF>
  </metadata>
  <g
     inkscape:label="Layer 1"
     inkscape:groupmode="layer"
     id="layer1"
     transform="translate(-13.581793,-13.76474)">
    <path
       style="fill:#cf202e;fill-opacity:1"
       d="m 27.03919,58.219384 c -1.107321,-1.663077 -1.107321,-1.927533 0,-3.59061 0.657455,-0.987418 1.817296,-1.795305 2.577426,-1.795305 0.760131,0 3.53423,-1.123566 6.164665,-2.496817 l 4.782611,-2.496816 3.729363,2.28138 c 4.77937,2.923704 7.404792,2.913054 12.298083,-0.04984 l 3.850077,-2.331246 3.400403,2.136786 c 5.310828,3.337278 6.467808,3.38751 12.051969,0.523202 l 4.91446,-2.520795 3.379802,2.109268 c 1.858891,1.160105 4.489844,2.314206 5.846555,2.564672 1.434523,0.264829 2.942568,1.170008 3.603811,2.16312 1.037266,1.557858 1.027188,1.872726 -0.114825,3.587902 -1.091974,1.640019 -1.617784,1.831886 -4.116434,1.502082 -1.575503,-0.207954 -4.174625,-1.015942 -5.775814,-1.795535 l -2.911255,-1.417436 -4.184833,1.693611 c -5.309471,2.148765 -7.630641,2.140973 -12.394453,-0.04158 L 60.309646,56.490175 56.47849,58.24543 c -4.726318,2.165368 -7.083033,2.188527 -12.223211,0.120113 l -4.013591,-1.615078 -4.013592,1.610059 c -5.361888,2.150933 -7.686561,2.115235 -9.188906,-0.141119 z m 1.445666,-11.852136 c -0.847232,-0.327148 -1.757734,-1.152119 -2.023353,-1.833272 -0.564253,-1.447023 1.327594,-4.626702 2.752805,-4.626702 0.538858,0 3.276499,-1.130719 6.083649,-2.512716 l 5.103909,-2.512716 4.885541,2.505966 c 4.706418,2.414081 4.979284,2.467416 7.442118,1.454771 1.406115,-0.57816 3.491278,-1.706157 4.633692,-2.506676 2.591452,-1.815887 3.301405,-1.815887 5.892857,0 1.142414,0.800519 3.216675,1.924035 4.609457,2.496709 2.427391,0.998074 2.742472,0.937781 7.602297,-1.454772 l 5.069954,-2.495998 4.898706,2.512716 c 2.694294,1.381997 5.359852,2.512716 5.923477,2.512716 1.458977,0 3.371154,3.156419 2.799801,4.621617 -1.071877,2.748784 -5.957512,2.710631 -11.485578,-0.0897 -1.902399,-0.963691 -2.405667,-0.916475 -5.837951,0.547683 -4.756997,2.029261 -8.834485,2.047265 -13.011415,0.05745 l -3.286059,-1.565419 -3.580846,1.562382 c -4.549005,1.98481 -8.46122,1.980171 -13.035094,-0.01544 -3.607198,-1.573843 -3.624653,-1.574367 -6.932568,-0.208521 -4.49982,1.85799 -6.679105,2.255111 -8.505399,1.549915 z M 27.071255,31.697029 c -1.672194,-2.511452 -0.362004,-4.506474 3.605132,-5.489497 1.737374,-0.430514 4.590746,-1.715593 6.340832,-2.855748 3.069814,-1.999934 3.247025,-2.030404 5.027578,-0.864497 3.360887,2.200706 6.876545,3.77567 8.428098,3.77567 0.841803,0 3.399446,-1.107467 5.683654,-2.46104 l 4.153097,-2.461033 4.196027,2.508939 c 4.957136,2.964034 7.146725,2.903661 12.511941,-0.345015 l 3.498787,-2.118539 3.313439,2.029492 c 1.822396,1.11622 4.658947,2.386032 6.303455,2.821796 3.783466,1.002555 5.04226,3.015114 3.414741,5.459472 -1.510205,2.268159 -4.654919,2.28981 -9.521713,0.06556 l -3.648719,-1.667558 -3.64872,1.665332 c -4.547582,2.075588 -8.18402,2.120736 -12.817675,0.159136 l -3.601563,-1.524674 -3.601564,1.524681 c -4.6388,1.963769 -8.27488,1.91926 -12.817675,-0.156917 l -3.648719,-1.667558 -3.64872,1.665339 c -4.872464,2.223866 -8.012734,2.202976 -9.521713,-0.06334 z"
       id="path4147"
       inkscape:connector-curvature="0" />
  </g>
</svg>
