<?xml version="1.0" encoding="UTF-8" standalone="no"?>
<svg
   xmlns:dc="http://purl.org/dc/elements/1.1/"
   xmlns:cc="http://creativecommons.org/ns#"
   xmlns:rdf="http://www.w3.org/1999/02/22-rdf-syntax-ns#"
   xmlns:svg="http://www.w3.org/2000/svg"
   xmlns="http://www.w3.org/2000/svg"
   xmlns:sodipodi="http://sodipodi.sourceforge.net/DTD/sodipodi-0.dtd"
   xmlns:inkscape="http://www.inkscape.org/namespaces/inkscape"
   id="svg2"
   version="1.1"
   inkscape:version="0.91 r13725"
   sodipodi:docname="SGS.svg"
   width="16.850058"
   height="7.8226852">
  <metadata
     id="metadata10">
    <rdf:RDF>
      <cc:Work
         rdf:about="">
        <dc:format>image/svg+xml</dc:format>
        <dc:type
           rdf:resource="http://purl.org/dc/dcmitype/StillImage" />
      </cc:Work>
    </rdf:RDF>
  </metadata>
  <defs
     id="defs8" />
  <sodipodi:namedview
     pagecolor="#ffffff"
     bordercolor="#666666"
     borderopacity="1"
     objecttolerance="10"
     gridtolerance="10"
     guidetolerance="10"
     inkscape:pageopacity="0"
     inkscape:pageshadow="2"
     inkscape:window-width="480"
     inkscape:window-height="419"
     id="namedview6"
     showgrid="false"
     inkscape:zoom="2.36"
     inkscape:cx="-23.831786"
     inkscape:cy="162.58347"
     inkscape:window-x="0"
     inkscape:window-y="0"
     inkscape:window-maximized="0"
     inkscape:current-layer="svg2" />
  <path
     d="m 15.550694,7.8199063 -0.08715,0.002 -0.02899,-0.006 -0.02604,-0.0138 0.0042,-0.0164 0.0094,-0.009 0.01719,-0.003 0.134375,-10e-4 0,0.01 -0.01354,0.0124 -0.0026,0.0146 -0.0068,0.0111 m -0.211053,0.002 -0.01534,0.001 -0.01493,-0.001 -0.01441,-0.004 -0.01354,-0.007 -0.04144,-0.0124 -0.03958,-0.0174 -0.01134,-0.0169 0.04288,-0.0117 0.06562,0.001 0.0014,0.004 -0.0014,0.006 0.0034,0.008 0.0076,0.0145 0.0025,0.0148 0.0071,0.0125 0.02153,0.008 m 1.040914,-0.57998 -0.03715,0.005 -0.04867,-0.006 -0.03397,-0.0244 -0.0048,-0.0311 0.03883,-0.0252 0.04936,-0.006 0.04606,0.009 0.08999,0.0359 -0.03229,0.0192 -0.03293,0.0151 -0.03443,0.01 m 0.460475,-0.81863 -7.52e-4,0.0145 -0.0045,-0.006 -0.0045,-0.002 -0.0049,-7e-4 -0.06401,-0.0226 -0.183854,-0.0353 -0.03918,-0.0366 0.0045,-0.007 0.0097,-0.0109 0.0097,-0.014 0.0043,-0.0167 0.01007,-0.0103 0.02326,-0.004 0.145312,2.3e-4 0.05052,0.007 0.04358,0.0222 -0.01939,0.0486 0.0067,0.0117 0.01863,0.0232 0.0038,0.009 -0.009,0.0296 m -0.224016,-1.0015 0.02135,0.003 0.04572,-2.3e-4 -0.02263,0.0154 -0.02378,0.009 -0.0507,0.0132 -0.03993,-0.001 -0.0375,-0.013 -0.03021,-0.0201 -0.01858,-0.0227 0.05035,-0.0394 0.02691,-0.009 0.02951,0.009 0.0068,0.009 0.01198,0.028 0.01128,0.0116 0.01945,0.008 m -0.351389,-1.00209 -0.0068,3.5e-4 -0.004,0.003 -0.0035,0.003 -0.0052,0.003 -0.0097,-0.01 -0.01777,0.002 -0.02321,-0.008 -0.04734,-0.0235 0.02789,-0.0155 0.03252,0.003 0.0316,0.0169 0.0254,0.0247 m -2.159375,-0.51736 -0.02639,0.0146 -0.0327,-0.002 -0.0045,-0.0157 0.0287,-0.0141 0.03079,10e-4 0.0041,0.0159 m 1.509664,-0.002 -0.08119,0.0134 -0.04566,-0.007 -0.01609,-0.009 -0.0063,-0.0192 0.01053,-0.0134 0.02448,-0.0109 0.02899,-0.007 0.02344,-0.003 0.02216,0.004 0.03229,0.0104 0.02558,0.0141 0.0025,0.0151 -0.02083,0.0118 m -0.63912,-0.57454 -0.01782,0.0139 -0.01921,-0.0104 -0.02795,-0.0237 -0.01082,-0.006 0.02338,-0.0212 0.02963,-0.007 0.03218,0.004 0.03125,0.0131 0,0.0105 -0.02164,0.007 -0.01898,0.0195 m -13.4566549,-2.58033 0,0.01 -0.01042,-7e-4 -0.0063,0.003 -0.0053,0.004 -0.0071,0.004 -0.03466,0.004 -0.01638,-8.1e-4 -0.01696,-0.004 0,-0.0106 0.02824,0 -0.05822,-0.0195 -0.0034,-0.0181 0.01001,-0.007 0.01539,-0.003 0.01285,-0.005 0.02106,-0.002 0.02778,0.0146 0.04346,0.0312 m -1.48993103,-0.70277 -0.01499,0.002 -0.01521999711,-2.3e-4 0.01284999711,-0.0167 0.02222,-0.006 0.05145,0.002 -0.05631,0.0184 m 0.538484,-0.0123 -0.0038,0.0141 0.28073,-0.005 0.100694,-0.0206 0.05642,-0.005 0,0.01 -0.08733,0.0292 0.0097,0.0105 -0.0097,0.0186 -0.02917,0 0.02998,0.0177 0.02338,0.009 0.02488,0.003 0.03391,1.2e-4 0.01238,-0.002 0.02425,-0.007 0.01233,-0.002 0.08252,0 0.08495,0.0334 0.01308,10e-4 0.0089,-0.0229 0.02135,-0.005 0.02535,1.2e-4 0.02118,-0.007 -0.0024,-0.0141 0.02187,-0.004 0.02934,5.7e-4 0.02014,-0.002 -0.02633,0.0221 0.0089,0.006 0.02257,-4.6e-4 0.01424,0.002 -8.11e-4,0.0153 -0.01372,0.011 -0.03403,0.0126 0.0059,0.0131 -0.0014,0.0125 -0.0063,0.012 -0.0089,0.0118 0.03802,-0.002 0.02934,-0.0186 0.02732,-0.0254 0.03241,-0.0226 0.03206,-0.0104 0.04554,-0.008 0.03854,0.004 0.01105,0.0244 -0.06105,0.0348 -0.02587,0.02 0.01892,0.0132 0.03108,-0.004 0.114584,-0.0446 -0.0076,-0.005 -0.01406,-0.0108 -0.0075,-0.004 0.03056,-0.006 0.03322,0.002 0.07303,0.0132 0.03901,0.0138 0.0095,0.006 0.0027,0.0152 -0.01736,0.0178 0.0041,0.0156 -0.0069,0.0124 0.0071,0.008 0.01458,0.003 0.01609,-0.005 0.0051,-0.0104 0.0054,-0.0354 0.008,-0.0125 0.03571,-0.008 0.139988,0.0174 -0.01065,0.0105 0.02795,6.9e-4 0.01615,0.002 0.01424,0.006 0,0.01 -0.01169,0.0122 -0.0036,0.006 -0.0042,0.0118 -0.02396,-0.009 -0.02558,-0.002 -0.02512,0.006 -0.0224,0.0134 0.03993,0.006 0.01603,0.005 -0.0066,0.009 -0.01667,0.004 -0.03513,-6.9e-4 -0.01701,0.006 0.0364,0.0139 0.04606,-0.003 0.08437,-0.0197 0.08252,-0.01 0.01204,0.008 0.01273,0.0144 0.01615,0.008 0.02216,-0.0118 0.0068,0.01 0.0022,0.005 -0.0022,0.005 -0.0068,0.01 -0.02147,-0.0104 -0.02321,-5.8e-4 -0.04277,0.011 -0.02014,0.01 -0.119965,0.0528 -0.0097,0.002 -0.0081,0.003 -0.008,0.008 0.0021,0.006 0.0074,0.008 0.0027,0.011 -0.01221,0.0139 0.03582,0.002 0.02789,-0.002 0.025,-0.007 0.09699,-0.0498 0.03704,-0.008 0.02101,0.0155 0.01765,-0.0116 0.02054,0.006 0.01215,0.0171 -0.0071,0.0222 -0.01111,0.005 -0.01447,5.8e-4 -0.01238,0.003 -0.0053,0.0119 0.0045,0.008 0.0084,0.004 0.0044,0.007 -0.0076,0.0155 0.01389,0.0134 0.0027,0.0152 -0.0056,0.0153 -0.011,0.0145 0.05596,-0.0391 0.03055,-0.0116 0.02517,0.006 0.03715,0.0406 0.02523,0.0183 0.02986,0.005 0.02494,-0.0111 -0.0028,-0.019 -0.01389,-0.0248 -0.0083,-0.028 -0.0049,-0.0106 -0.03304,-0.0229 -0.01007,-0.0116 -0.0058,-0.009 -0.0027,-0.0112 -9.26e-4,-0.0174 0.09277,0.0206 0.04311,0.0155 0.0098,0.022 0.01655,-0.002 0.01609,0 0.01198,0.005 0.0048,0.0125 0.0025,0.0155 0.0035,0.0111 -0.0023,0.009 -0.01435,0.009 0.04271,0.0192 -9.26e-4,0.007 -0.01921,0.01 -0.01192,0.0279 0.01898,0.008 0.116898,-0.003 -0.0039,0.0188 -0.0012,0.0188 -0.0082,0.0148 -0.02552,0.007 0.0071,0.0132 0.01094,0.009 0.01406,0.005 0.01638,0.002 -2.31e-4,0.0125 0.01233,0.008 0.0184,0.005 0.01806,0.003 0.0084,-0.001 0.02078,-0.009 0.01036,0.004 0.02402,0.0153 0.0349,-0.002 0.01354,0.004 0.0054,0.0123 0.0044,0.0163 0.01111,0.0105 0.01568,0.006 -0.0246,0.013 -0.03252,0.0147 -0.06233,0.0429 0.01672,0.009 0.02651,0.0215 0.01505,0.007 0.02268,0.003 0.131829,-0.004 0.02106,-0.007 0.03646,-0.0192 0.01684,-0.005 0.01563,0.004 -0.0056,0.016 -0.02448,0.0431 -0.03322,0.0354 -0.0057,0.003 0.03391,0.0637 0.0045,0.0319 -0.03837,0.003 0.02986,0.0373 0.06157,0.0308 0.06979,0.0208 0.05423,0.008 0,0.0106 -0.01834,0.003 -0.01956,0.008 -0.01574,0.0105 -0.0064,0.0117 -0.01221,0.004 -0.02772,-0.001 -0.04653,-0.008 -0.02847,0.0287 -0.04271,0.008 -0.04618,-0.006 -0.03889,-0.0113 -0.07066,-0.0315 -0.0408,-0.0132 -0.04392,-0.003 0.01401,0.0148 0.01794,0.0117 0.01996,0.008 0.02008,0.003 0.01811,0.005 0.02853,0.0242 0.0173,0.0106 0.01533,0.005 0.01551,0.003 0.03715,0.001 0.0136,0.004 0.02795,0.0196 0.01678,0.006 0,0.009 -0.01586,0.001 -0.01516,-5.8e-4 -0.01424,-0.003 -0.01308,-0.006 0.0029,0.007 0.0042,0.016 0.0027,0.006 -0.04126,7e-4 -0.01568,-0.006 -0.01111,-0.0154 -0.0053,0.0186 3.47e-4,0.008 0.0049,0.0124 -0.018,2.3e-4 -0.03009,-0.007 -0.01586,-0.002 -0.0088,0.004 -0.01059,0.009 -0.01424,0.007 -0.04149,2.3e-4 -0.02014,-0.004 -0.01615,-0.01 -0.01007,-0.0159 0.01314,-8.1e-4 0.0088,-0.002 0.01782,-0.007 -0.05822,-0.0186 -0.064,-0.0494 -0.0276,-0.007 -0.03304,-0.0161 -0.05197,-0.0344 -0.0021,-0.0204 -0.01476,0.003 -0.02187,-0.0212 0.0054,-0.0215 -0.01256,-0.0248 -0.0121,-0.0294 -0.0485,-0.0514 -0.107118,-0.0866 -0.01979,-0.0106 -0.01823,-0.001 -0.02274,-0.005 -0.01927,-0.008 -0.0082,-0.0111 0.0047,-0.0156 0.02014,-0.0174 0.0043,-0.0111 -0.01586,-0.0195 -0.03495,-0.019 -0.03738,-0.0141 -0.0235,-0.006 -0.04028,2.4e-4 -0.01499,0.004 -0.02865,0.0201 -0.01968,0.003 -0.0206,-0.002 -0.01753,-0.006 -0.02425,-0.0171 -0.01638,-0.0164 -0.02031,-0.0146 -0.143923,-0.0403 -0.01013,-4.6e-4 -0.01319,0.001 -0.01146,-4.6e-4 -0.0049,-0.006 0.0016,-0.006 0.0071,-0.016 0.0018,-0.002 1.16e-4,-0.007 0.0078,-0.0104 0.002,-0.006 -0.0017,-0.0109 -0.0044,-7e-4 -0.0065,0.001 -0.0078,-0.004 -0.02112,-0.0155 -0.02708,-0.009 -0.02969,-0.004 -0.02893,-0.001 0.01065,-0.01 -0.02911,-0.009 0.0083,-0.0145 0.01354,-0.007 0.01707,-0.001 0.01939,0.002 -0.03414,-0.0231 -0.05556,-9.3e-4 -0.110763,0.0144 -0.01852,-0.003 -0.05474,-0.0174 -0.02859,-0.0135 -0.01331,-0.009 -0.0058,-0.006 0.0012,-0.01 0.0064,-0.0132 0.0013,-0.0117 -0.01377,-0.005 -0.01863,-0.003 -0.02268,-0.009 -0.02176,-0.0109 -0.01586,-0.0106 -0.01134,-0.004 -0.02685,0.006 -0.01522,-0.002 -0.02431,-0.01 -0.03351,-0.005 -0.02552,0.001 -0.04097,0.0146 -0.08646,0.006 -0.02703,0.006 -0.02575,0.0123 -0.0085,-0.01 -0.0118,-0.006 -0.01372,-6.9e-4 -0.01458,0.006 -0.01597,-0.0208 0.0057,-0.01 0.10677103,-0.0267 0.02187,-8.1e-4 -0.02743,-0.0218 -0.07951,-0.0183 -0.02112,-0.0272 0.05932,8.1e-4 0.06591,-0.0123 0.119329,-0.037 -0.0353,-0.009 -0.129861,2.3e-4 -0.04931,0.009 -0.01805,-0.004 -0.03345,-0.0137 -0.01701,-0.003 -0.131945,0 -0.03437,0.006 -0.0125,0.0132 0.0097,0.0135 0.03194,0.007 -0.02621,0.007 -0.111748,0.0135 -0.05556,-0.003 -0.02992,0.002 0.0068,-0.006 0.0066,-0.008 0.0061,-0.004 -0.01892,-0.007 -0.04988,-0.0323 0.05174,-0.0188 0.02569,-0.0128 0.02054,-0.017 -0.02292,-0.005 -0.04913,0.003 -0.02593,-0.008 0.08993,-0.0274 0.04224,-0.0201 0.02407,-0.0301 -0.170428,0 -0.08299,0.009 -0.02135,-0.004 -0.03033,-0.0128 -0.01632,-0.002 -0.07957,0.0182 -0.04427,0.003 -0.03681,-0.0163 -0.02789,-0.009 -0.05555,0.034 -0.02859,-8.1e-4 0.0035,-0.0135 0.0067,-0.0129 0.01123,-0.01 0.01736,-0.004 -0.0068,-0.0112 -0.0066,-0.006 -0.0097,-0.002 -0.01563,6.9e-4 0.0235,-0.008 0.0735,-5.8e-4 0.07355,-0.0181 0.02934,-0.002 0.03044,0.005 0.04716,0.0201 0.02436,0.005 0.03015,-0.003 0.03142,-0.008 0.02986,-0.0123 0.02512,-0.0159 -1.16e-4,-0.0133000013 0.03073,-9.9999867e-4 0.03964,0.006 0.02685,0.008 -0.01308,0.003 -0.0073,0.004 -0.0042,0.008 z"
     style="fill:#ffcc00"
     id="path4"
     inkscape:connector-curvature="0" />
</svg>
