<?xml version="1.0" encoding="UTF-8" standalone="no"?>
<svg
   xmlns:dc="http://purl.org/dc/elements/1.1/"
   xmlns:cc="http://creativecommons.org/ns#"
   xmlns:rdf="http://www.w3.org/1999/02/22-rdf-syntax-ns#"
   xmlns:svg="http://www.w3.org/2000/svg"
   xmlns="http://www.w3.org/2000/svg"
   xmlns:sodipodi="http://sodipodi.sourceforge.net/DTD/sodipodi-0.dtd"
   xmlns:inkscape="http://www.inkscape.org/namespaces/inkscape"
   id="svg2"
   version="1.1"
   inkscape:version="0.91 r13725"
   sodipodi:docname="TCD.svg"
   width="14.715017"
   height="22.738197">
  <metadata
     id="metadata10">
    <rdf:RDF>
      <cc:Work
         rdf:about="">
        <dc:format>image/svg+xml</dc:format>
        <dc:type
           rdf:resource="http://purl.org/dc/dcmitype/StillImage" />
      </cc:Work>
    </rdf:RDF>
  </metadata>
  <defs
     id="defs8" />
  <sodipodi:namedview
     pagecolor="#ffffff"
     bordercolor="#666666"
     borderopacity="1"
     objecttolerance="10"
     gridtolerance="10"
     guidetolerance="10"
     inkscape:pageopacity="0"
     inkscape:pageshadow="2"
     inkscape:window-width="480"
     inkscape:window-height="419"
     id="namedview6"
     showgrid="false"
     inkscape:zoom="2.36"
     inkscape:cx="-97.257449"
     inkscape:cy="67.444374"
     inkscape:window-x="0"
     inkscape:window-y="0"
     inkscape:window-maximized="0"
     inkscape:current-layer="svg2" />
  <path
     d="m 1.3587815,15.004904 0.14221,-0.66991 -0.91207004,-0.0327 0.003,-0.91484 -0.59208000407,-0.52685 0.61408000407,-1.8734 1.81413004,-1.34106 0.075,-1.84981 0.54798,-2.886015 0.30934,-0.61218 -0.59178,-0.487531 -0.0229,-0.452317 -0.53216,-0.369876 -0.34928,-2.210747 1.4358,-0.777628 5.67241,2.723029 5.6723895,2.723015 0.07,5.6457 -1.22639,-0.0994 -0.64944,1.04737 -0.37609,0.87818 0.29655,0.33229 -0.46753,0.43619 0.16112,0.58903 -0.36834,0.59287 -0.14333,0.52235 0.49948,-0.0823 0.29812,0.5487 0.0157,0.82614 0.52271,0.4192 -0.0171,0.34449 -0.90031,0.2425 -0.72151,0.57576 -1.0282,1.55174 -1.3385695,0.65889 -1.37341,-0.0884 -0.40106,0.13075 0.14082,0.50065 -0.74165,0.4972 -0.60391,0.55522 -1.79049,0.54412 -0.35528,-0.32206 -0.23555,-0.0278 -0.26216,0.36582 -1.17585,0.1069 0.22276,-0.38526 -0.44832,-0.98039 -0.20035,-0.58873 -0.61942,-0.24144 -0.83946004,-0.83005 0.30897,-0.67113 0.64816004,0.14288 0.40128,-0.10128 0.79434,0.0139 -0.77412,-1.29278 0.052,-0.94471 -0.095,-0.94361 -0.56544,-0.91072 z"
     style="fill:#ffcc00"
     id="path4"
     inkscape:connector-curvature="0" />
</svg>
