<?xml version="1.0" encoding="UTF-8" standalone="no"?>
<svg
   xmlns:dc="http://purl.org/dc/elements/1.1/"
   xmlns:cc="http://creativecommons.org/ns#"
   xmlns:rdf="http://www.w3.org/1999/02/22-rdf-syntax-ns#"
   xmlns:svg="http://www.w3.org/2000/svg"
   xmlns="http://www.w3.org/2000/svg"
   xmlns:sodipodi="http://sodipodi.sourceforge.net/DTD/sodipodi-0.dtd"
   xmlns:inkscape="http://www.inkscape.org/namespaces/inkscape"
   id="svg2"
   version="1.1"
   inkscape:version="0.91 r13725"
   sodipodi:docname="THA.svg"
   width="11.680913"
   height="20.944307">
  <metadata
     id="metadata10">
    <rdf:RDF>
      <cc:Work
         rdf:about="">
        <dc:format>image/svg+xml</dc:format>
        <dc:type
           rdf:resource="http://purl.org/dc/dcmitype/StillImage" />
      </cc:Work>
    </rdf:RDF>
  </metadata>
  <defs
     id="defs8" />
  <sodipodi:namedview
     pagecolor="#ffffff"
     bordercolor="#666666"
     borderopacity="1"
     objecttolerance="10"
     gridtolerance="10"
     guidetolerance="10"
     inkscape:pageopacity="0"
     inkscape:pageshadow="2"
     inkscape:window-width="480"
     inkscape:window-height="419"
     id="namedview6"
     showgrid="false"
     inkscape:zoom="2.36"
     inkscape:cx="-216.49016"
     inkscape:cy="69.905587"
     inkscape:window-x="0"
     inkscape:window-y="0"
     inkscape:window-maximized="0"
     inkscape:current-layer="svg2" />
  <path
     d="m 7.4084062,11.706669 -1.27683,-0.653 -1.2165,0.0265 0.20858,-1.1173495 -1.25251,0.008 -0.11245,1.5642395 -0.76773,2.07735 -0.46243,1.25625 0.0976,1.02942 0.92648,0.0446 0.57716,1.29808 0.25547,1.23105 0.79368,0.81451 0.86151,0.16533 0.73687,0.73811 -0.46494,0.58429 -0.93875,0.16985 -0.11194,-0.73029 -1.16041,-0.62287 -0.24724,0.25363 -0.56187,-0.54574 -0.24327,-0.70434 -0.75576,-0.8029 -0.68902,-0.67458 -0.23342,0.83597 -0.26973,-0.79004 0.15523,-0.88734 0.4187,-1.36397 0.68917,-1.46145 0.78103,-1.32582 -0.55599,-1.29705 0.0223,-0.66068 -0.1625,-0.7938995 -0.94853,-1.12999 -0.33955,-0.7135 0.4911,-0.26282 0.52049,-1.23637 -0.58252,-0.93868 L 0.68728618,4.0527895 2.6177673e-5,2.8047995 0.60004618,2.5464595 1.2484962,1.0088655 l 1.00402,-0.06368 0.83006,-0.6167 0.81447,-0.32889099725 0.61567,0.43891399725 0.0817,0.85460102 0.96102,0.0651 -0.34998,1.49853 0.0336,1.27493 1.49909,-0.84851 0.42583,0.25077 0.833,-0.0411 0.28656,-0.49485 1.0756,0.0977 1.0815598,1.15498 0.0887,1.40372 1.1516,1.23954 -0.0636,1.20374 -0.46302,0.64103 -1.3331298,-0.20413 -1.83893,0.27167 -0.91068,1.18254 0.33683,1.7175495 z"
     style="fill:#ffcc00"
     id="path4"
     inkscape:connector-curvature="0" />
</svg>
