<?xml version="1.0" encoding="UTF-8" standalone="no"?>
<svg
   xmlns:dc="http://purl.org/dc/elements/1.1/"
   xmlns:cc="http://creativecommons.org/ns#"
   xmlns:rdf="http://www.w3.org/1999/02/22-rdf-syntax-ns#"
   xmlns:svg="http://www.w3.org/2000/svg"
   xmlns="http://www.w3.org/2000/svg"
   xmlns:sodipodi="http://sodipodi.sourceforge.net/DTD/sodipodi-0.dtd"
   xmlns:inkscape="http://www.inkscape.org/namespaces/inkscape"
   id="svg2"
   version="1.1"
   inkscape:version="0.91 r13725"
   sodipodi:docname="TJK.svg"
   width="10.720402"
   height="6.0046821">
  <metadata
     id="metadata10">
    <rdf:RDF>
      <cc:Work
         rdf:about="">
        <dc:format>image/svg+xml</dc:format>
        <dc:type
           rdf:resource="http://purl.org/dc/dcmitype/StillImage" />
      </cc:Work>
    </rdf:RDF>
  </metadata>
  <defs
     id="defs8" />
  <sodipodi:namedview
     pagecolor="#ffffff"
     bordercolor="#666666"
     borderopacity="1"
     objecttolerance="10"
     gridtolerance="10"
     guidetolerance="10"
     inkscape:pageopacity="0"
     inkscape:pageshadow="2"
     inkscape:window-width="480"
     inkscape:window-height="419"
     id="namedview6"
     showgrid="false"
     inkscape:zoom="2.36"
     inkscape:cx="-173.91782"
     inkscape:cy="25.750156"
     inkscape:window-x="0"
     inkscape:window-y="0"
     inkscape:window-maximized="0"
     inkscape:current-layer="svg2" />
  <path
     d="m 5.0801465,1.0180946 -0.52079,0.438914 -1.54796,-0.238161 -0.13471,0.819951 1.54208,-0.110243 1.7572,0.461845 2.68897,-0.215856 0.3605,1.316155 0.46743,-0.143206 0.8637095,0.323784 -0.0495,0.553016 0.21336,0.81069 -1.4667495,-0.0022 -0.9794,-0.104805 -0.88628,0.636728 -0.63125,0.141184 -0.49551,0.298832 -0.56312,-0.46574 0.13259,-1.194851 -0.43025,-0.06754 0.15464,-0.434688 -0.76987,-0.32338 -0.61229,0.494771 -0.15037,0.573484 -0.21901,0.208984 -0.8502,-0.02954 -0.45868,0.651169 -0.47905,-0.274762 -1.02952004,0.456847 -0.43458,-0.173339 L 1.3508765,3.9868046 1.0436665,2.9279196 2.6455621e-5,2.5885916 0.36868646,1.9623376 l 1.18753004,0.06688 0.67587,-0.78607 0.45207,-0.91259198 1.90169,-0.330509002874 -0.29648,0.659511002874 0.20373,0.39533198 0.58708,-0.03675 z"
     style="fill:#ffcc00"
     id="path4"
     inkscape:connector-curvature="0" />
</svg>
