<?xml version="1.0" encoding="UTF-8" standalone="no"?>
<svg
   xmlns:dc="http://purl.org/dc/elements/1.1/"
   xmlns:cc="http://creativecommons.org/ns#"
   xmlns:rdf="http://www.w3.org/1999/02/22-rdf-syntax-ns#"
   xmlns:svg="http://www.w3.org/2000/svg"
   xmlns="http://www.w3.org/2000/svg"
   xmlns:sodipodi="http://sodipodi.sourceforge.net/DTD/sodipodi-0.dtd"
   xmlns:inkscape="http://www.inkscape.org/namespaces/inkscape"
   id="svg2"
   version="1.1"
   inkscape:version="0.91 r13725"
   sodipodi:docname="TKM.svg"
   width="19.973249"
   height="10.639483">
  <metadata
     id="metadata10">
    <rdf:RDF>
      <cc:Work
         rdf:about="">
        <dc:format>image/svg+xml</dc:format>
        <dc:type
           rdf:resource="http://purl.org/dc/dcmitype/StillImage" />
      </cc:Work>
    </rdf:RDF>
  </metadata>
  <defs
     id="defs8" />
  <sodipodi:namedview
     pagecolor="#ffffff"
     bordercolor="#666666"
     borderopacity="1"
     objecttolerance="10"
     gridtolerance="10"
     guidetolerance="10"
     inkscape:pageopacity="0"
     inkscape:pageshadow="2"
     inkscape:window-width="480"
     inkscape:window-height="419"
     id="namedview6"
     showgrid="false"
     inkscape:zoom="2.36"
     inkscape:cx="-152.67016"
     inkscape:cy="27.837278"
     inkscape:window-x="0"
     inkscape:window-y="0"
     inkscape:window-maximized="0"
     inkscape:current-layer="svg2" />
  <path
     d="m 12.385215,10.099881 -0.12479,-1.1968351 -1.06017,-0.0509 -1.62543,-1.259527 -1.13579,-0.155479 -1.57258,-0.720953 -1.0113,-0.131079 -0.62434,0.264914 -0.95118,-0.04123 -1.01159,0.813079 -1.24972,0.275204 -0.26465,-1.005821 0.20681,-1.487583 -1.10918998,-0.481395 0.36519998,-0.973814 -0.94411998,-0.08298 0.31471,-1.198783 1.34098998,0.34914 1.24972,-0.455083 L 2.141655,1.7071439 1.734045,0.89365988 0.58921502,1.2564329 0.44405502,2.2985609 -4.9794789e-6,1.3770389 0.62838502,0.90383888 2.242785,0.60790988 l 0.96132,0.39841802 0.99542,1.115182 0.72952,-0.06938 1.60455,-0.01944 -0.2335,-0.716396 L 7.515125,0.82630088 8.713315,-8.1166605e-6 10.629635,0.75159288 l 0.15206,1.13484202 0.54416,0.291298 1.53775,-0.06548 0.4772,0.258153 0.69909,1.466269 1.62667,0.982229 0.92759,0.669653 1.48732,0.696479 1.89177,0.608725 -0.0392,0.870259 -0.4284,-0.0441 -0.67094,-0.380265 -0.22284,0.506236 -1.19871,0.275056 -0.28391,1.137414 -0.80154,0.432521 -1.12265,0.214459 -0.29706,0.6444441 -1.07237,0.189692 -1.45044,-0.539603 z"
     style="fill:#ffcc00"
     id="path4"
     inkscape:connector-curvature="0" />
</svg>
