<?xml version="1.0" encoding="UTF-8" standalone="no"?>
<svg
   xmlns:dc="http://purl.org/dc/elements/1.1/"
   xmlns:cc="http://creativecommons.org/ns#"
   xmlns:rdf="http://www.w3.org/1999/02/22-rdf-syntax-ns#"
   xmlns:svg="http://www.w3.org/2000/svg"
   xmlns="http://www.w3.org/2000/svg"
   xmlns:sodipodi="http://sodipodi.sourceforge.net/DTD/sodipodi-0.dtd"
   xmlns:inkscape="http://www.inkscape.org/namespaces/inkscape"
   id="svg2"
   version="1.1"
   inkscape:version="0.91 r13725"
   sodipodi:docname="TZA.svg"
   width="15.611154"
   height="15.318667">
  <metadata
     id="metadata10">
    <rdf:RDF>
      <cc:Work
         rdf:about="">
        <dc:format>image/svg+xml</dc:format>
        <dc:type
           rdf:resource="http://purl.org/dc/dcmitype/StillImage" />
      </cc:Work>
    </rdf:RDF>
  </metadata>
  <defs
     id="defs8" />
  <sodipodi:namedview
     pagecolor="#ffffff"
     bordercolor="#666666"
     borderopacity="1"
     objecttolerance="10"
     gridtolerance="10"
     guidetolerance="10"
     inkscape:pageopacity="0"
     inkscape:pageshadow="2"
     inkscape:window-width="480"
     inkscape:window-height="419"
     id="namedview6"
     showgrid="false"
     inkscape:zoom="2.36"
     inkscape:cx="-119.728"
     inkscape:cy="94.669778"
     inkscape:window-x="0"
     inkscape:window-y="0"
     inkscape:window-maximized="0"
     inkscape:current-layer="svg2" />
  <path
     d="M 6.4906134,-1.1111111e-6 6.7308434,0.15618889 11.887913,3.0534989 l 0.097,0.82507 2.04135,1.42173 -0.65661,1.75243 0.0842,0.80599 0.91054,0.51817 0.0427,0.36978 -0.39155,0.85888 0.0815,0.4322301 -0.0932,0.67939 0.49667,0.89154 0.5886,1.40235 0.52194,0.31104 -1.13151,0.82457 -1.55512,0.55229 -0.85321,-0.0233 -0.50681,0.42663 -0.99006,0.0367 -0.3713,0.17977 -1.7090596,-0.40077 -1.0701,0.11502 -0.3982,-1.93425 -0.48237,-0.66322 -0.28603,-0.39328 -1.39427,-0.26532 -0.80712,-0.42701 -0.90385,-0.23937 -0.56689,-0.23818 -0.59414,-0.36207 -0.768,-1.7920001 -0.82488998,-0.79644 -0.28445,-0.82489 0.14221,-0.73959 -0.255979996569,-1.30843 0.588109996569,-0.0677 0.51598998,-0.51523 0.55356,-0.74175 0.35086,-0.29762 -0.0131,-0.46223 -0.30627,-0.3224 -0.0825,-0.56006 0.41051,-0.18002 0.0822,-0.83675 -0.56466,-0.80249001 0.49885,-0.17082 1.5592,0.0182 2.89783,-0.110020001111 z"
     style="fill:#ffcc00"
     id="path4"
     inkscape:connector-curvature="0" />
</svg>
