<?xml version="1.0" encoding="UTF-8" standalone="no"?>
<svg
   xmlns:dc="http://purl.org/dc/elements/1.1/"
   xmlns:cc="http://creativecommons.org/ns#"
   xmlns:rdf="http://www.w3.org/1999/02/22-rdf-syntax-ns#"
   xmlns:svg="http://www.w3.org/2000/svg"
   xmlns="http://www.w3.org/2000/svg"
   xmlns:sodipodi="http://sodipodi.sourceforge.net/DTD/sodipodi-0.dtd"
   xmlns:inkscape="http://www.inkscape.org/namespaces/inkscape"
   id="svg2"
   version="1.1"
   inkscape:version="0.91 r13725"
   sodipodi:docname="USA.svg"
   width="149.0865"
   height="74.583572">
  <metadata
     id="metadata10">
    <rdf:RDF>
      <cc:Work
         rdf:about="">
        <dc:format>image/svg+xml</dc:format>
        <dc:type
           rdf:resource="http://purl.org/dc/dcmitype/StillImage" />
      </cc:Work>
    </rdf:RDF>
  </metadata>
  <defs
     id="defs8" />
  <sodipodi:namedview
     pagecolor="#ffffff"
     bordercolor="#666666"
     borderopacity="1"
     objecttolerance="10"
     gridtolerance="10"
     guidetolerance="10"
     inkscape:pageopacity="0"
     inkscape:pageshadow="2"
     inkscape:window-width="480"
     inkscape:window-height="419"
     id="namedview6"
     showgrid="false"
     inkscape:zoom="2.36"
     inkscape:cx="166.32514"
     inkscape:cy="51.096974"
     inkscape:window-x="0"
     inkscape:window-y="0"
     inkscape:window-maximized="0"
     inkscape:current-layer="svg2" />
  <path
     d="m 23.10969,74.345647 -0.20773,0.23792 -0.353394,-0.20366 0.04066,-0.39749 -0.235249,-0.517779 0.07081,-0.158265 0.246898,-0.231922 -0.09812,-0.279694 0.08247,-0.132636 0.108132,0.02632 0.544583,0.240284 0.252615,0.12335 0.23077,0.190464 0.362453,0.498328 -0.03422,0.0788 -0.555663,0.30373 -0.455025,0.22222 m -0.763947,-2.219368 -0.476715,0.101774 -0.24502,-0.299505 -0.16347,-0.115627 -0.01263,-0.08883 0.139335,-0.121927 0.505558,0.135168 0.37184,0.218183 -0.118898,0.170766 m -0.96566,-0.757859 -0.04422,0.153756 -0.762141,-0.0413 0.106582,-0.173241 0.699776,0.06079 m -1.272306,-0.206692 -0.07708,0.08213 -0.101788,-0.0183 -0.495033,-0.04999 -0.180807,-0.322489 -0.05525,-0.05679 0.380373,-0.196039 0.118883,0.09136 0.41071,0.470116 m -2.406813,-0.938425 -0.168675,0.140814 -0.47899,-0.259328 0.07358,-0.103637 0.216989,-0.139349 0.327836,0.03021 0.02925,0.331292 m 91.772501,-38.978915 0.25256,0.780871 0.44211,0.240725 0.9931,0.08744 1.4519,0.226503 1.37956,0.440889 1.152,-0.184889 1.74933,0.369778 0.46518,-0.01395 1.27261,-0.402645 1.3345,0.51615 1.39066,0.549919 1.15147,0.473769 1.10404,0.455304 0.13773,0.374018 0.33492,0.139972 -0.087,0.14092 0.38144,0.04385 0.27674,-0.147137 0.0715,0.336792 0.28599,0.225411 0.39059,0 0.20847,0.173853 -0.17536,0.252861 1.48185,0.667558 0.30316,1.29069 0.28462,1.235787 -0.4158,0.840658 -0.66844,0.782222 -0.31289,0.497778 -0.0313,0.148365 0.15956,0.203214 0.48316,0.224271 0.35671,0 1.65195,-0.759354 1.46532,-0.223536 1.86039,-0.70743 0.0275,-0.144197 -0.128,-0.433778 -0.22994,-0.279238 0.64198,-0.225778 1.39719,-0.0056 1.30538,3.85e-4 0.45516,-0.554203 0.17778,-0.110722 1.50299,-1.024199 0.64172,-0.261732 2.1606,-0.0098 2.62083,-0.0012 0.14231,-0.351005 0.45536,-0.07145 0.60419,-0.220103 0.50489,-0.647111 0.43382,-1.106589 1.08481,-1.073367 0.47248,0.373733 0.95369,-0.241578 0.63144,0.410311 -0.001,1.939271 0.93003,0.803954 0.24569,0.466247 -1.51874,0.689067 -1.4613,0.490951 -1.50211,0.420906 -0.75279,0.844532 -0.24094,0.319913 -0.0144,0.754204 0.46933,0.753778 0.59022,0.03556 -0.14933,-0.519112 0.42671,0.315976 -0.11387,0.406272 -0.95995,0.230641 -0.68322,-0.02766 -1.05189,0.248107 -0.61867,0.07111 -0.82692,0.07019 -1.18553,0.411801 2.08888,-0.267915 0.42135,0.269482 -1.99111,0.426667 -0.90596,0.0028 0.0422,-0.174578 -0.4329,0.394297 0.41851,0.06525 -0.30711,1.021682 -1.03489,1.094713 -0.10577,-0.365312 -0.31234,-0.07403 -0.46653,-0.355626 0.29589,0.765866 0.35295,0.25311 0.0215,0.537475 -0.45617,0.55269 -0.80037,1.135815 -0.12947,-0.05648 0.43978,-0.967752 -0.7265,-0.543523 -0.16659,-1.181561 -0.2741,0.614948 0.3035,0.902193 -0.93962,-0.222907 0.97903,0.458022 0.061,1.353308 0.40809,0.09833 0.14757,0.492103 0.19989,1.422948 -0.90409,1.055573 -1.47122,0.421731 -0.93487,0.834191 -0.71024,0.09122 -0.7201,0.522496 -0.20323,0.477241 -1.56126,0.923072 -0.80164,0.677056 -0.67031,0.843107 -0.2192,1.010489 0.25132,0.987691 0.47461,1.21674 0.63205,1.006748 0.008,0.614585 0.67337,1.649778 -0.0448,0.958912 -0.0619,0.55323 -0.3548,0.86843 -0.4252,0.179428 -0.6998,-0.172407 -0.22453,-0.623986 -0.54044,-0.327111 -0.75378,-1.223111 -0.66155,-1.088057 -0.21349,-0.556373 0.29193,-0.944014 -0.39822,-0.782223 -1.10875,-1.189774 -0.55525,-0.218226 -1.43477,0.645476 -0.25461,-0.07107 -0.69014,-0.663452 -0.89159,-0.351844 -1.60763,0.178731 -1.26216,-0.157255 -1.08469,0.09802 -0.58786,0.221846 0.25613,0.378033 -0.0231,0.576782 0.30198,0.280974 -0.27102,0.18698 -0.52771,-0.209821 -0.53383,0.26981 -1.03196,-0.04424 -1.06177,-0.751595 -1.24057,0.177351 -1.0344,-0.329173 -0.88469,0.09973 -1.19692,0.332274 -1.29459,1.054393 -1.41338,0.613191 -0.77647,0.679083 -0.32711,0.64 -0.0142,0.981333 0.0711,0.682667 0.27022,0.483555 -0.55467,0.04267 -1.00977,-0.312889 -1.10934,-0.440889 -0.39822,-0.668444 -0.31289,-0.995556 -0.83911,-0.810667 -0.49186,-0.833593 -0.71362,-0.973639 -1.002378,-0.566883 -1.162809,0.02745 -0.896,1.123555 -1.180445,-0.426666 -0.735246,-0.429455 -0.35382,-0.781895 -0.471638,-0.742812 -0.845113,-0.625508 -0.727196,-0.449593 -0.51867,-0.504277 -2.463872,-4.75e-4 -0.0028,0.586857 -1.127908,3.98e-4 -2.828245,0.01027 -3.244615,-1.001842 -2.147584,-0.691399 0.133134,-0.278116 -1.806166,0.154226 -1.616227,0.109582 -0.239186,-0.726591 -0.921689,-0.817795 -0.663612,-0.170201 -0.155438,-0.407996 -0.798016,-0.07142 -0.508929,-0.384679 -1.321159,-0.140277 -0.36278,-0.229604 -0.172757,-0.779819 -1.379897,-1.428864 -1.184569,-1.977216 0.05043,-0.329429 -0.627456,-0.469788 -1.100814,-1.191751 -0.196224,-1.159581 -0.757903,-0.776832 0.311766,-1.178766 -0.04955,-1.219726 -0.453888,-1.08992 0.555662,-1.340288 0.172949,-1.290688 0.172949,-1.290688 -0.257002,-1.907684 -0.449472,-1.216597 -0.414635,-0.660285 0.172244,-0.277735 2.056677,0.48315 0.757532,1.342578 0.351801,-0.375466 -0.227555,-1.166223 -0.483556,-1.166222 4.039111,0 4.222279,0 1.398088,0 4.335189,0 4.195555,0 4.266667,0 4.269141,1.99e-4 4.833085,-1.99e-4 4.86582,-9.95e-4 2.9435,9.95e-4 0.004,-0.546489 0.48144,-0.0068 m -82.757275,-10.989251 -1.420482,0.542102 -0.7272,-0.367036 -0.219861,-0.666236 1.291681,-0.505427 0.759538,-0.216738 0.944268,0.09606 0.602516,0.441414 -1.23046,0.675863 m -17.8813899,-3.973895 -0.87268,0.221221 -0.93236,-0.265906 -0.86321,-0.386365 1.40443,-0.243343 1.12833,0.1288 0.13549,0.545593 m -8.75021002,-5.507596 0.87783,0.270684 0.88650002,-0.146183 1.15002,0.375268 1.41236,0.190022 -0.11733,0.154892 -1.07734,0.301037 -1.08247,-0.309342 -0.54163,-0.257969 -1.25394002,0.08254 L -4.9203325e-6,11.309401 0.08459508,10.773693 M 23.784318,0.29865509 l 1.029155,0.641946 0.631693,-0.275314 2.403556,0.08533 -0.08533,0.32709101 2.176014,0.241763 1.450652,-0.142213 2.996112,0.449387 2.735462,0.133725 1.095081,0.184914 1.892359,-0.231143 2.15742,0.427486 1.545277,0.199026 -2e-6,0 -0.0093,5.279246 -0.0075,8.0976089 1.400564,0.04204 1.385241,0.393714 0.992868,0.622788 1.263488,0.934556 1.383509,-0.794866 1.427755,-0.460643 0.754958,0.735601 0.958422,0.582329 1.302131,0.641173 0.889072,1.020296 1.454379,1.622428 2.41782,0.904946 0.03952,0.897183 -0.790921,0.685859 -0.781807,-0.534973 -1.253537,-0.453503 -0.402203,-1.240491 -1.833487,-1.150423 -0.76641,-1.342834 -1.365544,-0.09194 -2.261121,-0.03484 -1.666765,-0.409295 -2.940844,-1.475935 -1.361759,-0.269875 -2.487708,-0.507632 -1.968978,0.121267 -2.79705,-0.65341 -1.690762,-0.605933 -1.57857,0.301037 0.29332,0.987962 -0.786143,0.09124 -1.645562,0.296554 -1.252104,0.479925 -1.576034,0.302066 -0.203435,-0.837921 0.639593,-1.394942 1.511506,-0.437739 -0.38993,-0.356746 -1.812947,0.792501 -0.970653,0.946546 -2.049198,1.011738 1.040584,0.690562 -1.343973,1.021659 -1.528888,0.595313 -1.423421,0.433806 -0.352374,0.629745 -2.220258,0.734403 -0.449571,0.667669 -1.664009,0.607953 -0.976202,-0.109361 -1.327394,0.396581 -1.44316,0.484335 -1.18283,0.475662 -2.4407099,0.406135 -0.2228,-0.239007 1.5557499,-0.664472 1.39141,-0.438914 1.51585,-0.777875 1.76435,-0.160808 0.701228,-0.583112 1.971366,-0.85137 0.317647,-0.284795 1.050065,-0.502157 0.245328,-1.078508 0.723341,-0.839905 -1.639902,0.43105 -0.458648,-0.244592 -0.769974,0.517113 -0.928798,-0.721357 -0.383462,0.510352 -0.531881,-0.709083 -1.42185,0.569295 -0.87309,-0.0012 -0.12244,-0.846593 0.25716,-0.521523 -0.91576,-0.506457 -1.84929,0.272594 -1.20017,-0.667632 -0.9730499,-0.341349 -0.006,-0.805546 -1.09589,-0.606043 0.55031,-0.817746 1.15949,-0.793713 0.5072599,-0.73003 1.15083,-0.103922 0.97581,0.227541 1.14726,-0.686189 1.03269,0.12248 1.08365,-0.441303 -0.26429,-0.649515 -0.79607,-0.2559849 1.05286,-0.548716 -0.87345,0.01617 -1.50916,0.309746 -0.4334,0.314083 -1.12158,-0.313679 -2.0116399,0.159596 -2.08278,-0.340945 -0.59693,-0.572052 -1.7999,-0.826455 1.99863,-0.594945 3.1723499,-0.694531 1.16935,0 -0.19355,0.710332 3.00207,-0.05534 -1.15476,-0.880989 -1.74934,-0.541624 -1.01159,-0.711031 -1.3643299,-0.606484 -1.95435,-0.449571 0.79606,-0.745463 2.5228799,-0.04623 1.79512,-0.647935 0.33856,-0.692547 1.45304,-0.675937 1.38539,-0.162645 2.695985,-0.63139901 1.307666,0.09518 L 21.632722,-1.3912794e-5 23.784593,0.29863409 Z"
     style="fill:#ffcc00"
     id="path4"
     inkscape:connector-curvature="0" />
</svg>
