<?xml version="1.0" encoding="UTF-8" standalone="no"?>
<svg
   xmlns:dc="http://purl.org/dc/elements/1.1/"
   xmlns:cc="http://creativecommons.org/ns#"
   xmlns:rdf="http://www.w3.org/1999/02/22-rdf-syntax-ns#"
   xmlns:svg="http://www.w3.org/2000/svg"
   xmlns="http://www.w3.org/2000/svg"
   xmlns:sodipodi="http://sodipodi.sourceforge.net/DTD/sodipodi-0.dtd"
   xmlns:inkscape="http://www.inkscape.org/namespaces/inkscape"
   id="svg2"
   version="1.1"
   inkscape:version="0.91 r13725"
   sodipodi:docname="UZB.svg"
   width="24.357689"
   height="12.00613">
  <metadata
     id="metadata10">
    <rdf:RDF>
      <cc:Work
         rdf:about="">
        <dc:format>image/svg+xml</dc:format>
        <dc:type
           rdf:resource="http://purl.org/dc/dcmitype/StillImage" />
      </cc:Work>
    </rdf:RDF>
  </metadata>
  <defs
     id="defs8" />
  <sodipodi:namedview
     pagecolor="#ffffff"
     bordercolor="#666666"
     borderopacity="1"
     objecttolerance="10"
     gridtolerance="10"
     guidetolerance="10"
     inkscape:pageopacity="0"
     inkscape:pageshadow="2"
     inkscape:window-width="480"
     inkscape:window-height="419"
     id="namedview6"
     showgrid="false"
     inkscape:zoom="2.36"
     inkscape:cx="-157.54335"
     inkscape:cy="25.171564"
     inkscape:window-x="0"
     inkscape:window-y="0"
     inkscape:window-maximized="0"
     inkscape:current-layer="svg2" />
  <path
     d="m 15.060891,11.696384 0.0392,-0.870259 -1.89177,-0.608725 -1.48732,-0.6964789 -0.92759,-0.669653 -1.62667,-0.982229 -0.69909,-1.466269 -0.4772,-0.258153 -1.53775,0.06548 -0.54416,-0.291298 -0.15206,-1.134842 -1.91632,-0.751601 -1.19819,0.826309 -1.21503,0.489993 0.2335,0.716396 -1.60455001,0.01944 L -9.0072763e-6,0.84045213 3.661091,-3.8735889e-6 3.926851,0.12343113 l 2.20442,1.01827897 1.16387,0.537912 1.35819,1.281907 1.66754,-0.207074 2.43916,-0.110941 1.70267,1.03882 -0.10613,1.426509 0.69299,0.01 0.28928,1.165086 1.80879,0.04615 0.38975,0.673658 0.5299,-0.009 0.62229,-1.017691 1.87582,-0.991379 0.81543,-0.262893 0.42231,0.140009 -1.19357,0.921191 1.04937,0.53534 1.01298,-0.354578 1.68577,0.749322 -1.82122,1.024268 -1.08185,-0.140119 -0.58708,0.03675 -0.20373,-0.395332 0.29648,-0.659511 -1.90169,0.330509 -0.45207,0.912592 -0.67587,0.78607 -1.18753,-0.06688 -0.36866,0.626254 1.04364,0.339328 0.30721,1.0588849 -0.79934,1.439333 -1.07266,-0.300302 -0.79243,-0.0094 z"
     style="fill:#ffcc00"
     id="path4"
     inkscape:connector-curvature="0" />
</svg>
