<?xml version="1.0" encoding="UTF-8" standalone="no"?>
<!-- Created with Inkscape (http://www.inkscape.org/) -->

<svg
   xmlns:dc="http://purl.org/dc/elements/1.1/"
   xmlns:cc="http://creativecommons.org/ns#"
   xmlns:rdf="http://www.w3.org/1999/02/22-rdf-syntax-ns#"
   xmlns:svg="http://www.w3.org/2000/svg"
   xmlns="http://www.w3.org/2000/svg"
   xmlns:sodipodi="http://sodipodi.sourceforge.net/DTD/sodipodi-0.dtd"
   xmlns:inkscape="http://www.inkscape.org/namespaces/inkscape"
   width="210mm"
   height="297mm"
   viewBox="0 0 744.09448819 1052.3622047"
   id="svg2"
   version="1.1"
   inkscape:version="0.92.4 5da689c313, 2019-01-14"
   inkscape:export-filename="/home/dakk/flyer2.png"
   inkscape:export-xdpi="66.040001"
   inkscape:export-ydpi="66.040001"
   sodipodi:docname="logo.svg">
  <defs
     id="defs4" />
  <sodipodi:namedview
     id="base"
     pagecolor="#ffffff"
     bordercolor="#666666"
     borderopacity="1.0"
     inkscape:pageopacity="0.0"
     inkscape:pageshadow="2"
     inkscape:zoom="0.9899495"
     inkscape:cx="145.61968"
     inkscape:cy="72.030215"
     inkscape:document-units="px"
     inkscape:current-layer="layer1"
     showgrid="false"
     inkscape:window-width="1366"
     inkscape:window-height="657"
     inkscape:window-x="0"
     inkscape:window-y="48"
     inkscape:window-maximized="1">
    <sodipodi:guide
       position="0,0"
       orientation="0,744.09449"
       id="guide6254"
       inkscape:locked="false" />
    <sodipodi:guide
       position="744.09449,0"
       orientation="-1052.3622,0"
       id="guide6256"
       inkscape:locked="false" />
    <sodipodi:guide
       position="744.09449,1052.3622"
       orientation="0,-744.09449"
       id="guide6258"
       inkscape:locked="false" />
    <sodipodi:guide
       position="0,1052.3622"
       orientation="1052.3622,0"
       id="guide6260"
       inkscape:locked="false" />
  </sodipodi:namedview>
  <metadata
     id="metadata7">
    <rdf:RDF>
      <cc:Work
         rdf:about="">
        <dc:format>image/svg+xml</dc:format>
        <dc:type
           rdf:resource="http://purl.org/dc/dcmitype/StillImage" />
        <dc:title />
      </cc:Work>
    </rdf:RDF>
  </metadata>
  <g
     inkscape:label="Layer 1"
     inkscape:groupmode="layer"
     id="layer1">
    <ellipse
       style="opacity:1;fill:#feb737;fill-opacity:1;stroke:none;stroke-width:3.20000005;stroke-miterlimit:4;stroke-dasharray:none;stroke-dashoffset:0;stroke-opacity:1"
       id="path4328"
       cx="323.75391"
       cy="774.31769"
       rx="74.751289"
       ry="68.942909"
       inkscape:export-filename="/home/dakk/logo_round_inv.png"
       inkscape:export-xdpi="273"
       inkscape:export-ydpi="273" />
    <path
       inkscape:connector-curvature="0"
       id="path5241-1"
       d="m 320.61356,849.69741 c -13.31857,-1.19855 -28.95663,-7.15479 -40.77066,-15.52876 -5.04116,-3.57326 -15.68296,-14.21507 -19.25622,-19.25623 -7.26053,-10.24317 -11.97913,-21.40402 -14.68389,-34.73165 -1.26046,-6.21089 -1.26046,-23.25946 0,-29.47035 2.70476,-13.32763 7.42336,-24.48848 14.68389,-34.73165 3.57326,-5.04116 14.21506,-15.68297 19.25622,-19.25623 10.24317,-7.26053 21.40403,-11.97912 34.73166,-14.68388 6.21089,-1.26046 23.25946,-1.26046 29.47034,0 13.32764,2.70476 24.48849,7.42335 34.73166,14.68388 5.04116,3.57326 15.68296,14.21507 19.25623,19.25623 7.26053,10.24317 11.97912,21.40402 14.68388,34.73165 1.26046,6.21089 1.26046,23.25946 0,29.47035 -2.70476,13.32763 -7.42335,24.48848 -14.68388,34.73165 -3.70553,5.22775 -14.30229,15.75613 -19.62996,19.50329 -9.95233,6.99982 -20.52447,11.517 -33.15013,14.16404 -4.51127,0.94583 -19.16309,1.61043 -24.63914,1.11766 z m -27.77942,-55.02303 0,-3.86496 -2.53638,-0.14604 -2.53638,-0.14602 0,-8.42936 0,-8.42936 8.21305,0 8.21304,0 0,-7.97149 c 0,-6.02772 -0.14725,-7.984 -0.6039,-8.02284 -0.33214,-0.0282 -0.93,-0.0997 -1.32858,-0.15892 -0.39857,-0.0591 -3.82269,-0.14475 -7.60914,-0.1902 l -6.88447,-0.0826 0,-8.45461 0,-8.4546 2.65716,0 2.65716,0 0,-3.86497 0,-3.86496 -13.76892,0 -13.76894,0 0,3.86496 0,3.86497 2.64796,0 c 2.34578,0 2.67807,0.12405 2.9118,1.08702 0.14511,0.59786 0.20361,11.84852 0.12998,25.00147 l -0.13385,23.91446 -2.65716,0.24157 -2.65717,0.24156 -0.14044,3.9933 -0.14044,3.99329 13.66781,-0.12833 13.66781,-0.12834 0,-3.86496 z m 33.33531,7.6e-4 0,-3.86387 -2.40496,-0.15149 c -1.32273,-0.0833 -2.48571,-0.23225 -2.58441,-0.33094 -0.0987,-0.0987 -0.14882,-3.21834 -0.1114,-6.93255 0.0374,-3.71421 -0.0732,-7.316 -0.2459,-8.00398 l -0.31396,-1.25075 -7.91911,0 -7.91912,0 0,8.21304 c 0,8.42177 -0.017,8.49577 -1.8898,8.23117 -0.3751,-0.053 -1.40777,0.0398 -2.29483,0.20622 l -1.61281,0.30256 0,3.521 c 0,1.93654 0.1483,3.66929 0.32957,3.85055 0.18126,0.18126 6.32293,0.27185 13.64815,0.2013 l 13.31858,-0.12826 0,-3.86387 z m 56.34541,2.29794 c 3.99257,-1.96616 7.27929,-5.41455 9.2017,-9.65434 1.336,-2.94647 1.43929,-3.55712 1.28799,-7.61403 -0.14476,-3.88151 -0.3617,-4.79892 -1.80836,-7.64699 -2.41168,-4.74794 -5.96928,-7.78752 -11.34154,-9.69015 -0.79574,-0.28182 -0.60995,-0.63587 1.50977,-2.87717 2.81404,-2.97543 3.63173,-4.43783 4.46654,-7.98817 1.63736,-6.96349 -2.07471,-14.24431 -8.93388,-17.52286 l -2.89872,-1.38553 -20.89495,-3.8e-4 -20.89495,-2.5e-4 0,3.84085 0,3.84085 2.77794,0.14489 2.77794,0.14489 0.13224,8.34546 0.13223,8.34545 8.08081,-0.13241 8.08081,-0.13241 0.10399,-8.21305 0.10398,-8.21304 5.45663,0.01 c 4.82725,0.009 5.66224,0.13673 7.23924,1.11138 4.54074,2.80632 5.45182,8.9698 1.89384,12.81182 -2.12128,2.2906 -3.40063,2.68836 -8.90621,2.76897 -3.99479,0.0585 -5.16445,0.22912 -5.37756,0.78449 -0.14979,0.39034 -0.27235,4.03453 -0.27235,8.09818 l 0,7.38847 1.50976,0.30194 c 0.83036,0.16608 4.52918,0.30196 8.2196,0.30196 8.02559,0 9.62131,0.61319 11.57935,4.44961 1.92586,3.7734 0.61373,8.46698 -3.0441,10.88892 -1.99165,1.31872 -2.07133,1.32912 -10.18842,1.32912 l -8.18106,0 -0.0684,-8.21305 -0.0683,-8.21305 -8.09227,-0.13246 -8.09227,-0.13246 0,8.20062 0,8.20062 -2.77794,0.14489 -2.77794,0.14489 -0.14451,3.3339 c -0.0795,1.83366 -0.0289,3.63517 0.11237,4.00337 0.21505,0.5604 4.05728,0.6469 23.58702,0.53105 l 23.33012,-0.1384 3.17985,-1.56592 z m -61.79192,-48.07456 0.13219,-8.33383 2.77794,-0.14489 2.77794,-0.14489 0,-3.84085 0,-3.84085 -13.76893,0 -13.76893,0 0,3.86496 0,3.86496 2.65716,0 2.65716,0 0.005,6.6429 c 0.003,3.65361 0.14007,7.45818 0.30477,8.45462 l 0.29946,1.8117 7.89687,0 7.89686,0 0.13219,-8.33383 z"
       style="fill:#ffffff;fill-opacity:1"
       inkscape:export-filename="/home/dakk/logo_round_inv.png"
       inkscape:export-xdpi="273.14001"
       inkscape:export-ydpi="273.14001" />
    <ellipse
       style="opacity:1;fill:#ffffff;fill-opacity:1;stroke:none;stroke-width:3.20000005;stroke-miterlimit:4;stroke-dasharray:none;stroke-dashoffset:0;stroke-opacity:1"
       id="path4339"
       cx="109.09647"
       cy="773.60071"
       rx="80.812202"
       ry="64.144684"
       inkscape:export-filename="/home/dakk/logo_round.png"
       inkscape:export-xdpi="273"
       inkscape:export-ydpi="273" />
    <path
       inkscape:connector-curvature="0"
       id="path5241"
       d="M 101.08389,850.88617 C 87.765319,849.68762 72.127254,843.73138 60.313233,835.35741 55.27207,831.78415 44.630268,821.14234 41.057008,816.10118 33.796477,805.85801 29.077881,794.69716 26.373122,781.36953 c -1.260459,-6.21089 -1.260459,-23.25946 0,-29.47035 2.704759,-13.32763 7.423355,-24.48848 14.683886,-34.73165 3.57326,-5.04116 14.215062,-15.68297 19.256225,-19.25623 10.24317,-7.26053 21.404023,-11.97912 34.731656,-14.68388 6.210891,-1.26046 23.259461,-1.26046 29.470341,0 13.32764,2.70476 24.48849,7.42335 34.73166,14.68388 5.04116,3.57326 15.68296,14.21507 19.25623,19.25623 7.26053,10.24317 11.97912,21.40402 14.68388,34.73165 1.26046,6.21089 1.26046,23.25946 0,29.47035 -2.70476,13.32763 -7.42335,24.48848 -14.68388,34.73165 -3.70553,5.22775 -14.30229,15.75614 -19.62996,19.50329 -9.95233,6.99983 -20.52447,11.517 -33.15013,14.16405 -4.51127,0.94582 -19.16309,1.61043 -24.63914,1.11765 z m -27.779417,-55.02303 0,-3.86496 -2.536382,-0.14604 -2.536382,-0.14602 0,-8.42936 0,-8.42936 8.213047,0 8.213045,0 0,-7.97149 c 0,-6.02772 -0.147254,-7.984 -0.6039,-8.02284 -0.332145,-0.0282 -0.930007,-0.0997 -1.328581,-0.15892 -0.398574,-0.0591 -3.82269,-0.14475 -7.609145,-0.1902 l -6.884466,-0.0826 0,-8.45461 0,-8.4546 2.657163,0 2.657161,0 0,-3.86497 0,-3.86496 -13.768929,0 -13.768931,0 0,3.86496 0,3.86497 2.647958,0 c 2.345775,0 2.678066,0.12405 2.911797,1.08702 0.145112,0.59786 0.203606,11.84852 0.129985,25.00147 l -0.133856,23.91446 -2.657161,0.24157 -2.657163,0.24156 -0.14044,3.9933 -0.14044,3.99329 13.66781,-0.12833 13.66781,-0.12834 0,-3.86496 z m 33.335307,7.6e-4 0,-3.86387 -2.40496,-0.15149 c -1.32273,-0.0833 -2.48571,-0.23225 -2.58441,-0.33094 -0.0987,-0.0987 -0.14882,-3.21834 -0.1114,-6.93255 0.0374,-3.71421 -0.0732,-7.316 -0.2459,-8.00398 l -0.31396,-1.25075 -7.919115,0 -7.919113,0 0,8.21304 c 0,8.42177 -0.01701,8.49577 -1.889808,8.23117 -0.375099,-0.053 -1.407769,0.0398 -2.294821,0.20622 l -1.612816,0.30256 0,3.521 c 0,1.93654 0.148304,3.66929 0.329571,3.85055 0.181261,0.18126 6.322929,0.27185 13.64815,0.2013 l 13.318582,-0.12826 0,-3.86387 z m 56.34541,2.29794 c 3.99257,-1.96616 7.27929,-5.41455 9.2017,-9.65434 1.336,-2.94647 1.43929,-3.55712 1.28799,-7.61403 -0.14476,-3.88151 -0.3617,-4.79892 -1.80836,-7.64699 -2.41168,-4.74794 -5.96928,-7.78752 -11.34154,-9.69015 -0.79574,-0.28182 -0.60995,-0.63587 1.50977,-2.87717 2.81404,-2.97543 3.63173,-4.43783 4.46654,-7.98817 1.63736,-6.96349 -2.07471,-14.24431 -8.93388,-17.52286 l -2.89872,-1.38553 -20.89495,-3.8e-4 -20.89495,-2.5e-4 0,3.84085 0,3.84085 2.77794,0.14489 2.77794,0.14489 0.13224,8.34546 0.13223,8.34545 8.08081,-0.13241 8.08081,-0.13241 0.10399,-8.21305 0.10398,-8.21304 5.45663,0.01 c 4.82725,0.009 5.66224,0.13673 7.23924,1.11138 4.54074,2.80632 5.45182,8.9698 1.89384,12.81182 -2.12128,2.2906 -3.40063,2.68836 -8.90621,2.76897 -3.99479,0.0585 -5.16445,0.22912 -5.37756,0.78449 -0.14979,0.39034 -0.27235,4.03453 -0.27235,8.09818 l 0,7.38847 1.50976,0.30194 c 0.83036,0.16608 4.52918,0.30196 8.2196,0.30196 8.02559,0 9.62131,0.61319 11.57935,4.44961 1.92586,3.7734 0.61373,8.46698 -3.0441,10.88892 -1.99165,1.31872 -2.07133,1.32912 -10.18842,1.32912 l -8.18106,0 -0.0684,-8.21305 -0.0683,-8.21305 -8.09227,-0.13246 -8.09227,-0.13246 0,8.20062 0,8.20062 -2.77794,0.14489 -2.77794,0.14489 -0.14451,3.3339 c -0.0795,1.83366 -0.0289,3.63517 0.11237,4.00337 0.21505,0.5604 4.05728,0.6469 23.58702,0.53105 l 23.33012,-0.1384 3.17985,-1.56592 z m -61.79192,-48.07456 0.13219,-8.33383 2.77794,-0.14489 2.77794,-0.14489 0,-3.84085 0,-3.84085 -13.768935,0 -13.768928,0 0,3.86496 0,3.86496 2.657163,0 2.657161,0 0.0053,6.6429 c 0.0029,3.65361 0.140072,7.45818 0.304772,8.45462 l 0.299453,1.8117 7.896872,0 7.896862,0 0.13219,-8.33383 z"
       style="fill:#feb737;fill-opacity:1"
       inkscape:export-filename="/home/dakk/logo_round.png"
       inkscape:export-xdpi="273.14001"
       inkscape:export-ydpi="273.14001" />
    <rect
       style="opacity:1;fill:#feb737;fill-opacity:1;stroke:none;stroke-width:3.20000005;stroke-miterlimit:4;stroke-dasharray:none;stroke-dashoffset:0;stroke-opacity:1"
       id="rect4359"
       width="172"
       height="172"
       x="41.706772"
       y="882.14374"
       ry="22.543024"
       inkscape:export-filename="/home/dakk/logo_96.png"
       inkscape:export-xdpi="50.23"
       inkscape:export-ydpi="50.23" />
    <ellipse
       style="opacity:1;fill:#feb737;fill-opacity:0;stroke:none;stroke-width:3.20000005;stroke-miterlimit:4;stroke-dasharray:none;stroke-dashoffset:0;stroke-opacity:1"
       id="path4339-6"
       cx="221.04286"
       cy="980.17694"
       rx="80.812202"
       ry="64.144684"
       inkscape:export-filename="/home/dakk/logo_quad.png"
       inkscape:export-xdpi="267.90698"
       inkscape:export-ydpi="267.90698" />
    <ellipse
       style="opacity:1;fill:#ffffff;fill-opacity:1;stroke:none;stroke-width:3.20000005;stroke-miterlimit:4;stroke-dasharray:none;stroke-dashoffset:0;stroke-opacity:1"
       id="path4361"
       cx="127.70677"
       cy="968.14368"
       rx="80.054596"
       ry="71.468292"
       inkscape:export-filename="/home/dakk/logo_96.png"
       inkscape:export-xdpi="50.23"
       inkscape:export-ydpi="50.23" />
    <path
       inkscape:connector-curvature="0"
       id="path5241-8"
       d="m 119.01059,1052.3622 c -13.31857,-1.1986 -28.956627,-7.1548 -40.770647,-15.5288 -5.04117,-3.5732 -15.68297,-14.215 -19.25623,-19.2562 -7.26053,-10.2432 -11.97913,-21.40398 -14.68389,-34.73168 -1.26046,-6.2109 -1.26046,-23.2595 0,-29.4704 2.70476,-13.3275 7.42336,-24.48834 14.68389,-34.7315 3.57326,-5.0412 14.21506,-15.68297 19.25623,-19.25623 10.24317,-7.26053 21.40402,-11.97912 34.731647,-14.68388 6.21089,-1.26046 23.25946,-1.26046 29.47034,0 13.32764,2.70476 24.48849,7.42335 34.73166,14.68388 5.04116,3.57326 15.68296,14.21503 19.25623,19.25623 7.26053,10.24316 11.97912,21.404 14.68388,34.7315 1.26046,6.2109 1.26046,23.2595 0,29.4704 -2.70476,13.3277 -7.42335,24.48848 -14.68388,34.73168 -3.70553,5.2277 -14.30229,15.7561 -19.62996,19.5033 -9.95233,6.9998 -20.52447,11.517 -33.15013,14.164 -4.51127,0.9459 -19.16309,1.6105 -24.63914,1.1177 z M 91.231183,997.33912 v -3.8649 l -2.53639,-0.1461 -2.53638,-0.146 v -8.4293 -8.4295 h 8.21305 8.213037 v -7.9715 c 0,-6.0276 -0.14725,-7.9839 -0.6039,-8.0228 -0.33214,-0.028 -0.93,-0.1 -1.32858,-0.1589 -0.39857,-0.059 -3.822687,-0.1447 -7.609137,-0.1902 l -6.88447,-0.083 v -8.4546 -8.4546 h 2.65717 2.65716 v -3.86494 -3.8649 h -13.76893 -13.76893 v 3.8649 3.86494 h 2.64795 c 2.34578,0 2.67807,0.1241 2.9118,1.087 0.14511,0.5979 0.20361,11.8485 0.12999,25.0015 l -0.13386,23.9145 -2.65716,0.2416 -2.65716,0.2415 -0.14044,3.9933 -0.14044,3.99328 13.66781,-0.1283 13.66781,-0.1283 v -3.86498 z m 33.335297,8e-4 v -3.8639 l -2.40496,-0.1515 c -1.32273,-0.083 -2.48571,-0.2322 -2.58441,-0.3309 -0.0987,-0.099 -0.14882,-3.2183 -0.1114,-6.9326 0.0374,-3.7142 -0.0732,-7.316 -0.2459,-8.004 l -0.31396,-1.2508 h -7.91911 -7.91911 v 8.2132 c 0,8.4217 -0.017,8.4957 -1.88981,8.2311 -0.3751,-0.053 -1.407767,0.04 -2.294817,0.2062 l -1.61282,0.3026 v 3.521 c 0,1.9366 0.1483,3.66928 0.32957,3.85058 0.18126,0.1812 6.322927,0.2718 13.648147,0.2013 l 13.31858,-0.1283 v -3.86388 z m 56.34541,2.298 c 3.99257,-1.9662 7.27929,-5.4146 9.2017,-9.6544 1.336,-2.9465 1.43929,-3.5571 1.28799,-7.6141 -0.14476,-3.8815 -0.3617,-4.7989 -1.80836,-7.647 -2.41168,-4.7479 -5.96928,-7.7875 -11.34154,-9.6901 -0.79574,-0.2818 -0.60995,-0.6359 1.50977,-2.8772 2.81404,-2.9754 3.63173,-4.4378 4.46654,-7.9881 1.63736,-6.9635 -2.07471,-14.2443 -8.93388,-17.52284 l -2.89872,-1.3855 -20.89495,-4e-4 -20.89495,-3e-4 v 3.8409 3.84074 l 2.77794,0.1449 2.77794,0.1449 0.13224,8.3455 0.13223,8.3454 8.08081,-0.1324 8.08081,-0.1324 0.10399,-8.213 0.10398,-8.2131 5.45663,0.01 c 4.82725,0.01 5.66224,0.1367 7.23924,1.1114 4.54074,2.8063 5.45182,8.9698 1.89384,12.8118 -2.12128,2.2906 -3.40063,2.6884 -8.90621,2.769 -3.99479,0.059 -5.16445,0.2291 -5.37756,0.7845 -0.14979,0.3903 -0.27235,4.0345 -0.27235,8.0981 v 7.3885 l 1.50976,0.3019 c 0.83036,0.1661 4.52918,0.302 8.2196,0.302 8.02559,0 9.62131,0.6132 11.57935,4.4496 1.92586,3.7735 0.61373,8.467 -3.0441,10.889 -1.99165,1.3187 -2.07133,1.3291 -10.18842,1.3291 h -8.18106 l -0.0684,-8.213 -0.0683,-8.2132 -8.09227,-0.1324 -8.09227,-0.1325 v 8.2007 8.2006 l -2.77794,0.1449 -2.77794,0.1449 -0.14451,3.3339 c -0.0795,1.8337 -0.0289,3.63518 0.11237,4.00338 0.21505,0.5604 4.05728,0.6469 23.58702,0.531 l 23.33012,-0.1384 3.17985,-1.56588 z m -61.79192,-48.0747 0.13219,-8.3338 2.77794,-0.1449 2.77794,-0.1449 v -3.84074 -3.8409 H 111.03911 97.270183 v 3.865 3.86494 h 2.65716 2.657157 l 0.005,6.6429 c 0.003,3.6536 0.14008,7.4581 0.30478,8.4546 l 0.29945,1.8117 h 7.89687 7.89686 l 0.13219,-8.3339 z"
       style="fill:#feb737;fill-opacity:1"
       inkscape:export-filename="/home/dakk/logo_96.png"
       inkscape:export-xdpi="50.23"
       inkscape:export-ydpi="50.23" />
    <rect
       style="opacity:1;fill:#fac500;fill-opacity:1;stroke:none;stroke-width:3.20000005;stroke-miterlimit:4;stroke-dasharray:none;stroke-dashoffset:0;stroke-opacity:1"
       id="rect4359-3"
       width="172.00002"
       height="172.00002"
       x="318.71954"
       y="882.14374"
       ry="22.543024"
       inkscape:export-filename="/home/dakk/logo_fac_512.png"
       inkscape:export-xdpi="267.91"
       inkscape:export-ydpi="267.91" />
    <ellipse
       style="opacity:1;fill:#feb737;fill-opacity:0;stroke:none;stroke-width:3.20000005;stroke-miterlimit:4;stroke-dasharray:none;stroke-dashoffset:0;stroke-opacity:1"
       id="path4339-6-6"
       cx="499.94968"
       cy="947.73059"
       rx="80.812202"
       ry="64.144684"
       inkscape:export-filename="/home/dakk/logo_quad.png"
       inkscape:export-xdpi="267.90698"
       inkscape:export-ydpi="267.90698" />
    <ellipse
       style="opacity:1;fill:#ffffff;fill-opacity:1;stroke:none;stroke-width:3.20000005;stroke-miterlimit:4;stroke-dasharray:none;stroke-dashoffset:0;stroke-opacity:1"
       id="path4361-7"
       cx="404.71954"
       cy="968.14368"
       rx="80.054596"
       ry="71.4683"
       inkscape:export-filename="/home/dakk/logo_fac_512.png"
       inkscape:export-xdpi="267.91"
       inkscape:export-ydpi="267.91" />
    <path
       inkscape:connector-curvature="0"
       id="path5241-8-5"
       d="m 396.02334,1052.3622 c -13.31857,-1.1986 -28.95663,-7.1548 -40.77065,-15.5288 -5.04117,-3.5732 -15.68297,-14.215 -19.25623,-19.2562 -7.26053,-10.2432 -11.97913,-21.40389 -14.68389,-34.73159 -1.26046,-6.2109 -1.26046,-23.2595 0,-29.4704 2.70476,-13.32753 7.42336,-24.48837 14.68389,-34.73153 3.57326,-5.0412 14.21506,-15.68298 19.25623,-19.25624 10.24317,-7.26053 21.40402,-11.97912 34.73165,-14.68388 6.21089,-1.26046 23.25946,-1.26046 29.47034,0 13.32764,2.70476 24.4885,7.42335 34.73166,14.68388 5.04116,3.57326 15.68297,14.21504 19.25623,19.25624 7.26053,10.24316 11.97912,21.404 14.68388,34.73153 1.26046,6.2109 1.26046,23.2595 0,29.4704 -2.70476,13.3277 -7.42335,24.48839 -14.68388,34.73159 -3.70552,5.2277 -14.30228,15.7561 -19.62996,19.5033 -9.95233,6.9998 -20.52447,11.517 -33.15013,14.164 -4.51127,0.9459 -19.16309,1.6105 -24.63914,1.1177 z m -27.77941,-55.02299 v -3.8649 l -2.53639,-0.1461 -2.53638,-0.146 v -8.4293 -8.4295 h 8.21305 8.21304 v -7.9715 c 0,-6.0276 -0.14725,-7.9839 -0.6039,-8.0228 -0.33214,-0.028 -0.93,-0.1 -1.32858,-0.1589 -0.39857,-0.059 -3.82269,-0.1447 -7.60914,-0.1902 l -6.88447,-0.083 v -8.4546 -8.45463 h 2.65717 2.65716 v -3.86494 -3.8649 h -13.76893 -13.76893 v 3.8649 3.86494 h 2.64795 c 2.34578,0 2.67807,0.1241 2.9118,1.087 0.14511,0.5979 0.20361,11.84853 0.12999,25.00153 l -0.13386,23.9145 -2.65716,0.2416 -2.65716,0.2415 -0.14044,3.9933 -0.14044,3.99319 13.66781,-0.1283 13.66781,-0.1283 v -3.86489 z m 33.3353,8e-4 v -3.8639 l -2.40496,-0.1515 c -1.32273,-0.083 -2.48571,-0.2322 -2.58441,-0.3309 -0.0987,-0.099 -0.14882,-3.2183 -0.1114,-6.9326 0.0374,-3.7142 -0.0732,-7.316 -0.2459,-8.004 l -0.31396,-1.2508 h -7.91911 -7.91911 v 8.2132 c 0,8.4217 -0.017,8.4957 -1.88981,8.2311 -0.3751,-0.053 -1.40777,0.04 -2.29482,0.2062 l -1.61282,0.3026 v 3.521 c 0,1.9366 0.1483,3.66919 0.32957,3.85049 0.18126,0.1812 6.32293,0.2718 13.64815,0.2013 l 13.31858,-0.1283 v -3.86379 z m 56.34541,2.298 c 3.99258,-1.9662 7.27929,-5.4146 9.2017,-9.6544 1.33601,-2.9465 1.43929,-3.5571 1.288,-7.6141 -0.14476,-3.8815 -0.36171,-4.7989 -1.80837,-7.647 -2.41168,-4.7479 -5.96927,-7.7875 -11.34153,-9.6901 -0.79574,-0.2818 -0.60996,-0.6359 1.50976,-2.8772 2.81404,-2.9754 3.63173,-4.4378 4.46655,-7.9881 1.63735,-6.96353 -2.07472,-14.24433 -8.93388,-17.52287 l -2.89872,-1.3855 -20.89496,-4e-4 -20.89495,-3e-4 v 3.8409 3.84074 l 2.77794,0.1449 2.77794,0.1449 0.13224,8.34553 0.13224,8.3454 8.0808,-0.1324 8.08081,-0.1324 0.10399,-8.213 0.10398,-8.21313 5.45663,0.01 c 4.82725,0.01 5.66224,0.1367 7.23924,1.1114 4.54074,2.8063 5.45182,8.96983 1.89384,12.81183 -2.12128,2.2906 -3.40063,2.6884 -8.90621,2.769 -3.99479,0.059 -5.16444,0.2291 -5.37756,0.7845 -0.14979,0.3903 -0.27235,4.0345 -0.27235,8.0981 v 7.3885 l 1.50976,0.3019 c 0.83036,0.1661 4.52918,0.302 8.21961,0.302 8.02559,0 9.62131,0.6132 11.57934,4.4496 1.92586,3.7735 0.61373,8.467 -3.0441,10.889 -1.99164,1.3187 -2.07133,1.3291 -10.18842,1.3291 h -8.18106 l -0.0684,-8.213 -0.0683,-8.2132 -8.09227,-0.1324 -8.09227,-0.1325 v 8.2007 8.2006 l -2.77794,0.1449 -2.77794,0.1449 -0.14451,3.3339 c -0.0795,1.8337 -0.0289,3.63509 0.11237,4.00329 0.21505,0.5604 4.05728,0.6469 23.58702,0.531 l 23.33012,-0.1384 3.17985,-1.56579 z m -61.79192,-48.0747 0.13219,-8.33383 2.77794,-0.1449 2.77794,-0.1449 v -3.84074 -3.8409 h -13.76893 -13.76893 v 3.865 3.86494 h 2.65716 2.65716 l 0.005,6.64293 c 0.003,3.6536 0.14008,7.4581 0.30478,8.4546 l 0.29945,1.8117 h 7.89687 7.89686 l 0.13219,-8.3339 z"
       style="fill:#fac500;fill-opacity:1;stroke-width:1"
       inkscape:export-filename="/home/dakk/logo_fac_512.png"
       inkscape:export-xdpi="267.91"
       inkscape:export-ydpi="267.91" />
    <ellipse
       style="opacity:1;fill:#ffffff;fill-opacity:1;stroke:none;stroke-width:3.20000005;stroke-miterlimit:4;stroke-dasharray:none;stroke-dashoffset:0;stroke-opacity:1"
       id="path4339-3"
       cx="553.32196"
       cy="778.97797"
       rx="80.812202"
       ry="64.144684"
       inkscape:export-filename="/home/dakk/logo_round_fac_192.png"
       inkscape:export-xdpi="102.43"
       inkscape:export-ydpi="102.43" />
    <path
       inkscape:connector-curvature="0"
       id="path5241-5"
       d="m 545.30936,856.26341 c -13.31857,-1.19855 -28.95663,-7.15479 -40.77065,-15.52876 -5.04117,-3.57326 -15.68297,-14.21507 -19.25623,-19.25623 -7.26053,-10.24318 -11.97913,-21.40402 -14.68389,-34.73165 -1.26046,-6.2109 -1.26046,-23.25947 0,-29.47036 2.70476,-13.32763 7.42336,-24.48848 14.68389,-34.73165 3.57326,-5.04116 14.21506,-15.68297 19.25623,-19.25623 10.24317,-7.26053 21.40402,-11.97912 34.73165,-14.68388 6.21089,-1.26046 23.25947,-1.26046 29.47035,0 13.32764,2.70476 24.48848,7.42335 34.73166,14.68388 5.04116,3.57326 15.68296,14.21507 19.25623,19.25623 7.26053,10.24317 11.97912,21.40402 14.68388,34.73165 1.26046,6.21089 1.26046,23.25946 0,29.47036 -2.70476,13.32763 -7.42335,24.48847 -14.68388,34.73165 -3.70554,5.22775 -14.3023,15.75614 -19.62996,19.50329 -9.95233,6.99983 -20.52447,11.517 -33.15013,14.16405 -4.51128,0.94582 -19.1631,1.61043 -24.63915,1.11765 z m -27.77941,-55.02303 v -3.86496 l -2.53639,-0.14604 -2.53638,-0.14603 v -8.42935 -8.42937 h 8.21305 8.21304 v -7.97149 c 0,-6.02772 -0.14725,-7.984 -0.6039,-8.02284 -0.33214,-0.0282 -0.93,-0.0997 -1.32858,-0.15892 -0.39857,-0.0591 -3.82269,-0.14475 -7.60914,-0.1902 l -6.88447,-0.0826 v -8.45461 -8.4546 h 2.65716 2.65717 v -3.86496 -3.86496 h -13.76893 -13.76894 v 3.86496 3.86497 h 2.64796 c 2.34578,0 2.67807,0.12405 2.9118,1.08702 0.14511,0.59786 0.2036,11.84852 0.12998,25.00147 l -0.13385,23.91446 -2.65716,0.24156 -2.65717,0.24157 -0.14044,3.9933 -0.14044,3.99329 13.66782,-0.12833 13.66781,-0.12834 v -3.86496 z m 33.3353,7.6e-4 v -3.86387 l -2.40496,-0.15149 c -1.32273,-0.0833 -2.48571,-0.23225 -2.58441,-0.33094 -0.0987,-0.0987 -0.14882,-3.21834 -0.1114,-6.93255 0.0374,-3.71422 -0.0732,-7.31601 -0.2459,-8.00398 l -0.31396,-1.25076 h -7.91911 -7.91911 v 8.21305 c 0,8.42177 -0.017,8.49577 -1.88981,8.23117 -0.3751,-0.053 -1.40777,0.0399 -2.29482,0.20622 l -1.61282,0.30255 v 3.52101 c 0,1.93654 0.1483,3.66929 0.32957,3.85055 0.18126,0.18126 6.32293,0.27184 13.64815,0.2013 l 13.31858,-0.12826 v -3.86387 z m 56.34542,2.29794 c 3.99256,-1.96616 7.27929,-5.41455 9.2017,-9.65434 1.33599,-2.94647 1.43929,-3.55712 1.28798,-7.61404 -0.14476,-3.88151 -0.36169,-4.79892 -1.80835,-7.64699 -2.41168,-4.74794 -5.96929,-7.78752 -11.34155,-9.69015 -0.79574,-0.28182 -0.60994,-0.63587 1.50977,-2.87717 2.81405,-2.97543 3.63174,-4.43783 4.46654,-7.98817 1.63737,-6.96349 -2.0747,-14.24431 -8.93388,-17.52286 l -2.89872,-1.38553 -20.89494,-3.8e-4 -20.89496,-2.5e-4 v 3.84085 3.84085 l 2.77794,0.14489 2.77794,0.14489 0.13224,8.34546 0.13224,8.34545 8.0808,-0.13241 8.08081,-0.13241 0.104,-8.21305 0.10398,-8.21304 5.45662,0.01 c 4.82725,0.009 5.66225,0.13673 7.23925,1.11138 4.54074,2.80632 5.45182,8.9698 1.89384,12.81182 -2.12128,2.2906 -3.40063,2.68836 -8.90621,2.76897 -3.99479,0.0585 -5.16446,0.22912 -5.37756,0.78449 -0.14979,0.39034 -0.27235,4.03453 -0.27235,8.09818 v 7.38847 l 1.50976,0.30194 c 0.83036,0.16608 4.52917,0.30196 8.21959,0.30196 8.02559,0 9.62131,0.61319 11.57936,4.44961 1.92586,3.77341 0.61373,8.46699 -3.0441,10.88893 -1.99166,1.31872 -2.07133,1.32911 -10.18843,1.32911 h -8.18105 l -0.0684,-8.21304 -0.0683,-8.21306 -8.09227,-0.13246 -8.09227,-0.13246 v 8.20063 8.20062 l -2.77794,0.14488 -2.77794,0.14489 -0.14451,3.3339 c -0.0795,1.83367 -0.0289,3.63518 0.11237,4.00338 0.21505,0.5604 4.05728,0.6469 23.58702,0.53105 l 23.33012,-0.1384 3.17985,-1.56592 z m -61.79193,-48.07457 0.13219,-8.33383 2.77794,-0.14489 2.77794,-0.14489 v -3.84085 -3.84085 h -13.76893 -13.76893 v 3.86496 3.86496 h 2.65716 2.65716 l 0.005,6.6429 c 0.003,3.65361 0.14008,7.45818 0.30478,8.45462 l 0.29945,1.8117 h 7.89687 7.89686 l 0.13219,-8.33383 z"
       style="fill:#fac500;fill-opacity:1;stroke-width:1"
       inkscape:export-filename="/home/dakk/logo_round_fac_192.png"
       inkscape:export-xdpi="102.43"
       inkscape:export-ydpi="102.43" />
  </g>
</svg>
