<?xml version="1.0" encoding="utf-8"?>
<!-- Generator: Adobe Illustrator 17.0.1, SVG Export Plug-In . SVG Version: 6.00 Build 0)  -->
<!DOCTYPE svg PUBLIC "-//W3C//DTD SVG 1.1//EN" "http://www.w3.org/Graphics/SVG/1.1/DTD/svg11.dtd">
<svg version="1.1" id="hourglass1" xmlns="http://www.w3.org/2000/svg" xmlns:xlink="http://www.w3.org/1999/xlink" x="0px" y="0px"
	 viewBox="0 0 595.28 595.28" enable-background="new 0 0 595.28 595.28" xml:space="preserve">
	<g>
		<g>
			<path d="M528.331,51.622c0,11.442-9.633,20.718-21.515,20.718H88.464c-11.883,0-21.515-9.276-21.515-20.718V20.744
				c0-11.442,9.633-20.718,21.515-20.718h418.352c11.883,0,21.515,9.276,21.515,20.718V51.622z"/>
			<path d="M528.331,570.976c0,13.423-9.633,24.304-21.515,24.304H88.464c-11.883,0-21.515-10.881-21.515-24.304
				v-24.304c0-13.423,9.633-24.304,21.515-24.304h418.352c11.883,0,21.515,10.881,21.515,24.304V570.976z"/>
			<path fill="none" stroke-width="10" stroke-linecap="round" stroke-linejoin="round" stroke-miterlimit="10" d="
				M110.129,62.18c0,0,14.343,210.67,167.639,233.978c0,0-159.571,28.687-166.743,251.908h373.827c0,0-5.379-224.117-166.743-250.115
				c0,0,147.32-6.873,167.042-233.38L110.129,62.18z"/>
		</g>
		<path d="M137.927,85.133c0,0,9.191,183.373,158.427,195.189c0,0,134.211,9.045,161.053-197.523H137.873
			L137.927,85.133z"/>
	</g>
</svg>
