<?xml version="1.0" encoding="utf-8"?>
<!-- Generator: Adobe Illustrator 17.0.1, SVG Export Plug-In . SVG Version: 6.00 Build 0)  -->
<!DOCTYPE svg PUBLIC "-//W3C//DTD SVG 1.1//EN" "http://www.w3.org/Graphics/SVG/1.1/DTD/svg11.dtd">
<svg version="1.1" id="hourglass2" xmlns="http://www.w3.org/2000/svg" xmlns:xlink="http://www.w3.org/1999/xlink" x="0px" y="0px"
	 viewBox="0 0 595.28 595.28" enable-background="new 0 0 595.28 595.28" xml:space="preserve">
	<g>
		<g>
			<path d="M528.26,52.178c0,11.439-9.63,20.712-21.509,20.712H88.529c-11.879,0-21.509-9.273-21.509-20.712V20.712
				C67.021,9.273,76.65,0,88.529,0h418.222c11.879,0,21.509,9.273,21.509,20.712V52.178z"/>
			<path d="M528.26,571.371c0,13.419-9.63,24.297-21.509,24.297H88.529c-11.879,0-21.509-10.878-21.509-24.297
				v-24.297c0-13.419,9.63-24.297,21.509-24.297h418.222c11.879,0,21.509,10.878,21.509,24.297V571.371z"/>
			<path fill="none" stroke-width="10" stroke-linecap="round" stroke-linejoin="round" stroke-miterlimit="10" d="
				M110.187,62.733c0,0,14.339,210.605,167.587,233.906c0,0-159.522,28.678-166.691,251.829h373.711
				c0,0-5.377-224.047-166.691-250.037c0,0,147.274-6.871,166.99-233.308L110.187,62.733z"/>
		</g>
		<path d="M452.972,114.233C417.47,288.921,297.071,280.807,297.071,280.807
			c-112.489-8.907-145.385-115.315-154.762-167.13L452.972,114.233z"/>
		<path d="M200.091,509.638c45.859-47.767,98.268-44.235,98.268-44.235c42.743,3.384,73.994,20.846,96.83,44.041
			L200.091,509.638z"/>
	</g>
</svg>
