<?xml version="1.0" encoding="utf-8"?>
<!-- Generator: Adobe Illustrator 17.0.1, SVG Export Plug-In . SVG Version: 6.00 Build 0)  -->
<!DOCTYPE svg PUBLIC "-//W3C//DTD SVG 1.1//EN" "http://www.w3.org/Graphics/SVG/1.1/DTD/svg11.dtd">
<svg version="1.1" id="hourglass5" xmlns="http://www.w3.org/2000/svg" xmlns:xlink="http://www.w3.org/1999/xlink" x="0px" y="0px"
	 viewBox="0 0 595.28 595.28" enable-background="new 0 0 595.28 595.28" xml:space="preserve">
	<g>
		<g>
			<path d="M528.156,52.155c0,11.434-9.625,20.703-21.499,20.703H88.623c-11.873,0-21.499-9.269-21.499-20.703V20.703
				C67.124,9.269,76.75,0,88.623,0h418.033c11.873,0,21.499,9.269,21.499,20.703V52.155z"/>
			<path d="M528.156,571.113c0,13.413-9.625,24.286-21.499,24.286H88.623c-11.873,0-21.499-10.873-21.499-24.286
				v-24.286c0-13.413,9.625-24.286,21.499-24.286h418.033c11.873,0,21.499,10.873,21.499,24.286V571.113z"/>
			<path fill="none" stroke-width="10" stroke-linecap="round" stroke-linejoin="round" stroke-miterlimit="10" d="
				M110.271,62.705c0,0,14.333,210.51,167.512,233.8c0,0-159.45,28.665-166.616,251.716H484.71c0,0-5.375-223.946-166.616-249.924
				c0,0,147.207-6.868,166.915-233.203L110.271,62.705z"/>
		</g>
		<path d="M395.145,236.466c-45.838,47.745-98.224,44.215-98.224,44.215c-42.724-3.383-73.961-20.837-96.786-44.021
			L395.145,236.466z"/>
		<path d="M142.378,504.186c35.486-174.61,155.831-166.499,155.831-166.499
			c112.438,8.903,145.319,115.263,154.693,167.054L142.378,504.186z"/>
	</g>
</svg>
