<?xml version="1.0" encoding="utf-8"?>
<!-- Generator: Adobe Illustrator 17.0.1, SVG Export Plug-In . SVG Version: 6.00 Build 0)  -->
<!DOCTYPE svg PUBLIC "-//W3C//DTD SVG 1.1//EN" "http://www.w3.org/Graphics/SVG/1.1/DTD/svg11.dtd">
<svg version="1.1" id="hourglass3" xmlns="http://www.w3.org/2000/svg" xmlns:xlink="http://www.w3.org/1999/xlink" x="0px" y="0px"
	 viewBox="0 0 595.28 595.28" enable-background="new 0 0 595.28 595.28" xml:space="preserve">
	<g>
		<g>
			<path d="M527.934,52.701c0,11.423-9.616,20.683-21.478,20.683H88.824c-11.862,0-21.478-9.26-21.478-20.683V20.683
				C67.346,9.26,76.962,0,88.824,0h417.631c11.862,0,21.478,9.26,21.478,20.683V52.701z"/>
			<path d="M527.934,571.16c0,13.4-9.616,24.262-21.478,24.262H88.824c-11.862,0-21.478-10.863-21.478-24.262v-24.262
				c0-13.4,9.616-24.262,21.478-24.262h417.631c11.862,0,21.478,10.863,21.478,24.262V571.16z"/>
			<path fill="none" stroke-width="10" stroke-linecap="round" stroke-linejoin="round" stroke-miterlimit="10" d="
				M110.452,63.241c0,0,14.319,210.307,167.351,233.575c0,0-159.296,28.638-166.456,251.474H484.53c0,0-5.37-223.731-166.456-249.684
				c0,0,147.066-6.861,166.754-232.978L110.452,63.241z"/>
		</g>
		<path d="M443.317,151.503C399.721,287.92,297.143,281.007,297.143,281.007
			c-89.02-7.049-128.124-75.245-145.18-128.997L443.317,151.503z"/>
		<path d="M169.516,504.439c48.753-92.154,128.452-86.783,128.452-86.783c66.742,5.285,105.426,44.942,127.796,87.113
			L169.516,504.439z"/>
	</g>
</svg>
