<?xml version="1.0" encoding="utf-8"?>
<!-- Generator: Adobe Illustrator 17.0.1, SVG Export Plug-In . SVG Version: 6.00 Build 0)  -->
<!DOCTYPE svg PUBLIC "-//W3C//DTD SVG 1.1//EN" "http://www.w3.org/Graphics/SVG/1.1/DTD/svg11.dtd">
<svg version="1.1" id="hourglass4" xmlns="http://www.w3.org/2000/svg" xmlns:xlink="http://www.w3.org/1999/xlink" x="0px" y="0px"
	 viewBox="0 0 595.28 595.28" enable-background="new 0 0 595.28 595.28" xml:space="preserve">
	<g>
		<g>
			<path d="M528.042,52.726c0,11.428-9.621,20.692-21.488,20.692H88.726c-11.868,0-21.488-9.264-21.488-20.692V20.692
				C67.238,9.264,76.859,0,88.726,0h417.827c11.868,0,21.488,9.264,21.488,20.692V52.726z"/>
			<path d="M528.042,571.428c0,13.406-9.621,24.274-21.488,24.274H88.726c-11.868,0-21.488-10.868-21.488-24.274
				v-24.274c0-13.406,9.621-24.274,21.488-24.274h417.827c11.868,0,21.488,10.868,21.488,24.274V571.428z"/>
			<path fill="none" stroke-width="10" stroke-linecap="round" stroke-linejoin="round" stroke-miterlimit="10" d="
				M110.364,63.271c0,0,14.326,210.406,167.429,233.685c0,0-159.371,28.651-166.534,251.592h373.358
				c0,0-5.372-223.836-166.534-249.801c0,0,147.135-6.864,166.832-233.088L110.364,63.271z"/>
		</g>
		<path d="M425.824,194.316c-48.776,92.197-128.513,86.824-128.513,86.824
			c-66.774-5.287-105.475-44.963-127.856-87.154L425.824,194.316z"/>
		<path d="M151.895,506.852c43.616-136.482,146.242-129.566,146.242-129.566
			c89.062,7.052,128.184,75.281,145.248,129.058L151.895,506.852z"/>
	</g>
</svg>
