<?xml version="1.0" encoding="utf-8"?>
<!-- Generator: Adobe Illustrator 17.0.1, SVG Export Plug-In . SVG Version: 6.00 Build 0)  -->
<!DOCTYPE svg PUBLIC "-//W3C//DTD SVG 1.1//EN" "http://www.w3.org/Graphics/SVG/1.1/DTD/svg11.dtd">
<svg version="1.1" id="Livello_1" xmlns="http://www.w3.org/2000/svg" xmlns:xlink="http://www.w3.org/1999/xlink" x="0px" y="0px"
	 width="256px" height="256px" viewBox="0 0 256 256" enable-background="new 0 0 256 256" xml:space="preserve">
<g>
	<defs>
		<circle id="SVGID_1_" cx="127.991" cy="127.991" r="127.991"/>
	</defs>
	<clipPath id="SVGID_2_">
		<use xlink:href="#SVGID_1_"  overflow="visible"/>
	</clipPath>
	<rect x="-142.596" y="-53.359" clip-path="url(#SVGID_2_)" fill="#FBB430" width="541.175" height="499.354"/>
	<g clip-path="url(#SVGID_2_)">
		<g>
			<g>
				<defs>
					<rect id="SVGID_3_" x="25.905" y="116.29" width="67.287" height="93.363"/>
				</defs>
				<clipPath id="SVGID_4_">
					<use xlink:href="#SVGID_3_"  overflow="visible"/>
				</clipPath>
				<rect x="6.405" y="96.49" clip-path="url(#SVGID_4_)" fill="#C8C0C0" width="98.345" height="130.078"/>
				<rect x="43.186" y="158.119" clip-path="url(#SVGID_4_)" fill="#7F99C0" width="13.178" height="25.766"/>
				<rect x="69.063" y="158.119" clip-path="url(#SVGID_4_)" fill="#7F99C0" width="13.178" height="25.766"/>
				<rect x="13.355" y="110.127" clip-path="url(#SVGID_4_)" fill="#C33C3C" width="79.837" height="35.082"/>
			</g>
			<g>
				<defs>
					<rect id="SVGID_5_" x="162.79" y="116.29" width="67.287" height="93.363"/>
				</defs>
				<clipPath id="SVGID_6_">
					<use xlink:href="#SVGID_5_"  overflow="visible"/>
				</clipPath>
				<rect x="154.679" y="92.031" clip-path="url(#SVGID_6_)" fill="#C8C0C0" width="96.903" height="136.897"/>
				<rect x="199.617" y="158.119" clip-path="url(#SVGID_6_)" fill="#7F99C0" width="13.178" height="25.766"/>
				<rect x="173.741" y="158.119" clip-path="url(#SVGID_6_)" fill="#7F99C0" width="13.178" height="25.766"/>
				<rect x="162.79" y="110.127" clip-path="url(#SVGID_6_)" fill="#C33C3C" width="79.837" height="35.082"/>
			</g>
		</g>
		<g>
			<g>
				<rect x="90.62" y="96.49" fill="#BAB6B6" width="74.742" height="113.163"/>
				<rect x="116.485" y="171.691" fill="#4D4E4F" width="23.013" height="37.961"/>
				<g>
					<path fill="#C33C3C" d="M165.362,96.49c0-20.64-16.732-37.371-37.371-37.371S90.62,75.85,90.62,96.49H165.362z"/>
					<rect x="128.28" y="34.513" fill="#E41E41" width="21.295" height="13.473"/>
					<rect x="127.412" y="34.513" fill="#6D5D47" width="1.157" height="24.655"/>
				</g>
			</g>
			<g>
				<circle fill="#D5CFCF" cx="127.991" cy="129.913" r="15.342"/>
				<g>
					<path fill="#4D4E4F" d="M127.851,135.049c0.183,0.261,0.097,0.637-0.192,0.84l0,0c-0.289,0.203-0.672,0.155-0.855-0.106
						l-4.645-6.622c-0.183-0.261-0.097-0.637,0.192-0.84l0,0c0.289-0.203,0.672-0.155,0.855,0.106L127.851,135.049z"/>
					<path fill="#4D4E4F" d="M128.028,135.505c-0.227,0.417-0.663,0.618-0.973,0.45l0,0c-0.31-0.169-0.377-0.644-0.15-1.061
						l5.757-10.573c0.227-0.417,0.663-0.618,0.973-0.45l0,0c0.31,0.169,0.377,0.644,0.15,1.061L128.028,135.505z"/>
				</g>
			</g>
		</g>
	</g>
	<rect x="6.305" y="207.667" clip-path="url(#SVGID_2_)" fill="#3D533C" width="243.372" height="53.387"/>
</g>
</svg>
