<?xml version="1.0" encoding="utf-8"?>
<!-- Generator: Adobe Illustrator 17.0.1, SVG Export Plug-In . SVG Version: 6.00 Build 0)  -->
<!DOCTYPE svg PUBLIC "-//W3C//DTD SVG 1.1//EN" "http://www.w3.org/Graphics/SVG/1.1/DTD/svg11.dtd">
<svg version="1.1" id="Livello_1" xmlns="http://www.w3.org/2000/svg" xmlns:xlink="http://www.w3.org/1999/xlink" x="0px" y="0px"
	 width="256px" height="256px" viewBox="0 0 256 256" enable-background="new 0 0 256 256" xml:space="preserve">
<g>
	<defs>
		<circle id="SVGID_1_" cx="127.998" cy="127.998" r="127.998"/>
	</defs>
	<clipPath id="SVGID_2_">
		<use xlink:href="#SVGID_1_"  overflow="visible"/>
	</clipPath>
	<rect x="-61.823" y="-69.213" clip-path="url(#SVGID_2_)" fill="#FBB430" width="385.867" height="383.144"/>
	<g clip-path="url(#SVGID_2_)">
		<g>
			<g>
				<path fill="#E41E41" d="M127.467,147.207c0.359-5.201,14.169-15.842,30.489-25.109c16.257-9.23,22.598-27.082,22.06-37.125
					c-0.538-10.044-10.044-26.185-28.337-25.826c-18.294,0.359-24.212,13.272-24.212,13.272s-5.919-12.913-24.212-13.272
					c-18.294-0.359-27.799,15.783-28.337,25.826s5.803,27.895,22.06,37.125C113.298,131.364,127.108,142.006,127.467,147.207z"/>
				
					<ellipse transform="matrix(0.7071 0.7071 -0.7071 0.7071 99.6701 -96.0814)" fill="#E3647F" cx="165.816" cy="72.272" rx="8.491" ry="4.519"/>
			</g>
			<g>
				
					<ellipse transform="matrix(0.927 -0.3751 0.3751 0.927 -64.9314 37.1728)" fill="#303147" cx="63.011" cy="185.36" rx="10.524" ry="32.633"/>
				<g>
					<g>
						<path fill="#CEAA93" d="M37.478,199.341c0,0,8.728-5.141,14.826-5.022c6.098,0.12,55.718,1.913,66.837-0.478
							c11.12-2.391,35.631-8.13,39.098-11.598c3.467-3.467,35.87-35.272,33.837-37.544s-10.402-5.261-21.044,5.022
							c-10.641,10.283-22.837,21.044-26.305,20.446c-3.467-0.598-64.134-6.935-64.134-6.935l-60.693,10.641l13.75,28.696
							L37.478,199.341z"/>
						<path fill="#DAB7A0" d="M51.175,196.944c0,0,8.728-5.141,14.826-5.022c6.098,0.12,55.718,1.913,66.837-0.478
							c11.12-2.391,35.631-8.13,39.098-11.598c3.467-3.467,35.87-35.272,33.837-37.544c-2.033-2.272-10.402-5.261-21.044,5.022
							c-10.641,10.283-22.837,21.044-26.305,20.446c-3.467-0.598-64.134-6.935-64.134-6.935l-60.693,10.641l13.75,28.696
							L51.175,196.944z"/>
						<path fill="#E7C4AB" d="M58.91,198.536c0,0,8.728-5.141,14.826-5.022c6.098,0.12,55.718,1.913,66.837-0.478
							c11.12-2.391,35.631-8.13,39.098-11.598c3.467-3.467,35.87-35.272,33.837-37.544c-2.033-2.272-10.402-5.261-21.044,5.022
							c-10.641,10.283-22.837,21.044-26.305,20.446c-3.467-0.598-64.134-6.935-64.134-6.935l-60.693,10.641l13.75,28.696
							L58.91,198.536z"/>
						<path fill="#F3D1B7" d="M62.918,205.975c0,0,8.728-5.141,14.826-5.022c6.098,0.12,55.718,1.913,66.837-0.478
							c11.12-2.391,35.631-8.13,39.098-11.598c3.467-3.467,35.87-35.272,33.837-37.544c-2.033-2.272-10.402-5.261-21.044,5.022
							c-10.641,10.283-22.837,21.044-26.305,20.446c-3.467-0.598-64.134-6.935-64.134-6.935l-60.693,10.641l13.75,28.696
							L62.918,205.975z"/>
						<path fill="#F3D1B7" d="M47.016,166.638c0,0,9.207-2.989,14.826-9.565s16.261-10.402,27.261-9.804s13.87,1.076,31.326,8.011
							c0,0,6.098,2.75,18.652,2.152c12.554-0.598,26.663,4.185,25.946,13.511c0,0,0.026,12.256-27.014,7.054
							c-27.489-5.287-23.552-4.663-32.285-3.707l-56.889,9.326L47.016,166.638z"/>
						<g>
							<path fill="#D6B49F" d="M136.765,163.962c0,0-0.087,0.666-0.158,1.667c-0.055,0.499-0.07,1.084-0.112,1.709
								c-0.045,0.625-0.032,1.293-0.051,1.959c0.018,0.666,0.027,1.334,0.067,1.956c0.077,0.619,0.116,1.202,0.182,1.698
								c0.204,0.982,0.34,1.637,0.34,1.637s-0.191-0.644-0.479-1.611c-0.087-0.496-0.174-1.079-0.26-1.706
								c-0.051-0.628-0.072-1.302-0.1-1.975c0.03-0.672,0.029-1.346,0.084-1.973c0.052-0.628,0.113-1.213,0.189-1.711
								C136.607,164.615,136.765,163.962,136.765,163.962z"/>
						</g>
						<g>
							<path fill="#D6B49F" d="M133.612,163.962c0,0-0.087,0.666-0.158,1.667c-0.055,0.499-0.07,1.084-0.112,1.709
								c-0.045,0.625-0.032,1.293-0.051,1.959c0.018,0.666,0.027,1.334,0.067,1.956c0.077,0.619,0.116,1.202,0.182,1.698
								c0.204,0.982,0.34,1.637,0.34,1.637s-0.191-0.644-0.479-1.611c-0.087-0.496-0.174-1.079-0.26-1.706
								c-0.051-0.628-0.072-1.302-0.1-1.975c0.03-0.672,0.029-1.346,0.084-1.973c0.052-0.628,0.113-1.213,0.189-1.711
								C133.454,164.615,133.612,163.962,133.612,163.962z"/>
						</g>
						<g>
							<path fill="#D6B49F" d="M165.054,170.938c0,0,0.004,0.251-0.087,0.708c-0.07,0.462-0.288,1.117-0.673,1.899
								c-0.433,0.748-1.032,1.653-1.988,2.413c-0.901,0.825-2.137,1.469-3.522,2.027c-0.693,0.282-1.461,0.44-2.231,0.677
								c-0.783,0.189-1.614,0.282-2.457,0.434c-1.7,0.175-3.507,0.317-5.373,0.225c-1.871,0.023-3.784-0.257-5.737-0.422
								c-1.935-0.296-3.906-0.595-5.86-0.955c-3.902-0.757-7.804-1.515-11.462-2.225c-1.829-0.355-3.598-0.692-5.28-0.983
								c-0.841-0.149-1.658-0.293-2.449-0.433c-0.795-0.114-1.562-0.223-2.299-0.328c-0.735-0.128-1.448-0.153-2.123-0.206
								c-0.338-0.024-0.667-0.047-0.988-0.07c-0.321,0.01-0.632,0.019-0.934,0.028c-1.21-0.002-2.255,0.186-3.121,0.255
								c-1.728,0.194-2.716,0.305-2.716,0.305s0.986-0.126,2.711-0.347c0.866-0.082,1.907-0.286,3.123-0.303
								c0.303-0.014,0.616-0.028,0.939-0.043c0.322,0.018,0.653,0.036,0.993,0.055c0.679,0.043,1.397,0.069,2.133,0.192
								c0.739,0.102,1.509,0.207,2.306,0.317c0.792,0.136,1.611,0.276,2.453,0.421c1.685,0.282,3.457,0.61,5.288,0.955
								c3.662,0.691,7.568,1.428,11.474,2.165c1.952,0.37,3.912,0.677,5.841,0.983c1.944,0.174,3.851,0.464,5.713,0.451
								c1.858,0.102,3.656-0.03,5.348-0.195c0.838-0.147,1.665-0.235,2.443-0.418c0.765-0.232,1.53-0.385,2.218-0.66
								c1.372-0.551,2.607-1.168,3.511-1.97c0.96-0.738,1.566-1.626,2.009-2.364c0.394-0.772,0.622-1.422,0.699-1.881
								C165.054,171.189,165.054,170.938,165.054,170.938z"/>
						</g>
					</g>
					<path fill="#43425E" d="M50.574,155.198c0,0-5.271,37.284,25.039,60.24l-36.342,18.417c0,0-31.924-19.549-38.739-54.701
						L50.574,155.198z"/>
				</g>
			</g>
		</g>
		<path fill="#F9EEE6" d="M159.858,170.58c0,0-0.088,1.702-0.217,4.209c-0.129,2.508-1.987,1.963-1.987,1.963
			s-4.836-0.249-8.597-0.442s-3.17-6.449-3.17-6.449l0.017-0.324c0,0,0.054-6.283,3.815-6.089s8.597,0.442,8.597,0.442
			s1.904-0.351,1.775,2.157c-0.129,2.508-0.217,4.209-0.217,4.209L159.858,170.58z"/>
	</g>
</g>
</svg>
