<?xml version="1.0" encoding="utf-8"?>
<!-- Generator: Adobe Illustrator 17.0.1, SVG Export Plug-In . SVG Version: 6.00 Build 0)  -->
<!DOCTYPE svg PUBLIC "-//W3C//DTD SVG 1.1//EN" "http://www.w3.org/Graphics/SVG/1.1/DTD/svg11.dtd">
<svg version="1.1" id="Livello_1" xmlns="http://www.w3.org/2000/svg" xmlns:xlink="http://www.w3.org/1999/xlink" x="0px" y="0px"
	 width="256px" height="256px" viewBox="0 0 256 256" enable-background="new 0 0 256 256" xml:space="preserve">
<g>
	<g>
		<defs>
			<circle id="SVGID_1_" cx="128.019" cy="128.019" r="128.019"/>
		</defs>
		<clipPath id="SVGID_2_">
			<use xlink:href="#SVGID_1_"  overflow="visible"/>
		</clipPath>
		<rect x="-42.253" y="-31.216" clip-path="url(#SVGID_2_)" fill="#FBB430" width="340.543" height="353.786"/>
		<g clip-path="url(#SVGID_2_)">
			<path fill="#575153" d="M128.419,128.019h27.893c0,0-5.045,36.262,12.77,46.982c17.815,10.721,62.275,32.162,62.275,32.162
				v12.928H128.419h-0.801H24.68v-12.928c0,0,44.46-21.442,62.275-32.162c17.815-10.721,12.77-46.982,12.77-46.982h27.893H128.419z"
				/>
			<path fill="#575153" d="M128.479,149.303c11.667,0,20.942-10.695,25.225-14.978c4.362-4.362,8.987-18.446,8.987-18.446
				c16.712-9.617,6.464-26.329,6.464-26.329l-5.045-43.671l-34.66-0.631h-1.892l-35.631,0.631L86.883,89.55
				c0,0-10.248,16.712,6.464,26.329c0,0,4.624,14.084,8.987,18.446c4.283,4.283,13.559,14.978,25.225,14.978H128.479z"/>
			<path fill="#575153" d="M128.199,23.412c58.806,0,41.31,66.749,41.31,66.749h-2.833l-0.115,2.542h-3.905
				c0,0,1.608-12.179-1.149-21.284c0,0-1.394-4.671-1.968-6.858c0,0-7.58,2.956-33.053-4.02S97.172,57.23,97.172,57.23
				s0.115,5.084-2.642,14.189c-2.757,9.105-1.149,21.284-1.149,21.284h-3.905l-0.115-2.545l-2.833-0.005
				c0,0-17.496-66.741,41.31-66.741H128.199z"/>
			<path fill="#575153" d="M128.019,262.975h110.125v-58.964c-30.642-19.077-70.714-30.657-70.714-30.657
				c0,33.337-39.411,31.603-39.411,31.603s-39.411,1.734-39.411-31.603c0,0-40.072,11.58-70.714,30.657v58.964H128.019z"/>
		</g>
	</g>
	<g>
		<path fill="#FFFFFF" d="M110.107,74.134c-0.534,0-0.891-0.445-0.891-0.891c0-11.762,7.753-20.051,19.16-20.051
			c11.674,0,18.446,8.466,18.446,20.051c0,5.792-3.207,11.763-8.376,16.665c-4.545,4.366-6.684,9.891-7.039,12.653
			c-0.089,1.069-0.714,1.426-1.248,1.426h-11.139c-0.625,0-1.248-0.802-1.248-1.516c0-7.039,1.337-13.812,5.257-18.624
			c4.189-5.168,5.703-8.376,5.703-10.605c0-1.425-0.534-2.406-1.514-2.406c-1.248,0-2.05,1.336-2.406,2.852
			c-0.178,0.802-0.714,1.159-1.337,1.069L110.107,74.134z M130.871,119.047c0,0.534-0.445,0.98-0.98,0.98h-10.871
			c-0.446,0-0.891-0.534-0.891-1.069v-11.05c0-0.446,0.534-0.98,0.891-0.98h10.96c0.446,0,0.891,0.268,0.891,0.713V119.047z"/>
	</g>
</g>
</svg>
