<?xml version="1.0" encoding="utf-8"?>
<!-- Generator: Adobe Illustrator 17.0.1, SVG Export Plug-In . SVG Version: 6.00 Build 0)  -->
<!DOCTYPE svg PUBLIC "-//W3C//DTD SVG 1.1//EN" "http://www.w3.org/Graphics/SVG/1.1/DTD/svg11.dtd">
<svg version="1.1" id="Livello_1" xmlns="http://www.w3.org/2000/svg" xmlns:xlink="http://www.w3.org/1999/xlink" x="0px" y="0px"
	 width="256px" height="256px" viewBox="0 0 256 256" enable-background="new 0 0 256 256" xml:space="preserve">
<g>
	<defs>
		<circle id="SVGID_1_" cx="127.998" cy="127.998" r="127.998"/>
	</defs>
	<clipPath id="SVGID_2_">
		<use xlink:href="#SVGID_1_"  overflow="visible"/>
	</clipPath>
	<rect x="-42.246" y="-31.211" clip-path="url(#SVGID_2_)" fill="#FBB430" width="340.488" height="353.729"/>
	<g clip-path="url(#SVGID_2_)">
		<path fill="#DCBFAA" d="M128.399,127.998h27.888c0,0-5.044,36.256,12.768,46.975s62.265,32.157,62.265,32.157v12.926H128.399
			h-0.801H24.676V207.13c0,0,44.453-21.438,62.265-32.157s12.768-46.975,12.768-46.975h27.888H128.399z"/>
		<path fill="#F3D1B7" d="M128.458,149.279c11.665,0,20.939-10.693,25.221-14.975c4.362-4.362,8.985-18.443,8.985-18.443
			c16.709-9.616,6.463-26.325,6.463-26.325l-5.044-43.664l-34.654-0.631h-1.892l-35.625,0.631l-5.044,43.664
			c0,0-10.246,16.709,6.463,26.325c0,0,4.623,14.081,8.985,18.443c4.282,4.282,13.556,14.975,25.221,14.975H128.458z"/>
		<path fill="#675238" d="M128.178,23.409c58.797,0,41.303,66.738,41.303,66.738h-2.833l-0.115,2.542h-3.904
			c0,0,1.608-12.177-1.148-21.28c0,0-1.394-4.67-1.968-6.857c0,0-7.579,2.956-33.047-4.02s-29.309-3.31-29.309-3.31
			s0.115,5.084-2.641,14.187s-1.148,21.28-1.148,21.28h-3.904l-0.115-2.545l-2.833-0.005c0,0-17.494-66.73,41.303-66.73H128.178z"/>
		<path fill="#C43F3F" d="M127.998,262.932h110.107v-58.955c-30.637-19.074-70.703-30.652-70.703-30.652
			c0,33.332-39.404,31.598-39.404,31.598s-39.404,1.734-39.404-31.598c0,0-40.066,11.579-70.703,30.652v58.955H127.998z"/>
	</g>
</g>
</svg>
