<?xml version="1.0" encoding="utf-8"?>
<!-- Generator: Adobe Illustrator 17.0.1, SVG Export Plug-In . SVG Version: 6.00 Build 0)  -->
<!DOCTYPE svg PUBLIC "-//W3C//DTD SVG 1.1//EN" "http://www.w3.org/Graphics/SVG/1.1/DTD/svg11.dtd">
<svg version="1.1" id="Livello_1" xmlns="http://www.w3.org/2000/svg" xmlns:xlink="http://www.w3.org/1999/xlink" x="0px" y="0px"
	 width="256px" height="256px" viewBox="0 0 256 256" enable-background="new 0 0 256 256" xml:space="preserve">
<g>
	<defs>
		<circle id="SVGID_1_" cx="128.019" cy="128.019" r="128.019"/>
	</defs>
	<clipPath id="SVGID_2_">
		<use xlink:href="#SVGID_1_"  overflow="visible"/>
	</clipPath>
	<rect x="-42.253" y="-31.216" clip-path="url(#SVGID_2_)" fill="#FBB430" width="340.543" height="353.786"/>
	<g clip-path="url(#SVGID_2_)">
		<path fill="#A96327" d="M103.423,40.424c0,0-11.405-5.491-18.727,19.572c-7.322,25.063-13.799,46.094-4.647,74.863
			s8.871,21.588,10.701,31.585h37.268v-45.761l49.186-25.767c0,0,8.198-23.796-12.727-46.043S111.872,34.37,103.423,40.424z"/>
		<g>
			<defs>
				<path id="SVGID_3_" d="M128.019,267.584h11.782l42.523-8.73l21.825-14.362v-23.698c-0.704-15.629-3.52-28.02-3.52-28.02
					c-6.759-22.247-31.928-27.452-43.931-30.414c-10.842-2.675-10.419-9.997-10.419-9.997v-13.94h-18.259h-18.259v13.94
					c0,0,0.422,7.322-10.419,9.997c-12.003,2.962-37.172,8.167-43.931,30.414c0,0-2.816,12.391-3.52,28.02v23.698l21.825,14.362
					l42.523,8.73H128.019z"/>
			</defs>
			<clipPath id="SVGID_4_">
				<use xlink:href="#SVGID_3_"  overflow="visible"/>
			</clipPath>
			<polygon clip-path="url(#SVGID_4_)" fill="#DCBFAA" points="106.099,129.553 152.282,129.553 155.38,152.645 178.787,160.53 
				151.719,221.639 130.598,238.817 111.731,227.834 74.277,157.372 100.185,142.507 			"/>
			<path clip-path="url(#SVGID_4_)" fill="#5D54A3" d="M176.782,150.674l16.615,6.698l15.488,11.888l9.011,49.845
				c0,0-19.994,24.782-20.839,24.5c-0.845-0.282-45.902,19.994-45.902,19.994l-54.632-6.477l-54.069-12.672l-6.195-27.034
				l13.517-40.27l33.019-18.586l8.096,19.422l8.167,16.805l7.885,11.074l8.448,12.109l11.14,9.575l7.164-4.506l12.109-13.236
				l9.932-15.017l8.74-16.242l6.673-15.207L176.782,150.674z"/>
			<path clip-path="url(#SVGID_4_)" fill="#FFFFFF" d="M173.242,164.402c0,0-16.102,46.043-45.223,67.797
				c-29.121-21.754-45.223-67.797-45.223-67.797l3.802-7.031c0,0,12.301,46.043,41.422,67.797
				c29.121-21.754,42.216-67.797,42.216-67.797L173.242,164.402z"/>
		</g>
		<path fill="#A96327" d="M145.242,138.846V151.8c0,0-0.422,8.448,5.351,8.448c0,0-23.514,23.373,11.828,37.736
			c0,0-7.744-6.618,1.267-20.698c9.011-14.08,35.905-50.267,10.772-86.172l-23.444,12.813L145.242,138.846z"/>
		<path fill="#F3D1B7" d="M164.477,112.762c0,0-0.087,0.246-0.257,0.694c-1.187,3.13-6.434,16.134-14.563,24.264
			c-9.293,9.293-14.976,12.954-21.639,12.954c-6.663,0-12.346-3.661-21.639-12.954c-9.293-9.293-14.82-24.958-14.82-24.958
			c-9.293-0.106-11.828-8.131-11.828-8.131c-4.858-15.312,5.597-18.375,5.597-18.375s9.927-3.59,14.01-26.26
			c0,0,4.275,15.207,28.679,23.373S160.198,96.535,164.477,112.762z"/>
		<circle fill="#D7B328" cx="86.446" cy="106.957" r="2.112"/>
	</g>
</g>
</svg>
