<?xml version="1.0" encoding="utf-8"?>
<!-- Generator: Adobe Illustrator 17.0.1, SVG Export Plug-In . SVG Version: 6.00 Build 0)  -->
<!DOCTYPE svg PUBLIC "-//W3C//DTD SVG 1.1//EN" "http://www.w3.org/Graphics/SVG/1.1/DTD/svg11.dtd">
<svg version="1.1" id="Livello_1" xmlns="http://www.w3.org/2000/svg" xmlns:xlink="http://www.w3.org/1999/xlink" x="0px" y="0px"
	 width="595.28px" height="595.28px" viewBox="0 0 595.28 595.28" enable-background="new 0 0 595.28 595.28" xml:space="preserve">
<g>
	<path fill="#B0B0B0" d="M296.711,0C186.583,0,97.307,89.276,97.307,199.404s89.275,199.404,199.404,199.404
		s199.404-89.276,199.404-199.404S406.839,0,296.711,0z M296.711,356.415c-86.714,0-157.011-70.296-157.011-157.011
		S209.996,42.393,296.711,42.393s157.011,70.296,157.011,157.011S383.425,356.415,296.711,356.415z"/>
	<path fill="#B0B0B0" d="M114.185,330.901c0,0,61.234,89.496,166.039,93.029l-87.73,170.749l-70.655-73.01l-99.506-12.953
		L114.185,330.901z"/>
	<path fill="#B0B0B0" d="M481.095,330.902c0,0-61.234,89.496-166.039,93.029l87.73,170.749l70.655-73.01l99.506-12.953
		L481.095,330.902z"/>
	<circle fill="#B0B0B0" cx="296.711" cy="199.404" r="141.31"/>
</g>
</svg>
