<?xml version="1.0" encoding="utf-8"?>
<!-- Generator: Adobe Illustrator 17.0.1, SVG Export Plug-In . SVG Version: 6.00 Build 0)  -->
<!DOCTYPE svg PUBLIC "-//W3C//DTD SVG 1.1//EN" "http://www.w3.org/Graphics/SVG/1.1/DTD/svg11.dtd">
<svg version="1.1" id="Livello_1" xmlns="http://www.w3.org/2000/svg" xmlns:xlink="http://www.w3.org/1999/xlink" x="0px" y="0px"
	 width="595.28px" height="595.28px" viewBox="0 0 595.28 595.28" enable-background="new 0 0 595.28 595.28" xml:space="preserve">
<g>
	<path fill="#B0B0B0" d="M297.64,586.052c110.7,0,233.516-91.802,215.343-107.836c-18.173-16.035-136.475-41.691-138.613-53.806
		c-2.138-12.115,0-39.197,6.77-52.024c6.77-12.828,11.046-39.909,11.046-39.909c21.736-22.093,26.012-73.761,19.976-84.451
		s-0.734-46.323-0.734-46.323C422.831,62.02,297.64,73.422,297.64,73.422S172.449,62.02,183.851,201.702
		c0,0,5.302,35.633-0.734,46.323c-6.036,10.69-1.76,62.358,19.976,84.451c0,0,4.276,27.081,11.046,39.909s8.908,39.909,6.77,52.024
		c-2.138,12.115-120.44,37.771-138.613,53.806S186.94,586.052,297.64,586.052z"/>
	<path fill="#B0B0B0" d="M297.64,0.255C133.38,0.255,0.222,133.414,0.222,297.674S133.38,595.092,297.64,595.092
		s297.418-133.159,297.418-297.418S461.9,0.255,297.64,0.255z M297.64,570.862c-150.878,0-273.188-122.31-273.188-273.188
		S146.763,24.486,297.64,24.486s273.188,122.31,273.188,273.188S448.518,570.862,297.64,570.862z"/>
</g>
</svg>
