<?xml version="1.0" encoding="utf-8"?>
<!-- Generator: Adobe Illustrator 17.0.1, SVG Export Plug-In . SVG Version: 6.00 Build 0)  -->
<!DOCTYPE svg PUBLIC "-//W3C//DTD SVG 1.1//EN" "http://www.w3.org/Graphics/SVG/1.1/DTD/svg11.dtd">
<svg version="1.1" id="Livello_1" xmlns="http://www.w3.org/2000/svg" xmlns:xlink="http://www.w3.org/1999/xlink" x="0px" y="0px"
	 width="595.28px" height="595.28px" viewBox="0 0 595.28 595.28" enable-background="new 0 0 595.28 595.28" xml:space="preserve">
<g>
	<path fill="#B0B0B0" d="M279.064,228.904L31.091,479.45c0,0-29.735,27.605,2.938,62.314c33.958,36.074,64.275,3.755,64.275,3.755
		l249.402-248.83L279.064,228.904z"/>
	<path fill="#B0B0B0" d="M113.177,522.066l60.063,62.923c0,0,18.591,21.737,38.326,2.002c19.735-19.735,85.232-85.518,85.232-85.518
		s20.593-16.875-1.716-38.898c-22.309-22.023-58.632-59.777-58.632-59.777L113.177,522.066z"/>
	<path fill="#B0B0B0" d="M416.4,0c-88.462,0-160.175,71.713-160.175,160.175S327.938,320.349,416.4,320.349
		c88.462,0,160.175-71.713,160.175-160.175S504.862,0,416.4,0z M416.4,223.391c-34.914,0-63.217-28.303-63.217-63.216
		s28.303-63.216,63.217-63.216c34.913,0,63.216,28.303,63.216,63.216S451.314,223.391,416.4,223.391z"/>
</g>
</svg>
