<?xml version="1.0" encoding="utf-8"?>
<!-- Generator: Adobe Illustrator 17.0.1, SVG Export Plug-In . SVG Version: 6.00 Build 0)  -->
<!DOCTYPE svg PUBLIC "-//W3C//DTD SVG 1.1//EN" "http://www.w3.org/Graphics/SVG/1.1/DTD/svg11.dtd">
<svg version="1.1" id="Livello_1" xmlns="http://www.w3.org/2000/svg" xmlns:xlink="http://www.w3.org/1999/xlink" x="0px" y="0px"
	 width="595.28px" height="595.28px" viewBox="0 0 595.28 595.28" enable-background="new 0 0 595.28 595.28" xml:space="preserve">
<g>
	<path fill="#B0B0B0" d="M297.813,0.138c-163.316,0-155.967,141.268-155.967,141.268v94.723h43.564v-88.031
		c0,0-5.314-102.148,112.777-102.148c118.681,0,114.547,102.148,114.547,102.148v88.031h43.495v-94.723
		C456.229,141.407,461.945,0.138,297.813,0.138z"/>
	<path fill="#B0B0B0" d="M465.554,224.936H129.726c-37.095,0-67.166,30.071-67.166,67.166v236.013
		c0,37.094,30.071,67.166,67.166,67.166h335.828c37.095,0,67.166-30.071,67.166-67.166V292.101
		C532.72,255.007,502.649,224.936,465.554,224.936z M320.029,412.793v51.304c0,11.785-9.554,21.339-21.339,21.339
		c-11.785,0-21.339-9.554-21.339-21.339v-51.162c-12.809-7.366-21.456-21.156-21.456-36.993c0-23.571,19.108-42.678,42.678-42.678
		c23.57,0,42.678,19.108,42.678,42.678C341.251,391.681,332.708,405.394,320.029,412.793z"/>
</g>
</svg>
