<?xml version="1.0" encoding="utf-8"?>
<!-- Generator: Adobe Illustrator 17.0.1, SVG Export Plug-In . SVG Version: 6.00 Build 0)  -->
<!DOCTYPE svg PUBLIC "-//W3C//DTD SVG 1.1//EN" "http://www.w3.org/Graphics/SVG/1.1/DTD/svg11.dtd">
<svg version="1.1" id="Livello_1" xmlns="http://www.w3.org/2000/svg" xmlns:xlink="http://www.w3.org/1999/xlink" x="0px" y="0px"
	 width="595.28px" height="595.28px" viewBox="0 0 595.28 595.28" enable-background="new 0 0 595.28 595.28" xml:space="preserve">
<g>
	<path fill="#B0B0B0" d="M100.181,354.877c0,0,10.808-46.385,74.757-84.665c0,0-2.252-13.06-6.755-22.067
		c0,0,36.027-20.716,50.889-45.034c0,0,28.822,12.61,58.545,9.908c0,0-32.425,40.981-38.73,52.69c0,0-185.542,80.161-94.572,162.124
		c0,0,47.736,40.081,106.731-9.457s74.757-51.339,88.718-57.194c13.961-5.854,94.572-33.325,126.096-113.937
		s37.379-119.341,76.108-151.315c0,0-23.868-96.824-190.495-95.923c0,0-167.077,62.147-195.449,71.154s-31.974,27.471-41.882,41.432
		s-70.704,85.565-59.445,124.745S100.181,354.877,100.181,354.877z"/>
	<path fill="#B0B0B0" d="M320.588,395.695c-22.668,10.803-60.057,62.662-125.835,71.168c-56.304,7.281-84.74-39.57-93.576-57.8
		c-9.059,17.551-14.206,37.45-14.206,58.562c0,70.636,57.262,127.898,127.898,127.898c70.636,0,127.898-57.262,127.898-127.898
		C342.766,440.943,334.563,416.194,320.588,395.695z"/>
</g>
</svg>
