<?xml version="1.0" encoding="utf-8"?>
<!-- Generator: Adobe Illustrator 17.0.1, SVG Export Plug-In . SVG Version: 6.00 Build 0)  -->
<!DOCTYPE svg PUBLIC "-//W3C//DTD SVG 1.1//EN" "http://www.w3.org/Graphics/SVG/1.1/DTD/svg11.dtd">
<svg version="1.1" id="Livello_1" xmlns="http://www.w3.org/2000/svg" xmlns:xlink="http://www.w3.org/1999/xlink" x="0px" y="0px"
	 width="595.28px" height="595.28px" viewBox="0 0 595.28 595.28" enable-background="new 0 0 595.28 595.28" xml:space="preserve">
<g>
	<path fill="#B0B0B0" d="M512.058,104.222H92.928l337.952-78.532c0,0,35.001-12.059,52.06,19.118L512.058,104.222z"/>
	<path fill="#B0B0B0" d="M424.51,290.11v121.18h170.787V290.11H424.51z M497.258,381.731c-16.325,0-29.56-13.234-29.56-29.56
		s13.234-29.56,29.56-29.56c16.325,0,29.56,13.234,29.56,29.56S513.583,381.731,497.258,381.731z"/>
	<g>
		<path fill="#B0B0B0" d="M238.729,316.433c0,0,1.327-15.668-15.631-15.71l-30.697-0.291l-0.079,31.77l30.912,0.078
			C223.233,332.28,238.689,332.318,238.729,316.433z"/>
		<path fill="#B0B0B0" d="M226.328,366.33l-34.091-0.299l-0.079,31.77l34.33,0.086c0,0,17.165,0.043,17.205-15.842
			C243.693,382.044,245.162,366.376,226.328,366.33z"/>
		<path fill="#B0B0B0" d="M561.177,256.58v-42.354c0-46.783-37.925-84.708-84.708-84.708H84.692
			c-46.783,0-84.708,37.925-84.708,84.708v272.95c0,46.783,37.926,84.708,84.708,84.708h391.777
			c46.783,0,84.708-37.926,84.708-84.708v-42.354H394.314V256.58H561.177z M247.431,442.25l-0.066,26.619l-29.911-0.075
			l0.066-26.619l-22.038-0.055l-0.066,26.619l-29.624-0.074l0.067-26.618l-30.483-0.076l0.455-182.467l30.483,0.076l0.068-27.048
			l29.624,0.074l-0.067,27.048l22.325,0.056l0.067-27.048l29.552,0.431l-0.067,26.691c0,0,43.864,0.11,45.897,45.625
			c0,0,1.637,32.204-22.424,39.443c0,0,28.596,9.947,27.789,47.297C299.076,392.147,301.123,432.081,247.431,442.25z"/>
	</g>
</g>
</svg>
