<?xml version="1.0" encoding="utf-8"?>
<!-- Generator: Adobe Illustrator 17.0.1, SVG Export Plug-In . SVG Version: 6.00 Build 0)  -->
<!DOCTYPE svg PUBLIC "-//W3C//DTD SVG 1.1//EN" "http://www.w3.org/Graphics/SVG/1.1/DTD/svg11.dtd">
<svg version="1.1" id="Livello_1" xmlns="http://www.w3.org/2000/svg" xmlns:xlink="http://www.w3.org/1999/xlink" x="0px" y="0px"
	 width="595.28px" height="595.28px" viewBox="0 0 595.28 595.28" enable-background="new 0 0 595.28 595.28" xml:space="preserve">
<g>
	<path fill="#B0B0B0" d="M0,360.195c0-15.389,12.545-27.864,28.02-27.864h12.453c15.475,0,28.02,12.475,28.02,27.864v146.288
		c0,15.389-12.545,27.865-28.02,27.865H28.02C12.545,534.348,0,521.872,0,506.483V360.195z"/>
	<path fill="#B0B0B0" d="M371.674,370.982c0,0,180.084-93.12,196.245-249.347c0,0,9.235-121.595-105.434-121.595
		c0,0-52.332-2.309-90.812,49.254v-0.024C333.194-2.293,280.862,0.016,280.862,0.016c-114.669,0-105.434,121.595-105.434,121.595
		c16.161,156.227,196.245,249.347,196.245,249.347V370.982z"/>
	<path fill="#B0B0B0" d="M94.66,362.344c0,0,133.331-51.947,232.031,14.43c0,0,10.967,8.658,58.296,10.967
		s122.942,9.812,102.163,58.296c0,0-6.926,24.819-43.867,22.126c-36.94-2.694-106.973-9.62-128.906-3.463
		c0,0,41.558,24.242,90.042,22.703s84.655-5.772,108.897-29.629c24.242-23.857,75.42-37.71,82.346-0.77
		c0,0,1.01,10.389-10.101,15.873c0,0,17.46,3.175,7.359,21.5c-10.101,18.326-84.992,75.757-121.355,80.085
		s-140.546,25.396-158.151,19.913s-179.218-84.847-195.091-85.424c-15.873-0.577-32.611-2.02-32.611-19.625
		c0-17.604,0-111.975,0-111.975S85.712,366.24,94.66,362.344z"/>
</g>
</svg>
