<?xml version="1.0" encoding="utf-8"?>
<!-- Generator: Adobe Illustrator 17.0.1, SVG Export Plug-In . SVG Version: 6.00 Build 0)  -->
<!DOCTYPE svg PUBLIC "-//W3C//DTD SVG 1.1//EN" "http://www.w3.org/Graphics/SVG/1.1/DTD/svg11.dtd">
<svg version="1.1" id="Livello_1" xmlns="http://www.w3.org/2000/svg" xmlns:xlink="http://www.w3.org/1999/xlink" x="0px" y="0px"
	 width="595.28px" height="595.28px" viewBox="0 0 595.28 595.28" enable-background="new 0 0 595.28 595.28" xml:space="preserve">
<g>
	<path fill="#B0B0B0" d="M25.326,264.177h199.043c0,0,20.689-0.357,33.53,11.058c12.841,11.415,54.576,47.442,54.576,47.442
		l19.619-71.579l-6.064-52.555c0,0-32.817,1.07-37.811-28.18s17.122-44.588,58.857-42.091l13.555,99.521
		c0,0,31.747,4.994,24.613,36.027c-7.134,31.034-36.741,125.561-36.741,125.561s-5.707,20.689-32.104,4.994
		c-22.029-13.098-68.845-49.582-68.845-49.582v189.055H68.131V386.171L55.646,533.848c0,0-2.14,26.753-25.326,27.466
		c0,0-30.32,4.637-30.32-28.537s6.064-251.479,6.064-251.479S7.134,265.961,25.326,264.177z"/>
	<circle fill="#B0B0B0" cx="152.314" cy="165.013" r="66.348"/>
	<path fill="#B0B0B0" d="M360.274,126.131l7.491,53.149c0,0,81.686-3.21,104.515,22.829c0,0,1.928,12.817,12.128,11.058
		c10.345-1.784,3.924-17.835,3.924-17.835L466.216,64.421c0,0,0-11.803-10.701-11.089c-10.701,0.713-7.134,15.37-7.134,15.37
		S444.101,96.525,360.274,126.131z"/>
	<path fill="none" stroke="#B0B0B0" stroke-width="5" stroke-linecap="round" stroke-linejoin="round" stroke-miterlimit="10" d="
		M515.918,65.135c0,0,59.927,46.134,18.549,116.049"/>
	<path fill="none" stroke="#B0B0B0" stroke-width="5" stroke-linecap="round" stroke-linejoin="round" stroke-miterlimit="10" d="
		M549.032,33.744c0,0,78.178,61.354,25.385,160.28"/>
</g>
</svg>
