<?xml version="1.0" encoding="UTF-8" standalone="no"?>
<!-- Created with Inkscape (http://www.inkscape.org/) -->

<svg
   xmlns:dc="http://purl.org/dc/elements/1.1/"
   xmlns:cc="http://creativecommons.org/ns#"
   xmlns:rdf="http://www.w3.org/1999/02/22-rdf-syntax-ns#"
   xmlns:svg="http://www.w3.org/2000/svg"
   xmlns="http://www.w3.org/2000/svg"
   xmlns:sodipodi="http://sodipodi.sourceforge.net/DTD/sodipodi-0.dtd"
   xmlns:inkscape="http://www.inkscape.org/namespaces/inkscape"
   width="35.401711mm"
   height="53.367771mm"
   viewBox="0 0 125.43912 189.0984"
   id="svg2"
   version="1.1"
   inkscape:version="0.91 r13725"
   sodipodi:docname="h_center.svg">
  <defs
     id="defs4" />
  <sodipodi:namedview
     id="base"
     pagecolor="#ffffff"
     bordercolor="#666666"
     borderopacity="1.0"
     inkscape:pageopacity="0.0"
     inkscape:pageshadow="2"
     inkscape:zoom="3.959798"
     inkscape:cx="38.471952"
     inkscape:cy="127.47905"
     inkscape:document-units="px"
     inkscape:current-layer="layer1"
     showgrid="false"
     fit-margin-top="0"
     fit-margin-left="0"
     fit-margin-right="0"
     fit-margin-bottom="0"
     inkscape:window-width="1317"
     inkscape:window-height="717"
     inkscape:window-x="0"
     inkscape:window-y="0"
     inkscape:window-maximized="1"
     showguides="false" />
  <metadata
     id="metadata7">
    <rdf:RDF>
      <cc:Work
         rdf:about="">
        <dc:format>image/svg+xml</dc:format>
        <dc:type
           rdf:resource="http://purl.org/dc/dcmitype/StillImage" />
        <dc:title></dc:title>
      </cc:Work>
    </rdf:RDF>
  </metadata>
  <g
     inkscape:label="Layer 1"
     inkscape:groupmode="layer"
     id="layer1"
     transform="translate(-115.56266,-527.88572)">
    <path
       style="fill:#000000"
       d="m 164.94384,683.63902 c -29.73885,-6.31124 -51.11065,-34.23342 -49.27087,-64.37229 1.94949,-31.93532 27.45836,-57.44418 59.39367,-59.39367 18.14387,-1.10754 34.60961,5.33668 47.83134,18.71995 12.63522,12.78961 18.16006,26.0165 18.16006,43.47646 0,11.84694 -1.28239,17.68148 -6.11756,27.83238 -3.19367,6.70489 -5.54428,9.9133 -11.94245,16.30043 -15.88749,15.86017 -36.42156,22.02767 -58.05419,17.43674 z m 23.9705,-14.6249 c 18.63358,-4.39224 33.09478,-19.71202 36.4781,-38.64368 3.13692,-17.55337 -5.74036,-37.52439 -21.08985,-47.44523 -8.96714,-5.79574 -17.47815,-8.02507 -28.41707,-7.44355 -35.03091,1.86234 -55.32606,38.10207 -39.1866,69.97302 3.58526,7.07995 13.23425,16.28884 20.88901,19.93631 10.58723,5.04482 20.45392,6.18595 31.32641,3.62313 z m -25.44369,-46.61159 0,-18.66025 3.92847,0 3.92847,0 0,6.87484 0,6.87485 7.3659,0 7.36588,0 0,-6.87485 0,-6.87484 4.41957,0 4.41952,0 0,18.66025 0,18.66025 -4.41952,0 -4.41957,0 0,-7.3659 0,-7.36589 -7.36588,0 -7.3659,0 0,7.36589 0,7.3659 -3.92847,0 -3.92847,0 0,-18.66025 z"
       id="path4211"
       inkscape:connector-curvature="0" />
  </g>
</svg>
