<?xml version="1.0" encoding="UTF-8" standalone="no"?>
<!-- Created with Inkscape (http://www.inkscape.org/) -->

<svg
   xmlns:dc="http://purl.org/dc/elements/1.1/"
   xmlns:cc="http://creativecommons.org/ns#"
   xmlns:rdf="http://www.w3.org/1999/02/22-rdf-syntax-ns#"
   xmlns:svg="http://www.w3.org/2000/svg"
   xmlns="http://www.w3.org/2000/svg"
   xmlns:sodipodi="http://sodipodi.sourceforge.net/DTD/sodipodi-0.dtd"
   xmlns:inkscape="http://www.inkscape.org/namespaces/inkscape"
   width="35.594128mm"
   height="53.636913mm"
   viewBox="0 0 126.12092 190.05205"
   id="svg2"
   version="1.1"
   inkscape:version="0.91 r13725"
   sodipodi:docname="h_center_verified.svg">
  <defs
     id="defs4" />
  <sodipodi:namedview
     id="base"
     pagecolor="#ffffff"
     bordercolor="#666666"
     borderopacity="1.0"
     inkscape:pageopacity="0.0"
     inkscape:pageshadow="2"
     inkscape:zoom="0.7"
     inkscape:cx="-44.219063"
     inkscape:cy="235.87596"
     inkscape:document-units="px"
     inkscape:current-layer="layer1"
     showgrid="false"
     fit-margin-top="0"
     fit-margin-left="0"
     fit-margin-right="0"
     fit-margin-bottom="0"
     inkscape:window-width="1317"
     inkscape:window-height="717"
     inkscape:window-x="0"
     inkscape:window-y="0"
     inkscape:window-maximized="1" />
  <metadata
     id="metadata7">
    <rdf:RDF>
      <cc:Work
         rdf:about="">
        <dc:format>image/svg+xml</dc:format>
        <dc:type
           rdf:resource="http://purl.org/dc/dcmitype/StillImage" />
        <dc:title></dc:title>
      </cc:Work>
    </rdf:RDF>
  </metadata>
  <g
     inkscape:label="Layer 1"
     inkscape:groupmode="layer"
     id="layer1"
     transform="translate(-171.28568,-578.18611)">
    <path
       style="fill:#000000"
       d="m 222.35837,752.34846 c -29.05711,-40.40383 -44.43626,-69.46264 -49.557,-93.63762 -1.11528,-5.26528 -1.48521,-14.33668 -1.49829,-36.74146 l -0.0174,-29.75 14.86514,0 c 17.32804,0 19.12312,-0.73662 21.47736,-8.8133 l 1.3661,-4.6867 25.5228,-0.26663 25.52279,-0.26664 1.15745,4.59663 c 0.63659,2.52815 2.24644,5.68563 3.57745,7.01664 2.3464,2.3464 2.87943,2.42 17.52592,2.42 l 15.10592,0 -0.32404,33.75 -0.32404,33.75 -3.80051,11.2933 c -4.36035,12.95687 -14.18029,32.75801 -24.15504,48.7067 -9.45785,15.12221 -26.17989,38.943 -31.0173,44.18458 l -4,4.3342 -11.42735,-15.8897 z m 23.24606,-26.4508 c 18.1471,-27.25304 29.39849,-49.0679 33.61961,-65.18369 1.78545,-6.81663 2.06168,-10.86069 2.06168,-30.18293 l 0,-22.31166 -6.3185,0 c -10.60562,0 -16.31869,-2.26981 -22.86427,-9.08402 l -5.68276,-5.91598 -12.81909,0 -12.8191,0 -3.49814,4.70156 c -5.11506,6.87472 -11.04939,9.58932 -22.12012,10.11861 l -8.87802,0.42447 0.008,19.12768 c 0.0109,27.60348 1.39595,34.2363 11.61606,55.62768 7.33055,15.34332 12.62096,24.44451 25.14803,43.2626 8.19751,12.31425 10.77888,15.52539 11.79959,14.67828 0.71859,-0.59638 5.55496,-7.46455 10.74748,-15.2626 z M 218.99998,664.6003 c -0.39284,-0.39284 -0.71426,-8.96425 -0.71426,-19.04759 l 0,-18.33333 4.5,0 4.5,0 0,7 0,7 7,0 7,0 0,-7 0,-7 4,0 4,0 0,19 0,19 -4,0 -4,0 0,-8 0,-8 -6.95794,0 -6.95793,0 -0.29207,7.75 -0.29206,7.75 -3.53574,0.29759 c -1.94466,0.16368 -3.85716,-0.0238 -4.25,-0.41667 z"
       id="path4147"
       inkscape:connector-curvature="0" />
  </g>
</svg>
