<?xml version="1.0" encoding="UTF-8" standalone="no"?>
<!-- Created with Inkscape (http://www.inkscape.org/) -->

<svg
   xmlns:dc="http://purl.org/dc/elements/1.1/"
   xmlns:cc="http://creativecommons.org/ns#"
   xmlns:rdf="http://www.w3.org/1999/02/22-rdf-syntax-ns#"
   xmlns:svg="http://www.w3.org/2000/svg"
   xmlns="http://www.w3.org/2000/svg"
   xmlns:sodipodi="http://sodipodi.sourceforge.net/DTD/sodipodi-0.dtd"
   xmlns:inkscape="http://www.inkscape.org/namespaces/inkscape"
   width="35.445972mm"
   height="52.322762mm"
   viewBox="0 0 125.59596 185.39561"
   id="svg2"
   version="1.1"
   inkscape:version="0.91 r13725"
   sodipodi:docname="h_center_geolocalized.svg">
  <defs
     id="defs4" />
  <sodipodi:namedview
     id="base"
     pagecolor="#ffffff"
     bordercolor="#666666"
     borderopacity="1.0"
     inkscape:pageopacity="0.0"
     inkscape:pageshadow="2"
     inkscape:zoom="0.7"
     inkscape:cx="15.918552"
     inkscape:cy="247.69142"
     inkscape:document-units="px"
     inkscape:current-layer="layer1"
     showgrid="false"
     fit-margin-top="0"
     fit-margin-left="0"
     fit-margin-right="0"
     fit-margin-bottom="0"
     inkscape:window-width="1317"
     inkscape:window-height="717"
     inkscape:window-x="0"
     inkscape:window-y="0"
     inkscape:window-maximized="1" />
  <metadata
     id="metadata7">
    <rdf:RDF>
      <cc:Work
         rdf:about="">
        <dc:format>image/svg+xml</dc:format>
        <dc:type
           rdf:resource="http://purl.org/dc/dcmitype/StillImage" />
        <dc:title></dc:title>
      </cc:Work>
    </rdf:RDF>
  </metadata>
  <g
     inkscape:label="Layer 1"
     inkscape:groupmode="layer"
     id="layer1"
     transform="translate(-111.14806,-594.65802)">
    <path
       style="fill:#000000"
       d="m 162.95234,765.34528 c -31.28414,-43.76547 -46.19545,-72.19502 -50.89431,-97.03389 -2.59596,-13.72264 0.47154,-30.66716 7.80832,-43.13232 7.442,-12.64393 19.7346,-22.58468 34.44188,-27.8524 6.26428,-2.24369 9.01277,-2.63302 18.8346,-2.66798 18.96206,-0.0675 31.51349,4.98517 44.55668,17.93659 18.87858,18.74575 23.5733,40.71657 14.7439,69 -5.23389,16.76584 -19.65586,43.69946 -36.46506,68.09998 -12.67567,18.40021 -21.27217,30.31199 -21.90901,30.35831 -0.31543,0.0229 -5.31807,-6.59579 -11.117,-14.70829 z m 22.53027,-27.57172 c 18.36428,-27.51781 30.28955,-51.01806 34.18849,-67.37275 1.21084,-5.07908 1.59503,-9.94082 1.30663,-16.53486 -0.35983,-8.22721 -0.8469,-10.26351 -4.08682,-17.08587 -4.81047,-10.12947 -12.15162,-17.55033 -21.97842,-22.21705 -29.24025,-13.88613 -62.96873,3.91275 -67.93381,35.84941 -2.11431,13.59974 1.95893,27.9239 15.22546,53.54266 9.52387,18.39137 30.81133,50.49077 32.53529,49.06001 0.70464,-0.5848 5.53907,-7.4435 10.74318,-15.24155 z m -27.33978,-80.17828 0,-18.5 4.5,0 4.5,0 0,7 0,7 7,0 7,0 0,-7 0,-7 4,0 4,0 0,18.5 0,18.5 -4,0 -4,0 0,-7.5 0,-7.5 -7,0 -7,0 0,7.5 0,7.5 -4.5,0 -4.5,0 0,-18.5 z"
       id="path4179"
       inkscape:connector-curvature="0" />
  </g>
</svg>
