<?xml version="1.0" encoding="utf-8"?>
<!-- Generator: Adobe Illustrator 17.0.1, SVG Export Plug-In . SVG Version: 6.00 Build 0)  -->
<!DOCTYPE svg PUBLIC "-//W3C//DTD SVG 1.1//EN" "http://www.w3.org/Graphics/SVG/1.1/DTD/svg11.dtd">
<svg version="1.1" id="keychain" xmlns="http://www.w3.org/2000/svg" xmlns:xlink="http://www.w3.org/1999/xlink" x="0px" y="0px"
	 viewBox="0 0 512 333" enable-background="new 0 0 512 333" xml:space="preserve">
	<g>
		<g>
			<path d="M297.595,15.848c-31.796,17.725-43.374,57.681-26.138,89.615l-0.017-0.025l123.304,221.185
				c2.465,4.422,8.049,6.009,12.471,3.543l100.083-55.794c4.422-2.465,6.009-8.049,3.543-12.471L387.538,40.718l0.051,0.06
				C369.5,9.294,329.404-1.885,297.595,15.848z M316.813,50.324c11.793-6.574,26.682-2.344,33.256,9.449
				c6.574,11.793,2.344,26.682-9.449,33.256c-11.793,6.574-26.682,2.344-33.256-9.449C300.79,71.787,305.02,56.898,316.813,50.324z
					M452.2,264.722l5.608,10.06l-11.305,6.302l-5.608-10.06l-8.329,4.643l5.608,10.06l-11.196,6.242l-5.608-10.06l-11.521,6.422
				l-38.444-68.962l11.521-6.422l-5.699-10.223l11.196-6.242l5.699,10.223l8.438-4.704l-5.699-10.222l11.244-6.091l5.623,10.087
				c0,0,16.578-9.242,26.978,7.506c0,0,7.433,11.808-0.116,19.632c0,0,12.897-2.298,20.497,11.969
				C461.088,234.882,470.312,249.52,452.2,264.722z"/>
			<path d="M422.289,219.079c0,0-2.815-6.194-9.224-2.621l-11.647,6.386l6.694,12.007l11.683-6.513
				C419.794,228.339,425.636,225.082,422.289,219.079z"/>
			<path d="M428.168,240.535l-12.93,7.102l6.694,12.007l12.975-7.233c0,0,6.487-3.617,3.141-9.62
				C438.047,242.79,435.286,236.566,428.168,240.535z"/>
		</g>
		<g>
			<path d="M170.852,3.978c-36.277,9.56-57.936,46.719-48.376,82.996s46.719,57.936,82.996,48.376
				s57.936-46.719,48.376-82.996S207.129-5.582,170.852,3.978z M203.255,72.255c-10.943,2.884-22.153-3.65-25.036-14.593
				c-2.884-10.943,3.65-22.153,14.593-25.036c10.943-2.884,22.153,3.65,25.037,14.593C220.732,58.162,214.199,69.371,203.255,72.255z
				"/>
			<path d="M66.398,307.828c-3.459,6.14-11.24,8.314-17.38,4.855L6.5,288.732c-6.14-3.459-8.314-11.24-4.855-17.38
				l0,0c3.459-6.14,11.24-8.314,17.38-4.855l42.519,23.951C67.683,293.907,69.857,301.688,66.398,307.828L66.398,307.828z"/>
			<path d="M87.704,271.275c-3.459,6.14-11.24,8.314-17.38,4.855l-42.519-23.951c-6.14-3.459-8.314-11.24-4.855-17.38
				l0,0c3.459-6.14,11.24-8.314,17.38-4.855l42.519,23.951C88.989,257.354,91.163,265.135,87.704,271.275L87.704,271.275z"/>
			<path d="M36.15,309.563c-4.095,7.045-2.955,15.347,2.546,18.545l4.15,2.412c5.501,3.197,13.279,0.078,17.374-6.967
				l110.282-189.739c4.095-7.045,2.955-15.347-2.546-18.545l-4.15-2.412c-5.501-3.197-13.279-0.078-17.374,6.967L36.15,309.563z"/>
		</g>
		<path d="M262.663,0c-29.515,0-53.441,23.926-53.441,53.441c0,29.514,23.926,53.441,53.441,53.441
			s53.441-23.926,53.441-53.441C316.103,23.926,292.177,0,262.663,0z M262.663,100.645c-26.07,0-47.204-21.134-47.204-47.204
			c0-26.07,21.134-47.204,47.204-47.204s47.204,21.134,47.204,47.204C309.867,79.511,288.733,100.645,262.663,100.645z"/>
	</g>
</svg>
