<?xml version="1.0" encoding="utf-8"?>
<!-- Generator: Adobe Illustrator 17.0.1, SVG Export Plug-In . SVG Version: 6.00 Build 0)  -->
<!DOCTYPE svg PUBLIC "-//W3C//DTD SVG 1.1//EN" "http://www.w3.org/Graphics/SVG/1.1/DTD/svg11.dtd">
<svg version="1.1" id="ledger" xmlns="http://www.w3.org/2000/svg" xmlns:xlink="http://www.w3.org/1999/xlink" x="0px" y="0px"
	 viewBox="0 0 512 684" enable-background="new 0 0 512 684" xml:space="preserve">
	<g>
		<path d="M496.452,291.619c-26.538-36.471-77.616-44.522-114.086-17.984l-0.261,0.19L-0.09,551.929L96.012,684
			l382.194-278.105l0.261-0.19C514.938,379.167,522.99,328.089,496.452,291.619z M452.829,371.133
			c-17.25,12.552-41.41,8.744-53.962-8.507c-12.552-17.251-8.744-41.41,8.506-53.963c17.25-12.552,41.41-8.744,53.963,8.507
			C473.888,334.421,470.08,358.581,452.829,371.133z"/>
		<circle cx="430.101" cy="339.899" r="25.864"/>
		<path d="M111.185,181.649l172.367,142.69c0,0,67.089-48.818,95.809-69.61c28.72-20.792,55.228-16.302,55.228-16.302
			S249.735,85.75,220.476,61.583c-29.259-24.166-49.064,4.373-49.064,4.373s-42.09,49.59-61.618,75.39
			C91.363,165.697,111.185,181.649,111.185,181.649z"/>
		<path d="M162.304,52.573L99.02-0.059L33.789,78.418l63.283,52.632L162.304,52.573z M84.853,85.55
			c-5.092,6.336-13.767,7.818-19.378,3.31l-3.277-2.633c-5.611-4.508-6.031-13.3-0.94-19.636s13.767-7.818,19.378-3.31l3.277,2.633
			C89.524,70.422,89.945,79.213,84.853,85.55z M93.764,48.942c-5.611-4.508-6.031-13.3-0.94-19.636
			c5.092-6.336,13.767-7.818,19.378-3.31l3.277,2.633c5.611,4.508,6.031,13.3,0.94,19.636c-5.092,6.336-13.767,7.818-19.378,3.31
			L93.764,48.942z"/>
	</g>
</svg>
