<?xml version="1.0" encoding="utf-8"?>
<!-- Generator: Adobe Illustrator 17.0.1, SVG Export Plug-In . SVG Version: 6.00 Build 0)  -->
<!DOCTYPE svg PUBLIC "-//W3C//DTD SVG 1.1//EN" "http://www.w3.org/Graphics/SVG/1.1/DTD/svg11.dtd">
<svg version="1.1" id="sweatshirt" xmlns="http://www.w3.org/2000/svg" xmlns:xlink="http://www.w3.org/1999/xlink" x="0px" y="0px"
	 viewBox="0 0 512 550" enable-background="new 0 0 512 550" xml:space="preserve">
	<g>
		<g>
			<g>
				<path d="M73.348,118.451c0,0,40.224,45.91,36.478,159.097c0,0-38.566,194.367-41.532,209.2
					s-7.911,16.811-32.962,13.185s-33.951-3.296-33.951-23.073S-1.366,211.185,73.348,118.451z"/>
				<path d="M2.651,501.794c0,0,23.45,9.532,56.248,7.72c0,0,2.425,14.365-4.332,26.396c0,0-33.621,6.098-52.739-8.9
					C1.827,527.01-2.788,513.33,2.651,501.794z"/>
			</g>
			<path d="M118.77,508.035c0,0,151.626,35.16,275.563-1.318c0,0,0.989,25.82-11.207,29.776
				c-12.196,3.956-140.748,28.018-252.819,0C130.307,536.492,118.221,534.405,118.77,508.035z"/>
			<g>
				<path d="M439.935,117.976c0,0-40.438,45.435-36.478,159.097c0,0,38.566,194.367,41.532,209.2
					c2.967,14.833,7.911,16.811,32.962,13.185c25.051-3.626,33.951-3.296,33.951-23.073
					C511.903,456.607,514.65,210.71,439.935,117.976z"/>
				<path d="M509.445,503.397c0,0-23.323,8.434-56.12,6.621c0,0-2.553,15.463,4.205,27.495
					c0,0,33.621,6.098,52.739-8.9C510.269,528.613,514.884,514.933,509.445,503.397z"/>
			</g>
			<path d="M374.194,43.84c-15.987-8.57-16.811-10.218-16.811-19.448S366.833,0,256.19,0h-0.32
				C145.227,0,154.676,15.162,154.676,24.392s-0.824,10.878-16.811,19.448c-15.987,8.57-10.713,18.623-10.713,18.623
				s6.757-6.263,30.49,0.659c23.733,6.922,74.165,22.579,98.227,24.722h0.32c24.282-1.272,74.494-17.799,98.227-24.722
				c23.733-6.922,30.49-0.659,30.49-0.659S390.181,52.41,374.194,43.84z M200.462,48.278c-32.927-8.139-35.603-29.039-35.603-29.039
				c8.879,13.689,31.817,17.758,31.817,17.758c44.026,8.509,56.604,44.765,56.604,44.765S233.388,56.417,200.462,48.278z
					M315.402,47.803c-32.927,8.139-56.573,34.33-56.573,34.33s12.579-36.257,56.604-44.766c0,0,22.938-4.069,31.817-17.758
				C347.25,19.609,348.329,39.664,315.402,47.803z"/>
		</g>
		<path d="M148.341,73.97c-36.504-7.911-66.488,32.962-66.488,32.962s43.022,30.764,35.199,164.371
			c-7.822,133.607,6.953,124.377-8.691,172.282c-15.545,47.603-9.994,68.723,140.628,68.988l2.887-418.044
			C229.904,93.535,183.316,81.549,148.341,73.97z"/>
		<path d="M430.51,106.932c0,0-29.985-40.873-66.489-32.962c-35.438,7.68-79.829,19.881-102.605,20.588v418.019
			c152.576-0.173,158.165-21.284,142.585-68.993c-15.644-47.905-0.869-38.675-8.691-172.282
			C387.488,137.696,430.51,106.932,430.51,106.932z"/>
	</g>	
</svg>
