<?xml version="1.0" encoding="utf-8"?>
<!-- Generator: Adobe Illustrator 17.0.1, SVG Export Plug-In . SVG Version: 6.00 Build 0)  -->
<!DOCTYPE svg PUBLIC "-//W3C//DTD SVG 1.1//EN" "http://www.w3.org/Graphics/SVG/1.1/DTD/svg11.dtd">
<svg version="1.1" id="tshirt" xmlns="http://www.w3.org/2000/svg" xmlns:xlink="http://www.w3.org/1999/xlink" x="0px" y="0px"
	 viewBox="0 0 595.28 595.28" enable-background="new 0 0 595.28 595.28" xml:space="preserve">
	<g>
		<g>
			<path d="M183.212-0.008c0,0,97.589,139.489,218.681,0C401.893-0.008,300.662,22.761,183.212-0.008z"/>
			<path d="M77.363,57.034c0,0,34.641,29.524,43.141,190.939l-4.703,9.908c0,0-63.475-15.725-108.214-39.692
				C7.588,218.188,31.825,102.572,77.363,57.034z"/>
			<path d="M508.373,54.248c0,0-37.05,30.638-43.141,190.939l6.546,11.44c0,0,63.475-16.143,108.214-40.11
				C579.992,216.516,553.911,99.786,508.373,54.248z"/>
		</g>
		<path d="M498.046,45.293c0,0-26.639-33.07-83.885-45.067c0,0-38.347,77.365-121.434,77.365h-0.275
			c-83.086,0-121.434-77.365-121.434-77.365c-48.733,10.266-83.885,45.067-83.885,45.067s42.342,23.913,42.342,219.816
			c0,0-7.19,260.284,3.995,301.672c0,0,10.373,28.421,159.12,28.508c148.747-0.086,159.12-28.508,159.12-28.508
			c11.184-41.387,3.994-301.672,3.994-301.672C455.704,69.206,498.046,45.293,498.046,45.293z"/>
	</g>
</svg>
