<?xml version="1.0" encoding="utf-8"?>
<!-- Generator: Adobe Illustrator 17.0.1, SVG Export Plug-In . SVG Version: 6.00 Build 0)  -->
<!DOCTYPE svg PUBLIC "-//W3C//DTD SVG 1.1//EN" "http://www.w3.org/Graphics/SVG/1.1/DTD/svg11.dtd">
<svg version="1.1" id="Livello_1" xmlns="http://www.w3.org/2000/svg" xmlns:xlink="http://www.w3.org/1999/xlink" x="0px" y="0px"
	 width="512px" height="460px" viewBox="0 0 512 460" enable-background="new 0 0 512 460" xml:space="preserve">
<g>
	<g>
		<path fill="#A7A7A7" d="M423.944,306.022l-198.412-74.35L24.959,322.9l62.077,136.483l332.686-151.318
			c-0.077-0.013-0.132-0.016-0.205-0.03L423.944,306.022z"/>
	</g>
	<polygon fill="#FFB836" points="75.146,343.523 209.56,282.935 238.888,347.415 104.473,408.003 	"/>
	<g>
		<path fill="#A7A7A7" d="M467.252,155.489L52.309,0L0,140.01l414.806,155.438c36.434,13.653,77.711-6.61,92.194-45.259
			C521.482,211.541,503.686,169.142,467.252,155.489z M422.79,262.694c-21.337-7.996-32.153-31.775-24.157-53.112
			c7.996-21.337,31.774-32.153,53.112-24.157c21.337,7.996,32.153,31.775,24.157,53.112
			C467.906,259.874,444.128,270.689,422.79,262.694z"/>
		<circle fill="#A7A7A7" cx="437.267" cy="224.059" r="35.03"/>
	</g>
</g>
</svg>
