<?xml version="1.0" encoding="utf-8"?>
<!-- Generator: Adobe Illustrator 17.0.1, SVG Export Plug-In . SVG Version: 6.00 Build 0)  -->
<!DOCTYPE svg PUBLIC "-//W3C//DTD SVG 1.1//EN" "http://www.w3.org/Graphics/SVG/1.1/DTD/svg11.dtd">
<svg version="1.1" id="Livello_1" xmlns="http://www.w3.org/2000/svg" xmlns:xlink="http://www.w3.org/1999/xlink" x="0px" y="0px"
	 width="512px" height="434px" viewBox="0 0 512 434" enable-background="new 0 0 512 434" xml:space="preserve">
<g>
	<path fill="#A7A7A7" d="M496.345,0.5H15.729C7.042,0.5,0,7.542,0,16.229v331.188c0,8.687,7.042,15.729,15.729,15.729h480.616
		c8.687,0,15.729-7.042,15.729-15.729V16.229C512.074,7.542,505.032,0.5,496.345,0.5z M495.471,296.734H18.351V26.715h477.12
		V296.734z"/>
	<g>
		<g>
			<path fill="#FFB836" d="M291.94,130.564h-71.806c-2.604,0-4.734,2.131-4.734,4.734v5.838v54.326c0,2.604,2.131,4.734,4.734,4.734
				h71.806c2.604,0,4.734-2.131,4.734-4.734v-54.326v-5.838C296.675,132.694,294.544,130.564,291.94,130.564z M259.31,169.249v8.791
				c0,1.664-1.361,3.025-3.025,3.025h-0.495c-1.664,0-3.025-1.361-3.025-3.025v-8.791c-2.359-1.197-3.979-3.639-3.979-6.464
				c0-4.005,3.246-7.251,7.251-7.251c4.005,0,7.251,3.246,7.251,7.251C263.288,165.61,261.668,168.052,259.31,169.249z"/>
			<path fill="#FFB836" d="M228.943,116.252c0-15.083,12.325-27.288,27.454-27.092c14.889,0.193,26.734,12.605,26.734,27.496v15.653
				c0,0.677-0.549,1.225-1.225,1.225h-8.569c-0.657,0-1.189-0.532-1.189-1.189V116.57c0-9.034-7.393-16.599-16.425-16.426
				c-8.753,0.167-15.797,7.315-15.797,16.108v16.154c0,0.623-0.505,1.129-1.129,1.129h-8.728c-0.622,0-1.126-0.504-1.126-1.126
				V116.252z"/>
		</g>
		<g>
			<path fill="#A7A7A7" d="M162.238,247.765c0.333,0.143,0.487,0.422,0.463,0.838c-0.024,0.416-0.309,1.087-0.856,2.014
				c-0.547,0.951-0.992,1.533-1.337,1.747c-0.345,0.214-0.659,0.214-0.945,0l-7.593-5.525l0.998,9.34
				c0.071,0.356-0.083,0.63-0.463,0.82c-0.38,0.19-1.117,0.285-2.21,0.285s-1.83-0.095-2.21-0.285
				c-0.38-0.19-0.535-0.463-0.463-0.82l0.998-9.34l-7.557,5.525c-0.285,0.214-0.606,0.214-0.962,0s-0.808-0.796-1.355-1.747
				c-0.547-0.927-0.826-1.598-0.838-2.014s0.149-0.695,0.481-0.838l8.591-3.814l-8.591-3.779c-0.333-0.166-0.493-0.457-0.481-0.873
				s0.291-1.087,0.838-2.014s0.998-1.497,1.355-1.711c0.356-0.214,0.677-0.214,0.962,0l7.557,5.49l-0.998-9.304
				c-0.071-0.38,0.083-0.665,0.463-0.856s1.117-0.285,2.21-0.285s1.83,0.095,2.21,0.285s0.535,0.475,0.463,0.856l-0.998,9.304
				l7.593-5.49c0.285-0.214,0.6-0.214,0.945,0c0.345,0.214,0.79,0.796,1.337,1.747c0.547,0.903,0.832,1.563,0.856,1.978
				c0.024,0.416-0.131,0.707-0.463,0.873l-8.591,3.779L162.238,247.765z"/>
			<path fill="#A7A7A7" d="M215.103,247.765c0.333,0.143,0.487,0.422,0.463,0.838s-0.309,1.087-0.856,2.014
				c-0.547,0.951-0.992,1.533-1.337,1.747c-0.345,0.214-0.659,0.214-0.945,0l-7.593-5.525l0.998,9.34
				c0.071,0.356-0.083,0.63-0.463,0.82c-0.38,0.19-1.117,0.285-2.21,0.285s-1.83-0.095-2.21-0.285
				c-0.38-0.19-0.535-0.463-0.463-0.82l0.998-9.34l-7.557,5.525c-0.285,0.214-0.606,0.214-0.962,0s-0.808-0.796-1.355-1.747
				c-0.547-0.927-0.826-1.598-0.838-2.014c-0.012-0.416,0.149-0.695,0.481-0.838l8.591-3.814l-8.591-3.779
				c-0.333-0.166-0.493-0.457-0.481-0.873c0.012-0.416,0.291-1.087,0.838-2.014c0.547-0.927,0.998-1.497,1.355-1.711
				c0.356-0.214,0.677-0.214,0.962,0l7.557,5.49l-0.998-9.304c-0.071-0.38,0.083-0.665,0.463-0.856s1.117-0.285,2.21-0.285
				s1.83,0.095,2.21,0.285s0.535,0.475,0.463,0.856l-0.998,9.304l7.593-5.49c0.285-0.214,0.6-0.214,0.945,0
				c0.345,0.214,0.79,0.796,1.337,1.747c0.547,0.903,0.832,1.563,0.856,1.978s-0.131,0.707-0.463,0.873l-8.591,3.779
				L215.103,247.765z"/>
			<path fill="#A7A7A7" d="M267.969,247.765c0.333,0.143,0.487,0.422,0.463,0.838c-0.024,0.416-0.309,1.087-0.856,2.014
				c-0.547,0.951-0.992,1.533-1.337,1.747c-0.345,0.214-0.659,0.214-0.945,0l-7.593-5.525l0.998,9.34
				c0.071,0.356-0.083,0.63-0.463,0.82c-0.38,0.19-1.117,0.285-2.21,0.285c-1.093,0-1.83-0.095-2.21-0.285
				c-0.38-0.19-0.535-0.463-0.463-0.82l0.998-9.34l-7.557,5.525c-0.285,0.214-0.606,0.214-0.962,0s-0.808-0.796-1.355-1.747
				c-0.547-0.927-0.826-1.598-0.838-2.014c-0.012-0.416,0.149-0.695,0.481-0.838l8.591-3.814l-8.591-3.779
				c-0.333-0.166-0.493-0.457-0.481-0.873c0.012-0.416,0.291-1.087,0.838-2.014s0.998-1.497,1.355-1.711
				c0.356-0.214,0.677-0.214,0.962,0l7.557,5.49l-0.998-9.304c-0.071-0.38,0.083-0.665,0.463-0.856
				c0.38-0.19,1.117-0.285,2.21-0.285c1.093,0,1.83,0.095,2.21,0.285c0.38,0.19,0.535,0.475,0.463,0.856l-0.998,9.304l7.593-5.49
				c0.285-0.214,0.6-0.214,0.945,0c0.345,0.214,0.79,0.796,1.337,1.747c0.547,0.903,0.832,1.563,0.856,1.978
				c0.024,0.416-0.131,0.707-0.463,0.873l-8.591,3.779L267.969,247.765z"/>
			<path fill="#A7A7A7" d="M320.835,247.765c0.333,0.143,0.487,0.422,0.463,0.838c-0.024,0.416-0.309,1.087-0.856,2.014
				c-0.547,0.951-0.992,1.533-1.337,1.747s-0.659,0.214-0.945,0l-7.593-5.525l0.998,9.34c0.071,0.356-0.083,0.63-0.463,0.82
				c-0.38,0.19-1.117,0.285-2.21,0.285s-1.83-0.095-2.21-0.285c-0.38-0.19-0.535-0.463-0.463-0.82l0.998-9.34l-7.557,5.525
				c-0.285,0.214-0.606,0.214-0.962,0s-0.808-0.796-1.355-1.747c-0.547-0.927-0.826-1.598-0.838-2.014
				c-0.012-0.416,0.149-0.695,0.481-0.838l8.591-3.814l-8.591-3.779c-0.333-0.166-0.493-0.457-0.481-0.873
				c0.012-0.416,0.291-1.087,0.838-2.014s0.998-1.497,1.355-1.711c0.356-0.214,0.677-0.214,0.962,0l7.557,5.49l-0.998-9.304
				c-0.071-0.38,0.083-0.665,0.463-0.856s1.117-0.285,2.21-0.285s1.83,0.095,2.21,0.285c0.38,0.19,0.535,0.475,0.463,0.856
				l-0.998,9.304l7.593-5.49c0.285-0.214,0.6-0.214,0.945,0c0.345,0.214,0.79,0.796,1.337,1.747
				c0.547,0.903,0.832,1.563,0.856,1.978c0.024,0.416-0.131,0.707-0.463,0.873l-8.591,3.779L320.835,247.765z"/>
			<path fill="#A7A7A7" d="M373.701,247.765c0.333,0.143,0.487,0.422,0.463,0.838c-0.024,0.416-0.309,1.087-0.856,2.014
				c-0.547,0.951-0.992,1.533-1.337,1.747s-0.659,0.214-0.945,0l-7.593-5.525l0.998,9.34c0.071,0.356-0.083,0.63-0.463,0.82
				c-0.38,0.19-1.117,0.285-2.21,0.285s-1.83-0.095-2.21-0.285c-0.38-0.19-0.535-0.463-0.463-0.82l0.998-9.34l-7.557,5.525
				c-0.285,0.214-0.606,0.214-0.962,0s-0.808-0.796-1.355-1.747c-0.547-0.927-0.826-1.598-0.838-2.014
				c-0.012-0.416,0.149-0.695,0.481-0.838l8.591-3.814l-8.591-3.779c-0.333-0.166-0.493-0.457-0.481-0.873
				c0.012-0.416,0.291-1.087,0.838-2.014c0.547-0.927,0.998-1.497,1.355-1.711c0.356-0.214,0.677-0.214,0.962,0l7.557,5.49
				l-0.998-9.304c-0.071-0.38,0.083-0.665,0.463-0.856s1.117-0.285,2.21-0.285s1.83,0.095,2.21,0.285s0.535,0.475,0.463,0.856
				l-0.998,9.304l7.593-5.49c0.285-0.214,0.6-0.214,0.945,0c0.345,0.214,0.79,0.796,1.337,1.747
				c0.547,0.903,0.832,1.563,0.856,1.978c0.024,0.416-0.131,0.707-0.463,0.873l-8.591,3.779L373.701,247.765z"/>
		</g>
	</g>
	<path fill="#A7A7A7" d="M255.457,434.112h84.197c0,0,2.84-2.403-2.84-7.209c-5.68-4.806-24.358-13.381-24.358-64.883h-56.998h-0.02
		h-55.817c0,51.502-18.678,60.077-24.358,64.883s-2.84,7.209-2.84,7.209H255.457z"/>
</g>
</svg>
