<?xml version="1.0" encoding="utf-8"?>
<!-- Generator: Adobe Illustrator 17.0.1, SVG Export Plug-In . SVG Version: 6.00 Build 0)  -->
<!DOCTYPE svg PUBLIC "-//W3C//DTD SVG 1.1//EN" "http://www.w3.org/Graphics/SVG/1.1/DTD/svg11.dtd">
<svg version="1.1" id="Livello_1" xmlns="http://www.w3.org/2000/svg" xmlns:xlink="http://www.w3.org/1999/xlink" x="0px" y="0px"
	 width="512px" height="924px" viewBox="0 0 512 924" enable-background="new 0 0 512 924" xml:space="preserve">
<g>
	<g>
		<path fill="#FFB836" d="M323.498,295.888H188.502c-4.895,0-8.901,4.005-8.901,8.901v10.975v102.132
			c0,4.895,4.005,8.901,8.901,8.901h134.996c4.895,0,8.901-4.005,8.901-8.901V315.764v-10.975
			C332.399,299.894,328.394,295.888,323.498,295.888z M262.152,368.616v16.527c0,3.128-2.559,5.687-5.687,5.687h-0.931
			c-3.128,0-5.687-2.559-5.687-5.687v-16.527c-4.434-2.249-7.48-6.841-7.48-12.153c0-7.529,6.103-13.632,13.632-13.632
			c7.529,0,13.632,6.103,13.632,13.632C269.632,361.776,266.587,366.367,262.152,368.616z"/>
		<path fill="#FFB836" d="M205.063,268.981c0-28.357,23.172-51.302,51.613-50.933c27.992,0.363,50.261,23.698,50.261,51.692v29.429
			c0,1.272-1.031,2.303-2.303,2.303h-16.109c-1.235,0-2.235-1.001-2.235-2.235V269.58c0-16.984-13.899-31.206-30.88-30.882
			c-16.456,0.315-29.698,13.753-29.698,30.283v30.37c0,1.172-0.95,2.122-2.122,2.122h-16.409c-1.17,0-2.118-0.948-2.118-2.118
			V268.981z"/>
	</g>
	<g>
		<path fill="#A7A7A7" d="M464.482,0.618H258.764h-5.529H47.517C21.267,0.618-0.013,22.817-0.013,50.2v618.355
			c0,27.383,81.517,254.827,107.767,254.827h145.482h5.529h145.482c26.25,0,107.767-227.444,107.767-254.827V50.2
			C512.013,22.817,490.733,0.618,464.482,0.618z M190.147,611.267H67.506c-20.412,0-36.96-16.548-36.96-36.96
			c0-20.413,16.548-36.96,36.96-36.96h122.641c20.412,0,36.96,16.547,36.96,36.96C227.107,594.719,210.559,611.267,190.147,611.267z
			 M428.709,611.267H306.068c-20.412,0-36.96-16.548-36.96-36.96c0-20.413,16.548-36.96,36.96-36.96h122.641
			c20.412,0,36.96,16.547,36.96,36.96C465.669,594.719,449.121,611.267,428.709,611.267z M475.894,481.504H29.908V166.509h445.986
			V481.504z"/>
		<path fill="#A7A7A7" d="M218.143,574.307c0,16.701-15.039,30.24-33.591,30.24H73.092c-18.552,0-33.591-13.539-33.591-30.24l0,0
			c0-16.701,15.039-30.24,33.591-30.24h111.46C203.104,544.066,218.143,557.605,218.143,574.307L218.143,574.307z"/>
		<path fill="#A7A7A7" d="M456.635,574.237c0,16.701-15.039,30.24-33.591,30.24h-111.46c-18.552,0-33.591-13.539-33.591-30.24l0,0
			c0-16.701,15.039-30.24,33.591-30.24h111.46C441.596,543.996,456.635,557.535,456.635,574.237L456.635,574.237z"/>
	</g>
</g>
</svg>
