<?xml version="1.0" encoding="UTF-8" standalone="no"?>
<svg
   xmlns:dc="http://purl.org/dc/elements/1.1/"
   xmlns:cc="http://creativecommons.org/ns#"
   xmlns:rdf="http://www.w3.org/1999/02/22-rdf-syntax-ns#"
   xmlns:svg="http://www.w3.org/2000/svg"
   xmlns="http://www.w3.org/2000/svg"
   xmlns:sodipodi="http://sodipodi.sourceforge.net/DTD/sodipodi-0.dtd"
   xmlns:inkscape="http://www.inkscape.org/namespaces/inkscape"
   id="svg2"
   version="1.1"
   inkscape:version="0.91 r13725"
   sodipodi:docname="AUS.svg"
   width="57.216732"
   height="46.885563">
  <metadata
     id="metadata10">
    <rdf:RDF>
      <cc:Work
         rdf:about="">
        <dc:format>image/svg+xml</dc:format>
        <dc:type
           rdf:resource="http://purl.org/dc/dcmitype/StillImage" />
      </cc:Work>
    </rdf:RDF>
  </metadata>
  <defs
     id="defs8" />
  <sodipodi:namedview
     pagecolor="#ffffff"
     bordercolor="#666666"
     borderopacity="1"
     objecttolerance="10"
     gridtolerance="10"
     guidetolerance="10"
     inkscape:pageopacity="0"
     inkscape:pageshadow="2"
     inkscape:window-width="480"
     inkscape:window-height="419"
     id="namedview6"
     showgrid="false"
     inkscape:zoom="2.36"
     inkscape:cx="-239.19318"
     inkscape:cy="140.05809"
     inkscape:window-x="0"
     inkscape:window-y="0"
     inkscape:window-maximized="0"
     inkscape:current-layer="svg2" />
  <path
     d="m 45.595062,42.843539 1.37407,0.49087 0.77434,-0.19505 1.1103,-0.27348 0.85306,0.0956 0.10069,1.68818 -0.4872,0.49007 -0.14685,1.14418 -0.49705,-0.38945 -0.98733,0.99115 -0.29443,-0.0764 -0.87459,-0.0443 -0.87673,-1.21737 -0.19461,-0.93891 -0.82065,-1.23883 0.0365,-0.6522 0.93046,0.12597 m -2.61144,-38.4410898 0.51241,1.11595 0.91252,-0.53637 0.47103,0.602 0.6824,0.55541 -0.14611,0.63037 0.30332,1.21951 0.21586,0.71003 0.35821,0.17353 0.386,1.2156098 -0.13744,0.73731 0.46052,0.96455 1.54113,0.74304 1.00483,0.67586 0.95404,0.61905 -0.18624,0.34455 0.81345,0.89179 0.55313,1.53885 0.56753,-0.31251 0.57679,0.61634 0.34749,-0.21865 0.24503,1.50731 1.00924,0.87328 0.66043,0.54276 1.11169,1.15145 0.39959,1.143 0.0367,0.81088 -0.0982,0.88032 0.67777,1.20856 -0.0816,1.25868 -0.24606,0.65867 -0.38379,1.26868 0.029,0.8155 -0.28163,1.01945 -0.62802,1.2936 -1.0537,0.69879 -0.51932,1.10177 -0.47419,0.70306 -0.42157,1.22752 -0.54887,0.70886 -0.35983,1.06429 -0.18359,0.97969 0.0728,0.44972 -0.8155,0.49411 -1.59184,0.0517 -1.31255,0.58333 -0.65367,0.55085 -0.85931,0.61045 -1.17798,-0.62861 -0.87136,-0.25076 0.22078,-0.74135 -0.77729,0.26899 -1.24545,1.02989 -1.22958,-0.3857 -0.80654,-0.22504 -0.81315,-0.10172 -1.37672,-0.41128 -0.91935,-0.87665 -0.26392,-1.07994 -0.33059,-0.71857 -0.69879,-0.57686 -1.36826,-0.17132 0.4675,-0.68983 -0.34403,-1.05605 -0.69461,0.98432 -1.26544,0.26128 0.74377,-0.78677 0.21549,-0.82072 0.54931,-0.69659 -0.11348,-1.05312 -1.15696,1.21282 -0.88856,0.48639 -0.54475,1.13117 -1.11052,-0.58517 0.0441,-0.7548 -0.89003,-1.03136 -0.75024,-0.53291 0.26738,-0.32831 -1.82489,-0.86188 -0.99939,-0.0406 -1.36782,-0.6924 -2.54655,0.13457 -1.84157,0.50925 -1.61859,0.47471 -1.35702,-0.0943 -1.50768,0.7293 -1.23303,0.32815 -0.27407,0.74576 -0.52519,0.5779 -1.20694,0.0345 -0.89312,0.12648 -1.25707,-0.25936 -1.02246,0.15522 -0.9764597,0.0653 -0.84593,0.75847 -0.41467,-0.0643 -0.71341,0.40202 -0.68373,0.45214 -1.03746,-0.0559 -0.95346,-5.2e-4 -1.50864,-0.90833 -0.7645,-0.27009 0.031,-0.81507 0.70614,-0.19366 0.24114,-0.32382 -0.0502,-0.51086 0.17389,-0.98888 -0.15933,-0.84285 -0.75194,-1.43764 -0.23305,-0.81191 0.0611,-0.81014 -0.56614,-0.92567 -0.0362,-0.41789 -0.62993,-0.56651 -0.17734,-1.11404 -0.81264001,-1.12587 -0.197040001307,-0.60671 0.624930001307,0.61508 -0.47985,-1.31946 0.70533,0.41238 0.42091001,0.5507 -0.0237,-0.72841 -0.70386001,-1.11977 -0.13641,-0.44796 -0.3297,-0.42554 0.15434,-0.82263 0.29148,-0.35006 0.19403,-0.71143 -0.15199,-0.83131 0.58767001,-1.02342 0.10745,1.08317 0.60082,-0.97844 1.15543,-0.47552 0.69291,-0.60655 1.08692,-0.52197 0.64669,-0.11105 0.39144,0.17536 1.12073,-0.53005 0.86261,-0.15772 0.21578,-0.31162 0.37645,-0.12979 0.7861,0.0335 1.4947497,-0.41642 0.77317,-0.6314 0.36307,-0.76009 0.83417,-0.72202 0.0639,-0.56753 0.0372,-0.7731698 0.99528,-1.20856 0.59906,1.22789 0.60523,-0.28377 -0.50645,-0.67204 0.44633,-0.69005 0.62751,0.30809 0.17271,-1.08214 0.77714,-0.69968 0.34293,-0.56136 0.71511,-0.24224 0.0223,-0.39739 0.62486,0.16596 0.0251,-0.35748 0.62544,-0.20366 0.68733,-0.19175 1.05069,0.65271 0.78941,0.84233 0.89011,0.01 0.90443,0.1334 -0.30133,-0.78096 0.6813,-1.14058 0.64117,-0.37166 -0.2218,-0.35535 0.61765,-0.81227 0.86144,-0.50168 0.7276,0.16896 1.19497,-0.26796 -0.0257,-0.7268 -1.04179,-0.46824001 0.75736,-0.20659 0.942,0.35255001 0.7556,0.58326 1.19783,0.36388 0.40613,-0.1439 0.88158,0.43722 0.83087,-0.40724 0.53431,0.12384 0.33293,-0.27325 0.65301,0.70364 -0.37902,0.76127 -0.54004,0.57458 -0.48875,0.0473 0.16478,0.56856 -0.41782,0.7107 -0.50513,0.69894 0.10171,0.40151 1.13066,0.78581 1.09537,0.45582 0.7326,0.4897 1.02791,0.8427 0.40099,-0.001 0.74436,0.36417 0.21622,0.43936 1.35776,0.4824198 0.93897,-0.4860198 0.27826,-0.76377 0.28869,-0.63029 0.17653,-0.77986 0.4323,-1.13154 -0.1974,-0.68777 0.10259,-0.41378 -0.16448,-0.81396 0.18639,-1.07149 0.27274,-0.28891 -0.22144,-0.47493 0.34366,-0.75398 0.27002,-0.78141001 0.0359,-0.40576 0.52843,-0.53269999678 0.40114,0.69570999678 0.0988,0.89223001 0.35439,0.17198 0.0607,0.59737 0.51696,0.72349 0.10672,0.80507 -0.0503,0.5166 z"
     style="fill:#cf202e"
     id="path4"
     inkscape:connector-curvature="0" />
</svg>
