<?xml version="1.0" encoding="UTF-8" standalone="no"?>
<svg
   xmlns:dc="http://purl.org/dc/elements/1.1/"
   xmlns:cc="http://creativecommons.org/ns#"
   xmlns:rdf="http://www.w3.org/1999/02/22-rdf-syntax-ns#"
   xmlns:svg="http://www.w3.org/2000/svg"
   xmlns="http://www.w3.org/2000/svg"
   xmlns:sodipodi="http://sodipodi.sourceforge.net/DTD/sodipodi-0.dtd"
   xmlns:inkscape="http://www.inkscape.org/namespaces/inkscape"
   id="svg2"
   version="1.1"
   inkscape:version="0.91 r13725"
   sodipodi:docname="BWA.svg"
   width="13.56335"
   height="13.037124">
  <metadata
     id="metadata10">
    <rdf:RDF>
      <cc:Work
         rdf:about="">
        <dc:format>image/svg+xml</dc:format>
        <dc:type
           rdf:resource="http://purl.org/dc/dcmitype/StillImage" />
      </cc:Work>
    </rdf:RDF>
  </metadata>
  <defs
     id="defs8" />
  <sodipodi:namedview
     pagecolor="#ffffff"
     bordercolor="#666666"
     borderopacity="1"
     objecttolerance="10"
     gridtolerance="10"
     guidetolerance="10"
     inkscape:pageopacity="0"
     inkscape:pageshadow="2"
     inkscape:window-width="480"
     inkscape:window-height="419"
     id="namedview6"
     showgrid="false"
     inkscape:zoom="2.36"
     inkscape:cx="-106.29576"
     inkscape:cy="116.15615"
     inkscape:window-x="0"
     inkscape:window-y="0"
     inkscape:window-maximized="0"
     inkscape:current-layer="svg2" />
  <path
     d="m 8.1830478,1.2433232 0.28619,0.2537 0.44715,0.82301 1.6095502,1.56221 0.60905,0.15295 0.004,0.50168 0.41834,0.90193 1.09978,0.21828 0.90671,0.64265 -2.01237,1.04738 -1.27691,1.06179 -0.4736102,0.94772 -0.42759,0.53424 -0.77384,0.1138398 -0.25003,0.68049 -0.1439,0.4437 -0.90951,0.33117 -1.15755,-0.0703 -0.67939,-0.39834 -0.59943,-0.17272 -0.69379,0.32963 -0.34808,0.68123 -0.67351,0.42781 -0.71121,0.63471 -1.01872,0.14508 -0.31736,-0.49933 0.13105,-0.86658 -0.84322,-1.35136 -0.38394000152,-0.21358 -4.4e-4,-4.1509398 1.40185000152,-0.0495 0.042,-5.06610996 1.0587,-0.047 2.19281,-0.49793 0.5435,0.58628 0.90788,-0.55739 0.43142,-0.003 0.80176,-0.32043999589 0.25569,0.10626999589 0.54747,1.13704996 z"
     style="fill:#cf202e"
     id="path4"
     inkscape:connector-curvature="0" />
</svg>
