<?xml version="1.0" encoding="UTF-8" standalone="no"?>
<svg
   xmlns:dc="http://purl.org/dc/elements/1.1/"
   xmlns:cc="http://creativecommons.org/ns#"
   xmlns:rdf="http://www.w3.org/1999/02/22-rdf-syntax-ns#"
   xmlns:svg="http://www.w3.org/2000/svg"
   xmlns="http://www.w3.org/2000/svg"
   xmlns:sodipodi="http://sodipodi.sourceforge.net/DTD/sodipodi-0.dtd"
   xmlns:inkscape="http://www.inkscape.org/namespaces/inkscape"
   id="svg2"
   version="1.1"
   inkscape:version="0.91 r13725"
   sodipodi:docname="CHN.svg"
   width="87.254662"
   height="50.149124">
  <metadata
     id="metadata10">
    <rdf:RDF>
      <cc:Work
         rdf:about="">
        <dc:format>image/svg+xml</dc:format>
        <dc:type
           rdf:resource="http://purl.org/dc/dcmitype/StillImage" />
      </cc:Work>
    </rdf:RDF>
  </metadata>
  <defs
     id="defs8" />
  <sodipodi:namedview
     pagecolor="#ffffff"
     bordercolor="#666666"
     borderopacity="1"
     objecttolerance="10"
     gridtolerance="10"
     guidetolerance="10"
     inkscape:pageopacity="0"
     inkscape:pageshadow="2"
     inkscape:window-width="480"
     inkscape:window-height="419"
     id="namedview6"
     showgrid="false"
     inkscape:zoom="2.36"
     inkscape:cx="-182.78276"
     inkscape:cy="52.118825"
     inkscape:window-x="0"
     inkscape:window-y="0"
     inkscape:window-maximized="0"
     inkscape:current-layer="svg2" />
  <path
     d="m 52.144078,49.46547 -1.22876,0.68366 -1.16623,-0.44087 -0.0412,-1.2234 0.70093,-0.644481 1.55383,-0.398529 0.81771,0.03373 0.31787,0.542727 -0.62493,0.625853 -0.32919,0.82131 m 24.63036,-44.2053364 2.47525,0.454642 1.68459,1.011076 0.57598,1.336256 2.16091,0.0017 1.23296,-0.561026 2.35053,-0.419255 -0.74737,1.279702 -0.55247,0.520494 -0.48742,1.5581024 -0.95647,1.383623 -1.72611,-0.251868 -1.22061,0.502341 0.37453,1.218038 -0.20461,1.680399 -0.7265,0.03836 0.009,0.722496 -0.91839,-0.839647 -0.56548,0.79702 -2.19655,0.612547 0.22217,0.750241 -1.22972,-0.05174 -0.67513,-0.445749 -0.97712,1.008687 -1.56744,0.764462 -1.15814,0.912114 -1.98834,0.413449 -1.04702,0.664655 -1.53149,0.388239 0.75582,-0.659033 -0.29758,-0.553824 1.12617,-0.955991 -0.75127,-0.74517 -1.23979,0.502047 -1.60573,0.988917 -0.87628,0.918362 -1.3948,0.06835 -0.7254,0.663664 0.74951,0.96165 1.16402,0.233458 0.0476,0.638381 1.12522,0.415395 1.59382,-1.015522 1.26265,0.553677 0.91972,0.03789 0.23048,0.74506 -2.01363,0.397205 -0.6644,0.767843 -1.38303,0.713457 -0.7301,0.995458 1.53076,0.781549 0.55871,1.398911 0.86563,1.30333 0.96587,1.092472 -0.0231,1.05646 -0.89268,0.388386 0.34029,0.758546 0.83711,0.441449 -0.21858,1.158398 -0.36123,1.127125 -0.7947,0.127771 -1.03849,1.539508 -1.15197,1.866562 -1.32071,1.697265 -1.95593,1.312554 -1.97813,1.196982 -1.60271,0.16327 -0.86938,0.631914 -0.49176,-0.461625 -0.80455,0.706805 -1.98754,0.712354 -1.50489,0.218098 -0.48558,1.502024 -0.78817,0.08331 -0.37291,-1.032205 0.33683,-0.55015 -1.90816,-0.455341 -0.67219,0.231584 -1.43184,-0.369093 -0.67719,-0.577858 0.2249,-0.819289 -1.30013,-0.259733 -0.68557,-0.533576 -1.21223,0.757921 -1.38289,0.164115 -1.13425,-0.0072 -0.76311,0.347082 -0.7373,0.208433 0.2149,1.626783 -0.75818,-0.03881 -0.12803,-0.334109 -0.0426,-0.587963 -1.04319,0.414072 -0.61589,-0.261827 -1.05613,-0.53387 0.414,-1.181475 -0.90061,-0.275461 -0.33918,-1.309246 -1.50122,0.23592 0.17051,-1.687086 1.34717,-1.187649 0.0573,-1.173096 -0.0418,-1.088393 -0.62074,-0.339071 -0.47537,-0.837296 -0.83182,0.10576 -1.53355,-0.212549 0.48037,-0.59726 -0.6669,-0.88437 -1.01387,0.598877 -1.19298,-0.34947 -1.63931,0.905683 -1.29455,1.057783 -1.14697,0.177969 -0.62265,-0.382397 -0.75142,-0.03462 -1.01644,-0.329223 -0.76802,0.360789 -0.94089,1.057341 -0.11936,-1.120069 -0.86739,0.299126 -1.6582,-0.13898 -1.60882,-0.326135 -1.15439,-0.624638 -1.10515,-0.280348 -0.47728,-0.683139 -0.79911,-0.204097 -1.43588,-0.926629 -1.14021,-0.437261 -0.58958,0.340247 -1.9767296,-0.994466 -1.39729,-0.900539 -0.39886,-1.567656 1.0207,0.191124 0.0466,-0.726207 -0.56577,-0.727898 0.1439,-1.160162 -1.52863,-1.666948 -2.33899,-0.575138 -0.42091,-1.09284 -1.05083,-0.663075 -0.25319,-0.40812 -0.21336,-0.81069 0.0495,-0.553016 -0.86371002,-0.323784 -0.46743,0.143206 L 3.0837688e-4,19.950323 0.40511838,19.624959 l -0.19593,-0.332751 1.35768002,-0.671931 0.9827,-0.278254 1.50548,0.190758 0.53777,-0.908146 1.8243,-0.169002 0.50697,-0.564518 2.24109,-0.770416 0.19991,-0.321505 -0.11355,-0.810764 0.9757296,-0.370196 -1.2801496,-2.470621 2.8173796,-0.568193 0.72797,-0.316618 1.02621,-2.5463204 2.82142,0.468018 0.79103,-0.642864 0.0679,-1.426177 1.18121,-0.13288 1.08259,-0.946914 0.55651,-0.116931 0.37343,0.992334 1.19533,0.75432 2.02884,0.534091 0.98131,1.145462 -0.54762,1.6617674 0.51168,0.616736 1.6901,0.243196 1.91551,0.198548 1.71832,0.886244 0.87886,0.157868 0.64793,1.311121 0.83476,0.844535 1.56781,-0.03307 2.93555,0.31886 1.89162,-0.19785 1.40398,0.211814 2.10381,0.863864 1.72089,-0.0012 0.62964,0.442222 1.65592,-0.763617 2.29754,-0.493779 2.13166,-0.05394 1.66188,-0.50032 1.02055,-0.761743 0.99542,-0.478271 -0.23018,-0.469415 -0.4542,-0.546512 0.74656,-0.916818 0.80037,0.128617 1.46182,0.288359 1.41714,-0.755091 2.16855,-0.550995 1.04217,-0.940042 1.001,-0.4046664 2.06596,-0.188699 1.12205,0.16033 0.15581,-0.505428 -1.28889,-0.994135 -1.14123,-0.454642 -1.09317,0.52483 -1.4031,-0.221441 -0.80514,0.180431 -0.36631,-0.581459 1.00483,-1.421106 0.69262,-1.072261 1.7073,0.536957 2.00422,-0.898701 -0.0129,-0.625813 1.28382,-1.508493 0.79096,-0.455892 -0.0176,-0.785224 -0.78037,-0.338005 1.17475,-0.70757697 1.76734,-0.256462 1.88552,-0.0385099966 2.12865,0.4234809966 1.24891,0.523728 0.879,1.43437197 0.53299,0.61207 0.49536,0.873382 0.52615,1.393105 z"
     style="fill:#cf202e"
     id="path4"
     inkscape:connector-curvature="0" />
</svg>
