<?xml version="1.0" encoding="UTF-8" standalone="no"?>
<svg
   xmlns:dc="http://purl.org/dc/elements/1.1/"
   xmlns:cc="http://creativecommons.org/ns#"
   xmlns:rdf="http://www.w3.org/1999/02/22-rdf-syntax-ns#"
   xmlns:svg="http://www.w3.org/2000/svg"
   xmlns="http://www.w3.org/2000/svg"
   xmlns:sodipodi="http://sodipodi.sourceforge.net/DTD/sodipodi-0.dtd"
   xmlns:inkscape="http://www.inkscape.org/namespaces/inkscape"
   id="svg2"
   version="1.1"
   inkscape:version="0.91 r13725"
   sodipodi:docname="CIV.svg"
   width="8.5912046"
   height="8.7975426">
  <metadata
     id="metadata10">
    <rdf:RDF>
      <cc:Work
         rdf:about="">
        <dc:format>image/svg+xml</dc:format>
        <dc:type
           rdf:resource="http://purl.org/dc/dcmitype/StillImage" />
      </cc:Work>
    </rdf:RDF>
  </metadata>
  <defs
     id="defs8" />
  <sodipodi:namedview
     pagecolor="#ffffff"
     bordercolor="#666666"
     borderopacity="1"
     objecttolerance="10"
     gridtolerance="10"
     guidetolerance="10"
     inkscape:pageopacity="0"
     inkscape:pageshadow="2"
     inkscape:window-width="480"
     inkscape:window-height="419"
     id="namedview6"
     showgrid="false"
     inkscape:zoom="2.36"
     inkscape:cx="-65.764793"
     inkscape:cy="71.82999"
     inkscape:window-x="0"
     inkscape:window-y="0"
     inkscape:window-maximized="0"
     inkscape:current-layer="svg2" />
  <path
     d="m 8.1731674,7.8643031 -0.64706,0.0145 -0.99233,-0.27807 -0.91179,0.0164 -1.68473,0.24827 -0.98741,0.41047 -1.40825,0.52167 -0.27479,-0.0374 0.10921,-1.17134 0.13604,-0.17804 -0.0433,-0.56036 -0.60236998,-0.59568 -0.45177,-0.0951 -0.414630003298,-0.39044 0.309230003298,-0.63181 -0.14221,-0.68751 0.0656,-0.41363 0.22556,-0.002 0.0838,-0.6203 -0.10987,-0.27465 0.13589,-0.1977 0.52820998,-0.17103 -0.35130998,-1.13851 -0.32782,-0.58782 0.11417,-0.48282999 0.28359,-0.11024 0.18538998,-0.12921 0.39371,0.21355 1.09832,0.0117 0.26175,-0.41503 0.24533,0.0277 0.41065,-0.16036000462 0.22012,0.60828000462 0.33213,-0.17947 0.58679,-0.21075 0.63955,0.31007 0.24856,0.47037 0.63949,0.30030999 0.49749,-0.35769999 0.66638,-0.054 0.97337,0.36673999 0.37733,2.02358 -0.59932,1.19456 -0.3709,1.60602 0.61678,1.22513 -0.0646,0.56118 z"
     style="fill:#cf202e"
     id="path4"
     inkscape:connector-curvature="0" />
</svg>
