<?xml version="1.0" encoding="UTF-8" standalone="no"?>
<svg
   xmlns:dc="http://purl.org/dc/elements/1.1/"
   xmlns:cc="http://creativecommons.org/ns#"
   xmlns:rdf="http://www.w3.org/1999/02/22-rdf-syntax-ns#"
   xmlns:svg="http://www.w3.org/2000/svg"
   xmlns="http://www.w3.org/2000/svg"
   xmlns:sodipodi="http://sodipodi.sourceforge.net/DTD/sodipodi-0.dtd"
   xmlns:inkscape="http://www.inkscape.org/namespaces/inkscape"
   id="svg2"
   version="1.1"
   inkscape:version="0.91 r13725"
   sodipodi:docname="CMR.svg"
   width="10.700852"
   height="15.831784">
  <metadata
     id="metadata10">
    <rdf:RDF>
      <cc:Work
         rdf:about="">
        <dc:format>image/svg+xml</dc:format>
        <dc:type
           rdf:resource="http://purl.org/dc/dcmitype/StillImage" />
      </cc:Work>
    </rdf:RDF>
  </metadata>
  <defs
     id="defs8" />
  <sodipodi:namedview
     pagecolor="#ffffff"
     bordercolor="#666666"
     borderopacity="1"
     objecttolerance="10"
     gridtolerance="10"
     guidetolerance="10"
     inkscape:pageopacity="0"
     inkscape:pageshadow="2"
     inkscape:window-width="480"
     inkscape:window-height="419"
     id="namedview6"
     showgrid="false"
     inkscape:zoom="2.36"
     inkscape:cx="-90.072982"
     inkscape:cy="75.542866"
     inkscape:window-x="0"
     inkscape:window-y="0"
     inkscape:window-maximized="0"
     inkscape:current-layer="svg2" />
  <path
     d="m 6.5237479,15.064599 -0.17706,-0.0775 -0.84188,0.18318 -0.86431,-0.1905 -0.67586,0.0934 -2.31437,-0.0324 0.2077,-1.12289 -0.55585,-0.94027 -0.64889001,-0.24121 -0.28898,-0.63728 L -2.1088582e-6,11.895179 0.01629789,11.502129 l 0.36586,-1.00648 0.67645001,-1.3721999 0.41179,-0.0128 0.84704,-0.8324 0.53916,-0.0236 0.79845,0.58444 0.97705,-0.47923 0.13303,-0.59116 0.31948,-0.57282 0.22034,-0.71967 0.76061,-0.58587 0.28699,-0.99556 0.3017,-0.31695 0.20065,-0.73918 0.37585,-0.90767 1.19812,-1.10052 0.0751,-0.47272 0.15501,-0.25687 -0.56298,-0.56645996 0.0458,-0.45281 L 8.5432279,-8.6451581e-7 9.1086979,0.91071914 l 0.095,0.94360996 -0.052,0.94471 0.77412,1.29278 -0.79434,-0.0139 -0.40128,0.10128 -0.64816,-0.14288 -0.30897,0.67113 0.83946,0.83005 0.61942,0.24144 0.20035,0.58873 0.44832,0.98039 -0.22276,0.38526 -0.71526,1.44132 -0.34131,0.25819 -0.10973,1.1024999 0.14155,0.59899 -0.11458,0.42381 0.67212,0.74271 0.12127,0.51061 0.52505,0.73396 0.6504301,0.45762 0.0635,0.64874 0.15,0.41209 -0.1023,0.76796 -1.1300701,-0.33614 -1.1499,-0.37526 -1.79483,-0.0558 z"
     style="fill:#cf202e"
     id="path4"
     inkscape:connector-curvature="0" />
</svg>
