<?xml version="1.0" encoding="UTF-8" standalone="no"?>
<svg
   xmlns:dc="http://purl.org/dc/elements/1.1/"
   xmlns:cc="http://creativecommons.org/ns#"
   xmlns:rdf="http://www.w3.org/1999/02/22-rdf-syntax-ns#"
   xmlns:svg="http://www.w3.org/2000/svg"
   xmlns="http://www.w3.org/2000/svg"
   xmlns:sodipodi="http://sodipodi.sourceforge.net/DTD/sodipodi-0.dtd"
   xmlns:inkscape="http://www.inkscape.org/namespaces/inkscape"
   id="svg2"
   version="1.1"
   inkscape:version="0.91 r13725"
   sodipodi:docname="CRI.svg"
   width="4.8291969"
   height="4.2554188">
  <metadata
     id="metadata10">
    <rdf:RDF>
      <cc:Work
         rdf:about="">
        <dc:format>image/svg+xml</dc:format>
        <dc:type
           rdf:resource="http://purl.org/dc/dcmitype/StillImage" />
      </cc:Work>
    </rdf:RDF>
  </metadata>
  <defs
     id="defs8" />
  <sodipodi:namedview
     pagecolor="#ffffff"
     bordercolor="#666666"
     borderopacity="1"
     objecttolerance="10"
     gridtolerance="10"
     guidetolerance="10"
     inkscape:pageopacity="0"
     inkscape:pageshadow="2"
     inkscape:window-width="480"
     inkscape:window-height="419"
     id="namedview6"
     showgrid="false"
     inkscape:zoom="2.36"
     inkscape:cx="44.228232"
     inkscape:cy="66.302182"
     inkscape:window-x="0"
     inkscape:window-y="0"
     inkscape:window-maximized="0"
     inkscape:current-layer="svg2" />
  <path
     d="m 4.2324517,4.2554163 -0.7717752,-0.31559 -0.2887633,-0.29853 0.1637844,-0.24691 -0.051667,-0.31423 -0.3943027,-0.34051 -0.5596672,-0.27954 -0.4895895,-0.1823 -0.093449,-0.41602 -0.3730625,-0.25411 0.091428,0.41348 -0.2838024,0.33985 -0.32506998,-0.39467 -0.4569574,-0.14053 -0.1943585,-0.28663 0.00816,-0.433 L 0.40165462,0.65818627 2.4226976e-6,0.45772627 0.32595432,0.18300627 0.54026682,-3.7348955e-6 1.4772961,0.37662627 l 0.3270176,-0.18539 0.4510411,0.11866 0.2357364,0.29266 0.4197321,0.0947 0.3405408,-0.3014 0.3602375,0.77273003 0.5498924,0.57238 0.6677047,0.60707 -0.549966,0.12704 0.0082,0.57242 0.295783,0.21137 -0.212586,0.16845 0.05531,0.25738 -0.118621,0.2884 -0.07482,0.28229 z"
     style="fill:#cf202e"
     id="path4"
     inkscape:connector-curvature="0" />
</svg>
