<?xml version="1.0" encoding="UTF-8" standalone="no"?>
<svg
   xmlns:dc="http://purl.org/dc/elements/1.1/"
   xmlns:cc="http://creativecommons.org/ns#"
   xmlns:rdf="http://www.w3.org/1999/02/22-rdf-syntax-ns#"
   xmlns:svg="http://www.w3.org/2000/svg"
   xmlns="http://www.w3.org/2000/svg"
   xmlns:sodipodi="http://sodipodi.sourceforge.net/DTD/sodipodi-0.dtd"
   xmlns:inkscape="http://www.inkscape.org/namespaces/inkscape"
   id="svg2"
   version="1.1"
   inkscape:version="0.91 r13725"
   sodipodi:docname="FIN.svg"
   width="15.460265"
   height="14.674232">
  <metadata
     id="metadata10">
    <rdf:RDF>
      <cc:Work
         rdf:about="">
        <dc:format>image/svg+xml</dc:format>
        <dc:type
           rdf:resource="http://purl.org/dc/dcmitype/StillImage" />
      </cc:Work>
    </rdf:RDF>
  </metadata>
  <defs
     id="defs8" />
  <sodipodi:namedview
     pagecolor="#ffffff"
     bordercolor="#666666"
     borderopacity="1"
     objecttolerance="10"
     gridtolerance="10"
     guidetolerance="10"
     inkscape:pageopacity="0"
     inkscape:pageshadow="2"
     inkscape:window-width="480"
     inkscape:window-height="419"
     id="namedview6"
     showgrid="false"
     inkscape:zoom="2.36"
     inkscape:cx="-107.36262"
     inkscape:cy="-7.1148419"
     inkscape:window-x="0"
     inkscape:window-y="0"
     inkscape:window-maximized="0"
     inkscape:current-layer="svg2" />
  <path
     d="m 11.301459,1.5636135 -0.20763,0.995789 2.17811,0.94765 -1.31248,1.072371 1.65413,1.618924 -0.95747,1.219283 1.28037,1.058444 -0.58142,0.926776 2.1052,0.9744025 -0.5349,0.725326 -1.32108,0.821568 -3.04514,1.815482 -2.58108,0.113146 -2.50105,0.52145 -2.31385,0.300008 -0.82337,-0.775891 -1.37745,-0.466842 0.31662,-1.401116 -0.69071,-1.282935 0.67814,-0.8282195 1.28955,-0.893263 3.25371,-1.542447 0.94942,-0.297363 -0.14795,-0.601486 -1.97783,-0.672115 -0.48,-0.55342 -0.0376,-2.190162 -2.22,-0.968302 L -4.0997816e-5,1.5046335 0.852359,1.1288885 l 1.58052,0.751932 1.85715,-0.07041 1.52694,0.343738 1.35614,-0.629415 L 7.870579,0.48198152 10.078819,-1.4822453e-6 11.903929,0.56561952 11.301419,1.5636125 Z"
     style="fill:#cf202e"
     id="path4"
     inkscape:connector-curvature="0" />
</svg>
