<?xml version="1.0" encoding="UTF-8" standalone="no"?>
<svg
   xmlns:dc="http://purl.org/dc/elements/1.1/"
   xmlns:cc="http://creativecommons.org/ns#"
   xmlns:rdf="http://www.w3.org/1999/02/22-rdf-syntax-ns#"
   xmlns:svg="http://www.w3.org/2000/svg"
   xmlns="http://www.w3.org/2000/svg"
   xmlns:sodipodi="http://sodipodi.sourceforge.net/DTD/sodipodi-0.dtd"
   xmlns:inkscape="http://www.inkscape.org/namespaces/inkscape"
   id="svg2"
   version="1.1"
   inkscape:version="0.91 r13725"
   sodipodi:docname="ITA.svg"
   width="16.683081"
   height="14.9268">
  <metadata
     id="metadata10">
    <rdf:RDF>
      <cc:Work
         rdf:about="">
        <dc:format>image/svg+xml</dc:format>
        <dc:type
           rdf:resource="http://purl.org/dc/dcmitype/StillImage" />
      </cc:Work>
    </rdf:RDF>
  </metadata>
  <defs
     id="defs8" />
  <sodipodi:namedview
     pagecolor="#ffffff"
     bordercolor="#666666"
     borderopacity="1"
     objecttolerance="10"
     gridtolerance="10"
     guidetolerance="10"
     inkscape:pageopacity="0"
     inkscape:pageshadow="2"
     inkscape:window-width="480"
     inkscape:window-height="419"
     id="namedview6"
     showgrid="false"
     inkscape:zoom="2.36"
     inkscape:cx="-87.599936"
     inkscape:cy="25.070783"
     inkscape:window-x="0"
     inkscape:window-y="0"
     inkscape:window-maximized="0"
     inkscape:current-layer="svg2" />
  <path
     d="m 12.473484,12.635361 -0.51219,1.119444 0.21285,0.440642 -0.29854,0.731352 -1.08766,-0.535671 -0.72319,-0.153458 -1.9850404,-0.723084 0.19903,-0.730213 1.6643,0.130013 1.4508004,-0.154892 1.07964,-0.124133 m -8.9747404,-4.2365668 0.85328,1.009752 -0.19976,1.8810778 -0.64668,-0.08974 -0.5801,0.474817 -0.5385,-0.377215 -0.057,-1.7158598 -0.32463,-0.813079 0.78221,0.07114 0.71114,-0.440898 m 4.50343,-7.90409702 2.0337704,0.367293 -0.1541204,0.70048502 0.3406504,0.605528 -1.1321304,-0.207183 -1.1563,0.504766 0.0786,0.705996 -0.17411,0.40518 0.46618,0.724077 1.33358,0.716286 0.7152504,1.175778 1.58258,1.146124 1.11448,-0.0088 0.34661,0.31434 -0.39901,0.283325 1.27382,0.5141 1.04415,0.430168 1.21958,0.741715 0.14729,0.265613 -0.26576,0.5092858 -0.78934,-0.6640308 -1.23561,-0.234046 -0.59854,0.9199418 1.0279,0.527219 -0.16874,0.742156 -0.59414,0.08434 -0.75965,1.219803 -0.59288,0.109581 0.006,-0.434835 0.29016,-0.762809 0.30912,-0.303793 -0.5554,-0.824213 -0.43407,-0.717205 -0.59039,-0.1771968 -0.41988,-0.613834 -0.91391,-0.258556 -0.6153804,-0.571647 -1.0523,-0.09216 -1.11133,-0.642055 -1.30101,-0.925711 -0.96705,-0.819253 -0.44362,-1.40593 -0.70762,-0.165364 -1.15703,-0.469415 -0.65477,0.192153 -0.82176,0.660026 L 0.97496361,4.8661882 1.1376736,4.2488632 0.36678361,4.0684322 4.1360874e-4,2.9679862 0.49349361,2.5348042 l -0.41856,-0.534017 0.0587,-0.401873 0.61192,0.304639 0.68570999,-0.06762 0.79736,-0.48235 0.2465,0.22541 0.67748,-0.0452 0.30802,-0.57355702 1.05238,0.17822602 0.62655,-0.23988902 0.11281,-0.583076 0.86166,0.202223 0.16537,-0.270537 1.40552,-0.247200998025 0.31772,0.494696998025 z"
     style="fill:#cf202e"
     id="path4"
     inkscape:connector-curvature="0" />
</svg>
