<?xml version="1.0" encoding="UTF-8" standalone="no"?>
<svg
   xmlns:dc="http://purl.org/dc/elements/1.1/"
   xmlns:cc="http://creativecommons.org/ns#"
   xmlns:rdf="http://www.w3.org/1999/02/22-rdf-syntax-ns#"
   xmlns:svg="http://www.w3.org/2000/svg"
   xmlns="http://www.w3.org/2000/svg"
   xmlns:sodipodi="http://sodipodi.sourceforge.net/DTD/sodipodi-0.dtd"
   xmlns:inkscape="http://www.inkscape.org/namespaces/inkscape"
   id="svg2"
   version="1.1"
   inkscape:version="0.91 r13725"
   sodipodi:docname="KAZ.svg"
   width="58.159679"
   height="20.939272">
  <metadata
     id="metadata10">
    <rdf:RDF>
      <cc:Work
         rdf:about="">
        <dc:format>image/svg+xml</dc:format>
        <dc:type
           rdf:resource="http://purl.org/dc/dcmitype/StillImage" />
      </cc:Work>
    </rdf:RDF>
  </metadata>
  <defs
     id="defs8" />
  <sodipodi:namedview
     pagecolor="#ffffff"
     bordercolor="#666666"
     borderopacity="1"
     objecttolerance="10"
     gridtolerance="10"
     guidetolerance="10"
     inkscape:pageopacity="0"
     inkscape:pageshadow="2"
     inkscape:window-width="480"
     inkscape:window-height="419"
     id="namedview6"
     showgrid="false"
     inkscape:zoom="2.36"
     inkscape:cx="-144.08561"
     inkscape:cy="20.169138"
     inkscape:window-x="0"
     inkscape:window-y="0"
     inkscape:window-maximized="0"
     inkscape:current-layer="svg2" />
  <path
     d="m 34.838568,18.65827 -0.81543,0.262893 -1.87582,0.991379 -0.62229,1.017691 -0.5299,0.009 -0.38975,-0.673658 -1.80879,-0.04615 -0.28928,-1.165086 -0.69299,-0.01 0.10613,-1.426509 -1.70267,-1.03882 -2.43916,0.110941 -1.66754,0.207074 -1.35819,-1.281907 -1.16387,-0.537912 -2.20442,-1.018279 -0.26576,-0.123435 -3.6611,0.840456 0.0559,5.244042 -0.72952,0.06938 -0.99542,-1.115182 -0.96132,-0.398418 -1.6143997,0.295929 -0.62839,0.4732 -0.0798,-0.346788 0.34954,-0.592703 -0.27119,-0.495506 -1.64836,-0.484518 -0.64161,-1.27724 -0.7853,-0.359796 -0.0476,-0.463388 1.38363,0.135084 0.0546,-1.039849 1.20959,-0.230959 1.24229,0.212401 0.25599,-1.387519 -0.25334,-0.879445 -1.42324,0.06879 -1.209,-0.347118 -1.64673,0.625372 -1.32683,0.298183 -0.72237,-0.22998 0.14434,-0.731866 -0.90664,-0.950222 -1.05532,0.03969 L 7.8261296e-5,9.9428215 0.82102826,8.8649385 l -0.4154,-0.290086 1.13477004,-1.562585 1.46256,0.824802 0.17712,-1.038747 2.93585,-1.546857 2.22161,-0.03682 3.1347997,0.984765 1.684,0.575322 1.50901,-0.599943 2.25469,-0.02859 1.81901,0.737012 0.41319,-0.422047 1.99768,0.06133 0.35638,-0.673549 -2.30467,-0.97815 1.36496,-0.692804 -0.26635,-0.387467 1.36532,-0.369792 -1.02673,-0.974218 0.65213,-0.485364 5.32187,-0.494881 0.69453,-0.351344 3.55872,-0.52497795 1.27867,-0.590021004551 2.55588,0.306513004551 0.4478,1.47405995 1.48483,-0.346127 1.82666,0.485033 -0.11782,0.776258 1.36415,-0.08114 3.56445,-1.342099 -0.52042,0.445897 1.81438,1.098792 3.17816,3.611967 0.75789,-0.744655 1.95916,0.8194 2.04376,-0.365493 0.78523,0.255911 0.68446,0.821825 0.99439,0.276049 0.60546,0.603654 1.83194,-0.190316 0.75465,0.869965 -1.08259,0.946914 -1.18121,0.13288 -0.0679,1.4261775 -0.79103,0.642864 -2.82142,-0.468018 -1.02621,2.54632 -0.72797,0.316618 -2.81738,0.568193 1.28015,2.470621 -0.97573,0.370196 0.11355,0.810764 -0.87658,-0.208617 -0.7132,-0.51116 -2.11027,-0.148755 -2.3581,-0.03888 -0.51682,0.156619 -2.02538,-0.597958 -0.8072,0.294496 -0.22122,0.839647 -2.33973,-0.489956 -0.93633,0.200679 -0.31853,0.62313 z"
     style="fill:#cf202e"
     id="path4"
     inkscape:connector-curvature="0" />
</svg>
