<?xml version="1.0" encoding="UTF-8" standalone="no"?>
<svg
   xmlns:dc="http://purl.org/dc/elements/1.1/"
   xmlns:cc="http://creativecommons.org/ns#"
   xmlns:rdf="http://www.w3.org/1999/02/22-rdf-syntax-ns#"
   xmlns:svg="http://www.w3.org/2000/svg"
   xmlns="http://www.w3.org/2000/svg"
   xmlns:sodipodi="http://sodipodi.sourceforge.net/DTD/sodipodi-0.dtd"
   xmlns:inkscape="http://www.inkscape.org/namespaces/inkscape"
   id="svg2"
   version="1.1"
   inkscape:version="0.91 r13725"
   sodipodi:docname="LBY.svg"
   width="22.535692"
   height="19.280392">
  <metadata
     id="metadata10">
    <rdf:RDF>
      <cc:Work
         rdf:about="">
        <dc:format>image/svg+xml</dc:format>
        <dc:type
           rdf:resource="http://purl.org/dc/dcmitype/StillImage" />
      </cc:Work>
    </rdf:RDF>
  </metadata>
  <defs
     id="defs8" />
  <sodipodi:namedview
     pagecolor="#ffffff"
     bordercolor="#666666"
     borderopacity="1"
     objecttolerance="10"
     gridtolerance="10"
     guidetolerance="10"
     inkscape:pageopacity="0"
     inkscape:pageshadow="2"
     inkscape:window-width="480"
     inkscape:window-height="419"
     id="namedview6"
     showgrid="false"
     inkscape:zoom="2.36"
     inkscape:cx="-91.254273"
     inkscape:cy="50.15222"
     inkscape:window-x="0"
     inkscape:window-y="0"
     inkscape:window-maximized="0"
     inkscape:current-layer="svg2" />
  <path
     d="m 7.8675768,14.611976 -1.00612,0.528585 -0.79993,-0.781109 -2.24984,-0.613208 -0.62412,-0.890654 -1.12257,-0.660797 -0.66491,0.260578 -0.50572,-0.793089 -0.0534,-0.609423 L 2.6803174e-5,10.016243 0.5644768,9.4219227 l -0.12406,-0.894218 0.18072,-0.77839 -0.10274,-0.648413 0.25047,-1.160271 -0.0773,-0.660834 -0.46008,-1.255705 0.69387,-0.329626 0.1231,-0.600899 -0.15125,-0.589138 0.97661,-0.548055 0.43788,-0.455672 0.69328,-0.408303 L 3.0853768,-2.6023361e-7 4.7558068,0.48955174 l 0.59726,-0.122368 1.18816,0.237312 1.88721,0.63556196 0.66604,1.2641 1.2767102,0.276025 2.00457,0.595356 1.51513,0.707101 0.69351,-0.368968 0.68169,-0.654136 -0.33141,-1.089465 0.44607,-0.691783 1.02478,-0.66645396 0.97914,-0.193991 1.92396,0.291015 0.48503,0.63586196 0.52954,0.006 0.45279,0.242616 1.41318,0.166841 0.34657,0.469632 -0.51478,0.682468 0.22009,0.60827 -0.36629,0.878094 0.42657,1.145651 0,5.0576423 0,5.237333 0,2.840121 -1.63556,0.0043 -0.0175,0.596664 -5.67239,-2.723015 -5.6724102,-2.723029 -1.4358,0.777628 z"
     style="fill:#cf202e"
     id="path4"
     inkscape:connector-curvature="0" />
</svg>
