<?xml version="1.0" encoding="UTF-8" standalone="no"?>
<svg
   xmlns:dc="http://purl.org/dc/elements/1.1/"
   xmlns:cc="http://creativecommons.org/ns#"
   xmlns:rdf="http://www.w3.org/1999/02/22-rdf-syntax-ns#"
   xmlns:svg="http://www.w3.org/2000/svg"
   xmlns="http://www.w3.org/2000/svg"
   xmlns:sodipodi="http://sodipodi.sourceforge.net/DTD/sodipodi-0.dtd"
   xmlns:inkscape="http://www.inkscape.org/namespaces/inkscape"
   id="svg2"
   version="1.1"
   inkscape:version="0.91 r13725"
   sodipodi:docname="MDG.svg"
   width="10.271787"
   height="19.286581">
  <metadata
     id="metadata10">
    <rdf:RDF>
      <cc:Work
         rdf:about="">
        <dc:format>image/svg+xml</dc:format>
        <dc:type
           rdf:resource="http://purl.org/dc/dcmitype/StillImage" />
      </cc:Work>
    </rdf:RDF>
  </metadata>
  <defs
     id="defs8" />
  <sodipodi:namedview
     pagecolor="#ffffff"
     bordercolor="#666666"
     borderopacity="1"
     objecttolerance="10"
     gridtolerance="10"
     guidetolerance="10"
     inkscape:pageopacity="0"
     inkscape:pageshadow="2"
     inkscape:window-width="640"
     inkscape:window-height="480"
     id="namedview6"
     showgrid="false"
     inkscape:zoom="2.36"
     inkscape:cx="-139.51707"
     inkscape:cy="113.56347"
     inkscape:window-x="0"
     inkscape:window-y="0"
     inkscape:window-maximized="0"
     inkscape:current-layer="svg2" />
  <path
     d="m 8.944824,0.61052264 0.37755,0.60508996 0.35204,0.93935 0.22887,1.71097 0.3685,0.6652 -0.1414,0.68204 -0.2515,0.41841 -0.48309,-0.83344 -0.26737,0.42091 0.27127,1.05363 -0.12627,0.60303 -0.39246,0.32852 -0.0896,1.20467 -0.56011,1.6579104 -0.70152,1.95997 -0.87863,2.69456 -0.54475,1.97754 -0.64279,1.64931 -1.15667,0.33683 -1.24156,0.60156 -0.8191,-0.36314 -1.12904,-0.50881 -0.39247002,-0.75046 -0.0939,-1.26089 -0.5008,-1.13381 -0.130080001093,-1.02328 0.254730001093,-1.02533 0.65477,-0.24628 0.004,-0.47339 0.67976002,-1.07817 0.1281,-0.90584 -0.32992,-0.6733604 -0.26943,-0.89686 -0.11362,-1.3105 0.4969,-0.79566 0.19064,-0.90208 0.70887,-0.0524 0.79331,-0.29156 0.52659,-0.25731 0.62471,-0.0191 0.81058,-0.81043 1.17042,-0.87592 0.42678,-0.71548 -0.19366,-0.6078 0.60414,0.17095 0.78397,-0.98829 0.0262,-0.85519996 L 8.448744,1.2642287e-5 8.944904,0.61053264 Z"
     style="fill:#cf202e"
     id="path4"
     inkscape:connector-curvature="0" />
</svg>
