<?xml version="1.0" encoding="UTF-8" standalone="no"?>
<svg
   xmlns:dc="http://purl.org/dc/elements/1.1/"
   xmlns:cc="http://creativecommons.org/ns#"
   xmlns:rdf="http://www.w3.org/1999/02/22-rdf-syntax-ns#"
   xmlns:svg="http://www.w3.org/2000/svg"
   xmlns="http://www.w3.org/2000/svg"
   xmlns:sodipodi="http://sodipodi.sourceforge.net/DTD/sodipodi-0.dtd"
   xmlns:inkscape="http://www.inkscape.org/namespaces/inkscape"
   id="svg2"
   version="1.1"
   inkscape:version="0.91 r13725"
   sodipodi:docname="NIC.svg"
   width="6.4302568"
   height="6.1005201">
  <metadata
     id="metadata10">
    <rdf:RDF>
      <cc:Work
         rdf:about="">
        <dc:format>image/svg+xml</dc:format>
        <dc:type
           rdf:resource="http://purl.org/dc/dcmitype/StillImage" />
      </cc:Work>
    </rdf:RDF>
  </metadata>
  <defs
     id="defs8" />
  <sodipodi:namedview
     pagecolor="#ffffff"
     bordercolor="#666666"
     borderopacity="1"
     objecttolerance="10"
     gridtolerance="10"
     guidetolerance="10"
     inkscape:pageopacity="0"
     inkscape:pageshadow="2"
     inkscape:window-width="640"
     inkscape:window-height="480"
     id="namedview6"
     showgrid="false"
     inkscape:zoom="2.36"
     inkscape:cx="46.68408"
     inkscape:cy="61.896593"
     inkscape:window-x="0"
     inkscape:window-y="0"
     inkscape:window-maximized="0"
     inkscape:current-layer="svg2" />
  <path
     d="M 2.7817997,5.5862389 2.289785,5.1382489 1.6250929,4.5644689 1.3120026,4.0850589 0.71250082,3.6380589 2.3633369e-8,2.9957089 0.15790482,2.7757689 l 0.2347809,0.2141 0.1077075,-0.10051 0.4421482,-0.0585 0.17807918,-0.32485 0.2086901,-0.0126 -0.030243,-0.69939 0.3333382,-0.0336 0.2966274,0.0101 0.3070269,-0.37949 0.4195115,0.28748 0.1459619,-0.17639 0.2620477,-0.16915 0.4964245,-0.39162 0.023629,-0.29274 0.1364809,0.0123 0.1824523,-0.33984 0.1485709,-0.0414 0.2424245,0.21729 0.2847945,0.0643 0.314303,-0.18084 0.3592821,-9.6e-4 0.4937051,-0.18579 L 5.9427627,-3.1095985e-5 6.4302575,0.0290689 l -0.122333,0.13648 -0.07243,0.3175 0.1451166,0.52042 -0.3276424,0.48444 -0.1526498,0.57228 -0.046045,0.62669 0.076362,0.3666 0.035829,0.64029 -0.2172891,0.13971 -0.1329898,0.60832 0.097786,0.3756 -0.2910049,0.36369 0.066183,0.38438 0.2180608,0.23365 -0.3405408,0.3014 -0.4197321,-0.0947 -0.2357364,-0.29266 -0.4510411,-0.11866 -0.3270176,0.18539 -0.9370293,-0.37663 -0.2143125,0.18301 z"
     style="fill:#cf202e"
     id="path4"
     inkscape:connector-curvature="0" />
</svg>
