<?xml version="1.0" encoding="UTF-8" standalone="no"?>
<svg
   xmlns:dc="http://purl.org/dc/elements/1.1/"
   xmlns:cc="http://creativecommons.org/ns#"
   xmlns:rdf="http://www.w3.org/1999/02/22-rdf-syntax-ns#"
   xmlns:svg="http://www.w3.org/2000/svg"
   xmlns="http://www.w3.org/2000/svg"
   xmlns:sodipodi="http://sodipodi.sourceforge.net/DTD/sodipodi-0.dtd"
   xmlns:inkscape="http://www.inkscape.org/namespaces/inkscape"
   id="svg2"
   version="1.1"
   inkscape:version="0.91 r13725"
   sodipodi:docname="NZL.svg"
   width="17.077972"
   height="17.337706">
  <metadata
     id="metadata10">
    <rdf:RDF>
      <cc:Work
         rdf:about="">
        <dc:format>image/svg+xml</dc:format>
        <dc:type
           rdf:resource="http://purl.org/dc/dcmitype/StillImage" />
      </cc:Work>
    </rdf:RDF>
  </metadata>
  <defs
     id="defs8" />
  <sodipodi:namedview
     pagecolor="#ffffff"
     bordercolor="#666666"
     borderopacity="1"
     objecttolerance="10"
     gridtolerance="10"
     guidetolerance="10"
     inkscape:pageopacity="0"
     inkscape:pageshadow="2"
     inkscape:window-width="480"
     inkscape:window-height="419"
     id="namedview6"
     showgrid="false"
     inkscape:zoom="2.36"
     inkscape:cx="-314.81301"
     inkscape:cy="144.3342"
     inkscape:window-x="0"
     inkscape:window-y="0"
     inkscape:window-maximized="0"
     inkscape:current-layer="svg2" />
  <path
     d="m 9.2604147,9.1994933 0.32265,0.5873 1.0114403,-0.57643 0.41128,0.60083 0.001,0.5985397 -0.52916,0.65874 -0.9297203,1.04797 -0.72746,0.57209 0.52461,0.68417 -1.09728,0.0176 -1.21694,0.53592 -0.38085,0.93097 -0.80845,1.43904 -1.11684,0.63551 -0.70982,0.40599 -1.30983,-0.0303 -0.92104,-0.46897 -1.54575996,-0.1 -0.23855999791,-0.52225 0.76412999791,-1.05496 1.78820996,-1.40368 0.91825,-0.2676 1.02174,-0.54115 1.21899,-0.74473 0.85358,-0.73804 0.63235,-1.06002 0.53901,-0.35983 0.21123,-0.7940497 0.99748,-0.65727 0.31544,0.60458 m 2.2636603,-6.77356 1.03055,1.49718 0.0298,-0.97125 0.64184,0.38791 0.21276,1.07583 1.14447,0.46346 0.96088,0.11377 0.81286,-0.54247 0.7207,0.16434 -0.3447,1.26213 -0.43274,0.82991 -1.08582,-0.0292 -0.37975,0.4323 0.13222,0.61185 -0.20924,0.26458 -0.53733,0.76634 -0.70482,0.97396 -1.09919,0.5670197 -0.24415,-0.3732097 -0.59297,-0.20491 0.82014,-1.1699 -0.46574,-0.78265 -1.53047,-0.569 0.0401,-0.5152 1.02761,-0.49624 0.23989,-1.09494 -0.0661,-0.91972 -0.57598,-0.95294 0.0384,-0.25069 -0.67983,-0.58716 -1.1190403,-1.25846 -0.59473,-1.00695996 0.5277,-0.111560003396 0.7740503,0.790070003396 1.10662,0.36879996 0.40195,1.26706 z"
     style="fill:#cf202e"
     id="path4"
     inkscape:connector-curvature="0" />
</svg>
