<?xml version="1.0" encoding="UTF-8" standalone="no"?>
<svg
   xmlns:dc="http://purl.org/dc/elements/1.1/"
   xmlns:cc="http://creativecommons.org/ns#"
   xmlns:rdf="http://www.w3.org/1999/02/22-rdf-syntax-ns#"
   xmlns:svg="http://www.w3.org/2000/svg"
   xmlns="http://www.w3.org/2000/svg"
   xmlns:sodipodi="http://sodipodi.sourceforge.net/DTD/sodipodi-0.dtd"
   xmlns:inkscape="http://www.inkscape.org/namespaces/inkscape"
   id="svg2"
   version="1.1"
   inkscape:version="0.91 r13725"
   sodipodi:docname="PAK.svg"
   width="24.125443"
   height="19.116182">
  <metadata
     id="metadata10">
    <rdf:RDF>
      <cc:Work
         rdf:about="">
        <dc:format>image/svg+xml</dc:format>
        <dc:type
           rdf:resource="http://purl.org/dc/dcmitype/StillImage" />
      </cc:Work>
    </rdf:RDF>
  </metadata>
  <defs
     id="defs8" />
  <sodipodi:namedview
     pagecolor="#ffffff"
     bordercolor="#666666"
     borderopacity="1"
     objecttolerance="10"
     gridtolerance="10"
     guidetolerance="10"
     inkscape:pageopacity="0"
     inkscape:pageshadow="2"
     inkscape:window-width="480"
     inkscape:window-height="419"
     id="namedview6"
     showgrid="false"
     inkscape:zoom="2.36"
     inkscape:cx="-164.57671"
     inkscape:cy="44.304761"
     inkscape:window-x="433"
     inkscape:window-y="149"
     inkscape:window-maximized="0"
     inkscape:current-layer="svg2" />
  <path
     d="M 20.314711,-2.6021104e-7 21.365541,0.66307474 l 0.42091,1.09283996 2.33899,0.575138 -1.37348,1.195329 -1.58529,0.211372 -2.15731,-0.346971 -0.69725,0.613245 0.50395,1.246188 0.49389,0.962238 1.14785,0.702285 -1.21274,0.822707 0.022,1.013795 -1.38061,1.4270603 -0.89157,1.443302 -1.48777,1.491074 -1.65144,-0.108112 -1.56744,1.490817 0.9309,0.638711 0.16205,1.094604 0.79905,0.721247 0.28236,1.221088 -3.1298,-0.0037 -0.94713,0.948862 -1.04246,-0.35965 -0.42414,-1.022247 -1.09883,-1.083064 -2.62033,0.267523 -2.31069,0.0265 -2.00296996,0.199356 0.53591996,-1.652249 2.05148,-0.73466 -0.11767,-0.654954 -0.68049,-0.230224 -0.0393,-1.252582 L 1.276591,11.994608 0.70406104,11.135667 -1.8961008e-5,10.387631 2.383071,11.113913 l 1.42279,-0.21299 0.85012,0.18135 0.28789,-0.311767 0.99049,0.124942 1.84834,-0.591307 0.0497,-1.2102493 0.7928,-0.804994 1.05885,0.0025 0.15544,-0.397903 1.08692,-0.185429 0.52586,0.132438 0.55621,-0.399961 -0.0786,-0.85409 0.60391,-0.858389 0.90517,-0.35987 -0.55901,-0.940925 1.35291,0.04446 0.39106,-0.512079 -0.0594,-0.546438 0.70835,-0.597444 -0.16257,-0.707356 -0.33624,-0.602773 0.83049,-0.61945496 1.52709,-0.298759 1.63204,-0.165218 0.72297,-0.262635 0.82793,-0.159559000211 z"
     style="fill:#cf202e"
     id="path4"
     inkscape:connector-curvature="0" />
</svg>
