<?xml version="1.0" encoding="UTF-8" standalone="no"?>
<svg
   xmlns:dc="http://purl.org/dc/elements/1.1/"
   xmlns:cc="http://creativecommons.org/ns#"
   xmlns:rdf="http://www.w3.org/1999/02/22-rdf-syntax-ns#"
   xmlns:svg="http://www.w3.org/2000/svg"
   xmlns="http://www.w3.org/2000/svg"
   xmlns:sodipodi="http://sodipodi.sourceforge.net/DTD/sodipodi-0.dtd"
   xmlns:inkscape="http://www.inkscape.org/namespaces/inkscape"
   id="svg2"
   version="1.1"
   inkscape:version="0.91 r13725"
   sodipodi:docname="PHL.svg"
   width="13.316479"
   height="18.381119">
  <metadata
     id="metadata10">
    <rdf:RDF>
      <cc:Work
         rdf:about="">
        <dc:format>image/svg+xml</dc:format>
        <dc:type
           rdf:resource="http://purl.org/dc/dcmitype/StillImage" />
      </cc:Work>
    </rdf:RDF>
  </metadata>
  <defs
     id="defs8" />
  <sodipodi:namedview
     pagecolor="#ffffff"
     bordercolor="#666666"
     borderopacity="1"
     objecttolerance="10"
     gridtolerance="10"
     guidetolerance="10"
     inkscape:pageopacity="0"
     inkscape:pageshadow="2"
     inkscape:window-width="480"
     inkscape:window-height="419"
     id="namedview6"
     showgrid="false"
     inkscape:zoom="2.36"
     inkscape:cx="-244.64786"
     inkscape:cy="70.062573"
     inkscape:window-x="0"
     inkscape:window-y="0"
     inkscape:window-maximized="0"
     inkscape:current-layer="svg2" />
  <path
     d="m 13.088053,14.350966 0.14464,0.94485 0.0838,0.79783 -0.48449,1.30146 -0.51961,-1.44984 -0.66498,0.72139 0.45412,1.04793 -0.40767,0.66653 -1.67357,-0.82539 -0.3997401,-1.02937 0.4337001,-0.67623 -0.9009101,-0.6726 -0.44678,0.58973 -0.66925,-0.0547 -1.05245,0.79353 -0.23548,-0.41628 0.55812,-1.19871 0.89606,-0.40004 0.77552,-0.53585 0.50271,0.64382 1.0813401,-0.38945 0.23202,-0.63467 1.0052,-0.0378 -0.0843,-1.09986 1.15285,0.67451 0.11936,0.71621 0.0998,0.52307 m -3.4053301,-2.65113 -0.51094,0.46747 -0.44553,0.89859 -0.44663,0.42109 -0.87585,-0.983 0.29303,-0.3807 0.35697,-0.39839 0.15691,-0.88279 0.78427,-0.0836 -0.22909,0.9575 1.05268,-1.37293 -0.13582,1.35672 m -7.79073,1.36874 -1.891990009477,1.34953 0.697169999477,-0.99469 1.02747001,-0.87838 0.85394,-0.98388 0.74547,-1.4128 0.25341,1.15964 -0.93898,0.78313 -0.74649,0.97745 m 4.80564,-3.6627504 0.85372,0.44028 0.9051,-0.002 -0.0276,0.5941004 -0.65867,0.60391 -0.90326,0.42708 -0.0501,-0.66087 0.10098,-0.72554 -0.22019,-0.6768604 m 5.1470301,-0.38533 0.39952,1.5880104 -1.09736,-0.37736 0.0297,0.47735 0.348,0.87765 -0.67645,0.31863 -0.0592,-1.00027 -0.42818,-0.0739 -0.22269,-0.8610704 0.83696,0.1134704 -0.0185,-0.5384604 -0.8693,-1.08597 1.36584,0.0314 0.39173,0.53053 m -5.6535601,-1.28981 -0.37718,1.22884 -0.60913,-0.7096 -0.72599,-1.08361 1.21841,0.0522 0.49389,0.51215 m -0.2931,-7.72903002 0.87651,0.40606 0.43862,-0.37034 0.12935,0.36134 -0.23136,0.58965 0.48551,1.01942002 -0.37454,1.18195 -0.83843,0.47136 -0.22431,1.1466 0.31824,1.13271 0.75391,0.1567 0.62912,-0.16831 1.77638,0.7885 -0.13537,0.7742 0.4639,0.34168 -0.14773,0.65543 -1.10845,-0.6981 -0.52535,-0.74722 -0.36593,0.52207 -0.90554,-0.85141 -1.29175,0.2102 -0.70791,-0.31427 0.0722,-0.58789 0.44435,-0.36178 -0.42451,-0.32892 -0.18373,0.51255 -0.70218,-0.81719 -0.21262,-0.61935 -0.0528,-1.36157 0.57275,0.46801 0.14728,-2.22499 0.46339,-1.28875001772 0.86107,0.001999998 z"
     style="fill:#cf202e"
     id="path4"
     inkscape:connector-curvature="0" />
</svg>
