<?xml version="1.0" encoding="UTF-8" standalone="no"?>
<svg
   xmlns:dc="http://purl.org/dc/elements/1.1/"
   xmlns:cc="http://creativecommons.org/ns#"
   xmlns:rdf="http://www.w3.org/1999/02/22-rdf-syntax-ns#"
   xmlns:svg="http://www.w3.org/2000/svg"
   xmlns="http://www.w3.org/2000/svg"
   xmlns:sodipodi="http://sodipodi.sourceforge.net/DTD/sodipodi-0.dtd"
   xmlns:inkscape="http://www.inkscape.org/namespaces/inkscape"
   id="svg2"
   version="1.1"
   inkscape:version="0.91 r13725"
   sodipodi:docname="PNG.svg"
   width="21.361429"
   height="11.594629">
  <metadata
     id="metadata10">
    <rdf:RDF>
      <cc:Work
         rdf:about="">
        <dc:format>image/svg+xml</dc:format>
        <dc:type
           rdf:resource="http://purl.org/dc/dcmitype/StillImage" />
      </cc:Work>
    </rdf:RDF>
  </metadata>
  <defs
     id="defs8" />
  <sodipodi:namedview
     pagecolor="#ffffff"
     bordercolor="#666666"
     borderopacity="1"
     objecttolerance="10"
     gridtolerance="10"
     guidetolerance="10"
     inkscape:pageopacity="0"
     inkscape:pageshadow="2"
     inkscape:window-width="480"
     inkscape:window-height="419"
     id="namedview6"
     showgrid="false"
     inkscape:zoom="2.36"
     inkscape:cx="-278.53363"
     inkscape:cy="93.150188"
     inkscape:window-x="433"
     inkscape:window-y="149"
     inkscape:window-maximized="0"
     inkscape:current-layer="svg2" />
  <path
     d="m 21.162407,6.1439914 -0.39827,0.14221 -0.61582,-0.54621 -0.62266,-0.90326 -0.30588,-1.08332 0.19682,-0.13751 0.15287,0.42318 0.43083,0.32257 0.68953,0.9015 0.6716,0.48264 -0.19902,0.3982 m -5.54273,-1.90853 -0.7448,0.11693 -0.22431,0.39886 -0.77788,0.34565 -0.72995,0.33279 -0.75553,-0.002 -1.16608,-0.41312 -0.81227,-0.39666 0.11788,-0.44001 1.27515,0.20762 0.77817,-0.11127 0.21431,-0.68182 0.2041,-0.0352 0.13817,0.75502 0.81146,-0.10863 0.40136,-0.48661 0.7939,-0.50719 -0.15648,-0.83807 0.85182,-0.0271 0.28722,0.2335 -0.0285,0.7889 -0.47772,0.86812 m -6.8137596,2.71639 1.2697096,0.9331 0.92369,1.50834 0.81455,-0.0472 -0.0572,0.63 1.09809,0.2416496 -0.42656,0.26826 1.51158,0.5984 -0.15795,0.41106 -0.94177,0.0992 -0.34998,-0.36865 -1.22193,-0.15978 -1.4366196,-0.21402 -1.10588,-0.9073796 -0.8072,-0.78206 -0.7387,-1.24464 -1.85503,-0.62192 -1.20473,0.40562 -0.86857,0.46956 0.18138,1.049 -1.11713,0.48889 -0.79669,-0.23783 -1.47114997,-0.0593 -0.0239,-4.63484 L -5.2572575e-5,0.14218142 2.4675574,1.1221014 l 2.6293,0.81388 0.9802,0.72864 0.79162,0.71503 0.21637,0.83785 2.36964,0.87901 0.34565,0.75428 -1.30873,0.15309 0.31426,0.94772 m 8.4596096,-4.10743 -0.44479,0.37894 -0.26826,-0.83954 -0.33087,-0.54952 -0.64397,-0.46604 -0.80918,-0.60677998 -1.02718,-0.41804 0.39526,-0.34344000451 0.76803,0.39820000451 0.4836,0.31287 0.5973,0.34137998 0.56892,0.5973 0.54042,0.45516 0.17072,0.73951 z"
     style="fill:#cf202e"
     id="path4"
     inkscape:connector-curvature="0" />
</svg>
