<?xml version="1.0" encoding="UTF-8" standalone="no"?>
<svg
   xmlns:dc="http://purl.org/dc/elements/1.1/"
   xmlns:cc="http://creativecommons.org/ns#"
   xmlns:rdf="http://www.w3.org/1999/02/22-rdf-syntax-ns#"
   xmlns:svg="http://www.w3.org/2000/svg"
   xmlns="http://www.w3.org/2000/svg"
   xmlns:sodipodi="http://sodipodi.sourceforge.net/DTD/sodipodi-0.dtd"
   xmlns:inkscape="http://www.inkscape.org/namespaces/inkscape"
   id="svg2"
   version="1.1"
   inkscape:version="0.91 r13725"
   sodipodi:docname="PRY.svg"
   width="11.935428"
   height="11.670403">
  <metadata
     id="metadata10">
    <rdf:RDF>
      <cc:Work
         rdf:about="">
        <dc:format>image/svg+xml</dc:format>
        <dc:type
           rdf:resource="http://purl.org/dc/dcmitype/StillImage" />
      </cc:Work>
    </rdf:RDF>
  </metadata>
  <defs
     id="defs8" />
  <sodipodi:namedview
     pagecolor="#ffffff"
     bordercolor="#666666"
     borderopacity="1"
     objecttolerance="10"
     gridtolerance="10"
     guidetolerance="10"
     inkscape:pageopacity="0"
     inkscape:pageshadow="2"
     inkscape:window-width="480"
     inkscape:window-height="419"
     id="namedview6"
     showgrid="false"
     inkscape:zoom="2.36"
     inkscape:cx="11.152081"
     inkscape:cy="117.18009"
     inkscape:window-x="0"
     inkscape:window-y="0"
     inkscape:window-maximized="0"
     inkscape:current-layer="svg2" />
  <path
     d="M 2.5960232e-7,4.1333758 0.56018126,2.4304158 0.59605126,1.6654058 1.2781983,0.41385584 3.7567933,-4.1633101e-6 5.0773583,0.02009584 l 1.324901,0.72746 0.02429,0.43846996 0.420577,0.79074 -0.09455,1.93065 1.501363,0.27303 0.58054,-0.27854 0.960511,0.38489 0.2663467,0.42481 0.132329,1.30329 0.166246,0.54747 0.530269,0.0631 0.53343,-0.22996 0.511821,0.25804 -7.35e-4,0.78192 -0.192668,0.84108 -0.279245,0.82072 -0.23254,1.2551602 -1.2900267,1.08949 -1.124773,0.2285 -1.597238,-0.21703 -1.434189,-0.3871 1.400197,-2.1618702 -0.20417,-0.62765 -1.464763,-0.55592 -1.737724,-1.05054 -1.162807,-0.2163 L 5.2596023e-6,4.1333858 Z"
     style="fill:#cf202e"
     id="path4"
     inkscape:connector-curvature="0" />
</svg>
