<?xml version="1.0" encoding="UTF-8" standalone="no"?>
<svg
   xmlns:dc="http://purl.org/dc/elements/1.1/"
   xmlns:cc="http://creativecommons.org/ns#"
   xmlns:rdf="http://www.w3.org/1999/02/22-rdf-syntax-ns#"
   xmlns:svg="http://www.w3.org/2000/svg"
   xmlns="http://www.w3.org/2000/svg"
   xmlns:sodipodi="http://sodipodi.sourceforge.net/DTD/sodipodi-0.dtd"
   xmlns:inkscape="http://www.inkscape.org/namespaces/inkscape"
   id="svg2"
   version="1.1"
   inkscape:version="0.91 r13725"
   sodipodi:docname="RUS.svg"
   width="512"
   height="57.029667">
  <metadata
     id="metadata10">
    <rdf:RDF>
      <cc:Work
         rdf:about="">
        <dc:format>image/svg+xml</dc:format>
        <dc:type
           rdf:resource="http://purl.org/dc/dcmitype/StillImage" />
      </cc:Work>
    </rdf:RDF>
  </metadata>
  <defs
     id="defs8" />
  <sodipodi:namedview
     pagecolor="#ffffff"
     bordercolor="#666666"
     borderopacity="1"
     objecttolerance="10"
     gridtolerance="10"
     guidetolerance="10"
     inkscape:pageopacity="0"
     inkscape:pageshadow="2"
     inkscape:window-width="480"
     inkscape:window-height="419"
     id="namedview6"
     showgrid="false"
     inkscape:zoom="2.36"
     inkscape:cx="178"
     inkscape:cy="19.473542"
     inkscape:window-x="0"
     inkscape:window-y="0"
     inkscape:window-maximized="0"
     inkscape:current-layer="svg2" />
  <path
     d="m 460.29939,43.381759 1.43095,2.519054 -2.1052,-0.469562 -0.87503,2.055077 1.38641,1.457561 -0.0401,0.993877 -1.07744,-0.857396 -0.93251,1.100813 -0.26326,-1.193491 0.15861,-1.385535 -0.16214,-1.534657 0.32904,-1.075163 0.0628,-1.901767 -0.83329,-1.398176 0.12583,-1.943511 1.31468,-0.654476 -0.56488,-0.65896 0.63294,-0.199687 0.36953,0.94052 0.49242,1.370763 -0.0364,1.399609 0.58701,1.435107 m -171.97072,-5.091465 -2.61526,0.02135 -1.75161,-0.161506 0.32404,-0.625887 1.96262,-0.461256 1.48946,0.249149 0.62868,0.225741 -0.15177,0.389452 0.11384,0.362957 M 7.09081,20.858382 l 0.95918,0.353834 -0.32994,-1.033429 3.86063,0.212068 2.78433,1.330972 -1.41012,0.619876 -2.33128,0.147171 -0.0352,1.389682 L 10.01906,24.17452 8.68713,24.13198 7.60328,23.636122 5.71228,23.221359 5.39423,22.604414 3.94996,22.371781 2.33251,22.556271 1.55969,22.058607 1.86861,21.53001 0.16527,21.867859 0.80683,22.536943 -3e-5,23.140536 l 0,-5.66603 3.48444,1.08606 3.72872,1.413846 -0.12232,0.883968 M 512,14.816996 l -1.55957,0.07262 -0.25334,-0.451783 1.81291,-0.592945 0,0.97211 M 1.85774,14.730496 0,14.816996 l 0,-0.97211 0.18222,-0.0596 1.2054,0.003 2.05708,0.406827 -0.12178,0.194432 -1.46518,0.340978 m 458.37885,-3.298731 -2.15641,0.01 -2.9148,-0.158549 -0.24894,-0.07525 1.3491,-0.562105 1.77829,-0.131584 2.02064,0.543759 0.17212,0.373774 m 10.13734,-2.6618596 -1.64373,0.561977 -2.27336,-0.127196 -2.64288,-0.561245 0.34033,-0.460572 2.65066,0.21472 3.56898,0.372316 m -8.02899,-0.680625 -1.11827,1.056177 -5.24258,-0.03937 -2.35858,0.335929 -2.81749,-0.924715 0.76426,-0.977777 1.87636,-0.266795 3.75543,0.06239 5.14087,0.754155 m -124.5164,6.8866286 -0.84013,0.124758 -4.64725,-0.184767 -0.3774,-0.631473 -2.5744,-0.381294 -0.20784,-0.768173 1.45425,-0.305153 -0.0485,-0.775523 2.8209,-1.212894 -1.30748,-0.17389 3.40504,-1.2482456 -0.38475,-0.645583 3.1811,-0.750902 4.69533,-0.913768 4.73361,-0.2662 2.43571,-0.527256 2.76777,-0.184768 0.98865,0.561615 -0.95521,0.442553 -5.03929,0.705261 -4.34321,0.678216 -4.41802,1.353711 -2.11954,1.3881066 -2.22926,1.367859 0.28943,1.181401 2.7205,1.166409 m 70.30676,-8.8941886 0.38381,0.702848 1.29963,-0.346097 4.15781,0.01899 3.20604,0.693703 1.14156,0.532765 -0.35382,0.739342 -1.57327,0.420878 -3.7375,0.789519 -1.06845,0.4220156 1.76356,0.199111 2.10373,0.358769 1.2805,-0.26907 0.72539,0.912896 0.62468,-0.369536 2.27415,-0.224668 4.56322,0.234851 0.34655,0.665202 5.94583,0.211598 0.0812,-1.086307 3.01828,0.248931 2.27049,-0.0078 2.29664,0.749199 0.65466,0.910208 -0.84134,0.595512 1.78629,1.119232 2.23658,0.577494 1.37233,-1.492352 2.28147,0.639829 2.42385,-0.382336 2.75288,0.437504 1.04752,-0.398791 2.32639,0.199396 -1.02673,-1.320335 1.8777,-0.616135 12.84527,0.923606 1.21057,0.844188 3.72298,1.086876 5.7429,-0.26907 2.83152,0.234226 1.18403,0.58806 -0.17301,1.040015 1.75199,0.404906 1.9037,-0.291214 2.52218,-0.03725 2.685,0.279097 2.69554,-0.15744 2.47745,1.264199 1.76249,-0.454869 -1.15012,-0.908985 0.63324,-0.631851 4.53755,0.397654 2.95839,-0.08508 4.09027,0.678756 1.99111,0.620606 0,5.66603 -0.0102,0.0076 -1.82842,0.624924 -1.84309,-0.10422 1.28245,0.75702 0.84658,1.171855 0.65719,0.383075 0.16501,0.588345 -0.36709,0.376661 -2.65095,-0.30976 -3.97513,1.070578 -1.26458,0.165746 -2.17618,0.999268 -2.06436,0.872988 -0.52288,0.646272 -2.03433,-0.983865 -3.70557,1.116445 -0.64709,-0.528285 -1.36997,0.60928 -1.90215,-0.195001 -0.45821,0.935396 -1.70635,1.376327 0.0507,0.574805 1.61982,0.318706 -0.19053,2.070457 -1.32034,0.05269 -0.60888,1.189703 0.59169,0.612324 -2.48707,0.726485 -0.49357,1.623837 -2.12023,0.346865 -0.42633,1.444964 -2.04998,1.324999 -0.52592,-0.97984 -0.60897,-2.074951 -0.79382,-3.160292 0.68374,-1.972465 1.19997,-0.848754 0.0742,-0.664661 2.21011,-0.318166 2.54053,-1.790606 2.44821,-1.462372 2.55666,-1.134791 1.14327,-2.004921 -1.72819,0.119951 -0.85406,1.171584 -3.60736,1.561984 -1.16503,-1.74895 -3.67167,0.482902 -3.55928,2.383985 1.17432,0.87215 -3.17426,0.371342 -2.19893,0.146432 0.103,-1.028366 -2.21076,-0.215851 -1.76199,0.698667 -4.34857,-0.244466 -4.67826,0.421532 -4.60706,2.776079 -5.45037,3.354254 2.24074,0.179257 0.69932,0.890638 1.38138,0.316174 0.91012,-0.710457 1.56001,0.09226 2.0534,1.564601 0.0482,1.210026 -1.1119,1.420943 -0.11996,1.698332 -0.64163,2.273877 -2.14359,2.058041 -0.47646,0.983751 -1.93051,1.656107 -1.91569,1.641956 -0.9187,0.840234 -1.89514,0.834475 -0.89685,0.01846 -0.89344,-0.691299 -1.90891,1.040811 -0.22168,0.47323 -0.19911,-0.248889 -0.009,-0.72251 0.7265,-0.03836 0.20461,-1.680399 -0.37456,-1.218048 1.22064,-0.502331 1.7261,0.251835 0.95648,-1.38359 0.4874,-1.55812 0.55248,-0.520491 0.74738,-1.279687 -2.35053,0.419255 -1.23293,0.56104 -2.16097,-0.0017 -0.57595,-1.336259 -1.68459,-1.011076 -2.47526,-0.454642 -0.52614,-1.393105 -0.49536,-0.873382 -0.53299,-0.61207 -0.879,-1.434372 -1.24891,-0.523728 -2.1287,-0.423474 -1.88547,0.03851 -1.76734,0.256462 -1.17475,0.707577 0.78037,0.338005 0.0177,0.785232 -0.79093,0.455908 -1.28382,1.508451 0.0129,0.625831 -2.00422,0.898701 -1.7073,-0.536957 -1.69686,0.118548 -0.74465,-0.476544 -0.85284,-0.153679 -2.08316,1.002293 -1.87236,0.235516 -1.30734,0.352484 -1.79138,-0.231584 -1.3188,0.01481 -0.86327,-0.726979 -1.39289,-0.683507 -1.42537,-0.18734 -1.79912,0.185884 -1.34405,0.263614 -2.02049,-0.598178 -0.27119,-1.065742 -1.67215,-0.365434 -1.29102,-0.166614 -1.59323,-0.58789 -1.47307,1.47395 0.57745,0.837112 -1.3824,0.990366 -2.05616,-0.357561 -1.41948,-0.05116 -0.95059,-0.664325 -1.48388,-0.02098 -1.23662,-0.436452 -2.16327,0.668955 -2.71374,1.224947 -1.49945,0.246504 -0.55651,0.116931 -0.75465,-0.869965 -1.83194,0.190316 -0.60546,-0.603654 -0.99439,-0.276049 -0.68446,-0.821825 -0.78523,-0.255911 -2.04376,0.365493 -1.95916,-0.8194 -0.75789,0.744655 -3.17816,-3.611967 -1.81438,-1.098792 0.52042,-0.445897 -3.56449,1.342115 -1.36411,0.08112 0.11782,-0.776258 -1.82666,-0.485033 -1.48483,0.346127 -0.4478,-1.47406 -2.55588,-0.306513 -1.27867,0.590021 -3.55873,0.525002 -0.69452,0.35132 -5.32186,0.494902 -0.65214,0.485343 1.02673,0.974218 -1.36532,0.369792 0.26635,0.387467 -1.36496,0.692804 2.30467,0.97815 -0.35638,0.673549 -1.99768,-0.06133 -0.41319,0.422047 -1.81897,-0.736993 -2.25471,0.02857 -1.50903,0.59995 -1.684,-0.575331 -3.1348,-0.984765 -2.22161,0.03682 -2.93585,1.546857 -0.17712,1.038747 -1.46256,-0.824802 -1.13477,1.562585 0.4154,0.290086 -0.82095,1.077883 1.20718,0.964697 1.0553,-0.03971 0.90664,0.950247 -0.14433,0.731858 0.72236,0.229988 -0.64818,0.843434 -1.37884,0.234383 -1.41355,1.468145 1.2927,1.349746 -0.13997,0.957981 1.55285,1.674951 -0.84919,0.573242 -0.24408,0.361818 -0.62912,-0.09716 -0.97741,-0.863865 -0.39982,-0.0477 -0.89394,-0.329622 -0.43537,-0.583595 -1.32644,-0.297546 -0.86246,0.223335 -0.2492,-0.264348 -1.93648,-0.681913 -2.09381,-0.230187 -1.2021,-0.243135 -0.17345,0.167974 -1.81334,-1.201781 -1.62259,-0.536476 -1.22832,-0.835528 1.03497,-0.227299 1.18013,-1.18949 -0.79535,-0.562773 2.09629,-0.580523 -0.0377,-0.310912 -1.27667,0.22922 0.0449,-0.631766 0.7331,-0.397113 1.37629,-0.104273 0.22378,-0.474272 -0.31427,-0.784228 0.57762,-0.74469 -0.0167,-0.417593 -2.09643,-0.462808 -0.83109,0.01536 -0.87775,-0.666015 -1.09126,0.225226 -1.8063,-0.500062 0.031,-0.279812 -0.50592,-0.616721 -1.13404,-0.06887 -0.11781,-0.441487 0.3552,-0.287955 -0.90884,-0.805252 -1.47476,0.1374 -0.43193,-0.07144 -0.35928,0.323477 -0.53116,-0.0575 -0.3498,-0.910752 -0.33396,-0.472097 0.27369,-0.132884 1.14757,0.04936 0.55342,-0.311032 -0.40967,-0.3792 -0.95904,-0.250288 0.0856,-0.256866 -0.57878,-0.259439 -0.89164,-0.93115 0.30478,-0.383682 -0.13927,-0.667632 -1.39039,-0.339181 -0.74627,0.169774 -0.20204,-0.353072 -1.49732,-0.356673 -0.45714,-0.83939 -0.12127,-0.689681 -0.68527,-0.327495 0.60943,-0.451372 -0.42174,-1.326465 1.01198,-0.819563 -0.21416,-0.248242 1.61647,-0.786034 -1.49006,-0.676224 3.04513,-1.815477 1.32108,-0.821568 0.5349,-0.725326 -2.1052,-0.974402 0.58142,-0.926776 -1.28037,-1.058444 0.95747,-1.219283 -1.65413,-1.618924 1.31248,-1.072371 -2.17811,-0.94765 0.20763,-0.995789 1.14861,-0.131047 2.41996,-0.570582 1.46722,-0.494706 2.33635,0.859776 3.89475,0.338489 5.37369,1.608562 1.0916,0.67594 0.094,0.94656 -1.57884,0.747235 -2.32232,0.379236 -6.34914,-1.081003 -1.04429,0.180736 2.31869,1.041607 0.0907,0.659822 0.0929,1.453288 1.83094,0.433664 1.11138,0.369237 0.18381,-0.689607 -0.85674,-0.6112 0.90519,-0.538681 3.43809,0.885234 1.19773,-0.346553 -0.95716,-1.041579 3.31448,-1.392939 1.31264,0.08199 1.32794,0.497066 0.82846,-0.977436 -1.18595,-0.847801 0.69626,-0.850574 -1.04551,-0.882176 3.97821,0.456234 0.81257,0.796487 -1.80077,0.175574 0.01,0.791424 1.11947,0.48694 2.19735,-0.308451 0.34787,-0.907136 2.97088,-0.677391 4.96323,-1.221276 1.07276,0.07002 -1.40216,0.863061 1.76421,0.148324 1.01888,-0.485888 2.66573,-0.03928 2.11197,-0.589568 1.62051,0.856718 1.61624,-0.941866 -1.49026,-0.823908 0.73956,-0.469333 4.20124,0.430378 1.96852,0.444523 5.1542,1.624896 0.95078,-0.744249 -1.44532,-0.751971 -0.0416,-0.301696 -1.71397,-0.139549 0.46888,-0.674304 -0.76067,-1.109561 -0.043,-0.455225 2.62457,-1.287864 0.9334,-1.292601 1.05762,-0.279666 3.76539,0.375054 0.29652,0.791083 -1.34815,1.153536 0.88462,0.45339 0.45763,0.994204 -0.3231,1.948857 1.56895,0.871751 -0.61037,0.949334 -2.78571,2.020124 1.62561,0.209536 0.56571,-0.512 1.56475,-0.365212 0.37763,-0.703758 1.23092,-0.677234 -0.82878,-0.808562 0.66358,-0.938937 -1.55517,-0.11702 -0.34203,-0.790998 1.13483,-1.428081 -1.84704,-1.159709 2.54538,-0.958606 -0.32933,-1.011314 0.70933,-0.03228 0.74738,0.788494 -0.56111,1.372444 1.52196,0.259826 -0.6485,-1.025621 2.38012,-0.559161 2.95163,-0.07529 2.62824,0.810824 -1.26477,-1.184498 -0.14168,-1.515165 2.47312,-0.287004 3.42081,0.06271 3.08201,-0.186269 -1.15589,-0.7435226 1.64588,-0.934059 1.63398,-0.03911 2.76521,-0.705522 3.75549,-0.189625 0.4745,-0.389504 3.73445,-0.131982 1.16368,0.319317 3.19193,-0.755783 2.61281,0.02362 0.39204,-0.613845 1.35896,-0.605369 3.35752,-0.583651 2.43917,0.460842 -1.93655,0.350564 3.22152,0.217898 m -2.69463,-1.895395 -8.01754,0.548821 2.59806,-1.867363 1.16829,-0.159887 1.06875,0.09262 3.60478,0.807751 -0.42234,0.578062 m -76.71365,-3.18633296 -1.90934,0.18752396 -1.27896,0.107891 -0.19837,0.233384 -1.66231,0.235075 -1.54069,-0.33716 0.81014,-0.44398496 -3.16515,-0.04322 2.77643,-0.258998 2.16084,-0.0172 0.2906,0.38320496 0.8169,-0.34050396 1.34056,-0.234524 2.10939,0.311694 -0.55004,0.216811 m 69.40953,2.36990596 -3.10304,0.177408 -3.96138,-0.410375 -2.36048,-0.54294 -1.09153,-1.020146 -1.94038,-0.281131 3.69293,-0.97157696 3.0766,-0.3211369955555 2.76332,0.7159819955555 3.2751,1.37506096 -0.35114,1.278855 z"
     style="fill:#cf202e"
     id="path4"
     inkscape:connector-curvature="0" />
</svg>
