<?xml version="1.0" encoding="UTF-8" standalone="no"?>
<svg
   xmlns:dc="http://purl.org/dc/elements/1.1/"
   xmlns:cc="http://creativecommons.org/ns#"
   xmlns:rdf="http://www.w3.org/1999/02/22-rdf-syntax-ns#"
   xmlns:svg="http://www.w3.org/2000/svg"
   xmlns="http://www.w3.org/2000/svg"
   xmlns:sodipodi="http://sodipodi.sourceforge.net/DTD/sodipodi-0.dtd"
   xmlns:inkscape="http://www.inkscape.org/namespaces/inkscape"
   id="svg2"
   version="1.1"
   inkscape:version="0.91 r13725"
   sodipodi:docname="SSD.svg"
   width="16.229017"
   height="12.428569">
  <metadata
     id="metadata10">
    <rdf:RDF>
      <cc:Work
         rdf:about="">
        <dc:format>image/svg+xml</dc:format>
        <dc:type
           rdf:resource="http://purl.org/dc/dcmitype/StillImage" />
      </cc:Work>
    </rdf:RDF>
  </metadata>
  <defs
     id="defs8" />
  <sodipodi:namedview
     pagecolor="#ffffff"
     bordercolor="#666666"
     borderopacity="1"
     objecttolerance="10"
     gridtolerance="10"
     guidetolerance="10"
     inkscape:pageopacity="0"
     inkscape:pageshadow="2"
     inkscape:window-width="480"
     inkscape:window-height="419"
     id="namedview6"
     showgrid="false"
     inkscape:zoom="2.36"
     inkscape:cx="-111.97259"
     inkscape:cy="73.00918"
     inkscape:window-x="0"
     inkscape:window-y="0"
     inkscape:window-maximized="0"
     inkscape:current-layer="svg2" />
  <path
     d="m 14.330897,3.9590688 0.0165,1.10895 -0.21259,0.43434 -0.75478,0.035 -0.48443,0.81011 0.8734,0.10188 0.72079,0.69317 0.24921,0.56872 0.64953,0.32974 0.84051,1.54769 -0.964,0.9370702 -0.87494,0.84941 -0.87467,0.65406 -1.00065,-0.003 -1.14484,0.33287 -0.90438,-0.31805 -0.5855402,0.38788 -1.25207,-0.94511 -0.33777,-0.60744 -0.79206,0.30086 -0.65764,-0.0936 -0.3807,0.23882 -0.6386,-0.17245 -0.86152,-1.1740902 -0.22871,-0.45086 -1.06312,-0.56286 -0.35909,-0.85317 -0.59274,-0.61542 -0.95647,-0.74065 -0.0131,-0.46225 L 0.96766682,5.7159988 -3.1816685e-6,5.1605588 0.43674682,5.0055788 l 0.48832,-0.26857 0.36622998,-1.26962 0.39066,-0.65923 1.02546,-0.19533 0.24416,0.39066 0.73247,0.83013 0.39066,0.12208 0.51273,-0.24415 1.02546,0.0488 0.19533,0.29299 1.41612,0 0.0488,-0.29299 0.73247,-0.26858 0.1465,-0.41507 0.53715,-0.29299 1.19637,0.83014 0.7324802,-0.14649 0.70806,-1.02547 0.7813,-0.7813 -0.12208,-0.85455999 -0.34182,-0.41507 0.85455,-0.0732 0.0977,-0.31740999983 0.65923,0.0976999998 -0.17092,1.04987999 0.17092,1.02547 0.73247,0.56156 0.17091,0.48832 -0.0244,0.70806 0.19688,0.0281 z"
     style="fill:#cf202e"
     id="path4"
     inkscape:connector-curvature="0" />
</svg>
