<?xml version="1.0" encoding="UTF-8" standalone="no"?>
<svg
   xmlns:dc="http://purl.org/dc/elements/1.1/"
   xmlns:cc="http://creativecommons.org/ns#"
   xmlns:rdf="http://www.w3.org/1999/02/22-rdf-syntax-ns#"
   xmlns:svg="http://www.w3.org/2000/svg"
   xmlns="http://www.w3.org/2000/svg"
   xmlns:sodipodi="http://sodipodi.sourceforge.net/DTD/sodipodi-0.dtd"
   xmlns:inkscape="http://www.inkscape.org/namespaces/inkscape"
   id="svg2"
   version="1.1"
   inkscape:version="0.91 r13725"
   sodipodi:docname="SVK.svg"
   width="8.0755978"
   height="2.5786953">
  <metadata
     id="metadata10">
    <rdf:RDF>
      <cc:Work
         rdf:about="">
        <dc:format>image/svg+xml</dc:format>
        <dc:type
           rdf:resource="http://purl.org/dc/dcmitype/StillImage" />
      </cc:Work>
    </rdf:RDF>
  </metadata>
  <defs
     id="defs8" />
  <sodipodi:namedview
     pagecolor="#ffffff"
     bordercolor="#666666"
     borderopacity="1"
     objecttolerance="10"
     gridtolerance="10"
     guidetolerance="10"
     inkscape:pageopacity="0"
     inkscape:pageshadow="2"
     inkscape:window-width="480"
     inkscape:window-height="419"
     id="namedview6"
     showgrid="false"
     inkscape:zoom="2.36"
     inkscape:cx="-102.00709"
     inkscape:cy="10.076901"
     inkscape:window-x="0"
     inkscape:window-y="0"
     inkscape:window-maximized="0"
     inkscape:current-layer="svg2" />
  <path
     d="m 2.8062731,0.10715614 0.0803,0.08588 L 3.4713031,1.1356931e-6 4.1885431,0.50410614 l 0.84027,-0.304822 0.67145,0.146035 1.02379,-0.20101 1.35158,0.546659 -0.39437,0.37026896 -0.27767,0.573338 -0.30346,0.145484 -1.52312,-0.43219 -0.46611,0.08676 -0.33352,0.334625 -0.66785,0.177601 -0.15375,-0.09091 -0.69262,0.22078 -0.56511,0.04211 -0.1145,0.285603 -1.19379,0.174257 -0.52431995,-0.155075 -0.72363,-0.364133 L 4.3145724e-5,1.5666641 0.11425315,1.3860861 l 0.20152,-0.31287 0.63008,0.02411 0.48565995,-0.14713696 0.0384,-0.132292 0.2723,-0.06754 0.0932,-0.3236 0.32639,-0.06185 0.22041,-0.256021 0.42407,-0.0017 z"
     style="fill:#cf202e"
     id="path4"
     inkscape:connector-curvature="0" />
</svg>
