<?xml version="1.0" encoding="UTF-8" standalone="no"?>
<svg
   xmlns:dc="http://purl.org/dc/elements/1.1/"
   xmlns:cc="http://creativecommons.org/ns#"
   xmlns:rdf="http://www.w3.org/1999/02/22-rdf-syntax-ns#"
   xmlns:svg="http://www.w3.org/2000/svg"
   xmlns="http://www.w3.org/2000/svg"
   xmlns:sodipodi="http://sodipodi.sourceforge.net/DTD/sodipodi-0.dtd"
   xmlns:inkscape="http://www.inkscape.org/namespaces/inkscape"
   id="svg2"
   version="1.1"
   inkscape:version="0.91 r13725"
   sodipodi:docname="SWE.svg"
   width="18.312548"
   height="19.547747">
  <metadata
     id="metadata10">
    <rdf:RDF>
      <cc:Work
         rdf:about="">
        <dc:format>image/svg+xml</dc:format>
        <dc:type
           rdf:resource="http://purl.org/dc/dcmitype/StillImage" />
      </cc:Work>
    </rdf:RDF>
  </metadata>
  <defs
     id="defs8" />
  <sodipodi:namedview
     pagecolor="#ffffff"
     bordercolor="#666666"
     borderopacity="1"
     objecttolerance="10"
     gridtolerance="10"
     guidetolerance="10"
     inkscape:pageopacity="0"
     inkscape:pageshadow="2"
     inkscape:window-width="480"
     inkscape:window-height="419"
     id="namedview6"
     showgrid="false"
     inkscape:zoom="2.36"
     inkscape:cx="-93.683369"
     inkscape:cy="-0.73669315"
     inkscape:window-x="0"
     inkscape:window-y="0"
     inkscape:window-maximized="0"
     inkscape:current-layer="svg2" />
  <path
     d="m 15.866031,4.8106765 -1.37906,0.992334 0.22202,0.870994 -2.2624,1.143514 -2.7464497,1.223331 -1.0357,2.0028225 1.01233,1.002073 1.3601797,0.788862 -1.3063097,1.604478 -1.47917,0.332713 -0.54254,2.387497 -0.80772,1.332361 -1.7253,-0.137363 -0.80492,1.12797 -1.64666,0.06548 -0.452,-1.344488 -1.19063,-1.613848 L 1.3170533e-6,14.577912 0.62706132,13.758366 l 1.18341998,-0.97499 0.47045,-1.67202 -0.90892,-0.720769 -0.0875,-1.8886475 0.92354,-1.333904 1.41082,0.02433 0.49492,-0.563636 -0.518,-0.485842 2.20832,-2.000837 1.42265,-1.57666 0.9389,-1.011884 1.36577,0.0048 0.37644,-0.79194995 2.6804497,0.227836 0.20865,-0.935743 0.88224,-0.05847000216 1.89574,0.696038002159 2.22,0.96830195 0.0376,2.190162 0.48,0.55342 -2.44652,0.402755 z"
     style="fill:#cf202e"
     id="path4"
     inkscape:connector-curvature="0" />
</svg>
