<?xml version="1.0" encoding="UTF-8" standalone="no"?>
<svg
   xmlns:dc="http://purl.org/dc/elements/1.1/"
   xmlns:cc="http://creativecommons.org/ns#"
   xmlns:rdf="http://www.w3.org/1999/02/22-rdf-syntax-ns#"
   xmlns:svg="http://www.w3.org/2000/svg"
   xmlns="http://www.w3.org/2000/svg"
   xmlns:sodipodi="http://sodipodi.sourceforge.net/DTD/sodipodi-0.dtd"
   xmlns:inkscape="http://www.inkscape.org/namespaces/inkscape"
   id="svg2"
   version="1.1"
   inkscape:version="0.91 r13725"
   sodipodi:docname="TON.svg"
   width="3.2782986"
   height="9.6416664">
  <metadata
     id="metadata10">
    <rdf:RDF>
      <cc:Work
         rdf:about="">
        <dc:format>image/svg+xml</dc:format>
        <dc:type
           rdf:resource="http://purl.org/dc/dcmitype/StillImage" />
      </cc:Work>
    </rdf:RDF>
  </metadata>
  <defs
     id="defs8" />
  <sodipodi:namedview
     pagecolor="#ffffff"
     bordercolor="#666666"
     borderopacity="1"
     objecttolerance="10"
     gridtolerance="10"
     guidetolerance="10"
     inkscape:pageopacity="0"
     inkscape:pageshadow="2"
     inkscape:window-width="480"
     inkscape:window-height="419"
     id="namedview6"
     showgrid="false"
     inkscape:zoom="2.36"
     inkscape:cx="172.62302"
     inkscape:cy="109.77074"
     inkscape:window-x="433"
     inkscape:window-y="149"
     inkscape:window-maximized="0"
     inkscape:current-layer="svg2" />
  <path
     d="m 0.01747731,9.6416693 -0.005,0 -0.008,-0.005 -0.004999996,-0.008 0.001999996,-0.007 0.007,-0.001 0.0132,0.004 0.009,0.007 -0.005,0.006 -0.007,0.004 m 1.83905999,-1.27246 -0.009,0.0144 -0.0222,-0.0124 -0.009,-0.0216 -0.018,-0.0174 -0.0409,-0.0289 0,-0.01 0.006,-0.002 0.0138,-0.008 -0.008,-0.0154 -10e-4,-0.0193 0.007,-0.0165 0.0283,-0.0116 0.009,-0.0109 0.0137,-0.0234 0.003,-0.009 0.0105,-0.0212 0.011,-0.0145 0.005,0.011 0.009,0.0529 -7.5e-4,0.0215 -0.008,0.0525 10e-4,0.0891 m -0.571,-0.45902 0.0127,4.6e-4 0.0806,-0.0148 0.0131,0.003 0.0106,0.008 0.0112,0.006 0.009,0.009 0.004,0.0156 -0.0212,0.0128 -0.01,0.0118 0.006,0.0146 0.0149,0.006 0.0142,-0.006 0.0142,-0.01 0.0149,-0.005 0.0175,0.003 0.0252,0.0132 0.0115,0.003 0.0211,-0.005 0.008,-0.0149 0.008,-0.0196 0.0205,-0.019 0.0146,-0.006 0.0183,-0.005 0.0191,-0.002 0.0168,0.003 0.0155,0.0108 0.005,0.0111 -0.001,0.0222 -0.0123,0.0125 -0.0809,0.0559 -0.005,0.0123 0.002,0.0152 0.005,0.016 0.003,0.0149 -0.005,0.0169 -0.0127,0.01 -0.016,0.005 -0.0156,0.003 -0.0307,-0.007 -0.0144,-0.0118 -0.0228,-0.0409 -0.0187,-0.0169 -0.0678,-0.0317 -0.0107,0.0106 -0.0352,-0.0195 -0.0201,-0.007 -0.0178,-0.003 -0.0135,-0.007 -0.0351,-0.0463 -0.0204,-0.0386 0.0135,-0.0346 0.0329,-0.0262 0.0375,-0.0123 -0.0177,0.0203 -0.0225,0.0182 -0.01,0.0185 0.0207,0.0206 0.0154,0.006 m 1.41545,-1.85186 -0.0273,0.004 -0.0109,-0.005 -0.009,-0.006 -0.007,-0.008 -0.005,-0.01 0.0193,-0.006 0.015,-0.0129 0.0104,-0.0182 0.006,-0.0218 0.007,0.001 0.0156,0.006 0.006,0.003 -0.0113,0.025 -0.002,0.028 -0.007,0.0211 m -1.0349,-0.0542 -0.0163,0.0287 0,-0.0106 -0.009,0.0106 -0.007,-0.008 -0.007,-0.005 -0.0164,-0.006 0.001,-5.8e-4 -0.002,-0.004 5.2e-4,-0.006 -0.0174,-0.0442 -0.001,-0.0141 0.005,-0.0271 0.009,-0.0116 0.0128,-0.002 0.0176,9.3e-4 0.0227,0.0168 0.0104,0.0389 -0.003,0.0427 m 1.10388,-0.0456 -0.0226,0.002 -0.0208,-0.009 -0.005,-0.0157 0.0251,-0.0132 0.0142,-0.0186 0.0117,-0.0196 0.0178,-0.0174 0.007,0.0208 -0.004,0.0183 -0.008,0.0172 -0.005,0.0172 -0.0105,0.0181 m 0.0393,-0.1463 -0.007,0.0106 -0.0213,-0.005 -0.0156,-0.0211 -0.0188,-0.0349 -0.007,-0.0262 0.0215,0.005 0.007,0.0119 0.007,0.0311 0.01,0.006 0.0183,0.008 0.006,0.0147 m -0.56383,-1.17998 -0.019,10e-4 -0.0147,-0.0229 0.004,-0.0206 0.0165,-0.0104 0.0224,0.008 0.01,0.0174 -0.005,0.0163 -0.0145,0.0108 m 1.03281,-0.2993 -10e-4,0.0295 -0.0111,0.0144 -0.0272,-0.0301 -0.0155,0.007 -0.008,0.009 10e-4,0.0106 0.0123,0.0127 -0.0117,0.014 -0.008,0.0149 -0.02,-0.004 -0.0133,0.0148 -0.007,0.0243 5e-5,0.0243 -0.0178,-0.009 -0.01,-0.0162 -0.0103,-0.0336 0.0228,-0.009 10e-4,-0.0167 -0.009,-0.0161 -0.006,-0.007 -0.0161,0.0133 -0.005,0.0212 -0.006,0.0136 -0.0214,-0.009 -0.001,0.008 -0.004,0.002 -0.006,-4.6e-4 -0.008,4.6e-4 -0.0186,-0.042 0.0269,-0.0212 0.04,-0.0201 0.0206,-0.0384 0.01,-0.01 0.0228,-0.005 0.026,-0.002 0.0192,0.002 0.0215,0.008 0.01,0.009 0.009,0.0105 0.0179,0.0123 0.002,0.0154 m -2.42279999,-4.27327004 -0.0304,0.0324 -0.0423,-0.004 -0.0247,-0.0273 0.004,-0.0287 0.0278,-0.0229 0.0461,-0.008999998 0.0266,0.0196999985 -0.007,0.04 z"
     style="fill:#cf202e"
     id="path4"
     inkscape:connector-curvature="0" />
</svg>
