<?xml version="1.0" encoding="UTF-8" standalone="no"?>
<svg
   xmlns:dc="http://purl.org/dc/elements/1.1/"
   xmlns:cc="http://creativecommons.org/ns#"
   xmlns:rdf="http://www.w3.org/1999/02/22-rdf-syntax-ns#"
   xmlns:svg="http://www.w3.org/2000/svg"
   xmlns="http://www.w3.org/2000/svg"
   xmlns:sodipodi="http://sodipodi.sourceforge.net/DTD/sodipodi-0.dtd"
   xmlns:inkscape="http://www.inkscape.org/namespaces/inkscape"
   id="svg2"
   version="1.1"
   inkscape:version="0.91 r13725"
   sodipodi:docname="TUR.svg"
   width="26.667574"
   height="8.9883738">
  <metadata
     id="metadata10">
    <rdf:RDF>
      <cc:Work
         rdf:about="">
        <dc:format>image/svg+xml</dc:format>
        <dc:type
           rdf:resource="http://purl.org/dc/dcmitype/StillImage" />
      </cc:Work>
    </rdf:RDF>
  </metadata>
  <defs
     id="defs8" />
  <sodipodi:namedview
     pagecolor="#ffffff"
     bordercolor="#666666"
     borderopacity="1"
     objecttolerance="10"
     gridtolerance="10"
     guidetolerance="10"
     inkscape:pageopacity="0"
     inkscape:pageshadow="2"
     inkscape:window-width="480"
     inkscape:window-height="419"
     id="namedview6"
     showgrid="false"
     inkscape:zoom="2.36"
     inkscape:cx="-115.03943"
     inkscape:cy="27.053817"
     inkscape:window-x="0"
     inkscape:window-y="0"
     inkscape:window-maximized="0"
     inkscape:current-layer="svg2" />
  <path
     d="m 15.459237,1.1464913 2.04023,0.550076 1.65681,-0.219274 1.22428,0.126706 1.67915,-0.74237601 1.51533,-0.06758 1.36988,0.69835301 0.24165,0.50054 -0.13685,0.692106 1.05753,0.353513 0.56033,0.415285 -0.97389,0.405143 0.44399,1.631083 -0.27826,0.440458 0.77788,1.139399 -0.6816,0.240256 -0.49947,-0.362259 -1.65424,-0.183518 -0.61089,0.221001 -1.61778,0.221184 -0.76634,-0.02407 -1.63652,0.533649 -1.17004,0.0044 -0.75686,-0.267781 -1.56582,0.395626 -0.46544,-0.2766 -0.077,0.793346 -0.38093,0.311584 -0.38085,0.311583 -0.52292,-0.644922 0.53864,-0.534201 -0.86739,0.121121 -1.18952,-0.327238 -0.978,0.818591 -2.1585599,0.159852 -1.15138,-0.763323 -1.53311,-0.04777 -0.32787,0.590058 -0.98292,0.168709 -1.3754,-0.757297 -1.55266,0.02561 -0.84255,-1.414456 -1.03901002,-0.789009 0.69189002,-1.105959 -0.90157002,-0.679611 1.57758002,-1.360216 2.19016,-0.05688 0.59737,-1.08086 2.71066,0.188259 1.70958,-0.92251401 1.6573199,-0.402057 2.35295,-0.03024 2.48238,1.00247701 M 1.6341171,2.0634863 0.44746708,2.8294553 -5.2919143e-5,2.1670413 0.01924708,1.8735373 l 0.33801,-0.159485 0.44031,-0.89010201 -0.69284,-0.37659 L 1.5535371,-4.2711571e-5 2.7780471,0.19071429 l 0.16896,0.546806 1.24149,0.45930901 -0.25885,0.348405 -1.68878,0.07842 -0.60678,0.439833 z"
     style="fill:#cf202e"
     id="path4"
     inkscape:connector-curvature="0" />
</svg>
