<?xml version="1.0" encoding="UTF-8" standalone="no"?>
<svg
   xmlns:dc="http://purl.org/dc/elements/1.1/"
   xmlns:cc="http://creativecommons.org/ns#"
   xmlns:rdf="http://www.w3.org/1999/02/22-rdf-syntax-ns#"
   xmlns:svg="http://www.w3.org/2000/svg"
   xmlns="http://www.w3.org/2000/svg"
   xmlns:sodipodi="http://sodipodi.sourceforge.net/DTD/sodipodi-0.dtd"
   xmlns:inkscape="http://www.inkscape.org/namespaces/inkscape"
   id="svg2"
   version="1.1"
   inkscape:version="0.91 r13725"
   sodipodi:docname="ZMB.svg"
   width="16.494713"
   height="13.828227">
  <metadata
     id="metadata10">
    <rdf:RDF>
      <cc:Work
         rdf:about="">
        <dc:format>image/svg+xml</dc:format>
        <dc:type
           rdf:resource="http://purl.org/dc/dcmitype/StillImage" />
      </cc:Work>
    </rdf:RDF>
  </metadata>
  <defs
     id="defs8" />
  <sodipodi:namedview
     pagecolor="#ffffff"
     bordercolor="#666666"
     borderopacity="1"
     objecttolerance="10"
     gridtolerance="10"
     guidetolerance="10"
     inkscape:pageopacity="0"
     inkscape:pageshadow="2"
     inkscape:window-width="480"
     inkscape:window-height="419"
     id="namedview6"
     showgrid="false"
     inkscape:zoom="2.36"
     inkscape:cx="-109.12938"
     inkscape:cy="103.54486"
     inkscape:window-x="0"
     inkscape:window-y="0"
     inkscape:window-maximized="0"
     inkscape:current-layer="svg2" />
  <path
     d="m 15.461734,1.4113285 0.67131,0.63449 0.36167,1.20723 -0.24232,0.38541 -0.28589,1.15293 0.27325,1.17842 -0.44751,0.49506 -0.43178,1.32123 0.74788,0.36836 -4.31579,1.17225 0.13479,1.0121795 -1.07722,0.19469 -0.80977,0.56657 -0.1729402,0.49308 -0.5091,0.11186 -1.23685,1.16968 -0.78765,0.92046 -0.48022,0.033 -0.462,-0.16382 -1.58963,-0.15574 -0.25569,-0.10627 -0.0106,-0.11804 -0.56121,-0.32058 -0.9223,-0.0819 -1.16453,0.32324 L 0.95953379,12.316698 5.3793843e-5,11.153118 0.06555379,6.6277885 l 2.96142001,0.0179 -0.12119,-0.49095 0.21189,-0.5327 -0.24996,-0.66704 0.16176,-0.68975 -0.1503,-0.44156 0.49059,0.0358 0.0816,0.44207 0.66652,-0.0343 0.90304,0.13119 0.4753,0.64573 1.13888,0.19836 0.86945,-0.44898 0.31912,0.74524 1.08986,0.19873 0.52402,0.60605 0.5841402,0.78272 1.08847,0.0118 -0.11891,-1.53363 -0.39034,0.25863 -0.9943202,-0.55349 -0.38423,-0.25304 0.17609,-1.42758 0.25261,-1.68385 -0.31831,-0.62721 0.40533,-0.90789 0.3812202,-0.16999 L 12.029594,8.4987901e-6 12.589844,0.1447185 l 0.59412,0.36206 0.56689,0.23818 0.90385,0.23937 0.80712,0.42701 z"
     style="fill:#cf202e"
     id="path4"
     inkscape:connector-curvature="0" />
</svg>
