<?xml version="1.0" encoding="iso-8859-1"?>
<!-- Generator: Adobe Illustrator 19.0.0, SVG Export Plug-In . SVG Version: 6.00 Build 0)  -->
<svg version="1.1" id="podium" xmlns="http://www.w3.org/2000/svg" xmlns:xlink="http://www.w3.org/1999/xlink" x="0px" y="0px"
	 viewBox="0 0 512 512" style="enable-background:new 0 0 512 512;" xml:space="preserve">
<g>
	<g>
		<path d="M489.739,333.913H356.174v-116.87c0-9.22-7.475-16.696-16.696-16.696H172.522c-9.22,0-16.696,7.475-16.696,16.696v50.087
			H22.261c-9.22,0-16.696,7.475-16.696,16.696v211.478c0,9.22,7.475,16.696,16.696,16.696c16.792,0,451.011,0,467.478,0
			c9.22,0,16.696-7.475,16.696-16.696V350.609C506.435,341.388,498.96,333.913,489.739,333.913z M155.826,478.609H38.957V300.522
			h116.87V478.609z M322.783,478.609H189.217c0-10.795,0-242.116,0-244.87h133.565C322.783,238.934,322.783,473.187,322.783,478.609
			z M473.043,478.609h-116.87V367.304h116.87V478.609z"/>
	</g>
</g>
<g>
	<g>
		<path d="M289.391,133.565h-16.696V16.696C272.696,7.475,265.22,0,256,0h-33.391c-9.22,0-16.696,7.475-16.696,16.696
			s7.475,16.696,16.696,16.696h16.696v100.174h-16.696c-9.22,0-16.696,7.475-16.696,16.696s7.475,16.696,16.696,16.696h66.783
			c9.22,0,16.696-7.475,16.696-16.696S298.612,133.565,289.391,133.565z"/>
	</g>
</g>
<g>
	<g>
		<path d="M89.044,200.348H38.957v-16.696c0-9.206,7.49-16.696,16.696-16.696c27.618,0,50.087-22.469,50.087-50.087
			c0-27.618-22.469-50.087-50.087-50.087H22.261c-9.22,0-16.696,7.475-16.696,16.696s7.475,16.696,16.696,16.696h33.391
			c9.206,0,16.696,7.49,16.696,16.696s-7.49,16.696-16.696,16.696c-27.618,0-50.087,22.469-50.087,50.087v33.391
			c0,9.22,7.475,16.696,16.696,16.696h66.783c9.22,0,16.696-7.475,16.696-16.696C105.739,207.823,98.264,200.348,89.044,200.348z"/>
	</g>
</g>
<g>
	<g>
		<path d="M506.435,183.652c0-27.618-22.469-50.087-50.087-50.087h-33.391c-9.22,0-16.696,7.475-16.696,16.696
			s7.475,16.696,16.696,16.696h33.391c9.206,0,16.696,7.49,16.696,16.696c0,9.206-7.49,16.696-16.696,16.696h-33.391
			c-9.22,0-16.696,7.475-16.696,16.696c0,9.22,7.475,16.696,16.696,16.696h33.391c9.206,0,16.696,7.49,16.696,16.696
			c0,9.206-7.49,16.696-16.696,16.696h-33.391c-9.22,0-16.696,7.475-16.696,16.696c0,9.22,7.475,16.696,16.696,16.696h33.391
			c27.618,0,50.087-22.469,50.087-50.087c0-12.819-4.845-24.523-12.794-33.391C501.589,208.175,506.435,196.471,506.435,183.652z"/>
	</g>
</g>
<g>
</g>
<g>
</g>
<g>
</g>
<g>
</g>
<g>
</g>
<g>
</g>
<g>
</g>
<g>
</g>
<g>
</g>
<g>
</g>
<g>
</g>
<g>
</g>
<g>
</g>
<g>
</g>
<g>
</g>
</svg>
