<?xml version="1.0" encoding="iso-8859-1"?>
<!-- Generator: Adobe Illustrator 19.0.0, SVG Export Plug-In . SVG Version: 6.00 Build 0)  -->
<svg version="1.1" id="tent" xmlns="http://www.w3.org/2000/svg" xmlns:xlink="http://www.w3.org/1999/xlink" x="0px" y="0px"
	 viewBox="0 0 511.999 511.999" style="enable-background:new 0 0 511.999 511.999;" xml:space="preserve">
<g>
	<g>
		<path d="M510.491,398.031L382.934,99.224c-2.953-6.918-9.748-11.406-17.269-11.406H145.643c-6.308,0-13.499,3.485-16.026,9.265
			C128.666,99.255,1.508,398.031,1.508,398.031c-2.476,5.801-1.875,12.457,1.601,17.72c3.475,5.264,9.361,8.43,15.669,8.43h93.88
			c9,0,16.735-6.386,18.439-15.224l15.239-79.053l15.238,79.053c1.704,8.838,9.439,15.224,18.439,15.224h313.21
			c6.308,0,12.193-3.166,15.669-8.43C512.366,410.49,512.968,403.833,510.491,398.031z M195.517,386.627l-30.744-159.484
			c-1.704-8.838-9.439-15.224-18.439-15.224s-16.735,6.386-18.439,15.224L97.153,386.627H47.211l98.574-231.872l98.984,231.872
			H195.517z M285.601,386.627L174.076,125.375h179.187l111.525,261.252H285.601z"/>
	</g>
</g>
<g>
</g>
<g>
</g>
<g>
</g>
<g>
</g>
<g>
</g>
<g>
</g>
<g>
</g>
<g>
</g>
<g>
</g>
<g>
</g>
<g>
</g>
<g>
</g>
<g>
</g>
<g>
</g>
<g>
</g>
</svg>
