<?xml version="1.0" encoding="iso-8859-1"?>
<!-- Generator: Adobe Illustrator 19.0.0, SVG Export Plug-In . SVG Version: 6.00 Build 0)  -->
<svg version="1.1" id="volcano" xmlns="http://www.w3.org/2000/svg" xmlns:xlink="http://www.w3.org/1999/xlink" x="0px" y="0px"
	 viewBox="0 0 512 512" style="enable-background:new 0 0 512 512;" xml:space="preserve">
<g>
	<g>
		<path d="M497,420h-26.788l-19.66-78.638c-1.062-4.248-3.927-7.82-7.844-9.778l-54.442-27.221l-34.127-102.38
			c-0.004-0.011-0.007-0.021-0.011-0.032l-23.898-71.694C328.188,124.131,322.457,120,316,120h-45v-15c0-8.284-6.716-15-15-15
			s-15,6.716-15,15v15h-45c-6.134,0-11.649,3.734-13.927,9.429l-27.829,69.573c-0.006,0.015-0.013,0.031-0.018,0.046l-30.034,75.086
			l-54.899,27.45c-4.14,2.07-7.093,5.936-8,10.475L39.703,420H15c-8.284,0-15,6.716-15,15v62c0,8.284,6.716,15,15,15h482
			c8.284,0,15-6.716,15-15v-62C512,426.716,505.284,420,497,420z M206.155,150h99.033l17.43,52.291
			C308.766,216.241,301,234.93,301,255c0,8.271-6.729,15-15,15s-15-6.729-15-15v-30c0-8.284-6.716-15-15-15s-15,6.716-15,15v90
			c0,8.271-6.729,15-15,15s-15-6.729-15-15v-60c0-21.468-9.025-41.472-24.617-55.568L206.155,150z M89.27,325.135l53.438-26.719
			c3.286-1.643,5.854-4.434,7.219-7.845l23.955-59.888C178.467,237.815,181,246.202,181,255v60c0,24.813,20.187,45,45,45
			s45-20.187,45-45v-17.57c4.693,1.664,9.743,2.57,15,2.57c24.813,0,45-20.187,45-45c0-6.06,1.192-11.906,3.425-17.29l27.345,82.034
			c1.258,3.774,3.964,6.894,7.522,8.673l53.829,26.915L439.288,420h-36.576l-12.16-48.638c-2.01-8.037-10.153-12.923-18.19-10.914
			c-8.037,2.009-12.923,10.153-10.914,18.19L371.788,420h-21.576l-19.66-78.638c-2.01-8.037-10.152-12.923-18.19-10.914
			c-8.037,2.009-12.923,10.153-10.914,18.19L319.288,420H207.712l2.84-11.362c2.009-8.037-2.877-16.181-10.914-18.19
			c-8.038-2.007-16.181,2.877-18.19,10.914L176.788,420h-36.576l10.34-41.362c2.009-8.037-2.877-16.181-10.914-18.19
			c-8.039-2.008-16.181,2.877-18.19,10.914L109.288,420H70.297L89.27,325.135z M482,482H30v-32c231.608,0,319.822,0,452,0V482z"/>
	</g>
</g>
<g>
	<g>
		<path d="M467,30c-24.813,0-45,20.187-45,45s20.187,45,45,45s45-20.187,45-45S491.813,30,467,30z M467,90c-8.271,0-15-6.729-15-15
			s6.729-15,15-15s15,6.729,15,15S475.271,90,467,90z"/>
	</g>
</g>
<g>
	<g>
		<path d="M45,120c-24.813,0-45,20.187-45,45s20.187,45,45,45s45-20.187,45-45S69.813,120,45,120z M45,180c-8.271,0-15-6.729-15-15
			s6.729-15,15-15s15,6.729,15,15S53.271,180,45,180z"/>
	</g>
</g>
<g>
	<g>
		<circle cx="406" cy="165" r="15"/>
	</g>
</g>
<g>
	<g>
		<circle cx="46" cy="75" r="15"/>
	</g>
</g>
<g>
	<g>
		<path d="M406,0h-30c-41.355,0-75,33.645-75,75c0,8.284,6.716,15,15,15s15-6.716,15-15c0-24.813,20.187-45,45-45h30
			c8.284,0,15-6.716,15-15S414.284,0,406,0z"/>
	</g>
</g>
<g>
	<g>
		<path d="M209.416,68.291c-10.268-20.536-26.019-37.771-45.549-49.841C144.337,6.38,121.877,0,98.918,0H76c-8.284,0-15,6.716-15,15
			s6.716,15,15,15h22.918c35.659,0,67.718,19.813,83.666,51.708c3.705,7.412,12.716,10.412,20.124,6.708
			C210.118,84.711,213.121,75.701,209.416,68.291z"/>
	</g>
</g>
<g>
	<g>
		<path d="M256,0c-8.284,0-15,6.716-15,15v30c0,8.284,6.716,15,15,15s15-6.716,15-15V15C271,6.716,264.284,0,256,0z"/>
	</g>
</g>
<g>
	<g>
		<path d="M176.608,94.394C165.76,83.547,151.339,77.573,136,77.573s-29.76,5.974-40.606,16.821c-5.858,5.858-5.858,15.355,0,21.213
			c5.857,5.858,15.355,5.858,21.213,0c5.18-5.18,12.068-8.033,19.394-8.033c7.326,0,14.213,2.853,19.394,8.033
			c5.857,5.857,15.354,5.859,21.213,0C182.466,109.749,182.466,100.252,176.608,94.394z"/>
	</g>
</g>
<g>
	<g>
		<path d="M416.606,94.394C405.76,83.547,391.339,77.573,376,77.573s-29.76,5.974-40.606,16.82c-5.858,5.858-5.858,15.355,0,21.213
			c5.857,5.858,15.355,5.858,21.213,0c5.18-5.18,12.068-8.033,19.394-8.033c7.326,0,14.213,2.853,19.394,8.033
			c5.855,5.858,15.352,5.859,21.211,0.001C422.464,109.749,422.464,100.252,416.606,94.394z"/>
	</g>
</g>
<g>
</g>
<g>
</g>
<g>
</g>
<g>
</g>
<g>
</g>
<g>
</g>
<g>
</g>
<g>
</g>
<g>
</g>
<g>
</g>
<g>
</g>
<g>
</g>
<g>
</g>
<g>
</g>
<g>
</g>
</svg>
