<?xml version="1.0" encoding="iso-8859-1"?>
<!-- Generator: Adobe Illustrator 19.0.0, SVG Export Plug-In . SVG Version: 6.00 Build 0)  -->
<svg version="1.1" id="champagne" xmlns="http://www.w3.org/2000/svg" xmlns:xlink="http://www.w3.org/1999/xlink" x="0px" y="0px"
	 viewBox="0 0 512.001 512.001" style="enable-background:new 0 0 512.001 512.001;" xml:space="preserve">
<g>
	<path style="fill:#FF9822;" d="M58.856,335.635c7.801,45.627,31.075,68.571,58.504,68.697
		c33.657,0.155,60.823-34.103,60.589-102.715c-35.884,11.23-85.754-6.309-121.881-0.561
		C56.112,313.749,57.086,325.276,58.856,335.635z"/>
	<g>
		<path style="fill:#737481;" d="M265.999,278.146v200.055c0,12.997,13.847,23.63,30.769,23.63h64.198h64.197
			c16.921,0,30.77-10.633,30.77-23.63v-14.246V278.146c0-33.126-23.132-59.898-41.271-100.085l-21.733,11.814l-31.964,17.375
			l-35.724-19.419l-17.972-9.77c-9.369,20.758-20.07,37.935-28.227,54.259C271.406,247.599,265.999,262.13,265.999,278.146
			L265.999,278.146z M360.965,292.628c24.589,0.001,44.522,23.631,44.522,52.781c0,29.15-19.933,52.78-44.522,52.78
			c-24.59,0-44.523-23.631-44.523-52.78C316.442,316.259,336.377,292.629,360.965,292.628z"/>
		<path style="fill:#737481;" d="M338.383,145.285l22.582,12.276l21.241-11.547l17.879-9.719
			c-3.433-13.997-5.807-29.504-6.521-46.94h-65.195c-0.715,17.437-3.091,32.943-6.522,46.94L338.383,145.285z"/>
	</g>
	<g>
		<path style="fill:#FFBF47;" d="M360.964,157.561l-22.582-12.276l-16.536-8.989c-3.824,15.599-8.961,29.324-14.577,41.765
			l17.972,9.77l35.724,19.419l31.964-17.375l21.733-11.814c-5.615-12.441-10.752-26.167-14.577-41.765l-17.879,9.719
			L360.964,157.561z"/>
		<polygon style="fill:#FFBF47;" points="328.368,89.356 393.563,89.356 399.282,89.356 399.282,47.787 393.329,47.787 
			328.6,47.787 322.648,47.787 322.648,89.356 		"/>
	</g>
	<rect x="328.599" y="9.997" style="fill:#FF9822;" width="64.729" height="37.79"/>
	<path style="fill:#C23855;" d="M230.858,164.792c18.482-14.978,24.516-40.519,18.131-66.035
		c-28.691,23.252-54.655,26.162-76.35,24.99c-17.786-0.961-32.705-4.666-43.91-2.159c-3.438,0.77-6.528,2.125-9.243,4.325
		c3.107,6.142,6.902,11.993,11.287,17.404C158.487,177.514,203.296,187.128,230.858,164.792z"/>
	<g>
		<path style="fill:#FF3855;" d="M172.639,123.747c21.696,1.173,47.659-1.737,76.349-24.99
			c-3.137-12.535-9.272-25.064-18.402-36.329c-4.387-5.411-9.324-10.336-14.687-14.647c-2.875,2.329-5.145,4.941-6.996,7.774
			c-4.473,6.851-6.483,14.99-8.607,23.521C196.47,94.441,192.27,111.075,172.639,123.747z"/>
		<path style="fill:#FF3855;" d="M172.639,123.747c19.632-12.671,23.831-29.306,27.657-44.67
			c-19.992,12.957-40.328,4.692-54.67-0.842c-10.465-4.039-17.738-6.623-19.36,1.548c-3.845,19.371,2.464,41.804,2.464,41.804
			C139.934,119.08,154.853,122.786,172.639,123.747z"/>
	</g>
	<path style="fill:#C23855;" d="M145.625,78.236c14.342,5.534,34.677,13.798,54.67,0.842c2.124-8.531,4.135-16.67,8.607-23.521
		C148.866,28.318,157.198,62.299,145.625,78.236z"/>
	<ellipse style="fill:#FF9822;" cx="360.968" cy="345.413" rx="44.523" ry="52.781"/>
</g>
<path d="M441.284,208.055c-5.788-10.545-11.843-21.584-17.374-33.783c-0.032-0.078-0.07-0.154-0.104-0.232
	c-5.379-11.891-10.259-24.885-13.901-39.61c-0.04-0.21-0.095-0.419-0.15-0.628c-2.656-10.873-4.636-22.688-5.652-35.692
	c3.085-1.701,5.176-4.983,5.176-8.756V47.787c0-4.081-2.448-7.583-5.952-9.137V9.997c0-5.521-4.475-9.997-9.997-9.997h-64.729
	c-5.521,0-9.997,4.475-9.997,9.997V38.65c-3.504,1.553-5.952,5.057-5.952,9.137v41.568c0,3.773,2.091,7.056,5.177,8.757
	c-1.015,12.983-2.991,24.781-5.641,35.639c-0.06,0.229-0.12,0.457-0.163,0.687c-3.643,14.718-8.519,27.707-13.896,39.593
	c-0.036,0.082-0.076,0.163-0.109,0.245c-5.532,12.197-11.586,23.233-17.373,33.778c-0.278,0.507-0.555,1.011-0.831,1.514
	c-9.18-18.066-20.341-32.9-34.163-45.398c14.562-17.398,19-42.052,13.255-66.581c-0.092-0.792-0.278-1.575-0.563-2.335
	c-3.539-13.57-10.195-27.029-19.993-39.12c-4.798-5.92-10.206-11.317-16.073-16.049c-0.027-0.022-0.054-0.044-0.081-0.066
	c-0.012-0.01-0.024-0.021-0.037-0.03c-0.056-0.045-0.117-0.082-0.174-0.126c-0.203-0.156-0.408-0.311-0.621-0.45
	c-0.09-0.059-0.184-0.109-0.275-0.165c-0.188-0.114-0.375-0.229-0.568-0.33c-0.133-0.069-0.269-0.128-0.403-0.19
	c-0.156-0.073-0.311-0.149-0.471-0.214c-0.166-0.067-0.336-0.123-0.505-0.181c-0.133-0.046-0.266-0.096-0.401-0.136
	c-0.183-0.054-0.368-0.096-0.554-0.14c-0.127-0.03-0.254-0.064-0.382-0.089c-0.183-0.035-0.366-0.059-0.55-0.084
	c-0.137-0.019-0.273-0.041-0.41-0.054c-0.17-0.016-0.34-0.021-0.51-0.029c-0.154-0.007-0.308-0.017-0.462-0.017
	c-0.151,0.001-0.302,0.011-0.453,0.018c-0.173,0.008-0.346,0.015-0.519,0.032c-0.134,0.013-0.268,0.036-0.401,0.055
	c-0.186,0.026-0.372,0.051-0.557,0.087c-0.127,0.025-0.251,0.06-0.377,0.089c-0.186,0.044-0.373,0.087-0.558,0.143
	c-0.135,0.04-0.267,0.091-0.4,0.137c-0.168,0.059-0.337,0.115-0.503,0.183c-0.162,0.066-0.318,0.144-0.477,0.218
	c-0.132,0.063-0.265,0.12-0.395,0.188c-0.2,0.105-0.394,0.225-0.587,0.344c-0.084,0.052-0.17,0.098-0.252,0.152
	c-0.227,0.148-0.444,0.313-0.66,0.481c-0.044,0.035-0.092,0.063-0.136,0.099c-0.007,0.006-0.013,0.012-0.02,0.018
	c-0.064,0.052-0.125,0.109-0.188,0.163c-1.253,1.027-2.4,2.094-3.475,3.187c-20.472-8.433-34.636-10.167-45.299-5.626
	c-11.715,4.988-15.537,15.804-18.609,24.493c-0.441,1.248-0.875,2.467-1.317,3.637c-5.942-1.77-11.362-2.297-16.388,0.469
	c-2.853,1.569-6.531,4.836-7.85,11.483c-2.726,13.735-0.998,28.484,0.676,37.601c-1.3,0.752-2.566,1.608-3.793,2.59
	c-0.04,0.03-0.08,0.061-0.119,0.092c-0.01,0.008-0.021,0.016-0.031,0.024c-0.055,0.045-0.103,0.095-0.157,0.141
	c-0.197,0.166-0.392,0.335-0.574,0.515c-0.077,0.076-0.146,0.157-0.22,0.235c-0.151,0.159-0.301,0.317-0.44,0.484
	c-0.097,0.116-0.183,0.238-0.274,0.358c-0.103,0.137-0.209,0.271-0.305,0.412c-0.102,0.149-0.192,0.304-0.285,0.458
	c-0.072,0.12-0.148,0.237-0.215,0.36c-0.093,0.169-0.174,0.343-0.256,0.516c-0.055,0.117-0.114,0.232-0.165,0.351
	c-0.074,0.172-0.137,0.349-0.201,0.524c-0.046,0.128-0.096,0.255-0.138,0.385c-0.052,0.163-0.093,0.329-0.136,0.494
	c-0.039,0.148-0.081,0.296-0.113,0.447c-0.031,0.148-0.054,0.298-0.078,0.447c-0.029,0.171-0.059,0.342-0.079,0.514
	c-0.015,0.134-0.021,0.268-0.031,0.402c-0.014,0.188-0.028,0.375-0.032,0.564c-0.002,0.128,0.004,0.257,0.007,0.385
	c0.004,0.192,0.007,0.385,0.022,0.577c0.011,0.14,0.032,0.278,0.049,0.417c0.022,0.178,0.041,0.356,0.073,0.534
	c0.03,0.169,0.072,0.336,0.111,0.504c0.034,0.145,0.063,0.29,0.103,0.435c0.06,0.214,0.134,0.424,0.208,0.635
	c0.034,0.097,0.062,0.194,0.1,0.291c0.096,0.248,0.208,0.49,0.325,0.731c0.027,0.056,0.046,0.112,0.074,0.167
	c0.006,0.012,0.012,0.023,0.019,0.035c0.018,0.036,0.037,0.071,0.056,0.107c3.414,6.721,7.572,13.128,12.367,19.043
	c19.539,24.112,46.974,37.144,72.564,37.144c12.397,0,24.362-3.065,34.782-9.409c16.08,14.008,28.23,31.589,37.744,54.581
	c-7.15,14.966-12.096,29.644-12.096,46.218v200.055c0,18.541,18.287,33.626,40.765,33.626h128.395
	c22.477,0,40.765-15.084,40.766-33.626V278.146C465.929,252.958,454.509,232.149,441.284,208.055z M237.467,94.994
	c-13.919,10.13-27.064,15.169-39.323,17.403c6.758-10.47,9.502-21.468,11.891-31.06c1.901-7.634,3.531-14.169,6.672-19.401
	c2.144,2.15,4.19,4.416,6.113,6.788C229.488,76.952,234.368,85.922,237.467,94.994z M160.866,68.912
	c2.458-6.954,4.14-11.29,7.591-12.761c2.887-1.229,10.032-1.994,26.807,4.496c-1.473,3.895-2.602,7.892-3.629,11.889
	c-10.881,5.508-21.852,3.592-32.139,0.168C159.981,71.414,160.431,70.141,160.866,68.912z M135.512,85.19
	c2.231,0.717,5.046,1.804,7.346,2.692c10.272,3.969,25.418,9.809,41.824,7.511c-3.016,6.602-7.432,12.747-14.84,18.15
	c-4.684-0.343-9.187-0.854-13.494-1.345c-6.803-0.775-13.443-1.527-19.733-1.433C135.455,104.129,134.341,94.382,135.512,85.19z
	 M138.54,137.022c-1.605-1.981-3.118-4.031-4.54-6.134c5.344-0.498,12.204,0.278,20.085,1.176
	c22.777,2.595,52.992,6.017,87.371-15.618c0.46,16.209-5.137,31.053-16.89,40.578C201.328,175.856,162.737,166.882,138.54,137.022z
	 M389.286,79.359h-56.64V57.783h56.64V79.359z M384.151,99.352c0.879,11.36,2.444,21.917,4.521,31.769l-27.708,15.062
	l-27.706-15.061c2.078-9.853,3.643-20.409,4.521-31.769h46.37V99.352z M328.126,151.088l28.065,15.256
	c1.489,0.81,3.131,1.214,4.774,1.214c1.642,0,3.286-0.405,4.774-1.214l28.066-15.257c2.429,7.99,5.162,15.479,8.074,22.544
	l-40.914,22.24l-40.913-22.24C322.962,166.567,325.696,159.077,328.126,151.088z M338.597,19.993h44.736V37.79h-44.736V19.993z
	 M425.163,491.834H296.768c-11.065,0-20.772-6.37-20.772-13.632V278.146c0-20.062,9.787-37.895,22.178-60.473
	c4.392-8,9.061-16.518,13.609-25.78l44.407,24.14c1.489,0.809,3.131,1.214,4.774,1.214c1.642,0,3.286-0.405,4.774-1.214
	l44.408-24.14c4.549,9.262,9.219,17.781,13.61,25.781c12.392,22.576,22.178,40.409,22.179,60.472v175.813h-33.861
	c-5.521,0-9.997,4.475-9.997,9.997s4.475,9.997,9.997,9.997h33.861v4.249C445.936,485.462,436.229,491.834,425.163,491.834z"/>
<path d="M380.705,453.962h-0.291c-5.521,0-9.997,4.475-9.997,9.997s4.475,9.997,9.997,9.997h0.291c5.521,0,9.997-4.475,9.997-9.997
	C390.701,458.437,386.225,453.962,380.705,453.962z"/>
<path d="M360.965,282.633c-30.062,0-54.52,28.161-54.52,62.778c0,34.615,24.458,62.777,54.52,62.777
	c30.062,0,54.52-28.161,54.52-62.777C415.486,310.794,391.028,282.633,360.965,282.633z M360.965,388.194
	c-19.039,0-34.526-19.193-34.526-42.784s15.489-42.785,34.526-42.785c19.038,0,34.526,19.194,34.526,42.785
	C395.493,369,380.004,388.194,360.965,388.194z"/>
<path d="M158.695,396.822c19.27-19.335,29.385-52.238,29.252-95.156c0.001-0.042,0.001-0.085,0-0.128
	c-0.085-23.924-3.314-49.001-9.338-72.525c-1.129-4.407-5.089-7.495-9.639-7.516l-104.307-0.48c-0.016,0-0.031,0-0.046,0
	c-4.584,0-8.585,3.121-9.698,7.572c-5.87,23.486-8.929,48.556-8.846,72.499c0.043,12.675,1.009,24.569,2.849,35.537
	c0.008,0.082,0.008,0.163,0.018,0.246c0.054,0.428,0.143,0.843,0.247,1.251c3.181,18.027,8.76,33.49,16.589,45.654
	c10.559,16.403,25.096,26.672,41.635,29.648l0.393,78.34l-30.36-0.147c-0.017,0-0.033,0-0.049,0c-5.498,0-9.969,4.444-9.996,9.949
	c-0.027,5.521,4.428,10.019,9.949,10.045l40.485,0.196c0.006,0,0.011,0.001,0.017,0.001c0.017,0,0.034,0,0.051,0
	c0.003,0,0.005,0,0.008,0l40.347,0.195c0.017,0,0.033,0,0.049,0c5.498,0,9.969-4.444,9.996-9.949
	c0.027-5.521-4.428-10.019-9.949-10.045l-30.556-0.148l-0.394-78.385C139.06,411.45,149.742,405.805,158.695,396.822z
	 M161.043,241.454c3.881,17.165,6.182,35.014,6.763,52.392c-16.772,3.189-37.07,0.982-56.785-1.165
	c-15.018-1.636-30.429-3.303-44.733-2.649c0.629-16.309,2.731-32.952,6.245-48.985L161.043,241.454z M71.079,344.851
	c4.406-0.06,9.273,0.096,14.8,0.475l1.638,0.117c5.496,0.405,10.301-3.725,10.708-9.23c0.408-5.506-3.725-10.301-9.23-10.708
	l-1.749-0.125c-7.444-0.511-13.924-0.659-19.781-0.441c-0.565-4.771-0.961-9.747-1.183-14.908
	c12.812-0.714,27.349,0.869,42.572,2.527c13.186,1.437,26.61,2.898,39.602,2.898c6.541,0,12.965-0.389,19.2-1.32
	c-1.596,30.975-9.655,55.058-23.122,68.572c-7.69,7.715-16.753,11.627-26.941,11.627c-0.001,0-0.003,0-0.004,0h-0.182
	C95.42,394.234,78.9,375.757,71.079,344.851z"/>
<path d="M127.207,339.422c0.577-5.491-3.408-10.409-8.898-10.985l-0.524-0.056c-5.491-0.575-10.411,3.402-10.991,8.892
	c-0.58,5.491,3.402,10.411,8.892,10.991l0.536,0.057c0.355,0.038,0.707,0.056,1.056,0.056
	C122.329,348.376,126.668,344.558,127.207,339.422z"/>
<g>
</g>
<g>
</g>
<g>
</g>
<g>
</g>
<g>
</g>
<g>
</g>
<g>
</g>
<g>
</g>
<g>
</g>
<g>
</g>
<g>
</g>
<g>
</g>
<g>
</g>
<g>
</g>
<g>
</g>
</svg>
