<svg id="christmas" viewBox="-21 0 512 512" xmlns="http://www.w3.org/2000/svg"><path d="m108.425781 310.65625-75.773437 131.246094h400.695312l-75.773437-131.246094" fill="#00dba8"/><path d="m233 10-90.378906 156.539062h180.757812zm0 0" fill="#00dba8"/><path d="m357.574219 310.65625h26.355469l-83.203126-144.113281h-135.453124l-83.203126 144.113281h196.058594" fill="#00ad85"/><path d="m314.476562 320.660156c-.660156 0-1.3125-.070312-1.960937-.199218-.640625-.132813-1.269531-.320313-1.871094-.570313-.597656-.25-1.179687-.558594-1.730469-.921875-.539062-.359375-1.046874-.777344-1.519531-1.238281-1.859375-1.859375-2.917969-4.441407-2.917969-7.070313 0-.648437.058594-1.308594.1875-1.960937.132813-.640625.320313-1.257813.570313-1.867188.25-.601562.5625-1.183593.921875-1.730469.367188-.539062.777344-1.050781 1.238281-1.511718.46875-.46875.980469-.878906 1.519531-1.25.550782-.359375 1.132813-.667969 1.730469-.917969.601563-.25 1.230469-.441406 1.871094-.570313 1.289063-.261718 2.617187-.261718 3.910156 0 .640625.128907 1.269531.320313 1.867188.570313.601562.25 1.183593.558594 1.730469.917969.539062.371094 1.0625.78125 1.519531 1.25.460937.460937.882812.972656 1.242187 1.511718.359375.550782.667969 1.128907.917969 1.730469.25.609375.441406 1.226563.570313 1.867188.128906.652343.191406 1.3125.191406 1.960937 0 2.628906-1.0625 5.210938-2.921875 7.070313-.457031.460937-.976563.878906-1.519531 1.238281-.550782.359375-1.128907.671875-1.730469.921875-.597657.25-1.226563.441406-1.867188.570313-.640625.128906-1.300781.199218-1.949219.199218zm0 0"/><path d="m252 108.585938c0 10.496093-8.507812 19-19 19s-19-8.503907-19-19c0-10.492188 8.507812-19 19-19s19 8.507812 19 19zm0 0" fill="#f74659"/><path d="m233 137.585938c-15.988281 0-29-13.007813-29-29 0-15.988282 13.011719-29 29-29s29 13.011718 29 29c0 15.992187-13.011719 29-29 29zm0-38c-4.964844 0-9 4.039062-9 9 0 4.964843 4.035156 9 9 9s9-4.035157 9-9c0-4.960938-4.039062-9-9-9zm0 0"/><path d="m297 189.042969c0 12.425781-10.074219 22.5-22.5 22.5s-22.5-10.074219-22.5-22.5 10.074219-22.5 22.5-22.5 22.5 10.074219 22.5 22.5zm0 0" fill="#feec76"/><path d="m271 333.023438c0 12.425781-10.074219 22.5-22.5 22.5s-22.5-10.074219-22.5-22.5c0-12.425782 10.074219-22.5 22.5-22.5s22.5 10.074218 22.5 22.5zm0 0" fill="#ffd739"/><path d="m214 248.898438c0 12.425781-10.074219 22.5-22.5 22.5s-22.5-10.074219-22.5-22.5c0-12.425782 10.074219-22.5 22.5-22.5s22.5 10.074218 22.5 22.5zm0 0" fill="#b8ecff"/><path d="m218.355469 395.816406h241.695312v106.183594h-241.695312zm0 0" fill="#ff6b6b"/><path d="m10 441.902344h208.359375v60.097656h-208.359375zm0 0" fill="#b8ecff"/><path d="m114.179688 367.414062h104.179687v74.488282h-104.179687zm0 0" fill="#feec76"/><path d="m407.5 477.171875-23.886719 8.496094.695313-25.34375-15.460938-20.09375 24.320313-7.167969 14.332031-20.914062 14.332031 20.914062 24.320313 7.167969-15.460938 20.09375.695313 25.34375zm0 0" fill="#feec76"/><path d="m191.5 216.398438c-17.921875 0-32.5 14.578124-32.5 32.5 0 17.921874 14.578125 32.5 32.5 32.5s32.5-14.578126 32.5-32.5c0-17.921876-14.578125-32.5-32.5-32.5zm0 45c-6.894531 0-12.5-5.605469-12.5-12.5 0-6.890626 5.605469-12.5 12.5-12.5s12.5 5.609374 12.5 12.5c0 6.894531-5.609375 12.5-12.5 12.5zm0 0"/><path d="m460.050781 385.816406h-47.535156l-37.621094-65.160156h9.035157c3.574218 0 6.875-1.90625 8.660156-5s1.785156-6.90625 0-10l-74.542969-129.117188h5.332031c3.570313 0 6.875-1.902343 8.660156-5 1.785157-3.09375 1.785157-6.902343 0-10l-90.378906-156.539062c-1.785156-3.09375-5.089844-5-8.660156-5s-6.875 1.90625-8.660156 5l-90.378906 156.539062c-1.785157 3.097657-1.785157 6.90625 0 10 1.785156 3.097657 5.089843 5 8.660156 5h5.332031l-74.542969 129.117188c-1.789062 3.09375-1.789062 6.90625 0 10 1.785156 3.09375 5.085938 5 8.660156 5h9.132813l-63.5 111.242188h-17.703125c-5.523438 0-10 4.480468-10 10v60.101562c0 5.523438 4.476562 10 10 10h450.054688c5.519531 0 10-4.476562 10-10v-106.183594c-.003907-5.523437-4.480469-10-10.003907-10zm-10 45.207032c-.347656-.148438-.703125-.277344-1.070312-.382813l-20.910157-6.164063-12.324218-17.980468c-.160156-.234375-.328125-.460938-.507813-.679688h34.8125zm-241.695312.875h-84.175781v-54.484376h84.175781zm20-26.082032h171.40625c-.179688.21875-.351563.445313-.511719.679688l-12.320312 17.980468-20.90625 6.160157c-3.164063.933593-5.664063 3.367187-6.683594 6.503906-1.019532 3.136719-.429688 6.574219 1.582031 9.1875l6.417969 8.339844h-138.984375zm194.410156 48.410156c-1.402344 1.824219-2.136719 4.074219-2.070313 6.375l.292969 10.753907-10.136719-3.601563c-1.085937-.386718-2.21875-.578125-3.351562-.578125-1.136719 0-2.269531.191407-3.351562.578125l-10.140626 3.601563.296876-10.757813c.0625-2.296875-.667969-4.546875-2.070313-6.371094l-6.5625-8.53125 10.320313-3.042968c2.207031-.648438 4.121093-2.039063 5.421874-3.9375l6.082032-8.875 6.085937 8.875c1.300781 1.898437 3.214844 3.289062 5.421875 3.9375l10.320313 3.042968zm-3.414063 37.773438h-23.703124l11.851562-4.214844zm-132.351562-302.960938c0 6.894532-5.605469 12.5-12.5 12.5s-12.5-5.605468-12.5-12.5c0-6.890624 5.605469-12.5 12.5-12.5 6.890625 0 12.5 5.609376 12.5 12.5zm-54-159.039062 73.058594 126.539062h-146.117188zm-118.769531 290.65625h104.214843c-1.980468 4.792969-2.84375 10.160156-2.269531 15.773438 1.589844 15.5625 14.402344 27.925781 30.007813 29.011718 18.964844 1.320313 34.816406-13.730468 34.816406-32.417968 0-4.378907-.871094-8.558594-2.449219-12.375 5.59375-.234376 10-5.0625 9.542969-10.808594-.417969-5.25-5.027344-9.183594-10.292969-9.183594h-169.277343c-.0625 0-.128907 0-.191407 0h-8.941406l71.65625-124.117188h73.453125c-2.007812 4.796876-2.894531 10.175782-2.335938 15.804688 1.535157 15.496094 14.203126 27.878906 29.726563 29.09375 16.636719 1.304688 30.9375-10.003906 34.339844-25.359375l60.378906 104.578125h-8.910156c-.007813 0-.015625 0-.027344 0-7.707031-.074219-12.59375 8.25-8.785156 14.949219.042969.078125.074219.132812.089843.160156l40.445313 70.050781h-161.066406v-18.402344c0-5.523437-4.476563-10-10-10h-104.175781c-5.523438 0-10 4.476563-10 10v64.484376h-53.449219zm136.09375 0c6.03125.886719 10.675781 6.09375 10.675781 12.367188 0 6.890624-5.605469 12.5-12.5 12.5s-12.5-5.609376-12.5-12.5c0-6.273438 4.644531-11.480469 10.675781-12.367188zm-230.324219 131.242188h188.355469v40.101562h-188.355469zm208.355469 22.769531h145.308593c.082032 0 .164063-.003907.246094-.003907l-.292968 10.730469c-.066407 2.429688.75 4.765625 2.253906 6.605469h-147.515625zm210.769531 17.332031c1.503906-1.839844 2.324219-4.179688 2.257812-6.609375l-.601562-21.785156 9.269531-12.046875v40.441406zm0 0"/></svg>