<?xml version="1.0" encoding="iso-8859-1"?>
<!-- Generator: Adobe Illustrator 19.0.0, SVG Export Plug-In . SVG Version: 6.00 Build 0)  -->
<svg version="1.1" id="diploma" xmlns="http://www.w3.org/2000/svg" xmlns:xlink="http://www.w3.org/1999/xlink" x="0px" y="0px"
	 viewBox="0 0 512 512" style="enable-background:new 0 0 512 512;" xml:space="preserve">
<rect x="198" y="10" style="fill:#FFFFFF;" width="304" height="378"/>
<path style="fill:#FF4A4A;" d="M335.248,502.534v-59.175c0-8.114,6.638-14.752,14.752-14.752l0,0
	c8.113,0,14.752,6.638,14.752,14.752v59.175H335.248z"/>
<path style="fill:#00298E;" d="M87.44,414.789L10,365.106l169.717-108.885l169.717,108.885l-77.598,49.784L87.44,414.789z"/>
<path style="fill:#0049A0;" d="M123.009,452.217c21.994,0,41.946,9.32,56.655,24.458c14.71-15.137,34.662-24.458,56.655-24.458
	c11.466,0,22.38,2.533,32.288,7.098l4.07-70.664c0,0-46.799-19.327-93.11-19.327s-84.971,19.327-84.971,19.327l-4.07,70.755
	C100.485,454.784,111.467,452.217,123.009,452.217z"/>
<circle style="fill:#FFC639;" cx="348.99" cy="81.06" r="31"/>
<path d="M255,159.994h190c5.523,0,10-4.477,10-10s-4.477-10-10-10H255c-5.523,0-10,4.477-10,10S249.477,159.994,255,159.994z"/>
<path d="M255,209h190c5.523,0,10-4.477,10-10s-4.477-10-10-10H255c-5.523,0-10,4.477-10,10S249.477,209,255,209z"/>
<path d="M255,258.006h190c5.523,0,10-4.477,10-9.999s-4.477-10-10-10H255c-5.523,0-10,4.477-10,10S249.477,258.006,255,258.006z"/>
<path d="M445,287.013h-88.333c-5.523,0-10,4.478-10,10s4.477,10,10,10H445c5.523,0,10-4.478,10-10S450.523,287.013,445,287.013z"/>
<path d="M319.435,287.013h-0.124c-5.523,0-10,4.478-10,10s4.477,10,10,10h0.124c5.523,0,10-4.478,10-10
	S324.958,287.013,319.435,287.013z"/>
<path d="M502,0H198c-5.523,0-10,4.477-10,10v239.614l-3.167-2.032c-3.293-2.112-7.516-2.111-10.807,0.006L4.592,356.51
	c-2.868,1.844-4.599,5.022-4.592,8.433c0.007,3.409,1.75,6.581,4.626,8.413l75.899,48.363v38.859c0,3.367,1.695,6.509,4.51,8.358
	c2.815,1.848,6.371,2.156,9.461,0.819c9.016-3.901,18.609-5.88,28.511-5.88c18.616,0,36.278,7.108,49.732,20.016
	c1.935,1.856,4.428,2.784,6.923,2.784c2.494,0,4.988-0.928,6.923-2.783c13.455-12.908,31.117-20.017,49.732-20.017
	c9.84,0,19.375,1.953,28.34,5.805c3.091,1.327,6.641,1.015,9.449-0.837c2.809-1.85,4.499-4.987,4.499-8.351v-38.225l60.827-38.95
	v40.44c-8.253,3.8-14,12.143-14,21.809V502c0,5.522,4.477,10,10,10h28c5.523,0,10-4.478,10-10v-56.435
	c0-9.666-5.747-18.009-14-21.809V398H502c5.523,0,10-4.478,10-10V10C512,4.477,507.523,0,502,0z M258.606,446.596
	c-7.241-1.809-14.695-2.721-22.288-2.721c-20.728,0-40.529,6.891-56.655,19.566c-16.126-12.676-35.927-19.566-56.655-19.566
	c-7.661,0-15.18,0.929-22.482,2.77v-49.432c12.487-5.462,44.718-17.888,79.474-17.888c34.557,0,66.308,12.394,78.606,17.848
	L258.606,446.596L258.606,446.596z M278.606,398.519v-7.695c0-3.731-2.078-7.153-5.389-8.873
	c-1.778-0.924-44.106-22.626-93.217-22.626c-49.067,0-92.198,21.665-94.01,22.587c-3.353,1.706-5.464,5.15-5.464,8.912v7.179
	L28.55,364.885l150.889-97.001L330.9,365.032L278.606,398.519z M353.434,492h-8v-46.435c0-2.168,1.832-4,4-4s4,1.832,4,4V492z
	 M492,378H359.434v-12.915c0-0.008-0.001-0.016-0.001-0.023c0-0.006,0.001-0.012,0.001-0.019c0-0.057-0.01-0.113-0.011-0.17
	c-0.007-0.311-0.024-0.619-0.058-0.923c-0.021-0.192-0.055-0.381-0.087-0.571c-0.028-0.165-0.058-0.329-0.094-0.492
	c-0.05-0.226-0.107-0.449-0.172-0.67c-0.028-0.095-0.06-0.188-0.091-0.281c-0.707-2.16-2.122-4.054-4.088-5.315L208,262.442V20h284
	V378z"/>
<path d="M348.994,122.06c22.607,0,41-18.393,41-41s-18.393-41-41-41s-41,18.393-41,41S326.387,122.06,348.994,122.06z
	 M348.994,60.06c11.58,0,21,9.42,21,21s-9.42,21-21,21s-21-9.42-21-21S337.415,60.06,348.994,60.06z"/>
<g>
</g>
<g>
</g>
<g>
</g>
<g>
</g>
<g>
</g>
<g>
</g>
<g>
</g>
<g>
</g>
<g>
</g>
<g>
</g>
<g>
</g>
<g>
</g>
<g>
</g>
<g>
</g>
<g>
</g>
</svg>
