<?xml version="1.0" encoding="iso-8859-1"?>
<!-- Generator: Adobe Illustrator 19.0.0, SVG Export Plug-In . SVG Version: 6.00 Build 0)  -->
<svg version="1.1" id="wedding" xmlns="http://www.w3.org/2000/svg" xmlns:xlink="http://www.w3.org/1999/xlink" x="0px" y="0px"
	 viewBox="0 0 512 512" style="enable-background:new 0 0 512 512;" xml:space="preserve">
<g>
	<circle style="fill:#FCCDAC;" cx="352.016" cy="81.077" r="35.999"/>
	<circle style="fill:#FCCDAC;" cx="141.904" cy="46.018" r="35.999"/>
</g>
<path style="fill:#FFFFFF;" d="M352.464,248.5h-0.905c-61.603,0-111.542,49.939-111.542,111.542v141.957h223.991V360.042
	C464.007,298.439,414.067,248.5,352.464,248.5z"/>
<path style="fill:#D0E6EF;" d="M352.464,248.5h-0.905c-61.603,0-111.542,49.939-111.542,111.542v86.434
	c4.023,1.058,8.244,1.627,12.599,1.627h0.401c27.282,0,49.398-22.116,49.398-49.397c0,27.281,22.116,49.397,49.397,49.397h0.401
	c27.282,0,49.398-22.116,49.398-49.397c0,27.281,22.116,49.397,49.398,49.397h0.401c4.355,0,8.576-0.569,12.598-1.627v-86.434
	C464.007,298.439,414.067,248.5,352.464,248.5z"/>
<path style="fill:#FFFFFF;" d="M384.258,150.348L384.258,150.348c-17.809,0-32.247,14.437-32.247,32.247
	c0-17.809-14.437-32.247-32.247-32.247l0,0c-17.809,0-32.247,14.437-32.247,32.247v16.212l0,0c0,27.415,22.224,49.638,49.638,49.638
	h29.711c27.415,0,49.638-22.224,49.638-49.638l0,0v-16.212C416.505,164.785,402.068,150.348,384.258,150.348z"/>
<polygon style="fill:#657FC9;" points="204.112,302.009 192.945,502 144.02,502 144.02,502 95.095,502 83.929,302.009 "/>
<polygon style="fill:#8CCEEA;" points="210.813,302.009 240.016,302.009 240.016,131.265 181.662,101.517 106.378,101.517 
	47.972,131.265 47.972,302.009 75.854,302.009 "/>
<polygon style="fill:#F25353;" points="202.018,112.319 202.018,150.515 143.592,208.939 85.168,150.515 85.168,112.319 "/>
<path style="fill:#D0E6EF;" d="M144.02,185.013l-37.642-83.497h75.284L144.02,185.013z"/>
<path d="M386.51,303.645l0.32,0.196c1.628,0.995,3.428,1.469,5.206,1.469c3.368,0,6.656-1.701,8.542-4.785
	c2.881-4.712,1.396-10.867-3.316-13.747l-0.353-0.216c-4.717-2.87-10.87-1.376-13.74,3.343
	C380.297,294.621,381.793,300.773,386.51,303.645z"/>
<path d="M418.261,360.042c0,5.522,4.477,10,10,10c5.523,0,10-4.478,10-10c0-16.59-4.739-32.696-13.704-46.575
	c-2.998-4.64-9.188-5.971-13.825-2.975c-4.639,2.997-5.971,9.188-2.974,13.825C414.629,334.957,418.261,347.311,418.261,360.042z"/>
<path d="M183.018,259.01h-10.226c-5.523,0-10,4.478-10,10c0,5.522,4.477,10,10,10h10.226c5.523,0,10-4.478,10-10
	C193.018,263.488,188.541,259.01,183.018,259.01z"/>
<path d="M106.909,279.01h10.226c5.523,0,10-4.478,10-10c0-5.522-4.477-10-10-10h-10.226c-5.523,0-10,4.478-10,10
	C96.909,274.532,101.386,279.01,106.909,279.01z"/>
<path d="M502,491.994h-27.995V360.042c0-50.095-30.466-93.203-73.84-111.783c15.877-10.727,26.338-28.891,26.338-49.452v-16.212
	c0-23.295-18.952-42.246-42.246-42.246c-12.912,0-24.491,5.824-32.247,14.981c-7.756-9.158-19.334-14.981-32.248-14.981
	c-23.295,0-42.246,18.951-42.246,42.246v16.212c0,20.562,10.46,38.725,26.338,49.452c-22.056,9.449-40.769,25.241-53.84,45.069
	V131.265c0-3.76-2.109-7.201-5.458-8.909l-58.354-29.748c-0.002,0.004-0.004,0.007-0.006,0.011
	c-1.385-0.706-2.931-1.102-4.535-1.102H148.66c22.173-3.277,39.245-22.429,39.245-45.498c0-25.363-20.635-45.998-45.998-45.998
	S95.909,20.656,95.909,46.019c0,23.069,17.072,42.221,39.245,45.498h-28.777c-1.603,0-3.147,0.396-4.532,1.101
	c-0.002-0.004-0.005-0.008-0.007-0.012l-58.406,29.748c-3.351,1.707-5.461,5.15-5.461,8.911v170.744c0,5.522,4.477,10,10,10h26.499
	l10.05,179.986H10c-5.523,0-10,4.478-10,10c0,5.522,4.477,10,10,10H502c5.523,0,10-4.478,10-10
	C512,496.472,507.523,491.994,502,491.994z M115.908,46.019c0-14.336,11.664-25.999,25.999-25.999s25.999,11.663,25.999,25.999
	s-11.664,25.999-25.999,25.999C127.572,72.018,115.908,60.356,115.908,46.019z M250.016,491.994V458.04
	c0.866,0.038,1.732,0.064,2.6,0.064h0.401c20.574,0,38.734-10.519,49.397-26.457c10.664,15.938,28.823,26.457,49.397,26.457h0.401
	c20.575,0,38.734-10.519,49.398-26.457c10.664,15.938,28.823,26.457,49.397,26.457h0.401c0.868,0,1.734-0.026,2.6-0.064v33.954
	L250.016,491.994L250.016,491.994z M297.517,182.595c0-12.268,9.98-22.247,22.248-22.247c12.268,0,22.247,9.98,22.247,22.247
	c0,5.522,4.477,10,10,10s10-4.478,10-10c0-12.268,9.98-22.247,22.247-22.247c12.267,0,22.247,9.98,22.247,22.247v16.212
	c0,21.857-17.782,39.639-39.639,39.639h-29.71c-21.857,0-39.639-17.781-39.639-39.639L297.517,182.595L297.517,182.595z
	 M351.559,258.499h0.905c55.992,0,101.543,45.552,101.543,101.543v38.664v39.312c-0.864,0.057-1.731,0.085-2.6,0.085h-0.401
	c-21.724,0-39.397-17.674-39.397-39.397c0-5.522-4.477-10-10-10c-5.523,0-10,4.478-10,10c0,21.724-17.674,39.397-39.398,39.397
	h-0.401c-21.724,0-39.397-17.674-39.397-39.397c0-5.522-4.477-10-10-10c-5.523,0-10,4.478-10,10
	c0,21.724-17.673,39.397-39.397,39.397h-0.401c-0.868,0-1.735-0.028-2.6-0.085v-39.312v-38.664
	C250.016,304.052,295.568,258.499,351.559,258.499z M230.017,360.042v131.952h-26.498l10.05-179.986h26.353
	C233.553,326.751,230.017,342.99,230.017,360.042z M230.017,292.009h-12v-89.941c0-5.522-4.477-10-10-10s-10,4.478-10,10v89.941
	H154.02v-79.356l55.069-55.068c1.875-1.876,2.929-4.419,2.929-7.071v-22.299l17.999,9.176V292.009z M95.167,118.449l6.406-3.262
	l30.859,68.449l-37.263-37.263L95.167,118.449L95.167,118.449z M186.466,115.19l5.552,2.83v28.353l-35.707,35.707L186.466,115.19z
	 M166.185,111.516l-22.165,49.166l-22.165-49.166C121.855,111.516,166.185,111.516,166.185,111.516z M57.972,137.393l17.196-8.759
	v21.88c0,2.652,1.054,5.195,2.929,7.071l55.924,55.923v78.5H90.022v-89.954c0-5.522-4.477-10-10-10s-10,4.478-10,10v89.954H57.972
	V137.393z M94.501,312.008h99.037l-10.05,179.986H154.02V357.268c0-5.522-4.477-10-10-10s-10,4.478-10,10v134.725h-29.47
	L94.501,312.008z"/>
<path d="M306.013,81.072c0,25.363,20.635,45.998,45.998,45.998s45.998-20.635,45.998-45.998s-20.635-45.998-45.998-45.998
	S306.013,55.708,306.013,81.072z M378.01,81.072c0,14.336-11.664,25.999-25.999,25.999s-25.999-11.663-25.999-25.999
	s11.664-25.999,25.999-25.999S378.01,66.735,378.01,81.072z"/>
<path d="M268.015,151.521c5.523,0,10-4.478,10-10V94.003c0-40.802,33.195-73.997,73.997-73.997s73.997,33.195,73.997,73.997v47.033
	c0,5.522,4.477,10,10,10c5.523,0,10-4.478,10-10V94.003c0-51.83-42.166-93.996-93.996-93.996s-93.996,42.166-93.996,93.996v47.518
	C258.015,147.043,262.492,151.521,268.015,151.521z"/>
<g>
</g>
<g>
</g>
<g>
</g>
<g>
</g>
<g>
</g>
<g>
</g>
<g>
</g>
<g>
</g>
<g>
</g>
<g>
</g>
<g>
</g>
<g>
</g>
<g>
</g>
<g>
</g>
<g>
</g>
</svg>
